<svg xmlns="http://www.w3.org/2000/svg" role="img" viewBox="0 0 120 64.688" width="108" height="58">
  <title>Norton Site Seal</title>
  <path fill="#acb5c0"
    d="M21.95 10.02c-10.29 0-18.67 8.4-18.67 18.72 0 10.32 8.38 18.72 18.67 18.72h77.8c10.29 0 18.66-8.4 18.66-18.72 0-10.32-8.37-18.72-18.66-18.72h-77.8zm77.8 39.04h-77.8c-11.17 0-20.25-9.11-20.25-20.32s9.08-20.32 20.25-20.32h77.8c11.17 0 20.25 9.11 20.25 20.32s-9.09 20.32-20.25 20.32" />
  <path fill="#acb5c0"
    d="M115.29 8.42v.52h-.75v2.53h-.58v-2.53h-.73v-.52zm.42 3.04v-3.04h.79l.53 1.99.54-1.99h.8v3.04h-.48v-2.37h-.01l-.61 2.38h-.43l-.62-2.38h-.01v2.38z" />
  <path fill="#1c1c1c"
    d="M47.83 21.88h3.44l4.72 9.01v-9.01h2.85v14.34h-3.11l-5.04-9.91v9.91h-2.86zM65.32 33.74a2.81 2.81 0 01-2.81-2.81 2.81 2.81 0 012.81-2.81 2.81 2.81 0 012.81 2.81 2.81 2.81 0 01-2.81 2.81m0-8.3c-3.02 0-5.47 2.46-5.47 5.49 0 3.03 2.45 5.48 5.47 5.48 3.02 0 5.47-2.46 5.47-5.48 0-3.03-2.45-5.49-5.47-5.49M84.58 33.89c-.35.1-.88.2-1.08.2-.94 0-1.14-.32-1.14-1.22v-5.07h2.24v-2.12h-2.24v-2.99h-2.5l-.53 2.99h-1.89c-1.44.01-2.52.88-3.21 2.26l-.88-2.26h-1.8v10.53h3.08v-4.58c0-2.31 1.36-3.78 2.97-3.83h1.69v5.23c0 2.46 1.26 3.38 3.31 3.38a7.33 7.33 0 002.35-.39l-.36-2.14zM90.41 33.74a2.81 2.81 0 01-2.81-2.81 2.81 2.81 0 012.81-2.81 2.81 2.81 0 012.81 2.81 2.81 2.81 0 01-2.81 2.81m0-8.3c-3.02 0-5.47 2.46-5.47 5.49 0 3.03 2.45 5.48 5.47 5.48 3.02 0 5.47-2.46 5.47-5.48 0-3.03-2.45-5.49-5.47-5.49M99.61 29.01v7.2h-3v-10.52h1.82l.61 1.61zm-.54-1.71c.91-1.06 2.16-1.86 3.62-1.86 2.5 0 3.52 2 3.52 3.85v6.92h-3.09v-6.83c0-.9-.75-1.39-1.56-1.39-.86 0-1.42.5-1.91 1.03" />
  <path fill="#fac212"
    d="M21.85 13.75a14.84 14.84 0 00-10.57 4.39 14.92 14.92 0 00-4.37 10.6c0 4 1.56 7.76 4.38 10.6a14.84 14.84 0 0010.57 4.39 14.85 14.85 0 0010.57-4.39 14.94 14.94 0 004.38-10.6 14.93 14.93 0 00-4.38-10.6 14.83 14.83 0 00-10.56-4.39m0 36.91c-12.05 0-21.86-9.84-21.86-21.92 0-12.09 9.81-21.92 21.86-21.92 12.05 0 21.85 9.83 21.85 21.92 0 12.08-9.81 21.92-21.85 21.92M45.66 3.44h1.7v1.71h-1.7zm0-3.4h1.7v1.71h-1.7zM40.87 5.14h1.59v1.67h-1.59z" />
  <path fill="#1c1c1c"
    d="M39.32 10.01v1.61h-1.6v-1.61h-2.66v1.16h-1.44v1.43h1.59v1.59h-1.59v-1.59h-1.69v2.5h-1.6v1.59h-1.06v1.6h-1.17c-1.31 1.96-4.6 8.06-5.6 10.55-3.58-5-6.37-6.99-8.56-7.71-1.18-.36-2.61.94-.64 2.97 4.51 4.98 5.93 9.1 7.3 12.38.73 1.73 3.98 2 4.63.24 1.39-3.73 3.4-7.92 5.79-11.36v-1.78h1.27v-1.61h1.34v-1.86h1.6v-1.8h-1.62v-1.63h1.62v1.63h1.58l0-1.62h1.27v-1.95h1.43v-1.34h1.37v-3.39h-1.55zm-1.61-1.59h1.6v1.6h-1.6zm4.75-1.61h1.78v1.61h-1.78zm-6.35.08h1.6v1.53h-1.6zm4.75 1.53h1.59v1.6h-1.59zm3.11-6.67h1.69v1.69h-1.69zm-3.11 1.69h3.11v1.7h-3.11zm-1.54 1.7h1.55v3.28h-1.55z" />
  <path fill="#1973bb"
    d="M73.95 59.31c0 .64.15 1.15.46 1.54.31.39.71.58 1.21.58.48 0 .89-.18 1.21-.53s.49-.89.49-1.6c0-.57-.15-1.06-.44-1.48-.29-.42-.7-.63-1.23-.63-.48 0-.89.19-1.21.57-.33.38-.49.9-.49 1.55m-1.16 0c0-.94.25-1.69.75-2.25.5-.57 1.14-.85 1.93-.85.26 0 .49.03.71.09.22.06.39.14.52.23.13.09.24.19.34.28.1.09.17.17.2.23l.05.09h.02a2.96 2.96 0 01-.02-.4v-2.74h1.13v8.26h-1.07v-.56l.01-.4h-.02c-.02.03-.04.07-.06.12a2.4 2.4 0 01-.2.26 1.82 1.82 0 01-.36.34 2.08 2.08 0 01-.55.26 2.38 2.38 0 01-.76.12c-.79 0-1.43-.28-1.9-.85-.47-.57-.7-1.32-.7-2.25m6.59-2.96h1.13v5.92h-1.13v-5.92zm-.01-2.34h1.14v1.16h-1.14v-1.16zm4.82 7.21c.46 0 .83-.16 1.13-.48.29-.32.44-.84.44-1.56 0-1.33-.56-1.99-1.67-1.99-.51 0-.9.17-1.19.52-.28.35-.43.82-.43 1.43 0 .62.15 1.13.46 1.5.31.38.73.57 1.25.57m-1.95 2.13c.49.27 1.03.4 1.62.4.56 0 1.01-.14 1.35-.4.34-.27.51-.69.51-1.26v-.43l.01-.38h-.02c-.37.62-.95.93-1.75.93-.8 0-1.44-.29-1.92-.86-.48-.57-.72-1.3-.72-2.17 0-.87.23-1.59.69-2.14.46-.55 1.09-.82 1.89-.82.26 0 .51.03.73.09.23.06.4.13.54.22.13.09.24.18.34.26.09.09.15.16.19.22l.06.08h.02a1.31 1.31 0 01-.01-.19v-.55h1.08v5.68c0 .47-.08.88-.25 1.24a2.13 2.13 0 01-.68.85c-.29.21-.6.36-.95.46a3.86 3.86 0 01-1.1.15 4.35 4.35 0 01-2.02-.49l.37-.89zm5.57-7h1.13v5.92h-1.13v-5.92zm-.01-2.34h1.14v1.16h-1.14v-1.16zm1.97 5.3c0-.88.3-1.62.89-2.21.59-.59 1.35-.89 2.27-.89a3.3 3.3 0 011.21.22c.37.14.63.29.79.44l.22.21-.54.8a4.61 4.61 0 00-.2-.19c-.09-.08-.28-.18-.56-.3a2.16 2.16 0 00-.87-.19c-.59 0-1.08.2-1.47.6-.39.4-.58.9-.58 1.51s.2 1.12.59 1.52c.39.41.89.61 1.5.61.33 0 .64-.07.95-.2.3-.13.53-.27.67-.4l.21-.2.46.83-.1.1a2.89 2.89 0 01-.29.23c-.15.11-.31.2-.48.29a3.78 3.78 0 01-.66.23c-.27.07-.55.1-.83.1-.93 0-1.68-.29-2.27-.88-.59-.58-.89-1.32-.89-2.22m6.86-.69h3.15c-.02-.49-.16-.87-.43-1.12a1.38 1.38 0 00-1-.39c-.44 0-.82.13-1.14.4-.32.26-.51.64-.59 1.11m-1.2.69c0-.93.28-1.68.83-2.25.56-.57 1.26-.85 2.12-.85.8 0 1.43.26 1.88.79.45.52.68 1.19.68 1.99l-.04.49h-4.3c.03.62.24 1.11.62 1.45.39.34.85.51 1.41.51.3 0 .6-.06.89-.18.29-.12.51-.23.65-.34l.21-.18.47.83a2.84 2.84 0 01-.28.23c-.12.09-.39.22-.78.38a3.32 3.32 0 01-1.23.23c-.92 0-1.67-.29-2.25-.88-.58-.59-.87-1.33-.87-2.22m6.32 2.96v-5.92h1.1v1.03l-.02.45h.02a2.38 2.38 0 01.71-1.11c.33-.29.72-.43 1.16-.43l.29.02v1.12a1.54 1.54 0 00-1.33.34c-.3.25-.52.59-.65 1.02a3.65 3.65 0 00-.14 1.06v2.42h-1.13zm4.7-2.17v-2.74h-.77v-.91h.81v-1.71h1.1v1.71h1.42v.91h-1.42v2.63c0 .23.03.42.09.59.06.17.14.3.23.39.09.09.19.17.32.22.12.06.23.09.33.1.1.02.2.02.3.02l.27-.02v1.01a3.88 3.88 0 01-.93-.01 2.23 2.23 0 01-.58-.18 1.87 1.87 0 01-.57-.37c-.16-.15-.29-.37-.41-.65a2.67 2.67 0 01-.17-.98m3.29-4.57a.69.69 0 01-.69-.69.69.69 0 111.37 0c0 .38-.31.69-.69.69m0-1.55a.85.85 0 00-.85.86.85.85 0 101.71 0 .86.86 0 00-.86-.86m-.2.86h.19a.17.17 0 00.12-.05.18.18 0 00.04-.13c0-.07-.03-.12-.07-.15a.3.3 0 00-.13-.02h-.15v.34zm-.13.49v-.95h.29c.08 0 .14.01.18.02a.23.23 0 01.12.1.3.3 0 01.04.16.28.28 0 01-.05.16.24.24 0 01-.12.1v0a.29.29 0 01.03.04l.2.37h-.15l-.2-.38h-.2v.38h-.13z" />
  <path fill="#717d87"
    d="M17.87 59.35c0-.66-.14-1.18-.42-1.56-.28-.38-.66-.57-1.15-.57-.6 0-1.05.27-1.35.81v2.79c.3.53.75.8 1.37.8.48 0 .86-.19 1.14-.57.28-.38.42-.94.42-1.69m1 .11c0 .89-.2 1.6-.61 2.15-.41.54-.95.82-1.65.82-.71 0-1.26-.23-1.67-.68v2.81h-1v-8.09h.91l.05.65c.41-.5.97-.76 1.69-.76.7 0 1.25.27 1.66.79.41.53.61 1.26.61 2.21v.09zm1.94 0c0 .65.15 1.17.45 1.56.3.39.7.59 1.2.59.51 0 .91-.2 1.21-.59.3-.4.45-.95.45-1.67 0-.64-.15-1.16-.45-1.56a1.45 1.45 0 00-1.21-.6c-.49 0-.89.2-1.19.59-.3.39-.45.95-.45 1.68m-1-.12c0-.57.11-1.09.34-1.54.22-.46.54-.81.94-1.06a2.55 2.55 0 011.37-.37c.79 0 1.43.28 1.92.82.49.55.73 1.28.73 2.2v.07c0 .57-.11 1.08-.33 1.53a2.48 2.48 0 01-.93 1.05 2.58 2.58 0 01-1.39.38c-.79 0-1.43-.28-1.92-.82-.49-.55-.73-1.28-.73-2.19v-.07zm11.64 1.6 1.12-4.46h.99l-1.7 5.84h-.81l-1.42-4.42-1.38 4.42h-.81l-1.69-5.84h.99l1.15 4.37 1.36-4.37h.8zm5.36-3.75c-.4 0-.74.15-1.01.44-.27.29-.44.7-.51 1.23h2.92v-.08c-.03-.51-.17-.9-.41-1.18-.24-.28-.57-.42-.99-.42m.13 5.23c-.79 0-1.43-.26-1.93-.78-.5-.52-.74-1.22-.74-2.09v-.18c0-.58.11-1.1.33-1.55.22-.46.53-.81.93-1.07s.82-.39 1.29-.39c.76 0 1.35.25 1.77.75.42.5.63 1.22.63 2.15v.42h-3.94c.01.58.18 1.04.5 1.4.32.35.73.53 1.22.53.35 0 .65-.07.89-.21.24-.14.46-.34.64-.57l.61.47c-.49.75-1.22 1.13-2.19 1.13m6.18-5.05a3.01 3.01 0 00-.49-.04c-.65 0-1.1.28-1.33.84v4.14h-1v-5.84h.97l.02.67c.33-.52.79-.78 1.39-.78.19 0 .34.03.44.08v.93zm3.15-.18c-.4 0-.74.15-1.01.44-.27.29-.44.7-.51 1.23h2.92v-.08c-.03-.51-.17-.9-.41-1.18-.24-.28-.57-.42-.99-.42m.12 5.23c-.79 0-1.43-.26-1.93-.78-.5-.52-.74-1.22-.74-2.09v-.18c0-.58.11-1.1.33-1.55.22-.46.53-.81.93-1.07a2.32 2.32 0 011.29-.39c.76 0 1.35.25 1.77.75.42.5.63 1.22.63 2.15v.42h-3.94c.01.58.18 1.04.5 1.4.32.35.73.53 1.22.53.35 0 .65-.07.89-.21.24-.14.46-.34.64-.57l.61.47c-.49.75-1.22 1.13-2.19 1.13m4.12-2.96c0 .66.14 1.18.41 1.55.27.37.65.56 1.13.56.63 0 1.09-.28 1.38-.85v-2.68c-.3-.55-.76-.83-1.37-.83-.49 0-.87.19-1.14.57-.27.38-.41.94-.41 1.68m-.99-.11c0-.9.21-1.62.64-2.16.42-.54.97-.82 1.66-.82.68 0 1.22.23 1.62.7v-3.05h.99v8.29h-.91l-.05-.63c-.4.49-.95.73-1.66.73-.68 0-1.22-.28-1.65-.83-.42-.56-.64-1.28-.64-2.17v-.07zm13.01 0c0-.68-.13-1.21-.39-1.57-.26-.37-.64-.56-1.13-.56-.66 0-1.13.31-1.42.92v2.52c.3.61.78.92 1.43.92.48 0 .85-.19 1.11-.56.27-.37.4-.93.4-1.67m1 .11c0 .89-.2 1.61-.61 2.15-.41.54-.96.81-1.65.81-.73 0-1.3-.26-1.71-.78l-.05.68h-.95v-8.3h.99v3.09c.4-.5.96-.75 1.66-.75.71 0 1.26.27 1.67.8.4.54.6 1.27.6 2.2v.09zm3.1 1.39 1.35-4.38h1.06l-2.34 6.74c-.36.97-.94 1.46-1.73 1.46l-.19-.02-.37-.07v-.81l.27.02c.34 0 .6-.07.79-.2.19-.14.34-.39.47-.75l.22-.59-2.08-5.77h1.09l1.45 4.38z" />
</svg>
