<svg xmlns="http://www.w3.org/2000/svg" role="img" viewBox="0 0 92 38" width="92" height="38">
  <title>Trusted Site</title>
  <path fill="#fff" d="M2 0h88a2 2 0 0 1 2 2v36H0V2a2 2 0 0 1 2-2Z" />
  <path fill="#80c600"
    d="M82.54 13.11c0-.48-.21-1.27-1.13-1.27-.84 0-1.18.75-1.23 1.27h2.36zm-2.35 1.34c.07.81.88 1.2 1.81 1.2.68 0 1.23-.09 1.77-.26l.26 1.33c-.66.26-1.45.39-2.32.39-2.17 0-3.42-1.24-3.42-3.21 0-1.6 1.01-3.36 3.24-3.36 2.07 0 2.86 1.58 2.86 3.14 0 .34-.04.63-.07.77h-4.13zm-3.63-5.58v1.8h1.43v1.44h-1.43v2.28c0 .76.18 1.11.79 1.11.25 0 .45-.03.59-.05l.01 1.48c-.26.1-.73.17-1.3.17-.64 0-1.18-.22-1.49-.54-.37-.37-.55-.98-.55-1.87v-2.57h-.85v-1.44h.85v-1.37l1.95-.44zm-5.63 8.1h1.99v-6.3h-1.99v6.3zm2.06-8.05c0 .54-.42.98-1.07.98-.63 0-1.05-.44-1.03-.98-.01-.57.41-.99 1.05-.99s1.05.42 1.06.99zm-8.68 6.02c.54.27 1.36.54 2.21.54.92 0 1.4-.37 1.4-.94 0-.54-.42-.85-1.48-1.22-1.47-.5-2.42-1.3-2.42-2.56 0-1.48 1.26-2.61 3.34-2.61 1 0 1.73.21 2.25.44l-.45 1.58a4.26 4.26 0 00-1.85-.41c-.86 0-1.28.39-1.28.84 0 .55.5.8 1.64 1.22 1.56.57 2.29 1.36 2.29 2.59 0 1.46-1.14 2.69-3.56 2.69-1.01 0-2-.26-2.5-.53l.41-1.62zM85.56 10.66v.52h-.31v-1.29c.12-.02.29-.04.51-.04.25 0 .36.04.46.09.07.06.13.16.13.28 0 .14-.11.25-.28.3v.01c.13.05.2.14.24.31.04.2.07.27.1.32h-.33c-.04-.05-.07-.16-.1-.31-.03-.14-.11-.2-.28-.2h-.15zm.01-.58v.37h.15c.17 0 .31-.06.31-.19 0-.12-.09-.2-.28-.2a.76.76 0 00-.17.02zm.2-.86c.77 0 1.36.57 1.36 1.29 0 .73-.59 1.3-1.36 1.3-.76 0-1.37-.57-1.37-1.3 0-.71.61-1.29 1.37-1.29zm0 .26c-.59 0-1.03.46-1.03 1.03 0 .57.44 1.03 1.04 1.03a1 1 0 001.01-1.02c0-.57-.43-1.03-1.02-1.03z" />
  <path fill="#323835"
    d="M60.67 13.34c0-.1-.01-.24-.03-.35-.12-.53-.55-.97-1.17-.97-.9 0-1.38.8-1.38 1.79 0 1.07.54 1.74 1.36 1.74a1.16 1.16 0 001.15-.94 1.61 1.61 0 00.05-.45v-.82zm1.99-5.51v7.26c0 .71.03 1.46.05 1.88h-1.77l-.09-.93h-.03c-.41.71-1.18 1.07-2 1.07-1.52 0-2.74-1.27-2.74-3.23-.01-2.12 1.34-3.35 2.87-3.35.79 0 1.4.27 1.69.71h.03v-3.41h1.99zm-8.91 5.28c0-.48-.21-1.27-1.13-1.27-.84 0-1.18.75-1.23 1.27h2.36zm-2.35 1.34c.07.81.88 1.2 1.81 1.2.68 0 1.23-.09 1.77-.26l.26 1.33c-.66.26-1.46.39-2.32.39-2.17 0-3.42-1.24-3.42-3.21 0-1.6 1.01-3.36 3.24-3.36 2.07 0 2.86 1.58 2.86 3.14 0 .34-.04.63-.07.77h-4.13zm-3.6-5.58v1.8h1.43v1.44h-1.43v2.28c0 .76.18 1.11.79 1.11.25 0 .45-.03.59-.05l.01 1.48c-.26.1-.73.17-1.3.17-.64 0-1.18-.22-1.49-.54-.37-.37-.55-.98-.55-1.87v-2.57h-.85v-1.44h.85v-1.37l1.95-.44zm-7.75 6.39c.37.22 1.13.48 1.72.48.6 0 .85-.21.85-.53 0-.32-.2-.48-.94-.72-1.32-.44-1.83-1.15-1.82-1.89 0-1.17 1.02-2.06 2.61-2.06.75 0 1.42.17 1.81.36l-.35 1.35c-.29-.15-.84-.36-1.39-.36-.48 0-.76.19-.76.52 0 .3.25.45 1.03.72 1.22.41 1.73 1.02 1.74 1.95 0 1.17-.94 2.03-2.78 2.03-.84 0-1.59-.18-2.07-.44l.35-1.4zm-1.1-.31c0 .82.03 1.49.05 2.02h-1.73l-.09-.89h-.04c-.25.39-.85 1.03-2 1.03-1.3 0-2.25-.8-2.25-2.74v-3.69h2.01v3.39c0 .91.3 1.47 1 1.47.55 0 .86-.37.99-.68.05-.12.07-.27.07-.42v-3.75h2v4.28zm-10.85-2.2c0-.93-.03-1.53-.05-2.07h1.72l.07 1.16h.05c.33-.91 1.11-1.3 1.73-1.3.18 0 .28 0 .42.03v1.84a2.9 2.9 0 00-.54-.05c-.73 0-1.23.39-1.36.99-.03.13-.04.28-.04.44v3.19h-1.99v-4.22zm-4.34-2.81h-2.37v-1.65h6.79v1.65h-2.41v7.03h-2z" />
  <path fill="#80c600" d="M14.94 19.07H5v-9.62C5 7.54 6.59 6 8.56 6h9.94v9.62c0 1.9-1.59 3.45-3.56 3.45" />
  <path fill="#fefefe"
    d="M15.74 8.68a.29.29 0 00-.4 0l-5.01 4.92a.29.29 0 01-.4 0l-1.82-1.79a.29.29 0 00-.4 0L6.5 12.99a.28.28 0 000 .39l3.43 3.37c.11.11.29.11.4 0l6.61-6.5a.28.28 0 000-.39l-1.2-1.18Z" />
  <path fill="#f2f3f3" d="M0 25h92v13H0z" />
  <path fill="#67666a" fill-opacity=".747"
    d="M8.71 28.8c-.54 0-.96.19-1.26.57-.31.38-.46.91-.46 1.57 0 .7.15 1.23.44 1.59.29.36.72.54 1.28.54.24 0 .48-.03.7-.07.23-.05.46-.11.71-.19v.8c-.45.17-.96.25-1.52.25-.84 0-1.48-.25-1.93-.76-.45-.51-.67-1.23-.67-2.17 0-.59.11-1.11.33-1.56.22-.44.53-.79.94-1.02.41-.24.89-.35 1.45-.35.58 0 1.12.12 1.62.37l-.34.78a5.02 5.02 0 00-.61-.24 2.2 2.2 0 00-.68-.1Zm6.57 4.99h-3.23v-5.71h3.23v.79h-2.3v1.55h2.15v.78h-2.15V33h2.3v.79Zm2.87-3.06h.65c.43 0 .75-.08.95-.24.2-.16.29-.4.29-.72 0-.32-.11-.55-.32-.69-.21-.14-.53-.21-.95-.21h-.62v1.87Zm0 .77v2.28h-.93v-5.71h1.61c.74 0 1.28.14 1.64.41.35.28.53.69.53 1.25 0 .71-.37 1.22-1.11 1.52l1.61 2.53h-1.06l-1.37-2.28h-.92Zm6.85 2.28h-.93v-4.91h-1.68v-.8h4.29v.8h-1.68v4.91Zm3.25 0v-5.71h.93v5.71h-.93Zm4.07 0h-.93v-5.71h3.22v.79h-2.3v1.78h2.15v.79h-2.15v2.34Zm4.03 0v-5.71h.93v5.71h-.93Zm6.37 0h-3.23v-5.71h3.23v.79h-2.3v1.55h2.15v.78H40.43V33h2.3v.79Zm6.58-2.91c0 .94-.26 1.66-.79 2.16-.52.5-1.28.75-2.26.75h-1.6v-5.71h1.77c.91 0 1.62.24 2.12.73.51.49.76 1.18.76 2.07Zm-.98.03c0-1.37-.64-2.05-1.92-2.05h-.81v4.14h.66c1.38 0 2.06-.7 2.06-2.09Zm8.98 1.33c0 .51-.18.91-.55 1.2-.37.29-.87.43-1.52.43-.65 0-1.17-.1-1.59-.3v-.88c.26.12.54.22.83.29.29.07.57.1.82.1.37 0 .64-.07.82-.21a.69.69 0 00.26-.57.71.71 0 00-.24-.54c-.16-.15-.49-.32-1-.53-.52-.21-.89-.45-1.1-.72a1.53 1.53 0 01-.32-.98c0-.48.17-.85.51-1.13.34-.27.79-.41 1.36-.41.55 0 1.09.12 1.63.36l-.3.76c-.51-.21-.96-.32-1.36-.32-.3 0-.53.07-.69.2a.65.65 0 00-.23.52c0 .15.03.28.09.38a.96.96 0 00.31.3c.14.09.4.22.77.37.42.17.73.34.92.49.2.15.34.32.43.51.09.19.14.41.14.67Zm5.04 1.55h-3.23v-5.71h3.23v.79h-2.3v1.55h2.15v.78h-2.15V33h2.3v.79Zm4.36-4.99c-.54 0-.96.19-1.27.57-.31.38-.46.91-.46 1.57 0 .7.15 1.23.44 1.59.3.36.72.54 1.28.54.24 0 .48-.03.7-.07.23-.05.46-.11.71-.19v.8c-.45.17-.96.25-1.52.25-.84 0-1.48-.25-1.93-.76-.45-.51-.67-1.23-.67-2.17 0-.59.11-1.11.33-1.56.22-.44.53-.79.94-1.02.41-.24.9-.35 1.45-.35.58 0 1.12.12 1.62.37l-.34.78a5.02 5.02 0 00-.61-.24 2.2 2.2 0 00-.68-.1Zm7.82-.72v3.69c0 .42-.09.79-.27 1.11-.18.32-.44.56-.79.73-.34.17-.75.26-1.23.26-.71 0-1.26-.19-1.65-.56-.39-.38-.59-.89-.59-1.55v-3.68h.94v3.61c0 .47.11.82.33 1.04.22.22.56.34 1.01.34.88 0 1.32-.46 1.32-1.39v-3.61h.93Zm3.09 2.66h.65c.43 0 .75-.08.94-.24.2-.16.29-.4.29-.72 0-.32-.1-.55-.32-.69-.21-.14-.53-.21-.95-.21h-.62v1.87Zm0 .77v2.28h-.93v-5.71h1.61c.74 0 1.28.14 1.64.41.35.28.53.69.53 1.25 0 .71-.37 1.22-1.11 1.52l1.61 2.53h-1.06l-1.37-2.28h-.92Zm8.11 2.28h-3.23v-5.71h3.23v.79H83.43v1.55h2.15v.78H83.43V33h2.3v.79Z" />
</svg>
