<?xml version="1.0" standalone="no"?>
<!DOCTYPE svg PUBLIC "-//W3C//DTD SVG 1.1//EN" "http://www.w3.org/Graphics/SVG/1.1/DTD/svg11.dtd" >
<svg xmlns="http://www.w3.org/2000/svg" xmlns:xlink="http://www.w3.org/1999/xlink" version="1.1">
<metadata>
Created by FontForge 20190801 at Thu Jul  6 09:10:17 2017
 By Jimmy Wärting
Copyright 2017 OMSE LTD. All rights reserved.
</metadata>
<defs>
<font id="ModernEra-Bold" horiz-adv-x="0" >
  <font-face 
    font-family="Modern Era Bold"
    font-weight="700"
    font-stretch="normal"
    units-per-em="1000"
    panose-1="2 0 0 0 0 0 0 0 0 0"
    ascent="785"
    descent="-215"
    x-height="499"
    cap-height="700"
    bbox="-502 -252 1081 937"
    underline-thickness="104"
    underline-position="-310"
    unicode-range="U+000D-FB02"
  />
<missing-glyph horiz-adv-x="828" 
d="M232 35q-84 49 -133 132.5t-49 182.5t49 182.5t133 132.5t182 49q99 0 182.5 -49t132.5 -132.5t49 -182.5t-49 -182.5t-132.5 -132.5t-182.5 -49q-98 0 -182 49zM564 91.5q69 40.5 109.5 109t40.5 149.5t-40.5 149.5t-109.5 109t-150 40.5t-149.5 -40.5t-109 -109
t-40.5 -149.5t40.5 -149.5t109 -109t149.5 -40.5t150 40.5zM258.5 368q-18.5 18 -18.5 43q0 26 18.5 44t43.5 18t43 -18t18 -44q0 -25 -18 -43t-43 -18t-43.5 18zM483 368q-18 18 -18 43q0 26 18 44t43 18q26 0 44 -18t18 -44q0 -25 -18.5 -43t-43.5 -18t-43 18z" />
    <glyph glyph-name=".notdef" horiz-adv-x="828" 
d="M232 35q-84 49 -133 132.5t-49 182.5t49 182.5t133 132.5t182 49q99 0 182.5 -49t132.5 -132.5t49 -182.5t-49 -182.5t-132.5 -132.5t-182.5 -49q-98 0 -182 49zM564 91.5q69 40.5 109.5 109t40.5 149.5t-40.5 149.5t-109.5 109t-150 40.5t-149.5 -40.5t-109 -109
t-40.5 -149.5t40.5 -149.5t109 -109t149.5 -40.5t150 40.5zM258.5 368q-18.5 18 -18.5 43q0 26 18.5 44t43.5 18t43 -18t18 -44q0 -25 -18 -43t-43 -18t-43.5 18zM483 368q-18 18 -18 43q0 26 18 44t43 18q26 0 44 -18t18 -44q0 -25 -18.5 -43t-43.5 -18t-43 18z" />
    <glyph glyph-name=".null" 
 />
    <glyph glyph-name="nonmarkingreturn" unicode="&#xd;" horiz-adv-x="280" 
 />
    <glyph glyph-name="NULL" 
 />
    <glyph glyph-name="NULL" 
 />
    <glyph glyph-name="space" unicode=" " horiz-adv-x="280" 
 />
    <glyph glyph-name="exclam" unicode="!" horiz-adv-x="297" 
d="M88 700h122v-495h-122v495zM95 16.5q-22 23.5 -22 52.5t22 52t53 23t53.5 -23t22.5 -53q0 -31 -23 -53t-53 -22q-31 0 -53 23.5z" />
    <glyph glyph-name="quotedbl" unicode="&#x22;" horiz-adv-x="375" 
d="M226 740h120v-241h-120v241zM29 740h120v-241h-120v241z" />
    <glyph glyph-name="numbersign" unicode="#" horiz-adv-x="761" 
d="M588 433l-23 -166h136v-98h-149l-23 -169h-106l23 169h-180l-23 -169h-105l23 169h-132v98h145l23 166h-137v98h150l23 169h105l-23 -169h181l23 169h105l-23 -169h131v-98h-144zM482 433h-180l-23 -166h181z" />
    <glyph glyph-name="dollar" unicode="$" horiz-adv-x="563" 
d="M478 91.5q-47 -50.5 -126 -67.5v-74h-122v73q-74 12 -123 58t-69 122l116 33q16 -59 47 -84.5t86 -25.5q52 0 84 22.5t32 64.5q0 30 -23.5 51t-94.5 33q-113 21 -170.5 68t-57.5 128q0 73 48 123t125 64v70h122v-73q62 -14 103.5 -57t58.5 -113l-116 -32q-14 54 -40 77.5
t-72 23.5q-51 0 -79 -22t-28 -61q0 -31 28.5 -48t99.5 -31q112 -23 165 -70.5t53 -130.5q0 -71 -47 -121.5z" />
    <glyph glyph-name="percent" unicode="%" horiz-adv-x="764" 
d="M127.5 427q-35.5 19 -56.5 53t-21 77t20 77t54 53.5t74 19.5q42 0 77 -19t55.5 -53.5t20.5 -77.5t-19.5 -77t-53 -53t-74.5 -19t-76.5 19zM560 700h113l-473 -700h-112zM252.5 506q19.5 20 19.5 51q0 34 -20 53t-52 19q-30 0 -49.5 -19.5t-19.5 -52.5q0 -32 21 -51.5
t52 -19.5q29 0 48.5 20zM488.5 12q-34.5 19 -55 53.5t-20.5 77.5t20 76.5t54.5 52.5t75.5 19t75.5 -19t55 -53t20.5 -76q0 -44 -20 -78t-54.5 -53t-75.5 -19t-75.5 19zM616 90.5q20 20.5 20 52.5q0 33 -20.5 53t-50.5 20q-31 0 -51.5 -20t-20.5 -53q0 -32 21 -52.5t52 -20.5
q30 0 50 20.5z" />
    <glyph glyph-name="ampersand" unicode="&#x26;" horiz-adv-x="580" 
d="M564 323h-65v-115q0 -64 -30 -115t-81 -79t-112 -28q-69 0 -123 27.5t-84.5 78t-30.5 115.5q0 55 24.5 99.5t68.5 72.5q-58 55 -58 136q0 57 28.5 102.5t77.5 71t109 25.5q82 0 134 -40.5t67 -108.5l-106 -27q-7 33 -33.5 52.5t-61.5 19.5q-44 0 -72.5 -26t-28.5 -68
t28.5 -68t70.5 -26h100v60h113v-61h65v-98zM386 324h-103q-52 0 -87.5 -32t-35.5 -83t33.5 -82t82.5 -31q46 0 78 31t32 82v115z" />
    <glyph glyph-name="quotesingle" unicode="'" horiz-adv-x="178" 
d="M29 740h120v-241h-120v241z" />
    <glyph glyph-name="parenleft" unicode="(" horiz-adv-x="280" 
d="M72.5 26q-38.5 123 -38.5 274t39 273t92 196l94 -62q-47 -66 -78 -170t-31 -239q0 -133 32 -237t80 -171l-99 -61q-52 74 -90.5 197z" />
    <glyph glyph-name="parenright" unicode=")" horiz-adv-x="280" 
d="M18 -109q48 67 80 171t32 237q0 135 -31 239t-78 170l94 62q53 -74 92 -196t39 -273t-38.5 -274t-90.5 -197z" />
    <glyph glyph-name="asterisk" unicode="*" horiz-adv-x="447" 
d="M293 532l75 -103l-70 -51l-75 103l-74 -103l-70 51l75 103l-120 39l25 82l121 -39v126h87v-126l120 38l26 -81z" />
    <glyph glyph-name="plus" unicode="+" horiz-adv-x="600" 
d="M244 295h-194v110h194v195h112v-195h194v-110h-194v-195h-112v195z" />
    <glyph glyph-name="comma" unicode="," horiz-adv-x="210" 
d="M70 -54q12 28 13 50q-25 9 -39.5 27t-14.5 44q0 32 21.5 54.5t53.5 22.5q33 0 55 -22t22 -64q0 -45 -24 -102t-67 -98l-49 37q17 23 29 51z" />
    <glyph glyph-name="hyphen" unicode="-" horiz-adv-x="376" 
d="M50 355h276v-110h-276v110z" />
    <glyph glyph-name="period" unicode="." horiz-adv-x="209" 
d="M51 15q-22 22 -22 53t22 53.5t53 22.5q32 0 54 -22t22 -54q0 -31 -22.5 -53t-53.5 -22t-53 22z" />
    <glyph glyph-name="slash" unicode="/" horiz-adv-x="449" 
d="M300 700h120l-271 -700h-120z" />
    <glyph glyph-name="zero" unicode="0" horiz-adv-x="604" 
d="M107.5 88q-66.5 101 -66.5 264q0 104 28.5 186t87.5 129.5t146 47.5q86 0 144.5 -47.5t87 -129.5t28.5 -186q0 -105 -28 -187t-86.5 -130t-144.5 -48q-130 0 -196.5 101zM407 168q34 68 34 183q0 113 -34.5 182t-103.5 69q-71 0 -105.5 -69t-34.5 -182
q0 -116 34.5 -183.5t106.5 -67.5q69 0 103 68z" />
    <glyph glyph-name="one" unicode="1" horiz-adv-x="371" 
d="M167 564q-26 -17 -69 -31.5t-77 -18.5v123q32 5 72.5 22.5t73.5 40.5h122v-700h-122v564z" />
    <glyph glyph-name="two" unicode="2" horiz-adv-x="562" 
d="M55 113l236 206q57 49 82 85.5t25 86.5q0 46 -32.5 78t-84.5 32q-57 0 -92.5 -37t-34.5 -98l-113 31q3 64 36 113.5t86.5 76.5t117.5 27q66 0 121 -29t86.5 -79.5t31.5 -113.5q0 -77 -35.5 -132t-107.5 -118l-148 -129h292v-113h-466v113z" />
    <glyph glyph-name="three" unicode="3" horiz-adv-x="582" 
d="M160.5 14q-55.5 28 -86.5 75.5t-33 103.5l112 33q2 -54 39.5 -90.5t94.5 -36.5t94.5 36t37.5 90q0 55 -36.5 90.5t-95.5 35.5q-21 0 -47 -8l-62 74l173 170h-286v113h430v-113l-139 -141q80 -10 132.5 -67t52.5 -154q0 -68 -33 -122.5t-90.5 -85.5t-130.5 -31
q-71 0 -126.5 28z" />
    <glyph glyph-name="four" unicode="4" horiz-adv-x="571" 
d="M341 177h-314v91l305 432h130l1 -419h81v-104h-81l-1 -177h-122zM341 281l-1 250l-180 -250h181z" />
    <glyph glyph-name="five" unicode="5" horiz-adv-x="579" 
d="M164.5 13q-55.5 27 -88.5 72t-35 98l113 34q3 -54 40.5 -86t92.5 -32q56 0 92.5 35.5t37.5 91.5q-1 56 -38 91.5t-93 35.5q-36 0 -65 -13.5t-46 -34.5l-105 39l36 356h385v-114h-280l-17 -153q15 10 42.5 17.5t59.5 7.5q70 0 125 -28.5t86 -81t31 -121.5
q0 -72 -33 -126.5t-90 -84.5t-128 -30q-67 0 -122.5 27z" />
    <glyph glyph-name="six" unicode="6" horiz-adv-x="588" 
d="M105 72.5q-64 86.5 -64 244.5q0 192 61.5 294.5t202.5 102.5q92 0 147.5 -47.5t76.5 -128.5l-108 -32q-14 46 -41 70.5t-75 24.5q-70 0 -101 -51t-36 -146q15 20 52.5 38.5t90.5 18.5q66 0 120 -29t85 -83t31 -124q0 -71 -32.5 -125t-89.5 -84t-128 -30q-128 0 -192 86.5
zM389 133.5q36 35.5 36 91.5q0 57 -35.5 91.5t-92.5 34.5q-55 0 -91 -35.5t-36 -90.5q0 -54 35.5 -90.5t91.5 -36.5t92 35.5z" />
    <glyph glyph-name="seven" unicode="7" horiz-adv-x="514" 
d="M225.5 309.5q61.5 171.5 124.5 277.5h-323v113h460v-113q-68 -107 -135 -278.5t-90 -308.5h-122q24 138 85.5 309.5z" />
    <glyph glyph-name="eight" unicode="8" horiz-adv-x="576" 
d="M511.5 304.5q23.5 -43.5 23.5 -97.5q0 -64 -32 -114.5t-88.5 -78.5t-126.5 -28t-126.5 28t-88.5 78.5t-32 114.5q0 53 23.5 97t64.5 72q-30 26 -46 61.5t-16 77.5q0 58 29 103t79.5 70.5t112.5 25.5t112.5 -25.5t79.5 -71t29 -102.5q0 -42 -16.5 -77.5t-46.5 -60.5
q42 -29 65.5 -72.5zM215.5 447.5q29.5 -25.5 72.5 -25.5t72.5 25.5t29.5 68.5q0 42 -29 68t-73 26t-73 -26t-29 -68q0 -43 29.5 -68.5zM377 127q36 31 36 82t-36.5 83t-88.5 32t-88.5 -32t-36.5 -83t36 -82t89 -31t89 31z" />
    <glyph glyph-name="nine" unicode="9" horiz-adv-x="588" 
d="M483 627.5q64 -86.5 64 -244.5q0 -192 -61.5 -294.5t-202.5 -102.5q-92 0 -147.5 47.5t-76.5 128.5l108 32q14 -46 41 -70.5t75 -24.5q70 0 101 51t36 146q-15 -20 -52.5 -38.5t-90.5 -18.5q-66 0 -120 29t-85 83t-31 124q0 71 32.5 125t89.5 84t128 30q128 0 192 -86.5z
M199 566.5q-36 -35.5 -36 -91.5q0 -57 35.5 -91.5t92.5 -34.5q55 0 91 35.5t36 90.5q0 54 -35.5 90.5t-91.5 36.5t-92 -35.5z" />
    <glyph glyph-name="colon" unicode=":" horiz-adv-x="209" 
d="M51 314q-22 22 -22 53t22 53.5t53 22.5q32 0 54 -22t22 -54q0 -31 -22.5 -53t-53.5 -22t-53 22zM51 15q-22 22 -22 53t22 53.5t53 22.5q32 0 54 -22t22 -54q0 -31 -22.5 -53t-53.5 -22t-53 22z" />
    <glyph glyph-name="semicolon" unicode=";" horiz-adv-x="216" 
d="M58 314q-22 22 -22 53q0 32 22.5 54t53.5 22t53 -22.5t22 -53.5t-22 -53t-53 -22q-32 0 -54 22zM70 -57q12 28 13 50q-25 9 -39.5 27t-14.5 44q0 32 21.5 54.5t53.5 22.5q33 0 55 -22t22 -64q0 -45 -24 -102t-67 -98l-49 37q17 23 29 51z" />
    <glyph glyph-name="less" unicode="&#x3c;" horiz-adv-x="600" 
d="M50 411l501 210v-123l-355 -148l355 -148v-122l-501 209v122z" />
    <glyph glyph-name="equal" unicode="=" horiz-adv-x="600" 
d="M50 528h500v-110h-500v110zM50 283h500v-110h-500v110z" />
    <glyph glyph-name="greater" unicode="&#x3e;" horiz-adv-x="600" 
d="M551 411v-122l-501 -209v122l355 148l-355 148v123z" />
    <glyph glyph-name="question" unicode="?" horiz-adv-x="527" 
d="M382.5 686q54.5 -29 85 -79.5t30.5 -112.5q0 -75 -42.5 -132t-122.5 -80v-83h-121v161h27q68 0 104.5 37t37.5 92q0 48 -33 80.5t-85 32.5q-59 0 -91.5 -34.5t-32.5 -91.5l-110 30q3 61 33.5 108.5t82 74t116.5 26.5q67 0 121.5 -29zM326 122q22 -22 22 -53t-22 -53.5
t-53 -22.5t-53.5 22.5t-22.5 53.5t22.5 53t53.5 22t53 -22z" />
    <glyph glyph-name="at" unicode="@" horiz-adv-x="832" 
d="M607 569.5q83 -44.5 129 -126.5t46 -190q0 -84 -43.5 -133.5t-116.5 -49.5q-39 0 -68 14.5t-43 39.5q-48 -54 -115 -54q-70 0 -108 47.5t-38 114.5q0 48 20 91.5t58.5 70.5t91.5 27q33 0 57.5 -12.5t37.5 -29.5l6 33h72l-19 -226q5 -34 47 -34q34 0 54.5 29.5t20.5 71.5
q0 85 -34 148t-97 97t-148 34q-78 0 -142 -37.5t-101 -102.5t-37 -143t37 -143t101 -103t142 -38q43 0 83.5 13t68.5 33l48 -66q-35 -27 -89 -44t-111 -17q-101 0 -185 48t-133 131.5t-49 185.5q0 99 49 183t133.5 133t184.5 49q107 0 190 -44.5zM476.5 182q24.5 32 24.5 74
q0 36 -19 60.5t-56 24.5q-43 0 -68 -32t-25 -74q0 -36 19.5 -60.5t57.5 -24.5q42 0 66.5 32z" />
    <glyph glyph-name="A" unicode="A" horiz-adv-x="688" 
d="M487 157h-286l-58 -157h-125l262 700h128l262 -700h-125zM446 267l-102 275l-102 -275h204z" />
    <glyph glyph-name="B" unicode="B" horiz-adv-x="610" 
d="M73 700h257q105 0 160.5 -51t55.5 -136q0 -100 -88 -147v-2q45 -15 78.5 -54.5t33.5 -107.5q0 -60 -28.5 -106t-81 -71t-121.5 -25h-266v700zM326 407q50 0 75.5 25t25.5 70q0 44 -26.5 67.5t-74.5 23.5h-131v-186h131zM338 107q55 0 82.5 27.5t27.5 71.5q0 45 -28 72.5
t-86 27.5h-139v-199h143z" />
    <glyph glyph-name="C" unicode="C" horiz-adv-x="750" 
d="M219.5 32q-79.5 45 -124.5 127.5t-45 191.5q0 104 44.5 187t123.5 130t180 47q113 0 195 -56t117 -162l-117 -38q-20 67 -68.5 105t-125.5 38q-65 0 -117 -33t-81 -90.5t-29 -128.5q0 -74 30 -131t82.5 -88.5t117.5 -31.5q76 0 123 36t67 94l115 -38q-38 -98 -115 -151
t-192 -53q-101 0 -180.5 45z" />
    <glyph glyph-name="D" unicode="D" horiz-adv-x="704" 
d="M73 700h243q110 0 186 -46t114 -125t38 -178q0 -102 -41.5 -181.5t-118 -124.5t-175.5 -45h-246v700zM315 110q114 0 165.5 70t51.5 172q0 106 -51 172t-175 66h-111v-480h120z" />
    <glyph glyph-name="E" unicode="E" horiz-adv-x="558" 
d="M73 700h440v-110h-318v-184h276v-107h-276v-189h318v-110h-440v700z" />
    <glyph glyph-name="F" unicode="F" horiz-adv-x="557" 
d="M73 700h439v-110h-317v-201h277v-107h-277v-282h-122v700z" />
    <glyph glyph-name="G" unicode="G" horiz-adv-x="786" 
d="M218 33q-80 47 -124 129.5t-44 187.5q0 102 44.5 185t124 131t179.5 48q120 0 195 -53t108 -141l-115 -40q-47 121 -182 121q-67 0 -120 -34t-82.5 -91.5t-29.5 -125.5q0 -71 29.5 -128.5t83 -90t121.5 -32.5q66 0 109.5 27t65 68.5t24.5 87.5h-152v104h273v-386h-83
l-18 79q-24 -33 -81 -63t-144 -30q-102 0 -182 47z" />
    <glyph glyph-name="H" unicode="H" horiz-adv-x="699" 
d="M73 700h122v-287h309v287h122v-700h-122v300h-309v-300h-122v700z" />
    <glyph glyph-name="I" unicode="I" horiz-adv-x="268" 
d="M73 700h122v-700h-122v700z" />
    <glyph glyph-name="J" unicode="J" horiz-adv-x="527" 
d="M131 9.5q-48 23.5 -76 67t-30 102.5v49l119 -23v-13q0 -42 24.5 -67.5t71.5 -25.5t71 29.5t24 81.5v490h122v-487q0 -112 -59 -169.5t-159 -57.5q-60 0 -108 23.5z" />
    <glyph glyph-name="K" unicode="K" horiz-adv-x="659" 
d="M271 320l-77 -83v-237h-121v700h121v-294l11 11l-5 7l12 1l254 275h158l-269 -289l286 -412h-152z" />
    <glyph glyph-name="L" unicode="L" horiz-adv-x="527" 
d="M73 700h122v-588h306v-112h-428v700z" />
    <glyph glyph-name="M" unicode="M" horiz-adv-x="882" 
d="M807 0h-121v474l-202 -474h-86l-201 471l-1 -471h-121v700h137l229 -536l229 536h137v-700z" />
    <glyph glyph-name="N" unicode="N" horiz-adv-x="731" 
d="M75 700h126l333 -501v501h122v-700h-125l-334 501v-501h-122v700z" />
    <glyph glyph-name="O" unicode="O" horiz-adv-x="815" 
d="M218.5 36.5q-81.5 49.5 -125 132.5t-43.5 182t43.5 182t124.5 132.5t190 49.5q107 0 188 -49.5t125 -132.5t44 -182t-44 -182t-125 -132.5t-188 -49.5q-108 0 -189.5 49.5zM532 132.5q53 32.5 82 89.5t29 129q0 71 -29 128.5t-82.5 90t-123.5 32.5q-71 0 -124.5 -32.5
t-82.5 -89.5t-29 -129t29 -129t82.5 -89.5t124.5 -32.5t124 32.5z" />
    <glyph glyph-name="P" unicode="P" horiz-adv-x="601" 
d="M73 700h250q103 0 171 -55.5t68 -166.5q0 -73 -32.5 -123.5t-85.5 -75.5t-115 -25h-134v-254h-122v700zM314 364q63 0 94.5 31.5t31.5 82.5t-32.5 81.5t-94.5 30.5h-118v-226h119z" />
    <glyph glyph-name="Q" unicode="Q" horiz-adv-x="815" 
d="M746 228q-19 -59 -54 -106l71 -71l-81 -79l-72 73q-86 -58 -202 -58q-108 0 -189.5 49.5t-125 132.5t-43.5 182t43.5 182t124.5 132.5t190 49.5q107 0 188 -49.5t125 -132.5t44 -182q0 -64 -19 -123zM526 129l-78 78l81 78l77 -77q37 62 37 143q0 71 -29 128.5t-82.5 90
t-123.5 32.5q-71 0 -124.5 -32.5t-82.5 -89.5t-29 -129t29 -129t82.5 -89.5t124.5 -32.5q66 0 118 29z" />
    <glyph glyph-name="R" unicode="R" horiz-adv-x="626" 
d="M73 700h256q71 0 123 -27t78.5 -74.5t26.5 -106.5q0 -79 -38.5 -130t-98.5 -71l167 -291h-135l-153 274h-104v-274h-122v700zM321 381q54 0 84.5 28.5t30.5 76.5q0 49 -31 76.5t-86 27.5h-124v-209h126z" />
    <glyph glyph-name="S" unicode="S" horiz-adv-x="602" 
d="M132.5 38q-69.5 51 -94.5 148l114 33q19 -63 54 -92.5t100 -29.5q61 0 98.5 26t37.5 74q0 38 -30 63t-107 38q-123 23 -185 73t-62 137q0 60 31.5 107t87.5 73.5t128 26.5q96 0 159 -50t86 -141l-114 -32q-15 57 -45.5 85t-85.5 28q-57 0 -91 -25t-34 -72q0 -39 34.5 -59
t112.5 -36q122 -24 179.5 -75.5t57.5 -140.5q0 -62 -34 -110t-93 -74t-131 -26q-104 0 -173.5 51z" />
    <glyph glyph-name="T" unicode="T" horiz-adv-x="578" 
d="M228 587h-202v113h526v-113h-202v-587h-122v587z" />
    <glyph glyph-name="U" unicode="U" horiz-adv-x="696" 
d="M208 16q-62 30 -98.5 94.5t-36.5 163.5v426h122v-420q0 -93 38.5 -137t114.5 -44q153 0 153 181v420h122v-427q0 -147 -76 -217t-199 -70q-78 0 -140 30z" />
    <glyph glyph-name="V" unicode="V" horiz-adv-x="687" 
d="M669 700l-259 -700h-133l-259 700h131l195 -540l194 540h131z" />
    <glyph glyph-name="W" unicode="W" horiz-adv-x="955" 
d="M937 700l-197 -700h-122l-142 527l-139 -527h-122l-197 700h126l136 -519l137 519h122l137 -512l135 512h126z" />
    <glyph glyph-name="X" unicode="X" horiz-adv-x="673" 
d="M512 0l-175 259l-175 -259h-144l239 355l-230 345h145l165 -248l165 248h144l-228 -342l237 -358h-143z" />
    <glyph glyph-name="Y" unicode="Y" horiz-adv-x="645" 
d="M261 273l-243 427h134l170 -305l171 305h134l-244 -427v-273h-122v273z" />
    <glyph glyph-name="Z" unicode="Z" horiz-adv-x="612" 
d="M42 107l374 483h-350v110h503v-107l-375 -483h372v-110h-524v107z" />
    <glyph glyph-name="bracketleft" unicode="[" horiz-adv-x="246" 
d="M34 769h178v-107h-68v-726h68v-107h-178v940z" />
    <glyph glyph-name="backslash" unicode="\" horiz-adv-x="439" 
d="M290 0l-271 700h120l271 -700h-120z" />
    <glyph glyph-name="bracketright" unicode="]" horiz-adv-x="246" 
d="M34 -63h68v726h-68v107h178v-940h-178v107z" />
    <glyph glyph-name="asciicircum" unicode="^" horiz-adv-x="653" 
d="M469 350l-142 239l-143 -239h-134l210 350h133l210 -350h-134z" />
    <glyph glyph-name="underscore" unicode="_" horiz-adv-x="500" 
d="M0 -50h500v-104h-500v104z" />
    <glyph glyph-name="grave" unicode="`" horiz-adv-x="567" 
d="M119 705h147l69 -134h-102z" />
    <glyph glyph-name="a" unicode="a" horiz-adv-x="510" 
d="M121 5q-39 19 -62 54t-23 81q0 63 43.5 106.5t153.5 58.5l107 15v6q0 91 -92 91q-46 0 -69.5 -20.5t-29.5 -60.5l-106 26q21 76 71 113.5t138 37.5q90 0 149 -46.5t59 -138.5v-328h-101l-13 45q-42 -59 -139 -59q-47 0 -86 19zM311 107.5q29 24.5 29 67.5v58l-99 -15
q-47 -7 -68.5 -23.5t-21.5 -47.5q0 -29 23.5 -46.5t64.5 -17.5q43 0 72 24.5z" />
    <glyph glyph-name="b" unicode="b" horiz-adv-x="614" 
d="M238 8q-40 22 -63 53l-16 -61h-99v700h120v-257q23 30 62.5 50t92.5 20q70 0 125 -35t85.5 -95t30.5 -133q0 -72 -31.5 -132.5t-87 -96t-123.5 -35.5q-56 0 -96 22zM416.5 138q39.5 44 39.5 112q0 67 -39.5 111t-99.5 44t-98.5 -43.5t-38.5 -111.5t38.5 -112t98.5 -44
t99.5 44z" />
    <glyph glyph-name="c" unicode="c" horiz-adv-x="560" 
d="M163 20.5q-59 34.5 -92 95t-33 134.5q0 73 33 133.5t92 95t133 34.5q82 0 142 -43t83 -114l-109 -37q-14 39 -44 61t-72 22q-61 0 -99.5 -42.5t-38.5 -109.5t38.5 -110t99.5 -43q40 0 69.5 20.5t43.5 58.5l109 -37q-26 -70 -84.5 -111.5t-137.5 -41.5q-74 0 -133 34.5z
" />
    <glyph glyph-name="d" unicode="d" horiz-adv-x="614" 
d="M156.5 21.5q-55.5 35.5 -87 96t-31.5 132.5q0 73 31 133t86 95t124 35q53 0 92.5 -20t62.5 -50v257h120v-700h-99l-16 61q-23 -31 -63 -53t-96 -22q-68 0 -123.5 35.5zM396 138q39 44 39 112t-39 111.5t-99 43.5q-39 0 -71 -20t-50 -55.5t-18 -79.5q0 -45 18 -80.5
t50 -55.5t71 -20q60 0 99 44z" />
    <glyph glyph-name="e" unicode="e" horiz-adv-x="564" 
d="M153 210q3 -32 21 -61t48.5 -46.5t68.5 -17.5q48 0 79.5 23t42.5 53l101 -31q-23 -64 -79.5 -104t-143.5 -40q-71 0 -128.5 34t-91 94t-33.5 136q0 74 33.5 134t91 94.5t127.5 34.5q71 0 124.5 -32.5t82.5 -90.5t29 -134v-46h-373zM403 353q-15 26 -43.5 43.5t-68.5 17.5
q-57 0 -92.5 -32.5t-44.5 -79.5h266q-2 25 -17 51z" />
    <glyph glyph-name="f" unicode="f" horiz-adv-x="378" 
d="M106 394h-86v105h86v68q0 69 40.5 108.5t100.5 39.5q49 0 78.5 -13.5t45.5 -29.5l-52 -83q-20 17 -47 17q-46 0 -46 -53v-54h127v-105h-127v-394h-120v394z" />
    <glyph glyph-name="g" unicode="g" horiz-adv-x="606" 
d="M137.5 -170q-57.5 44 -77.5 118l112 25q9 -40 38.5 -62.5t80.5 -22.5q64 0 99.5 33.5t35.5 95.5v61q-18 -31 -57.5 -52.5t-92.5 -21.5q-69 0 -123 33t-84.5 91t-30.5 130q0 71 30.5 129.5t85 92t121.5 33.5q55 0 93.5 -22t57.5 -52l22 60h98v-480q0 -106 -67.5 -169.5
t-187.5 -63.5q-96 0 -153.5 44zM388.5 152q37.5 40 37.5 106q0 67 -37.5 107t-96.5 40t-96.5 -40t-37.5 -107q0 -66 38 -106t97 -40q58 0 95.5 40z" />
    <glyph glyph-name="h" unicode="h" horiz-adv-x="565" 
d="M60 700h119v-256q55 69 148 69q178 0 178 -211v-302h-119v284q0 64 -25.5 90.5t-71.5 26.5q-48 0 -79 -33.5t-31 -94.5v-273h-119v700z" />
    <glyph glyph-name="i" unicode="i" horiz-adv-x="248" 
d="M64 499h120v-499h-120v499zM72.5 588q-20.5 21 -20.5 50t20.5 50t49.5 21t50.5 -21t21.5 -50t-21.5 -50t-50.5 -21t-49.5 21z" />
    <glyph glyph-name="j" unicode="j" horiz-adv-x="255" 
d="M-23.5 -201.5q-29.5 13.5 -44.5 29.5l50 85q16 -16 45 -16q23 0 34.5 14t11.5 40v548h120v-564q0 -69 -41 -109.5t-102 -40.5q-44 0 -73.5 13.5zM82.5 588q-20.5 21 -20.5 50t20.5 50t49.5 21t50.5 -21t21.5 -50t-21.5 -50t-50.5 -21t-49.5 21z" />
    <glyph glyph-name="k" unicode="k" horiz-adv-x="531" 
d="M228 218l-48 -52v-166h-120v700h120v-378l169 178h145l-187 -198l210 -302h-136z" />
    <glyph glyph-name="l" unicode="l" horiz-adv-x="240" 
d="M60 700h120v-700h-120v700z" />
    <glyph glyph-name="m" unicode="m" horiz-adv-x="845" 
d="M60 499h99l16 -59q24 32 64 52.5t90 20.5q52 0 85 -21t50 -54q26 33 66 54t94 21q74 0 117.5 -45.5t43.5 -137.5v-330h-120v297q0 105 -85 105q-43 0 -70 -31t-27 -88v-283h-120v297q0 54 -23 79.5t-63 25.5q-43 0 -70 -30.5t-27 -88.5v-283h-120v499z" />
    <glyph glyph-name="n" unicode="n" horiz-adv-x="567" 
d="M60 499h99l17 -60q56 74 152 74q87 0 133 -52t46 -159v-302h-120v286q0 116 -97 116q-48 0 -79 -33.5t-31 -94.5v-274h-120v499z" />
    <glyph glyph-name="o" unicode="o" horiz-adv-x="595" 
d="M164 21q-59 35 -92.5 95.5t-33.5 133.5t33.5 133t93 95t132.5 35q74 0 133 -35t93 -95t34 -133t-34 -133.5t-93 -95.5t-133 -35t-133 35zM397 140.5q40 43.5 40 109.5t-40 109t-100 43q-61 0 -100 -43t-39 -109q0 -67 39 -110t100 -43q60 0 100 43.5z" />
    <glyph glyph-name="p" unicode="p" horiz-adv-x="614" 
d="M457.5 477.5q55.5 -35.5 87 -96t31.5 -132.5q0 -73 -30.5 -133t-85.5 -95t-125 -35q-53 0 -92.5 20t-62.5 50v-257h-120v700h99l16 -61q23 31 63 53t96 22q68 0 123.5 -35.5zM218.5 361q-38.5 -44 -38.5 -112t38.5 -111.5t98.5 -43.5t99.5 44t39.5 111q0 68 -39.5 112
t-99.5 44t-98.5 -44z" />
    <glyph glyph-name="q" unicode="q" horiz-adv-x="614" 
d="M376 491q40 -22 63 -53l16 61h99v-700h-120v257q-23 -30 -62.5 -50t-92.5 -20q-69 0 -124 35t-86 95t-31 133q0 72 31.5 132.5t87 96t123.5 35.5q56 0 96 -22zM226 385q-32 -20 -50 -55.5t-18 -80.5q0 -44 18 -79.5t50 -55.5t71 -20q60 0 99 43.5t39 111.5t-39 112
t-99 44q-39 0 -71 -20z" />
    <glyph glyph-name="r" unicode="r" horiz-adv-x="395" 
d="M60 499h99l17 -58q18 31 50 51.5t76 20.5q28 0 50 -7t36 -17l-43 -105q-9 7 -24.5 12t-35.5 5q-45 0 -75 -34.5t-30 -94.5v-272h-120v499z" />
    <glyph glyph-name="s" unicode="s" horiz-adv-x="486" 
d="M111 25.5q-54 39.5 -73 109.5l106 34q23 -83 102 -83q41 0 65 15t24 42q0 21 -19.5 35.5t-72.5 23.5q-92 17 -141.5 50.5t-49.5 104.5q0 43 23.5 78.5t67.5 56.5t103 21q75 0 124.5 -37.5t65.5 -105.5l-105 -30q-18 73 -85 73q-40 0 -61 -15t-21 -36q0 -24 23.5 -36
t76.5 -22q91 -16 137.5 -52t46.5 -107q0 -45 -25 -81t-71 -57t-106 -21q-81 0 -135 39.5z" />
    <glyph glyph-name="t" unicode="t" horiz-adv-x="385" 
d="M146 24.5q-40 38.5 -40 109.5v260h-86v105h86v130h120v-130h127v-105h-127v-243q0 -53 47 -53q27 0 46 17l50 -85q-14 -17 -45 -30.5t-77 -13.5q-61 0 -101 38.5z" />
    <glyph glyph-name="u" unicode="u" horiz-adv-x="567" 
d="M507 0h-99l-17 60q-56 -74 -152 -74q-179 0 -179 212v301h120v-285q0 -63 25.5 -89.5t71.5 -26.5q48 0 79 33.5t31 94.5v273h120v-499z" />
    <glyph glyph-name="v" unicode="v" horiz-adv-x="532" 
d="M518 499l-189 -499h-126l-189 499h123l129 -363l129 363h123z" />
    <glyph glyph-name="w" unicode="w" horiz-adv-x="779" 
d="M765 499l-155 -499h-122l-98 346l-98 -346h-123l-155 499h120l99 -359l101 359h112l101 -357l98 357h120z" />
    <glyph glyph-name="x" unicode="x" horiz-adv-x="527" 
d="M380 0l-117 165l-117 -165h-132l181 252l-179 247h134l113 -159l113 159h132l-177 -246l182 -253h-133z" />
    <glyph glyph-name="y" unicode="y" horiz-adv-x="576" 
d="M516 499v-480q0 -106 -63 -169.5t-175 -63.5q-90 0 -144.5 43.5t-73.5 115.5l112 23q16 -79 106 -79q55 0 86.5 33.5t31.5 95.5v53l-1 3q-28 -34 -63 -51.5t-88 -17.5q-85 0 -133.5 52t-48.5 158v284h120v-264q0 -64 26 -91t74 -27q51 0 82.5 33t31.5 94v255h120z" />
    <glyph glyph-name="z" unicode="z" horiz-adv-x="475" 
d="M39 89l248 311h-241v99h386v-88l-247 -311h251v-100h-397v89z" />
    <glyph glyph-name="braceleft" unicode="{" horiz-adv-x="304" 
d="M217 -170q-49 0 -86 31.5t-37 88.5v236q0 31 -17 45t-43 14v116q26 0 43 14t17 45v230q0 57 37 88.5t86 31.5h53v-107h-19q-23 0 -32 -16.5t-9 -47.5v-220q0 -49 -34 -78q34 -26 34 -76v-223q0 -31 9 -48t32 -17h19v-107h-53z" />
    <glyph glyph-name="bar" unicode="|" horiz-adv-x="223" 
d="M50 769h123v-940h-123v940z" />
    <glyph glyph-name="braceright" unicode="}" horiz-adv-x="304" 
d="M34 -64h19q23 0 32 17t9 48v223q0 50 34 76q-34 29 -34 78v220q0 31 -9 47.5t-32 16.5h-19v107h53q49 0 86 -31.5t37 -88.5v-230q0 -31 17 -45t43 -14v-116q-26 0 -43 -14t-17 -45v-236q0 -57 -37 -88.5t-86 -31.5h-53v107z" />
    <glyph glyph-name="asciitilde" unicode="~" horiz-adv-x="600" 
d="M350.5 280q-27.5 7 -69.5 21q-33 11 -52 16t-36 5q-24 0 -43 -12t-40 -41l-75 66q34 50 69.5 72.5t81.5 22.5q30 0 56.5 -7t68.5 -21q31 -12 51.5 -17.5t40.5 -5.5q23 0 41.5 12t38.5 41l82 -64q-33 -50 -71 -72.5t-86 -22.5q-30 0 -57.5 7z" />
    <glyph glyph-name="uni00A0" unicode="&#xa0;" horiz-adv-x="280" 
 />
    <glyph glyph-name="exclamdown" unicode="&#xa1;" horiz-adv-x="297" 
d="M201 484q23 -22 23 -53q0 -30 -22.5 -53t-53.5 -23t-53 23t-22 52t22 52.5t53 23.5q30 0 53 -22zM210 294v-495h-122v495h122z" />
    <glyph glyph-name="cent" unicode="&#xa2;" horiz-adv-x="560" 
d="M365.5 216.5q29.5 20.5 43.5 58.5l109 -37q-21 -57 -64 -95.5t-102 -51.5v-80h-121v82q-87 20 -140 90.5t-53 165.5t53 165t140 90v87h121v-85q62 -13 106 -53t63 -98l-109 -37q-14 39 -44 61t-72 22q-61 0 -99.5 -42.5t-38.5 -109.5t38.5 -110t99.5 -43q40 0 69.5 20.5z
" />
    <glyph glyph-name="sterling" unicode="&#xa3;" horiz-adv-x="535" 
d="M519 110v-110h-498v110h71v182h-72v107h72v86q0 113 60 171t158 58q87 0 142.5 -46.5t64.5 -124.5l-111 -19q-5 32 -29.5 54.5t-67.5 22.5q-45 0 -70 -29.5t-25 -82.5v-90h224v-107h-224v-182h305z" />
    <glyph glyph-name="currency" unicode="&#xa4;" horiz-adv-x="628" 
d="M516 227l74 -75l-78 -79l-76 75q-56 -32 -121 -32q-67 0 -123 32l-75 -75l-79 79l74 75q-33 57 -33 124q0 64 33 121l-74 75l79 79l75 -74q54 34 123 34q68 0 124 -32l73 72l78 -79l-71 -73q32 -53 32 -123q0 -65 -35 -124zM402 261q34 35 34 90q0 56 -33.5 90.5
t-87.5 34.5q-53 0 -86.5 -35t-33.5 -90t33.5 -90t86.5 -35t87 35z" />
    <glyph glyph-name="yen" unicode="&#xa5;" horiz-adv-x="645" 
d="M438 369h107v-98h-162v-68h162v-98h-162v-105h-122v105h-162v98h162v68h-162v98h107l-188 331h134l170 -305l171 305h134z" />
    <glyph glyph-name="brokenbar" unicode="&#xa6;" horiz-adv-x="222" 
d="M50 769h122v-409h-122v409zM50 240h122v-411h-122v411z" />
    <glyph glyph-name="section" unicode="&#xa7;" horiz-adv-x="491" 
d="M453 145q0 -44 -25.5 -80.5t-71.5 -57.5t-107 -21q-82 0 -138 38.5t-73 104.5l102 32q22 -81 109 -81q42 0 66 16t24 45q0 45 -93 61t-144 49.5t-51 105.5q0 59 43 102q-43 35 -43 98q0 43 24 79t69 57t105 21q74 0 124 -36t67 -101l-99 -28q-22 70 -92 70
q-42 0 -63 -15.5t-21 -39.5t24 -37t77 -23q92 -16 139.5 -52t47.5 -106q0 -58 -43 -99q43 -37 43 -102zM189.5 326q24.5 -13 76.5 -22q26 -5 44 -10q29 17 29 47q0 22 -21.5 37t-71.5 24l-45 9q-36 -14 -36 -48q0 -24 24.5 -37z" />
    <glyph glyph-name="dieresis" unicode="&#xa8;" horiz-adv-x="567" 
d="M144 588q-21 21 -21 50t21 50t50 21t50 -21t21 -50t-21 -50t-50 -21t-50 21zM322.5 588q-21.5 21 -21.5 50t21.5 50t50.5 21q28 0 49 -21t21 -50t-21 -50t-49 -21q-29 0 -50.5 21z" />
    <glyph glyph-name="copyright" unicode="&#xa9;" horiz-adv-x="828" 
d="M231.5 36q-83.5 49 -132.5 132.5t-49 182.5t49 182.5t132.5 132.5t182.5 49t182.5 -49t132.5 -132.5t49 -182.5t-49 -182.5t-132.5 -132.5t-182.5 -49t-182.5 49zM558 102q66 39 105 105t39 144t-39 144t-105 105t-144 39t-144 -39t-105 -105t-39 -144t39 -144t105 -105
t144 -39t144 39zM316 180q-43 24 -67 68t-24 103q0 56 23.5 100.5t66 69.5t96.5 25q61 0 105.5 -29.5t63.5 -86.5l-72 -24q-9 32 -33 51.5t-63 19.5q-48 0 -80 -36t-32 -90q0 -56 32.5 -91t81.5 -35q38 0 61.5 18t31.5 46l72 -23q-44 -110 -167 -110q-53 0 -96 24z" />
    <glyph glyph-name="ordfeminine" unicode="&#xaa;" horiz-adv-x="341" 
d="M58 411q-34 29 -34 77q0 42 30 70.5t106 40.5l75 11v6q0 64 -64 64q-32 0 -48 -14t-21 -42l-73 17q15 53 49.5 79t95.5 26q62 0 102 -32t40 -96l1 -227h-69l-9 31q-28 -40 -96 -40q-51 0 -85 29zM214.5 465q20.5 17 20.5 47v43l-70 -11q-32 -5 -47 -17t-15 -34
q0 -20 16.5 -32.5t45.5 -12.5t49.5 17z" />
    <glyph glyph-name="guillemotleft" unicode="&#xab;" horiz-adv-x="537" 
d="M172 301l85 -186h-123l-84 186l84 184h122zM487 115h-123l-84 186l84 184h122l-84 -184z" />
    <glyph glyph-name="logicalnot" unicode="&#xac;" horiz-adv-x="600" 
d="M552 221h-120v148h-384v110h504v-258z" />
    <glyph glyph-name="uni00AD" unicode="&#xad;" horiz-adv-x="600" 
d="M51 355h276v-110h-276v110z" />
    <glyph glyph-name="registered" unicode="&#xae;" horiz-adv-x="432" 
d="M124.5 368.5q-41.5 24.5 -66 66t-24.5 91.5q0 49 24.5 91t66 66.5t91.5 24.5q49 0 91 -24.5t66.5 -66.5t24.5 -91q0 -50 -24.5 -91.5t-66.5 -66t-91 -24.5q-50 0 -91.5 24.5zM285.5 406.5q31.5 18.5 50 50t18.5 69.5q0 37 -18.5 69t-50 50.5t-69.5 18.5q-37 0 -69 -18.5
t-50.5 -50.5t-18.5 -69q0 -38 18.5 -69.5t50.5 -50t69 -18.5q38 0 69.5 18.5zM154 619h74q27 0 43 -16.5t16 -40.5q0 -42 -31 -55l34 -74h-46l-29 67h-19v-67h-42v186zM222 537q12 0 18.5 6.5t6.5 14.5q0 10 -6.5 16.5t-18.5 6.5h-26v-44h26z" />
    <glyph glyph-name="macron" unicode="&#xaf;" horiz-adv-x="567" 
d="M169 682h228v-88h-228v88z" />
    <glyph glyph-name="degree" unicode="&#xb0;" horiz-adv-x="373" 
d="M110 422.5q-35 20.5 -55.5 55.5t-20.5 77t20.5 77t55.5 55t77 20t77 -20t55 -55t20 -77t-20 -77t-55 -55.5t-77 -20.5t-77 20.5zM239.5 502.5q21.5 21.5 21.5 52.5t-21.5 52.5t-52.5 21.5t-53 -21.5t-22 -52.5t22 -52.5t53 -21.5t52.5 21.5z" />
    <glyph glyph-name="plusminus" unicode="&#xb1;" horiz-adv-x="600" 
d="M244 410h-194v110h194v195h112v-195h194v-110h-194v-195h-112v195zM51 160h500v-109h-500v109z" />
    <glyph glyph-name="uni00B2" unicode="&#xb2;" horiz-adv-x="313" 
d="M41 512l120 101q25 23 33.5 37t8.5 32t-13 31t-34 13q-25 0 -38.5 -15.5t-13.5 -42.5l-70 19q3 49 37 79.5t85 30.5q52 0 87.5 -32.5t35.5 -81.5q0 -36 -15.5 -62.5t-48.5 -55.5l-63 -53h127v-72h-238v72z" />
    <glyph glyph-name="uni00B3" unicode="&#xb3;" horiz-adv-x="323" 
d="M69.5 463.5q-34.5 30.5 -35.5 74.5l70 21q1 -23 16 -38.5t39 -15.5t39 14t15 37q0 22 -15 36.5t-39 14.5q-4 0 -19 -3l-39 46l76 69h-130v71h219v-71l-55 -54q33 -8 55.5 -34.5t22.5 -74.5q0 -53 -37 -88t-93 -35q-55 0 -89.5 30.5z" />
    <glyph glyph-name="acute" unicode="&#xb4;" horiz-adv-x="567" 
d="M283 705h147l-114 -134h-102z" />
    <glyph glyph-name="uni00B5" unicode="&#xb5;" horiz-adv-x="567" 
d="M507 499v-499h-99l-17 60q-56 -74 -152 -74q-34 0 -59 7v-193h-120v699h120v-285q0 -63 25.5 -89.5t71.5 -26.5q48 0 79 33.5t31 94.5v273h120z" />
    <glyph glyph-name="paragraph" unicode="&#xb6;" horiz-adv-x="649" 
d="M623 608h-96v-809h-103l-1 809h-95l1 -809h-104v501q-54 0 -99.5 27t-72.5 73t-27 100t27 100t72.5 73t100.5 27h397v-92z" />
    <glyph glyph-name="periodcentered" unicode="&#xb7;" horiz-adv-x="209" 
d="M51.5 246.5q-22.5 22.5 -22.5 53.5t22.5 53t53.5 22t53 -22t22 -53t-22 -53.5t-53 -22.5t-53.5 22.5z" />
    <glyph glyph-name="cedilla" unicode="&#xb8;" horiz-adv-x="567" 
d="M209 -205.5q-27 21.5 -30 52.5l61 20q0 -15 9.5 -24.5t25.5 -9.5q15 0 24.5 9.5t9.5 24.5t-9.5 24t-24.5 9t-22 -7l-49 27l47 88l59 -8l-23 -42q38 -2 63 -24.5t25 -61.5q0 -45 -27.5 -72t-72.5 -27q-39 0 -66 21.5z" />
    <glyph glyph-name="uni00B9" unicode="&#xb9;" horiz-adv-x="213" 
d="M85 705q-12 -8 -32.5 -15t-35.5 -10v77q14 2 35 12t33 21h77v-350h-77v265z" />
    <glyph glyph-name="ordmasculine" unicode="&#xba;" horiz-adv-x="411" 
d="M113 411q-41 25 -63.5 66.5t-22.5 90.5t23 90.5t63.5 66.5t92.5 25t92.5 -25t63 -66.5t22.5 -90.5t-22.5 -90.5t-63 -66.5t-92.5 -25t-93 25zM280.5 486.5q29.5 32.5 29.5 81.5t-29.5 81.5t-74.5 32.5q-46 0 -75.5 -32t-29.5 -82t29.5 -82t75.5 -32q45 0 74.5 32.5z" />
    <glyph glyph-name="guillemotright" unicode="&#xbb;" horiz-adv-x="537" 
d="M487 301l-84 -186h-123l85 186l-84 184h122zM257 301l-84 -186h-123l85 186l-84 184h122z" />
    <glyph glyph-name="onequarter" unicode="&#xbc;" horiz-adv-x="786" 
d="M128 615q-12 -8 -32.5 -15t-35.5 -10v77q14 2 35 12t33 21h77v-350h-77v265zM92 43l558 662l59 -47l-556 -663zM614 85h-155v55l149 210h82l1 -201h34v-64h-34l-1 -85h-77zM614 149l-1 97l-70 -96z" />
    <glyph glyph-name="onehalf" unicode="&#xbd;" horiz-adv-x="812" 
d="M128 615q-12 -8 -32.5 -15t-35.5 -10v77q14 2 35 12t33 21h77v-350h-77v265zM81 43l558 662l59 -47l-556 -663zM513 72l120 101q25 23 33.5 37t8.5 32t-13 31t-34 13q-25 0 -38.5 -15.5t-13.5 -42.5l-70 19q3 49 37 79.5t85 30.5q52 0 87.5 -32.5t35.5 -81.5
q0 -36 -15.5 -62.5t-48.5 -55.5l-63 -53h127v-72h-238v72z" />
    <glyph glyph-name="threequarters" unicode="&#xbe;" horiz-adv-x="814" 
d="M95.5 373.5q-34.5 30.5 -35.5 74.5l70 21q1 -23 16 -38.5t39 -15.5t39 14t15 37q0 22 -15 36.5t-39 14.5q-4 0 -19 -3l-39 46l76 69h-130v71h219v-71l-55 -54q33 -8 55.5 -34.5t22.5 -74.5q0 -53 -37 -88t-93 -35q-55 0 -89.5 30.5zM121 43l558 662l59 -47l-556 -663z
M643 85h-155v55l149 210h82l1 -201h34v-64h-34l-1 -85h-77zM643 149l-1 97l-70 -96z" />
    <glyph glyph-name="questiondown" unicode="&#xbf;" horiz-adv-x="527" 
d="M201 378q-22 22 -22 53t22 53.5t53 22.5q32 0 54 -22t22 -54q0 -31 -22.5 -53t-53.5 -22t-53 22zM498 -6q-3 -61 -33.5 -108.5t-82 -74t-116.5 -26.5q-67 0 -121.5 29t-85 79.5t-30.5 112.5q0 75 42.5 132t122.5 80v83h121v-161h-27q-68 0 -104.5 -37t-37.5 -92
q0 -48 33 -80.5t85 -32.5q59 0 91.5 34.5t32.5 91.5z" />
    <glyph glyph-name="Agrave" unicode="&#xc0;" horiz-adv-x="688" 
d="M487 157h-286l-58 -157h-125l262 700h128l262 -700h-125zM446 267l-102 275l-102 -275h204zM180 903h147l69 -134h-102z" />
    <glyph glyph-name="Aacute" unicode="&#xc1;" horiz-adv-x="688" 
d="M487 157h-286l-58 -157h-125l262 700h128l262 -700h-125zM446 267l-102 275l-102 -275h204zM361 903h147l-114 -134h-102z" />
    <glyph glyph-name="Acircumflex" unicode="&#xc2;" horiz-adv-x="688" 
d="M487 157h-286l-58 -157h-125l262 700h128l262 -700h-125zM446 267l-102 275l-102 -275h204zM397 769l-53 61l-53 -61h-99l97 134h110l96 -134h-98z" />
    <glyph glyph-name="Atilde" unicode="&#xc3;" horiz-adv-x="688" 
d="M487 157h-286l-58 -157h-125l262 700h128l262 -700h-125zM446 267l-102 275l-102 -275h204zM372.5 778q-15.5 5 -36.5 15q-28 15 -45 15q-14 0 -27.5 -9.5t-23.5 -29.5l-65 43q32 84 107 84q20 0 34.5 -4.5t34.5 -14.5q19 -9 28.5 -12.5t22.5 -3.5q29 0 48 41l67 -45
q-14 -42 -42.5 -63t-65.5 -21q-21 0 -36.5 5z" />
    <glyph glyph-name="Adieresis" unicode="&#xc4;" horiz-adv-x="688" 
d="M487 157h-286l-58 -157h-125l262 700h128l262 -700h-125zM446 267l-102 275l-102 -275h204zM200 786q-21 21 -21 50t21 50t51 21q28 0 49 -21t21 -50t-21 -50t-49 -21q-30 0 -51 21zM387.5 786q-20.5 21 -20.5 50t20.5 50t49.5 21q30 0 50.5 -21t20.5 -50t-20.5 -50
t-50.5 -21q-29 0 -49.5 21z" />
    <glyph glyph-name="Aring" unicode="&#xc5;" horiz-adv-x="688" 
d="M487 157h-286l-58 -157h-125l262 700h128l262 -700h-125zM446 267l-102 275l-102 -275h204zM272.5 767.5q-28.5 29.5 -28.5 68.5t28.5 68t68.5 29q39 0 68 -28.5t29 -68.5q0 -39 -29 -68.5t-68 -29.5q-40 0 -68.5 29.5zM365.5 811.5q10.5 10.5 10.5 24.5t-10.5 24.5
t-24.5 10.5q-15 0 -25 -10.5t-10 -24.5t10 -24.5t25 -10.5q14 0 24.5 10.5z" />
    <glyph glyph-name="AE" unicode="&#xc6;" horiz-adv-x="990" 
d="M627 590v-184h276v-107h-276v-189h318v-110h-440v152h-256l-102 -152h-129l472 700h455v-110h-318zM505 259v273l-184 -273h184z" />
    <glyph glyph-name="Ccedilla" unicode="&#xc7;" horiz-adv-x="750" 
d="M525 135q47 36 67 94l115 -38q-35 -92 -105.5 -144.5t-174.5 -58.5l-16 -30q38 -2 63.5 -25t25.5 -61q0 -45 -27.5 -72t-72.5 -27q-39 0 -66 21.5t-31 52.5l61 20q0 -15 10 -24.5t26 -9.5q14 0 24 9.5t10 24.5t-9.5 24t-24.5 9q-16 0 -23 -7l-48 27l37 68q-92 8 -164 55
t-112 126.5t-40 181.5q0 104 44.5 187t123.5 130t180 47q113 0 195 -56t117 -162l-117 -38q-20 67 -68.5 105t-125.5 38q-65 0 -117 -33t-81 -90.5t-29 -128.5q0 -74 30 -131t82.5 -88.5t117.5 -31.5q76 0 123 36z" />
    <glyph glyph-name="Egrave" unicode="&#xc8;" horiz-adv-x="558" 
d="M73 700h440v-110h-318v-184h276v-107h-276v-189h318v-110h-440v700zM142 903h147l69 -134h-102z" />
    <glyph glyph-name="Eacute" unicode="&#xc9;" horiz-adv-x="558" 
d="M73 700h440v-110h-318v-184h276v-107h-276v-189h318v-110h-440v700zM323 903h147l-114 -134h-102z" />
    <glyph glyph-name="Ecircumflex" unicode="&#xca;" horiz-adv-x="558" 
d="M73 700h440v-110h-318v-184h276v-107h-276v-189h318v-110h-440v700zM359 769l-53 61l-53 -61h-99l97 134h110l96 -134h-98z" />
    <glyph glyph-name="Edieresis" unicode="&#xcb;" horiz-adv-x="558" 
d="M73 700h440v-110h-318v-184h276v-107h-276v-189h318v-110h-440v700zM162 786q-21 21 -21 50t21 50t51 21q28 0 49 -21t21 -50t-21 -50t-49 -21q-30 0 -51 21zM349.5 786q-20.5 21 -20.5 50t20.5 50t49.5 21q30 0 50.5 -21t20.5 -50t-20.5 -50t-50.5 -21q-29 0 -49.5 21z
" />
    <glyph glyph-name="Igrave" unicode="&#xcc;" horiz-adv-x="268" 
d="M73 700h122v-700h-122v700zM-30 903h147l69 -134h-102z" />
    <glyph glyph-name="Iacute" unicode="&#xcd;" horiz-adv-x="268" 
d="M73 700h122v-700h-122v700zM151 903h147l-114 -134h-102z" />
    <glyph glyph-name="Icircumflex" unicode="&#xce;" horiz-adv-x="268" 
d="M73 700h122v-700h-122v700zM187 769l-53 61l-53 -61h-99l97 134h110l96 -134h-98z" />
    <glyph glyph-name="Idieresis" unicode="&#xcf;" horiz-adv-x="268" 
d="M73 700h122v-700h-122v700zM-6 789q-21 21 -21 50t21 50t50 21t50 -21t21 -50t-21 -50t-50 -21t-50 21zM172.5 789q-21.5 21 -21.5 50t21.5 50t50.5 21q28 0 49 -21t21 -50t-21 -50t-49 -21q-29 0 -50.5 21z" />
    <glyph glyph-name="Eth" unicode="&#xd0;" horiz-adv-x="704" 
d="M502 654q76 -46 114 -125t38 -178q0 -102 -41.5 -181.5t-118 -124.5t-175.5 -45h-246v303h-74v96h74v301h243q110 0 186 -46zM480.5 180q51.5 70 51.5 172q0 106 -51 172t-175 66h-111v-191h140v-96h-140v-193h120q114 0 165.5 70z" />
    <glyph glyph-name="Ntilde" unicode="&#xd1;" horiz-adv-x="731" 
d="M75 700h126l333 -501v501h122v-700h-125l-334 501v-501h-122v700zM399.5 778q-15.5 5 -36.5 15q-28 15 -45 15q-14 0 -27.5 -9.5t-23.5 -29.5l-65 43q32 84 107 84q20 0 34.5 -4.5t34.5 -14.5q19 -9 28.5 -12.5t22.5 -3.5q29 0 48 41l67 -45q-14 -42 -42.5 -63t-65.5 -21
q-21 0 -36.5 5z" />
    <glyph glyph-name="Ograve" unicode="&#xd2;" horiz-adv-x="815" 
d="M218.5 36.5q-81.5 49.5 -125 132.5t-43.5 182t43.5 182t124.5 132.5t190 49.5q107 0 188 -49.5t125 -132.5t44 -182t-44 -182t-125 -132.5t-188 -49.5q-108 0 -189.5 49.5zM532 132.5q53 32.5 82 89.5t29 129q0 71 -29 128.5t-82.5 90t-123.5 32.5q-71 0 -124.5 -32.5
t-82.5 -89.5t-29 -129t29 -129t82.5 -89.5t124.5 -32.5t124 32.5zM243 903h147l69 -134h-102z" />
    <glyph glyph-name="Oacute" unicode="&#xd3;" horiz-adv-x="815" 
d="M218.5 36.5q-81.5 49.5 -125 132.5t-43.5 182t43.5 182t124.5 132.5t190 49.5q107 0 188 -49.5t125 -132.5t44 -182t-44 -182t-125 -132.5t-188 -49.5q-108 0 -189.5 49.5zM532 132.5q53 32.5 82 89.5t29 129q0 71 -29 128.5t-82.5 90t-123.5 32.5q-71 0 -124.5 -32.5
t-82.5 -89.5t-29 -129t29 -129t82.5 -89.5t124.5 -32.5t124 32.5zM424 903h147l-114 -134h-102z" />
    <glyph glyph-name="Ocircumflex" unicode="&#xd4;" horiz-adv-x="815" 
d="M218.5 36.5q-81.5 49.5 -125 132.5t-43.5 182t43.5 182t124.5 132.5t190 49.5q107 0 188 -49.5t125 -132.5t44 -182t-44 -182t-125 -132.5t-188 -49.5q-108 0 -189.5 49.5zM532 132.5q53 32.5 82 89.5t29 129q0 71 -29 128.5t-82.5 90t-123.5 32.5q-71 0 -124.5 -32.5
t-82.5 -89.5t-29 -129t29 -129t82.5 -89.5t124.5 -32.5t124 32.5zM460 769l-53 61l-53 -61h-99l97 134h110l96 -134h-98z" />
    <glyph glyph-name="Otilde" unicode="&#xd5;" horiz-adv-x="815" 
d="M218.5 36.5q-81.5 49.5 -125 132.5t-43.5 182t43.5 182t124.5 132.5t190 49.5q107 0 188 -49.5t125 -132.5t44 -182t-44 -182t-125 -132.5t-188 -49.5q-108 0 -189.5 49.5zM532 132.5q53 32.5 82 89.5t29 129q0 71 -29 128.5t-82.5 90t-123.5 32.5q-71 0 -124.5 -32.5
t-82.5 -89.5t-29 -129t29 -129t82.5 -89.5t124.5 -32.5t124 32.5zM435.5 778q-15.5 5 -36.5 15q-28 15 -45 15q-14 0 -27.5 -9.5t-23.5 -29.5l-65 43q32 84 107 84q20 0 34.5 -4.5t34.5 -14.5q19 -9 28.5 -12.5t22.5 -3.5q29 0 48 41l67 -45q-14 -42 -42.5 -63t-65.5 -21
q-21 0 -36.5 5z" />
    <glyph glyph-name="Odieresis" unicode="&#xd6;" horiz-adv-x="815" 
d="M218.5 36.5q-81.5 49.5 -125 132.5t-43.5 182t43.5 182t124.5 132.5t190 49.5q107 0 188 -49.5t125 -132.5t44 -182t-44 -182t-125 -132.5t-188 -49.5q-108 0 -189.5 49.5zM532 132.5q53 32.5 82 89.5t29 129q0 71 -29 128.5t-82.5 90t-123.5 32.5q-71 0 -124.5 -32.5
t-82.5 -89.5t-29 -129t29 -129t82.5 -89.5t124.5 -32.5t124 32.5zM263 786q-21 21 -21 50t21 50t51 21q28 0 49 -21t21 -50t-21 -50t-49 -21q-30 0 -51 21zM450.5 786q-20.5 21 -20.5 50t20.5 50t49.5 21q30 0 50.5 -21t20.5 -50t-20.5 -50t-50.5 -21q-29 0 -49.5 21z" />
    <glyph glyph-name="multiply" unicode="&#xd7;" horiz-adv-x="600" 
d="M380 350l157 -157l-79 -80l-157 158l-158 -158l-79 80l157 158l-157 157l78 80l158 -158l158 158l79 -80z" />
    <glyph glyph-name="Oslash" unicode="&#xd8;" horiz-adv-x="815" 
d="M738 496.5q27 -68.5 27 -145.5q0 -99 -44 -182t-125 -132.5t-188 -49.5q-93 0 -167 37l-57 -80l-84 60l57 80q-52 50 -79.5 119.5t-27.5 147.5q0 99 43.5 182t124.5 132.5t190 49.5q94 0 170 -39l49 69l84 -61l-49 -69q49 -50 76 -118.5zM226 182l284 399q-48 21 -102 21
q-71 0 -124.5 -32.5t-82.5 -89.5t-29 -129q0 -101 54 -169zM532 132.5q53 32.5 82 89.5t29 129q0 98 -52 165l-282 -397q46 -19 99 -19q71 0 124 32.5z" />
    <glyph glyph-name="Ugrave" unicode="&#xd9;" horiz-adv-x="696" 
d="M208 16q-62 30 -98.5 94.5t-36.5 163.5v426h122v-420q0 -93 38.5 -137t114.5 -44q153 0 153 181v420h122v-427q0 -147 -76 -217t-199 -70q-78 0 -140 30zM186 903h147l69 -134h-102z" />
    <glyph glyph-name="Uacute" unicode="&#xda;" horiz-adv-x="696" 
d="M208 16q-62 30 -98.5 94.5t-36.5 163.5v426h122v-420q0 -93 38.5 -137t114.5 -44q153 0 153 181v420h122v-427q0 -147 -76 -217t-199 -70q-78 0 -140 30zM367 903h147l-114 -134h-102z" />
    <glyph glyph-name="Ucircumflex" unicode="&#xdb;" horiz-adv-x="696" 
d="M208 16q-62 30 -98.5 94.5t-36.5 163.5v426h122v-420q0 -93 38.5 -137t114.5 -44q153 0 153 181v420h122v-427q0 -147 -76 -217t-199 -70q-78 0 -140 30zM403 769l-53 61l-53 -61h-99l97 134h110l96 -134h-98z" />
    <glyph glyph-name="Udieresis" unicode="&#xdc;" horiz-adv-x="696" 
d="M208 16q-62 30 -98.5 94.5t-36.5 163.5v426h122v-420q0 -93 38.5 -137t114.5 -44q153 0 153 181v420h122v-427q0 -147 -76 -217t-199 -70q-78 0 -140 30zM206 786q-21 21 -21 50t21 50t51 21q28 0 49 -21t21 -50t-21 -50t-49 -21q-30 0 -51 21zM393.5 786
q-20.5 21 -20.5 50t20.5 50t49.5 21q30 0 50.5 -21t20.5 -50t-20.5 -50t-50.5 -21q-29 0 -49.5 21z" />
    <glyph glyph-name="Yacute" unicode="&#xdd;" horiz-adv-x="645" 
d="M261 273l-243 427h134l170 -305l171 305h134l-244 -427v-273h-122v273zM339 903h147l-114 -134h-102z" />
    <glyph glyph-name="Thorn" unicode="&#xde;" horiz-adv-x="597" 
d="M73 700h122v-125h124q103 0 171 -56t68 -168q0 -74 -32.5 -124.5t-85.5 -75.5t-115 -25h-130v-126h-122v700zM310 236q63 0 94.5 31.5t31.5 83.5t-32.5 83t-94.5 31h-114v-229h115z" />
    <glyph glyph-name="germandbls" unicode="&#xdf;" horiz-adv-x="548" 
d="M60 517q0 57 25 101.5t72.5 70t112.5 25.5q59 0 103 -25t68 -68.5t24 -98.5q0 -47 -20.5 -79.5t-48.5 -51.5v-2q41 -16 77.5 -55.5t36.5 -121.5q0 -62 -26 -111t-77 -77.5t-122 -28.5q-33 0 -57 5l7 102q15 -3 37 -3q54 0 88 30t34 83q0 56 -33 84.5t-94 28.5h-17v99h17
q40 0 68.5 25t28.5 69q0 46 -26.5 72.5t-70.5 26.5q-40 0 -66 -26.5t-26 -74.5v-516h-115v517z" />
    <glyph glyph-name="agrave" unicode="&#xe0;" horiz-adv-x="510" 
d="M121 5q-39 19 -62 54t-23 81q0 63 43.5 106.5t153.5 58.5l107 15v6q0 91 -92 91q-46 0 -69.5 -20.5t-29.5 -60.5l-106 26q21 76 71 113.5t138 37.5q90 0 149 -46.5t59 -138.5v-328h-101l-13 45q-42 -59 -139 -59q-47 0 -86 19zM311 107.5q29 24.5 29 67.5v58l-99 -15
q-47 -7 -68.5 -23.5t-21.5 -47.5q0 -29 23.5 -46.5t64.5 -17.5q43 0 72 24.5zM91 705h147l69 -134h-102z" />
    <glyph glyph-name="aacute" unicode="&#xe1;" horiz-adv-x="510" 
d="M121 5q-39 19 -62 54t-23 81q0 63 43.5 106.5t153.5 58.5l107 15v6q0 91 -92 91q-46 0 -69.5 -20.5t-29.5 -60.5l-106 26q21 76 71 113.5t138 37.5q90 0 149 -46.5t59 -138.5v-328h-101l-13 45q-42 -59 -139 -59q-47 0 -86 19zM311 107.5q29 24.5 29 67.5v58l-99 -15
q-47 -7 -68.5 -23.5t-21.5 -47.5q0 -29 23.5 -46.5t64.5 -17.5q43 0 72 24.5zM269 705h147l-114 -134h-102z" />
    <glyph glyph-name="acircumflex" unicode="&#xe2;" horiz-adv-x="510" 
d="M121 5q-39 19 -62 54t-23 81q0 63 43.5 106.5t153.5 58.5l107 15v6q0 91 -92 91q-46 0 -69.5 -20.5t-29.5 -60.5l-106 26q21 76 71 113.5t138 37.5q90 0 149 -46.5t59 -138.5v-328h-101l-13 45q-42 -59 -139 -59q-47 0 -86 19zM311 107.5q29 24.5 29 67.5v58l-99 -15
q-47 -7 -68.5 -23.5t-21.5 -47.5q0 -29 23.5 -46.5t64.5 -17.5q43 0 72 24.5zM306 571l-53 61l-53 -61h-99l97 134h110l96 -134h-98z" />
    <glyph glyph-name="atilde" unicode="&#xe3;" horiz-adv-x="510" 
d="M121 5q-39 19 -62 54t-23 81q0 63 43.5 106.5t153.5 58.5l107 15v6q0 91 -92 91q-46 0 -69.5 -20.5t-29.5 -60.5l-106 26q21 76 71 113.5t138 37.5q90 0 149 -46.5t59 -138.5v-328h-101l-13 45q-42 -59 -139 -59q-47 0 -86 19zM311 107.5q29 24.5 29 67.5v58l-99 -15
q-47 -7 -68.5 -23.5t-21.5 -47.5q0 -29 23.5 -46.5t64.5 -17.5q43 0 72 24.5zM277.5 580.5q-16.5 5.5 -35.5 15.5q-15 8 -25 11.5t-21 3.5q-14 0 -27.5 -9.5t-22.5 -29.5l-66 43q32 84 107 84q20 0 34.5 -5t35.5 -15q12 -6 25 -11t25 -5q29 0 49 41l67 -45
q-14 -42 -42.5 -63t-65.5 -21q-21 0 -37.5 5.5z" />
    <glyph glyph-name="adieresis" unicode="&#xe4;" horiz-adv-x="510" 
d="M121 5q-39 19 -62 54t-23 81q0 63 43.5 106.5t153.5 58.5l107 15v6q0 91 -92 91q-46 0 -69.5 -20.5t-29.5 -60.5l-106 26q21 76 71 113.5t138 37.5q90 0 149 -46.5t59 -138.5v-328h-101l-13 45q-42 -59 -139 -59q-47 0 -86 19zM311 107.5q29 24.5 29 67.5v58l-99 -15
q-47 -7 -68.5 -23.5t-21.5 -47.5q0 -29 23.5 -46.5t64.5 -17.5q43 0 72 24.5zM113 588q-21 21 -21 50t21 50t50 21t50 -21t21 -50t-21 -50t-50 -21t-50 21zM291.5 588q-21.5 21 -21.5 50t21.5 50t50.5 21q28 0 49 -21t21 -50t-21 -50t-49 -21q-29 0 -50.5 21z" />
    <glyph glyph-name="aring" unicode="&#xe5;" horiz-adv-x="510" 
d="M121 5q-39 19 -62 54t-23 81q0 63 43.5 106.5t153.5 58.5l107 15v6q0 91 -92 91q-46 0 -69.5 -20.5t-29.5 -60.5l-106 26q21 76 71 113.5t138 37.5q90 0 149 -46.5t59 -138.5v-328h-101l-13 45q-42 -59 -139 -59q-47 0 -86 19zM311 107.5q29 24.5 29 67.5v58l-99 -15
q-47 -7 -68.5 -23.5t-21.5 -47.5q0 -29 23.5 -46.5t64.5 -17.5q43 0 72 24.5zM185.5 574.5q-28.5 29.5 -28.5 68.5t28.5 68t68.5 29q39 0 68 -28.5t29 -68.5q0 -39 -29 -68.5t-68 -29.5q-40 0 -68.5 29.5zM278.5 618.5q10.5 10.5 10.5 24.5t-10.5 24.5t-24.5 10.5
q-15 0 -25 -10.5t-10 -24.5t10 -24.5t25 -10.5q14 0 24.5 10.5z" />
    <glyph glyph-name="ae" unicode="&#xe6;" horiz-adv-x="874" 
d="M836 210h-373q3 -32 21 -61t48.5 -46.5t68.5 -17.5q48 0 79.5 23t42.5 53l101 -31q-23 -64 -79.5 -104t-143.5 -40q-59 0 -110 24.5t-86 67.5q-12 -34 -53.5 -63.5t-122.5 -29.5q-82 0 -135.5 42.5t-53.5 112.5q0 61 43.5 103.5t153.5 58.5l107 15v9q0 91 -92 91
q-46 0 -69.5 -20.5t-29.5 -60.5l-106 26q21 76 71 113.5t138 37.5q54 0 98.5 -17t72.5 -52q34 33 78.5 51t94.5 18q71 0 124.5 -32.5t82.5 -90.5t29 -134v-46zM730 302q-2 25 -17 51t-43.5 43.5t-68.5 17.5q-57 0 -92.5 -32.5t-44.5 -79.5h266zM344 236l-99 -15
q-47 -7 -68.5 -24.5t-21.5 -49.5q0 -29 23.5 -47t64.5 -18q43 0 72 25t29 68v61z" />
    <glyph glyph-name="ccedilla" unicode="&#xe7;" horiz-adv-x="560" 
d="M365.5 117.5q29.5 20.5 43.5 58.5l109 -37q-24 -64 -74 -104t-119 -47l-16 -30q38 -2 63 -24.5t25 -61.5q0 -45 -27.5 -72t-72.5 -27q-39 0 -66 21.5t-30 52.5l61 20q0 -15 9.5 -24.5t25.5 -9.5q15 0 24.5 9.5t9.5 24.5t-9.5 24t-24.5 9t-22 -7l-49 27l36 68
q-66 8 -116.5 44t-79 93t-28.5 125q0 73 33 133.5t92 95t133 34.5q82 0 142 -43t83 -114l-109 -37q-14 39 -44 61t-72 22q-61 0 -99.5 -42.5t-38.5 -109.5t38.5 -110t99.5 -43q40 0 69.5 20.5z" />
    <glyph glyph-name="egrave" unicode="&#xe8;" horiz-adv-x="564" 
d="M153 210q3 -32 21 -61t48.5 -46.5t68.5 -17.5q48 0 79.5 23t42.5 53l101 -31q-23 -64 -79.5 -104t-143.5 -40q-71 0 -128.5 34t-91 94t-33.5 136q0 74 33.5 134t91 94.5t127.5 34.5q71 0 124.5 -32.5t82.5 -90.5t29 -134v-46h-373zM403 353q-15 26 -43.5 43.5t-68.5 17.5
q-57 0 -92.5 -32.5t-44.5 -79.5h266q-2 25 -17 51zM128 705h147l69 -134h-102z" />
    <glyph glyph-name="eacute" unicode="&#xe9;" horiz-adv-x="564" 
d="M153 210q3 -32 21 -61t48.5 -46.5t68.5 -17.5q48 0 79.5 23t42.5 53l101 -31q-23 -64 -79.5 -104t-143.5 -40q-71 0 -128.5 34t-91 94t-33.5 136q0 74 33.5 134t91 94.5t127.5 34.5q71 0 124.5 -32.5t82.5 -90.5t29 -134v-46h-373zM403 353q-15 26 -43.5 43.5t-68.5 17.5
q-57 0 -92.5 -32.5t-44.5 -79.5h266q-2 25 -17 51zM306 705h147l-114 -134h-102z" />
    <glyph glyph-name="ecircumflex" unicode="&#xea;" horiz-adv-x="564" 
d="M153 210q3 -32 21 -61t48.5 -46.5t68.5 -17.5q48 0 79.5 23t42.5 53l101 -31q-23 -64 -79.5 -104t-143.5 -40q-71 0 -128.5 34t-91 94t-33.5 136q0 74 33.5 134t91 94.5t127.5 34.5q71 0 124.5 -32.5t82.5 -90.5t29 -134v-46h-373zM403 353q-15 26 -43.5 43.5t-68.5 17.5
q-57 0 -92.5 -32.5t-44.5 -79.5h266q-2 25 -17 51zM343 571l-53 61l-53 -61h-99l97 134h110l96 -134h-98z" />
    <glyph glyph-name="edieresis" unicode="&#xeb;" horiz-adv-x="564" 
d="M153 210q3 -32 21 -61t48.5 -46.5t68.5 -17.5q48 0 79.5 23t42.5 53l101 -31q-23 -64 -79.5 -104t-143.5 -40q-71 0 -128.5 34t-91 94t-33.5 136q0 74 33.5 134t91 94.5t127.5 34.5q71 0 124.5 -32.5t82.5 -90.5t29 -134v-46h-373zM403 353q-15 26 -43.5 43.5t-68.5 17.5
q-57 0 -92.5 -32.5t-44.5 -79.5h266q-2 25 -17 51zM150 588q-21 21 -21 50t21 50t50 21t50 -21t21 -50t-21 -50t-50 -21t-50 21zM328.5 588q-21.5 21 -21.5 50t21.5 50t50.5 21q28 0 49 -21t21 -50t-21 -50t-49 -21q-29 0 -50.5 21z" />
    <glyph glyph-name="igrave" unicode="&#xec;" horiz-adv-x="248" 
d="M64 499h120v-499h-120v499zM-39 705h147l69 -134h-102z" />
    <glyph glyph-name="iacute" unicode="&#xed;" horiz-adv-x="248" 
d="M64 499h120v-499h-120v499zM139 705h147l-114 -134h-102z" />
    <glyph glyph-name="icircumflex" unicode="&#xee;" horiz-adv-x="248" 
d="M64 499h120v-499h-120v499zM176 571l-53 61l-53 -61h-99l97 134h110l96 -134h-98z" />
    <glyph glyph-name="idieresis" unicode="&#xef;" horiz-adv-x="248" 
d="M64 499h120v-499h-120v499zM-17 588q-21 21 -21 50t21 50t50 21t50 -21t21 -50t-21 -50t-50 -21t-50 21zM161.5 588q-21.5 21 -21.5 50t21.5 50t50.5 21q28 0 49 -21t21 -50t-21 -50t-49 -21q-29 0 -50.5 21z" />
    <glyph glyph-name="eth" unicode="&#xf0;" horiz-adv-x="612" 
d="M163 20.5q-59 34.5 -92 93.5t-33 130q0 70 33.5 128t93 92t133.5 34q68 0 121 -43q-12 35 -34.5 70t-49.5 62l-121 -45l-28 71l87 32q-30 25 -69 49l65 71l20 -15q49 -33 87 -67l101 37l28 -70l-73 -27q56 -64 91.5 -150t35.5 -183q0 -94 -33 -162.5t-92 -105t-136 -36.5
q-76 0 -135 34.5zM369 113.5q32 19.5 50.5 54t18.5 76.5q0 66 -40 107.5t-100 41.5q-62 0 -101 -41.5t-39 -107.5q0 -65 39.5 -107.5t100.5 -42.5q39 0 71 19.5z" />
    <glyph glyph-name="ntilde" unicode="&#xf1;" horiz-adv-x="567" 
d="M60 499h99l17 -60q56 74 152 74q87 0 133 -52t46 -159v-302h-120v286q0 116 -97 116q-48 0 -79 -33.5t-31 -94.5v-274h-120v499zM307.5 580.5q-16.5 5.5 -35.5 15.5q-15 8 -25 11.5t-21 3.5q-14 0 -27.5 -9.5t-22.5 -29.5l-66 43q32 84 107 84q20 0 34.5 -5t35.5 -15
q12 -6 25 -11t25 -5q29 0 49 41l67 -45q-14 -42 -42.5 -63t-65.5 -21q-21 0 -37.5 5.5z" />
    <glyph glyph-name="ograve" unicode="&#xf2;" horiz-adv-x="595" 
d="M164 21q-59 35 -92.5 95.5t-33.5 133.5t33.5 133t93 95t132.5 35q74 0 133 -35t93 -95t34 -133t-34 -133.5t-93 -95.5t-133 -35t-133 35zM397 140.5q40 43.5 40 109.5t-40 109t-100 43q-61 0 -100 -43t-39 -109q0 -67 39 -110t100 -43q60 0 100 43.5zM136 705h147
l69 -134h-102z" />
    <glyph glyph-name="oacute" unicode="&#xf3;" horiz-adv-x="595" 
d="M164 21q-59 35 -92.5 95.5t-33.5 133.5t33.5 133t93 95t132.5 35q74 0 133 -35t93 -95t34 -133t-34 -133.5t-93 -95.5t-133 -35t-133 35zM397 140.5q40 43.5 40 109.5t-40 109t-100 43q-61 0 -100 -43t-39 -109q0 -67 39 -110t100 -43q60 0 100 43.5zM314 705h147
l-114 -134h-102z" />
    <glyph glyph-name="ocircumflex" unicode="&#xf4;" horiz-adv-x="595" 
d="M164 21q-59 35 -92.5 95.5t-33.5 133.5t33.5 133t93 95t132.5 35q74 0 133 -35t93 -95t34 -133t-34 -133.5t-93 -95.5t-133 -35t-133 35zM397 140.5q40 43.5 40 109.5t-40 109t-100 43q-61 0 -100 -43t-39 -109q0 -67 39 -110t100 -43q60 0 100 43.5zM351 571l-53 61
l-53 -61h-99l97 134h110l96 -134h-98z" />
    <glyph glyph-name="otilde" unicode="&#xf5;" horiz-adv-x="595" 
d="M164 21q-59 35 -92.5 95.5t-33.5 133.5t33.5 133t93 95t132.5 35q74 0 133 -35t93 -95t34 -133t-34 -133.5t-93 -95.5t-133 -35t-133 35zM397 140.5q40 43.5 40 109.5t-40 109t-100 43q-61 0 -100 -43t-39 -109q0 -67 39 -110t100 -43q60 0 100 43.5zM322.5 580.5
q-16.5 5.5 -35.5 15.5q-15 8 -25 11.5t-21 3.5q-14 0 -27.5 -9.5t-22.5 -29.5l-66 43q32 84 107 84q20 0 34.5 -5t35.5 -15q12 -6 25 -11t25 -5q29 0 49 41l67 -45q-14 -42 -42.5 -63t-65.5 -21q-21 0 -37.5 5.5z" />
    <glyph glyph-name="odieresis" unicode="&#xf6;" horiz-adv-x="595" 
d="M164 21q-59 35 -92.5 95.5t-33.5 133.5t33.5 133t93 95t132.5 35q74 0 133 -35t93 -95t34 -133t-34 -133.5t-93 -95.5t-133 -35t-133 35zM397 140.5q40 43.5 40 109.5t-40 109t-100 43q-61 0 -100 -43t-39 -109q0 -67 39 -110t100 -43q60 0 100 43.5zM158 588
q-21 21 -21 50t21 50t50 21t50 -21t21 -50t-21 -50t-50 -21t-50 21zM336.5 588q-21.5 21 -21.5 50t21.5 50t50.5 21q28 0 49 -21t21 -50t-21 -50t-49 -21q-29 0 -50.5 21z" />
    <glyph glyph-name="divide" unicode="&#xf7;" horiz-adv-x="600" 
d="M246 514q-22 22 -22 53t22 53.5t53 22.5q32 0 54 -22t22 -54q0 -31 -22.5 -53t-53.5 -22t-53 22zM35 403h530v-104h-530v104zM246 92q-22 22 -22 53t22 53.5t53 22.5q32 0 54 -22t22 -54q0 -31 -22.5 -53t-53.5 -22t-53 22z" />
    <glyph glyph-name="oslash" unicode="&#xf8;" horiz-adv-x="595" 
d="M538.5 351q18.5 -47 18.5 -101q0 -73 -34 -133.5t-93 -95.5t-133 -35q-62 0 -115 25l-41 -56l-72 52l41 57q-34 36 -53 84t-19 102q0 73 33.5 133t93 95t132.5 35q63 0 117 -26l39 54l72 -53l-39 -54q34 -36 52.5 -83zM181 162l166 231q-24 9 -50 9q-61 0 -100 -43
t-39 -109q0 -50 23 -88zM397 140.5q40 43.5 40 109.5q0 47 -22 85l-166 -230q24 -8 48 -8q60 0 100 43.5z" />
    <glyph glyph-name="ugrave" unicode="&#xf9;" horiz-adv-x="567" 
d="M507 0h-99l-17 60q-56 -74 -152 -74q-179 0 -179 212v301h120v-285q0 -63 25.5 -89.5t71.5 -26.5q48 0 79 33.5t31 94.5v273h120v-499zM121 705h147l69 -134h-102z" />
    <glyph glyph-name="uacute" unicode="&#xfa;" horiz-adv-x="567" 
d="M507 0h-99l-17 60q-56 -74 -152 -74q-179 0 -179 212v301h120v-285q0 -63 25.5 -89.5t71.5 -26.5q48 0 79 33.5t31 94.5v273h120v-499zM299 705h147l-114 -134h-102z" />
    <glyph glyph-name="ucircumflex" unicode="&#xfb;" horiz-adv-x="567" 
d="M507 0h-99l-17 60q-56 -74 -152 -74q-179 0 -179 212v301h120v-285q0 -63 25.5 -89.5t71.5 -26.5q48 0 79 33.5t31 94.5v273h120v-499zM336 571l-53 61l-53 -61h-99l97 134h110l96 -134h-98z" />
    <glyph glyph-name="udieresis" unicode="&#xfc;" horiz-adv-x="567" 
d="M507 0h-99l-17 60q-56 -74 -152 -74q-179 0 -179 212v301h120v-285q0 -63 25.5 -89.5t71.5 -26.5q48 0 79 33.5t31 94.5v273h120v-499zM143 588q-21 21 -21 50t21 50t50 21t50 -21t21 -50t-21 -50t-50 -21t-50 21zM321.5 588q-21.5 21 -21.5 50t21.5 50t50.5 21
q28 0 49 -21t21 -50t-21 -50t-49 -21q-29 0 -50.5 21z" />
    <glyph glyph-name="yacute" unicode="&#xfd;" horiz-adv-x="576" 
d="M516 499v-480q0 -106 -63 -169.5t-175 -63.5q-90 0 -144.5 43.5t-73.5 115.5l112 23q16 -79 106 -79q55 0 86.5 33.5t31.5 95.5v53l-1 3q-28 -34 -63 -51.5t-88 -17.5q-85 0 -133.5 52t-48.5 158v284h120v-264q0 -64 26 -91t74 -27q51 0 82.5 33t31.5 94v255h120z
M304 705h147l-114 -134h-102z" />
    <glyph glyph-name="thorn" unicode="&#xfe;" horiz-adv-x="614" 
d="M60 700h123l-4 -258q25 33 65 52t89 19q68 0 123.5 -35.5t87.5 -96t32 -132.5q0 -73 -31 -133t-86 -95t-124 -35q-94 0 -156 70v-257h-119v901zM388 116.5q32 19.5 50 54.5t18 78q0 44 -18 79t-50 54.5t-71 19.5q-60 0 -99 -43t-39 -110q0 -66 39 -109t99 -43
q39 0 71 19.5z" />
    <glyph glyph-name="ydieresis" unicode="&#xff;" horiz-adv-x="576" 
d="M516 499v-480q0 -106 -63 -169.5t-175 -63.5q-90 0 -144.5 43.5t-73.5 115.5l112 23q16 -79 106 -79q55 0 86.5 33.5t31.5 95.5v53l-1 3q-28 -34 -63 -51.5t-88 -17.5q-85 0 -133.5 52t-48.5 158v284h120v-264q0 -64 26 -91t74 -27q51 0 82.5 33t31.5 94v255h120z
M148 588q-21 21 -21 50t21 50t50 21t50 -21t21 -50t-21 -50t-50 -21t-50 21zM326.5 588q-21.5 21 -21.5 50t21.5 50t50.5 21q28 0 49 -21t21 -50t-21 -50t-49 -21q-29 0 -50.5 21z" />
    <glyph glyph-name="Amacron" unicode="&#x100;" horiz-adv-x="688" 
d="M487 157h-286l-58 -157h-125l262 700h128l262 -700h-125zM446 267l-102 275l-102 -275h204zM230 880h228v-88h-228v88z" />
    <glyph glyph-name="amacron" unicode="&#x101;" horiz-adv-x="510" 
d="M121 5q-39 19 -62 54t-23 81q0 63 43.5 106.5t153.5 58.5l107 15v6q0 91 -92 91q-46 0 -69.5 -20.5t-29.5 -60.5l-106 26q21 76 71 113.5t138 37.5q90 0 149 -46.5t59 -138.5v-328h-101l-13 45q-42 -59 -139 -59q-47 0 -86 19zM311 107.5q29 24.5 29 67.5v58l-99 -15
q-47 -7 -68.5 -23.5t-21.5 -47.5q0 -29 23.5 -46.5t64.5 -17.5q43 0 72 24.5zM139 682h228v-88h-228v88z" />
    <glyph glyph-name="Abreve" unicode="&#x102;" horiz-adv-x="688" 
d="M487 157h-286l-58 -157h-125l262 700h128l262 -700h-125zM446 267l-102 275l-102 -275h204zM244.5 809.5q-39.5 37.5 -42.5 96.5h82q3 -26 18.5 -41t41.5 -15q27 0 43 15t19 41h82q-4 -58 -44.5 -96t-100.5 -38q-59 0 -98.5 37.5z" />
    <glyph glyph-name="abreve" unicode="&#x103;" horiz-adv-x="510" 
d="M121 5q-39 19 -62 54t-23 81q0 63 43.5 106.5t153.5 58.5l107 15v6q0 91 -92 91q-46 0 -69.5 -20.5t-29.5 -60.5l-106 26q21 76 71 113.5t138 37.5q90 0 149 -46.5t59 -138.5v-328h-101l-13 45q-42 -59 -139 -59q-47 0 -86 19zM311 107.5q29 24.5 29 67.5v58l-99 -15
q-47 -7 -68.5 -23.5t-21.5 -47.5q0 -29 23.5 -46.5t64.5 -17.5q43 0 72 24.5zM153.5 608.5q-39.5 37.5 -42.5 96.5h82q3 -26 18.5 -41t41.5 -15q27 0 43 15t19 41h82q-4 -58 -44.5 -96t-100.5 -38q-59 0 -98.5 37.5z" />
    <glyph glyph-name="Aogonek" unicode="&#x104;" horiz-adv-x="688" 
d="M621 -100q12 -11 35 -11h7l-1 -74q-18 -2 -26 -2q-53 0 -83 25.5t-30 66.5q0 42 29 78l-65 174h-286l-58 -157h-125l262 700h128l262 -700q-61 -31 -61 -73q0 -16 12 -27zM446 267l-102 275l-102 -275h204z" />
    <glyph glyph-name="aogonek" unicode="&#x105;" horiz-adv-x="510" 
d="M401 466.5q59 -46.5 59 -138.5v-328h-51q-60 -31 -60 -73q0 -16 11.5 -27t34.5 -11h7v-74q-18 -2 -26 -2q-53 0 -83.5 25.5t-30.5 66.5q0 38 20.5 67t52.5 49l20 -6l-9 30q-42 -59 -139 -59q-47 0 -86 19t-62 54t-23 81q0 63 43.5 106.5t153.5 58.5l107 15v6q0 91 -92 91
q-46 0 -69.5 -20.5t-29.5 -60.5l-106 26q21 76 71 113.5t138 37.5q90 0 149 -46.5zM340 233l-99 -15q-47 -7 -68.5 -23.5t-21.5 -47.5q0 -29 23.5 -46.5t64.5 -17.5q43 0 72 24.5t29 67.5v58z" />
    <glyph glyph-name="Cacute" unicode="&#x106;" horiz-adv-x="750" 
d="M219.5 32q-79.5 45 -124.5 127.5t-45 191.5q0 104 44.5 187t123.5 130t180 47q113 0 195 -56t117 -162l-117 -38q-20 67 -68.5 105t-125.5 38q-65 0 -117 -33t-81 -90.5t-29 -128.5q0 -74 30 -131t82.5 -88.5t117.5 -31.5q76 0 123 36t67 94l115 -38q-38 -98 -115 -151
t-192 -53q-101 0 -180.5 45zM414 903h147l-114 -134h-102z" />
    <glyph glyph-name="cacute" unicode="&#x107;" horiz-adv-x="560" 
d="M163 20.5q-59 34.5 -92 95t-33 134.5q0 73 33 133.5t92 95t133 34.5q82 0 142 -43t83 -114l-109 -37q-14 39 -44 61t-72 22q-61 0 -99.5 -42.5t-38.5 -109.5t38.5 -110t99.5 -43q40 0 69.5 20.5t43.5 58.5l109 -37q-26 -70 -84.5 -111.5t-137.5 -41.5q-74 0 -133 34.5z
M312 705h147l-114 -134h-102z" />
    <glyph glyph-name="Ccircumflex" unicode="&#x108;" horiz-adv-x="750" 
d="M219.5 32q-79.5 45 -124.5 127.5t-45 191.5q0 104 44.5 187t123.5 130t180 47q113 0 195 -56t117 -162l-117 -38q-20 67 -68.5 105t-125.5 38q-65 0 -117 -33t-81 -90.5t-29 -128.5q0 -74 30 -131t82.5 -88.5t117.5 -31.5q76 0 123 36t67 94l115 -38q-38 -98 -115 -151
t-192 -53q-101 0 -180.5 45zM450 769l-53 61l-53 -61h-99l97 134h110l96 -134h-98z" />
    <glyph glyph-name="ccircumflex" unicode="&#x109;" horiz-adv-x="560" 
d="M163 20.5q-59 34.5 -92 95t-33 134.5q0 73 33 133.5t92 95t133 34.5q82 0 142 -43t83 -114l-109 -37q-14 39 -44 61t-72 22q-61 0 -99.5 -42.5t-38.5 -109.5t38.5 -110t99.5 -43q40 0 69.5 20.5t43.5 58.5l109 -37q-26 -70 -84.5 -111.5t-137.5 -41.5q-74 0 -133 34.5z
M349 571l-53 61l-53 -61h-99l97 134h110l96 -134h-98z" />
    <glyph glyph-name="Cdotaccent" unicode="&#x10a;" horiz-adv-x="750" 
d="M219.5 32q-79.5 45 -124.5 127.5t-45 191.5q0 104 44.5 187t123.5 130t180 47q113 0 195 -56t117 -162l-117 -38q-20 67 -68.5 105t-125.5 38q-65 0 -117 -33t-81 -90.5t-29 -128.5q0 -74 30 -131t82.5 -88.5t117.5 -31.5q76 0 123 36t67 94l115 -38q-38 -98 -115 -151
t-192 -53q-101 0 -180.5 45zM347.5 789q-20.5 21 -20.5 50t20.5 50t49.5 21t50.5 -21t21.5 -50t-21.5 -50t-50.5 -21t-49.5 21z" />
    <glyph glyph-name="cdotaccent" unicode="&#x10b;" horiz-adv-x="560" 
d="M163 20.5q-59 34.5 -92 95t-33 134.5q0 73 33 133.5t92 95t133 34.5q82 0 142 -43t83 -114l-109 -37q-14 39 -44 61t-72 22q-61 0 -99.5 -42.5t-38.5 -109.5t38.5 -110t99.5 -43q40 0 69.5 20.5t43.5 58.5l109 -37q-26 -70 -84.5 -111.5t-137.5 -41.5q-74 0 -133 34.5z
M245.5 588q-20.5 21 -20.5 50t20.5 50t49.5 21t50.5 -21t21.5 -50t-21.5 -50t-50.5 -21t-49.5 21z" />
    <glyph glyph-name="Ccaron" unicode="&#x10c;" horiz-adv-x="750" 
d="M219.5 32q-79.5 45 -124.5 127.5t-45 191.5q0 104 44.5 187t123.5 130t180 47q113 0 195 -56t117 -162l-117 -38q-20 67 -68.5 105t-125.5 38q-65 0 -117 -33t-81 -90.5t-29 -128.5q0 -74 30 -131t82.5 -88.5t117.5 -31.5q76 0 123 36t67 94l115 -38q-38 -98 -115 -151
t-192 -53q-101 0 -180.5 45zM548 905l-96 -134h-110l-97 134h99l53 -61l53 61h98z" />
    <glyph glyph-name="ccaron" unicode="&#x10d;" horiz-adv-x="560" 
d="M163 20.5q-59 34.5 -92 95t-33 134.5q0 73 33 133.5t92 95t133 34.5q82 0 142 -43t83 -114l-109 -37q-14 39 -44 61t-72 22q-61 0 -99.5 -42.5t-38.5 -109.5t38.5 -110t99.5 -43q40 0 69.5 20.5t43.5 58.5l109 -37q-26 -70 -84.5 -111.5t-137.5 -41.5q-74 0 -133 34.5z
M447 704l-96 -134h-110l-97 134h99l53 -61l53 61h98z" />
    <glyph glyph-name="Dcaron" unicode="&#x10e;" horiz-adv-x="704" 
d="M73 700h243q110 0 186 -46t114 -125t38 -178q0 -102 -41.5 -181.5t-118 -124.5t-175.5 -45h-246v700zM315 110q114 0 165.5 70t51.5 172q0 106 -51 172t-175 66h-111v-480h120zM501 905l-96 -134h-110l-97 134h99l53 -61l53 61h98z" />
    <glyph glyph-name="dcaron" unicode="&#x10f;" horiz-adv-x="614" 
d="M156.5 21.5q-55.5 35.5 -87 96t-31.5 132.5q0 73 31 133t86 95t124 35q53 0 92.5 -20t62.5 -50v257h120v-700h-99l-16 61q-23 -31 -63 -53t-96 -22q-68 0 -123.5 35.5zM632 700h118l-76 -134h-77zM396 138q39 44 39 112t-39 111.5t-99 43.5q-39 0 -71 -20t-50 -55.5
t-18 -79.5q0 -45 18 -80.5t50 -55.5t71 -20q60 0 99 44z" />
    <glyph glyph-name="Dcroat" unicode="&#x110;" horiz-adv-x="704" 
d="M502 654q76 -46 114 -125t38 -178q0 -102 -41.5 -181.5t-118 -124.5t-175.5 -45h-246v303h-74v96h74v301h243q110 0 186 -46zM480.5 180q51.5 70 51.5 172q0 106 -51 172t-175 66h-111v-191h140v-96h-140v-193h120q114 0 165.5 70z" />
    <glyph glyph-name="dcroat" unicode="&#x111;" horiz-adv-x="618" 
d="M602 554h-48v-554h-99l-16 61q-23 -31 -63 -53t-96 -22q-68 0 -123.5 35.5t-87 96t-31.5 132.5q0 73 31 133t86 95t124 35q53 0 92.5 -20t62.5 -50v111h-134v80h134v66h120v-66h48v-80zM396 138q39 44 39 112t-39 111.5t-99 43.5q-39 0 -71 -20t-50 -55.5t-18 -79.5
q0 -45 18 -80.5t50 -55.5t71 -20q60 0 99 44z" />
    <glyph glyph-name="Emacron" unicode="&#x112;" horiz-adv-x="558" 
d="M73 700h440v-110h-318v-184h276v-107h-276v-189h318v-110h-440v700zM192 880h228v-88h-228v88z" />
    <glyph glyph-name="emacron" unicode="&#x113;" horiz-adv-x="564" 
d="M153 210q3 -32 21 -61t48.5 -46.5t68.5 -17.5q48 0 79.5 23t42.5 53l101 -31q-23 -64 -79.5 -104t-143.5 -40q-71 0 -128.5 34t-91 94t-33.5 136q0 74 33.5 134t91 94.5t127.5 34.5q71 0 124.5 -32.5t82.5 -90.5t29 -134v-46h-373zM403 353q-15 26 -43.5 43.5t-68.5 17.5
q-57 0 -92.5 -32.5t-44.5 -79.5h266q-2 25 -17 51zM176 682h228v-88h-228v88z" />
    <glyph glyph-name="Ebreve" unicode="&#x114;" horiz-adv-x="558" 
d="M73 700h440v-110h-318v-184h276v-107h-276v-189h318v-110h-440v700zM206.5 809.5q-39.5 37.5 -42.5 96.5h82q3 -26 18.5 -41t41.5 -15q27 0 43 15t19 41h82q-4 -58 -44.5 -96t-100.5 -38q-59 0 -98.5 37.5z" />
    <glyph glyph-name="ebreve" unicode="&#x115;" horiz-adv-x="564" 
d="M153 210q3 -32 21 -61t48.5 -46.5t68.5 -17.5q48 0 79.5 23t42.5 53l101 -31q-23 -64 -79.5 -104t-143.5 -40q-71 0 -128.5 34t-91 94t-33.5 136q0 74 33.5 134t91 94.5t127.5 34.5q71 0 124.5 -32.5t82.5 -90.5t29 -134v-46h-373zM403 353q-15 26 -43.5 43.5t-68.5 17.5
q-57 0 -92.5 -32.5t-44.5 -79.5h266q-2 25 -17 51zM190.5 608.5q-39.5 37.5 -42.5 96.5h82q3 -26 18.5 -41t41.5 -15q27 0 43 15t19 41h82q-4 -58 -44.5 -96t-100.5 -38q-59 0 -98.5 37.5z" />
    <glyph glyph-name="Edotaccent" unicode="&#x116;" horiz-adv-x="558" 
d="M73 700h440v-110h-318v-184h276v-107h-276v-189h318v-110h-440v700zM256.5 789q-20.5 21 -20.5 50t20.5 50t49.5 21t50.5 -21t21.5 -50t-21.5 -50t-50.5 -21t-49.5 21z" />
    <glyph glyph-name="edotaccent" unicode="&#x117;" horiz-adv-x="564" 
d="M153 210q3 -32 21 -61t48.5 -46.5t68.5 -17.5q48 0 79.5 23t42.5 53l101 -31q-23 -64 -79.5 -104t-143.5 -40q-71 0 -128.5 34t-91 94t-33.5 136q0 74 33.5 134t91 94.5t127.5 34.5q71 0 124.5 -32.5t82.5 -90.5t29 -134v-46h-373zM403 353q-15 26 -43.5 43.5t-68.5 17.5
q-57 0 -92.5 -32.5t-44.5 -79.5h266q-2 25 -17 51zM239.5 588q-20.5 21 -20.5 50t20.5 50t49.5 21t50.5 -21t21.5 -50t-21.5 -50t-50.5 -21t-49.5 21z" />
    <glyph glyph-name="Eogonek" unicode="&#x118;" horiz-adv-x="558" 
d="M465.5 -100q11.5 -11 34.5 -11h7v-74q-18 -2 -26 -2q-53 0 -83.5 25.5t-30.5 66.5q0 54 45 95h-339v700h440v-110h-318v-184h276v-107h-276v-189h318v-110h1q-60 -31 -60 -73q0 -16 11.5 -27z" />
    <glyph glyph-name="eogonek" unicode="&#x119;" horiz-adv-x="564" 
d="M271 -13l-6 1q-65 5 -117 40.5t-81 93t-29 128.5q0 74 33 134t90.5 94.5t128.5 34.5t124.5 -32.5t82.5 -90.5t29 -134v-41h-374q4 -55 42.5 -92.5t96.5 -37.5q48 0 79.5 23t42.5 53l101 -31q-17 -44 -45.5 -73t-77.5 -53q-38 -19 -54 -37.5t-16 -39.5q0 -16 12 -27
t35 -11h6v-74q-18 -2 -26 -2q-53 0 -83 25.5t-30 66.5q0 46 36 82zM421 296q-2 28 -17 56t-43.5 46.5t-69.5 18.5q-58 0 -94 -34t-44 -87h268z" />
    <glyph glyph-name="Ecaron" unicode="&#x11a;" horiz-adv-x="558" 
d="M73 700h440v-110h-318v-184h276v-107h-276v-189h318v-110h-440v700zM457 905l-96 -134h-110l-97 134h99l53 -61l53 61h98z" />
    <glyph glyph-name="ecaron" unicode="&#x11b;" horiz-adv-x="564" 
d="M153 210q3 -32 21 -61t48.5 -46.5t68.5 -17.5q48 0 79.5 23t42.5 53l101 -31q-23 -64 -79.5 -104t-143.5 -40q-71 0 -128.5 34t-91 94t-33.5 136q0 74 33.5 134t91 94.5t127.5 34.5q71 0 124.5 -32.5t82.5 -90.5t29 -134v-46h-373zM403 353q-15 26 -43.5 43.5t-68.5 17.5
q-57 0 -92.5 -32.5t-44.5 -79.5h266q-2 25 -17 51zM441 704l-96 -134h-110l-97 134h99l53 -61l53 61h98z" />
    <glyph glyph-name="Gcircumflex" unicode="&#x11c;" horiz-adv-x="786" 
d="M218 33q-80 47 -124 129.5t-44 187.5q0 102 44.5 185t124 131t179.5 48q120 0 195 -53t108 -141l-115 -40q-47 121 -182 121q-67 0 -120 -34t-82.5 -91.5t-29.5 -125.5q0 -71 29.5 -128.5t83 -90t121.5 -32.5q66 0 109.5 27t65 68.5t24.5 87.5h-152v104h273v-386h-83
l-18 79q-24 -33 -81 -63t-144 -30q-102 0 -182 47zM451 769l-53 61l-53 -61h-99l97 134h110l96 -134h-98z" />
    <glyph glyph-name="gcircumflex" unicode="&#x11d;" horiz-adv-x="606" 
d="M137.5 -170q-57.5 44 -77.5 118l112 25q9 -40 38.5 -62.5t80.5 -22.5q64 0 99.5 33.5t35.5 95.5v61q-18 -31 -57.5 -52.5t-92.5 -21.5q-69 0 -123 33t-84.5 91t-30.5 130q0 71 30.5 129.5t85 92t121.5 33.5q55 0 93.5 -22t57.5 -52l22 60h98v-480q0 -106 -67.5 -169.5
t-187.5 -63.5q-96 0 -153.5 44zM388.5 152q37.5 40 37.5 106q0 67 -37.5 107t-96.5 40t-96.5 -40t-37.5 -107q0 -66 38 -106t97 -40q58 0 95.5 40zM350 571l-53 61l-53 -61h-99l97 134h110l96 -134h-98z" />
    <glyph glyph-name="Gbreve" unicode="&#x11e;" horiz-adv-x="786" 
d="M218 33q-80 47 -124 129.5t-44 187.5q0 102 44.5 185t124 131t179.5 48q120 0 195 -53t108 -141l-115 -40q-47 121 -182 121q-67 0 -120 -34t-82.5 -91.5t-29.5 -125.5q0 -71 29.5 -128.5t83 -90t121.5 -32.5q66 0 109.5 27t65 68.5t24.5 87.5h-152v104h273v-386h-83
l-18 79q-24 -33 -81 -63t-144 -30q-102 0 -182 47zM298.5 809.5q-39.5 37.5 -42.5 96.5h82q3 -26 18.5 -41t41.5 -15q27 0 43 15t19 41h82q-4 -58 -44.5 -96t-100.5 -38q-59 0 -98.5 37.5z" />
    <glyph glyph-name="gbreve" unicode="&#x11f;" horiz-adv-x="606" 
d="M137.5 -170q-57.5 44 -77.5 118l112 25q9 -40 38.5 -62.5t80.5 -22.5q64 0 99.5 33.5t35.5 95.5v61q-18 -31 -57.5 -52.5t-92.5 -21.5q-69 0 -123 33t-84.5 91t-30.5 130q0 71 30.5 129.5t85 92t121.5 33.5q55 0 93.5 -22t57.5 -52l22 60h98v-480q0 -106 -67.5 -169.5
t-187.5 -63.5q-96 0 -153.5 44zM388.5 152q37.5 40 37.5 106q0 67 -37.5 107t-96.5 40t-96.5 -40t-37.5 -107q0 -66 38 -106t97 -40q58 0 95.5 40zM197.5 608.5q-39.5 37.5 -42.5 96.5h82q3 -26 18.5 -41t41.5 -15q27 0 43 15t19 41h82q-4 -58 -44.5 -96t-100.5 -38
q-59 0 -98.5 37.5z" />
    <glyph glyph-name="Gdotaccent" unicode="&#x120;" horiz-adv-x="786" 
d="M218 33q-80 47 -124 129.5t-44 187.5q0 102 44.5 185t124 131t179.5 48q120 0 195 -53t108 -141l-115 -40q-47 121 -182 121q-67 0 -120 -34t-82.5 -91.5t-29.5 -125.5q0 -71 29.5 -128.5t83 -90t121.5 -32.5q66 0 109.5 27t65 68.5t24.5 87.5h-152v104h273v-386h-83
l-18 79q-24 -33 -81 -63t-144 -30q-102 0 -182 47zM348.5 789q-20.5 21 -20.5 50t20.5 50t49.5 21t50.5 -21t21.5 -50t-21.5 -50t-50.5 -21t-49.5 21z" />
    <glyph glyph-name="gdotaccent" unicode="&#x121;" horiz-adv-x="606" 
d="M137.5 -170q-57.5 44 -77.5 118l112 25q9 -40 38.5 -62.5t80.5 -22.5q64 0 99.5 33.5t35.5 95.5v61q-18 -31 -57.5 -52.5t-92.5 -21.5q-69 0 -123 33t-84.5 91t-30.5 130q0 71 30.5 129.5t85 92t121.5 33.5q55 0 93.5 -22t57.5 -52l22 60h98v-480q0 -106 -67.5 -169.5
t-187.5 -63.5q-96 0 -153.5 44zM388.5 152q37.5 40 37.5 106q0 67 -37.5 107t-96.5 40t-96.5 -40t-37.5 -107q0 -66 38 -106t97 -40q58 0 95.5 40zM246.5 588q-20.5 21 -20.5 50t20.5 50t49.5 21t50.5 -21t21.5 -50t-21.5 -50t-50.5 -21t-49.5 21z" />
    <glyph glyph-name="Gcommaaccent" unicode="&#x122;" horiz-adv-x="786" 
d="M218 33q-80 47 -124 129.5t-44 187.5q0 102 44.5 185t124 131t179.5 48q120 0 195 -53t108 -141l-115 -40q-47 121 -182 121q-67 0 -120 -34t-82.5 -91.5t-29.5 -125.5q0 -71 29.5 -128.5t83 -90t121.5 -32.5q66 0 109.5 27t65 68.5t24.5 87.5h-152v104h273v-386h-83
l-18 79q-24 -33 -81 -63t-144 -30q-102 0 -182 47zM381 -171q-22 5 -34.5 18.5t-12.5 35.5q0 28 19.5 44t41.5 16q28 0 46.5 -17.5t18.5 -49.5t-17.5 -66.5t-45.5 -55.5l-42 29q20 26 26 46z" />
    <glyph glyph-name="gcommaaccent" unicode="&#x123;" horiz-adv-x="606" 
d="M137.5 -170q-57.5 44 -77.5 118l112 25q9 -40 38.5 -62.5t80.5 -22.5q64 0 99.5 33.5t35.5 95.5v61q-18 -31 -57.5 -52.5t-92.5 -21.5q-69 0 -123 33t-84.5 91t-30.5 130q0 71 30.5 129.5t85 92t121.5 33.5q55 0 93.5 -22t57.5 -52l22 60h98v-480q0 -106 -67.5 -169.5
t-187.5 -63.5q-96 0 -153.5 44zM388.5 152q37.5 40 37.5 106q0 67 -37.5 107t-96.5 40t-96.5 -40t-37.5 -107q0 -66 38 -106t97 -40q58 0 95.5 40zM312 687q21 -5 34 -18.5t13 -35.5q0 -28 -19.5 -44t-42.5 -16q-28 0 -46.5 17.5t-18.5 48.5q0 32 17.5 66.5t45.5 56.5
l42 -29q-20 -26 -25 -46z" />
    <glyph glyph-name="Hcircumflex" unicode="&#x124;" horiz-adv-x="699" 
d="M73 700h122v-287h309v287h122v-700h-122v300h-309v-300h-122v700zM404 769l-53 61l-53 -61h-99l97 134h110l96 -134h-98z" />
    <glyph glyph-name="hcircumflex" unicode="&#x125;" horiz-adv-x="565" 
d="M69 740h-99l96 134h111l95 -134h-97l-54 61zM505 302v-302h-119v284q0 64 -25.5 90.5t-71.5 26.5q-48 0 -79 -33.5t-31 -94.5v-273h-119v700h119v-256q55 69 148 69q178 0 178 -211z" />
    <glyph glyph-name="Hbar" unicode="&#x126;" horiz-adv-x="799" 
d="M726 503h-50v-503h-122v288h-309v-288h-122v503h-50v97h50v100h122v-100h309v100h122v-100h50v-97zM554 503h-309v-102h309v102z" />
    <glyph glyph-name="hbar" unicode="&#x127;" horiz-adv-x="572" 
d="M512 302v-302h-119v284q0 64 -25.5 90.5t-71.5 26.5q-48 0 -79 -33.5t-31 -94.5v-273h-119v554h-49v80h49v66h119v-66h135v-80h-135v-110q55 69 148 69q178 0 178 -211z" />
    <glyph glyph-name="Itilde" unicode="&#x128;" horiz-adv-x="268" 
d="M73 700h122v-700h-122v700zM162.5 778q-15.5 5 -36.5 15q-28 15 -45 15q-14 0 -27.5 -9.5t-23.5 -29.5l-65 43q32 84 107 84q20 0 34.5 -4.5t34.5 -14.5q19 -9 28.5 -12.5t22.5 -3.5q29 0 48 41l67 -45q-14 -42 -42.5 -63t-65.5 -21q-21 0 -36.5 5z" />
    <glyph glyph-name="itilde" unicode="&#x129;" horiz-adv-x="248" 
d="M64 499h120v-499h-120v499zM147.5 580.5q-16.5 5.5 -35.5 15.5q-15 8 -25 11.5t-21 3.5q-14 0 -27.5 -9.5t-22.5 -29.5l-66 43q32 84 107 84q20 0 34.5 -5t35.5 -15q12 -6 25 -11t25 -5q29 0 49 41l67 -45q-14 -42 -42.5 -63t-65.5 -21q-21 0 -37.5 5.5z" />
    <glyph glyph-name="Imacron" unicode="&#x12a;" horiz-adv-x="268" 
d="M73 700h122v-700h-122v700zM20 880h228v-88h-228v88z" />
    <glyph glyph-name="imacron" unicode="&#x12b;" horiz-adv-x="248" 
d="M64 499h120v-499h-120v499zM9 682h228v-88h-228v88z" />
    <glyph glyph-name="Ibreve" unicode="&#x12c;" horiz-adv-x="268" 
d="M73 700h122v-700h-122v700zM34.5 809.5q-39.5 37.5 -42.5 96.5h82q3 -26 18.5 -41t41.5 -15q27 0 43 15t19 41h82q-4 -58 -44.5 -96t-100.5 -38q-59 0 -98.5 37.5z" />
    <glyph glyph-name="ibreve" unicode="&#x12d;" horiz-adv-x="248" 
d="M64 499h120v-499h-120v499zM23.5 608.5q-39.5 37.5 -42.5 96.5h82q3 -26 18.5 -41t41.5 -15q27 0 43 15t19 41h82q-4 -58 -44.5 -96t-100.5 -38q-59 0 -98.5 37.5z" />
    <glyph glyph-name="Iogonek" unicode="&#x12e;" horiz-adv-x="268" 
d="M135 -73q0 -16 11.5 -27t34.5 -11h7v-74q-18 -2 -26 -2q-53 0 -83.5 25.5t-30.5 66.5q0 54 45 95h-20v700h122v-700q-60 -31 -60 -73z" />
    <glyph glyph-name="iogonek" unicode="&#x12f;" horiz-adv-x="248" 
d="M72.5 588q-20.5 21 -20.5 50t20.5 50t49.5 21t50.5 -21t21.5 -50t-21.5 -50t-50.5 -21t-49.5 21zM64 499h120v-499q-60 -31 -60 -73q0 -16 11.5 -27t34.5 -11h7v-74q-18 -2 -26 -2q-53 0 -83.5 25.5t-30.5 66.5q0 54 45 95h-18v499z" />
    <glyph glyph-name="Idotaccent" unicode="&#x130;" horiz-adv-x="268" 
d="M73 700h122v-700h-122v700zM84.5 789q-20.5 21 -20.5 50t20.5 50t49.5 21t50.5 -21t21.5 -50t-21.5 -50t-50.5 -21t-49.5 21z" />
    <glyph glyph-name="dotlessi" unicode="&#x131;" horiz-adv-x="248" 
d="M64 499h120v-499h-120v499z" />
    <glyph glyph-name="IJ" unicode="&#x132;" horiz-adv-x="795" 
d="M73 700h122v-700h-122v700zM399 9.5q-48 23.5 -76 67t-30 102.5v49l119 -23v-13q0 -42 24.5 -67.5t71.5 -25.5t71 29.5t24 81.5v490h122v-487q0 -112 -59 -169.5t-159 -57.5q-60 0 -108 23.5z" />
    <glyph glyph-name="ij" unicode="&#x133;" horiz-adv-x="503" 
d="M64 499h120v-499h-120v499zM72.5 588q-20.5 21 -20.5 50t20.5 50t49.5 21t50.5 -21t21.5 -50t-21.5 -50t-50.5 -21t-49.5 21zM224.5 -201.5q-29.5 13.5 -44.5 29.5l50 85q16 -16 45 -16q23 0 34.5 14t11.5 40v548h120v-564q0 -69 -41 -109.5t-102 -40.5q-44 0 -73.5 13.5
zM330.5 588q-20.5 21 -20.5 50t20.5 50t49.5 21t50.5 -21t21.5 -50t-21.5 -50t-50.5 -21t-49.5 21z" />
    <glyph glyph-name="Jcircumflex" unicode="&#x134;" horiz-adv-x="527" 
d="M131 9.5q-48 23.5 -76 67t-30 102.5v49l119 -23v-13q0 -42 24.5 -67.5t71.5 -25.5t71 29.5t24 81.5v490h122v-487q0 -112 -59 -169.5t-159 -57.5q-60 0 -108 23.5zM448 769l-53 61l-53 -61h-99l97 134h110l96 -134h-98z" />
    <glyph glyph-name="jcircumflex" unicode="&#x135;" horiz-adv-x="255" 
d="M-23.5 -201.5q-29.5 13.5 -44.5 29.5l50 85q16 -16 45 -16q23 0 34.5 14t11.5 40v548h120v-564q0 -69 -41 -109.5t-102 -40.5q-44 0 -73.5 13.5zM186 571l-53 61l-53 -61h-99l97 134h110l96 -134h-98z" />
    <glyph glyph-name="Kcommaaccent" unicode="&#x136;" horiz-adv-x="659" 
d="M271 320l-77 -83v-237h-121v700h121v-294l11 11l-5 7l12 1l254 275h158l-269 -289l286 -412h-152zM317 -171q-22 5 -34.5 18.5t-12.5 35.5q0 28 19.5 44t41.5 16q28 0 46.5 -17.5t18.5 -49.5t-17.5 -66.5t-45.5 -55.5l-42 29q20 26 26 46z" />
    <glyph glyph-name="kcommaaccent" unicode="&#x137;" horiz-adv-x="531" 
d="M228 218l-48 -52v-166h-120v700h120v-378l169 178h145l-187 -198l210 -302h-136zM255 -171q-22 5 -34.5 18.5t-12.5 35.5q0 28 19.5 44t41.5 16q28 0 46.5 -17.5t18.5 -49.5t-17.5 -66.5t-45.5 -55.5l-42 29q20 26 26 46z" />
    <glyph glyph-name="kgreenlandic" unicode="&#x138;" horiz-adv-x="531" 
d="M228 218l-48 -52v-166h-120v499h120v-177l169 178h145l-187 -198l210 -302h-136z" />
    <glyph glyph-name="Lacute" unicode="&#x139;" horiz-adv-x="527" 
d="M73 700h122v-588h306v-112h-428v700zM160 903h147l-114 -134h-102z" />
    <glyph glyph-name="lacute" unicode="&#x13a;" horiz-adv-x="240" 
d="M60 700h120v-700h-120v700zM139 903h147l-114 -134h-102z" />
    <glyph glyph-name="Lcommaaccent" unicode="&#x13b;" horiz-adv-x="527" 
d="M73 700h122v-588h306v-112h-428v700zM272 -171q-22 5 -34.5 18.5t-12.5 35.5q0 28 19.5 44t41.5 16q28 0 46.5 -17.5t18.5 -49.5t-17.5 -66.5t-45.5 -55.5l-42 29q20 26 26 46z" />
    <glyph glyph-name="lcommaaccent" unicode="&#x13c;" horiz-adv-x="240" 
d="M60 700h120v-700h-120v700zM103 -171q-22 5 -34.5 18.5t-12.5 35.5q0 28 19.5 44t41.5 16q28 0 46.5 -17.5t18.5 -49.5t-17.5 -66.5t-45.5 -55.5l-42 29q20 26 26 46z" />
    <glyph glyph-name="Lcaron" unicode="&#x13d;" horiz-adv-x="527" 
d="M73 700h122v-588h306v-112h-428v700zM292 700h133l-82 -134h-93z" />
    <glyph glyph-name="lcaron" unicode="&#x13e;" horiz-adv-x="240" 
d="M60 700h120v-700h-120v700zM258 700h119l-77 -134h-77z" />
    <glyph glyph-name="Ldot" unicode="&#x13f;" horiz-adv-x="527" 
d="M73 700h122v-588h306v-112h-428v700zM345.5 346.5q-22.5 22.5 -22.5 53.5t22.5 53t53.5 22t53 -22t22 -53t-22 -53.5t-53 -22.5t-53.5 22.5z" />
    <glyph glyph-name="ldot" unicode="&#x140;" horiz-adv-x="390" 
d="M60 700h120v-700h-120v700zM265.5 296.5q-22.5 22.5 -22.5 53.5t22.5 53t53.5 22t53 -22t22 -53t-22 -53.5t-53 -22.5t-53.5 22.5z" />
    <glyph glyph-name="Lslash" unicode="&#x141;" horiz-adv-x="568" 
d="M542 112v-112h-428v266l-68 -30l-36 85l104 46v333h122v-279l133 59l37 -85l-170 -75v-208h306z" />
    <glyph glyph-name="lslash" unicode="&#x142;" horiz-adv-x="354" 
d="M237 339v-339h-120v251l-54 -39l-53 77l107 78v333h120v-246l53 39l54 -76z" />
    <glyph glyph-name="Nacute" unicode="&#x143;" horiz-adv-x="731" 
d="M75 700h126l333 -501v501h122v-700h-125l-334 501v-501h-122v700zM388 903h147l-114 -134h-102z" />
    <glyph glyph-name="nacute" unicode="&#x144;" horiz-adv-x="567" 
d="M60 499h99l17 -60q56 74 152 74q87 0 133 -52t46 -159v-302h-120v286q0 116 -97 116q-48 0 -79 -33.5t-31 -94.5v-274h-120v499zM299 705h147l-114 -134h-102z" />
    <glyph glyph-name="Ncommaaccent" unicode="&#x145;" horiz-adv-x="731" 
d="M75 700h126l333 -501v501h122v-700h-125l-334 501v-501h-122v700zM349 -171q-22 5 -34.5 18.5t-12.5 35.5q0 28 19.5 44t41.5 16q28 0 46.5 -17.5t18.5 -49.5t-17.5 -66.5t-45.5 -55.5l-42 29q20 26 26 46z" />
    <glyph glyph-name="ncommaaccent" unicode="&#x146;" horiz-adv-x="567" 
d="M60 499h99l17 -60q56 74 152 74q87 0 133 -52t46 -159v-302h-120v286q0 116 -97 116q-48 0 -79 -33.5t-31 -94.5v-274h-120v499zM271 -171q-22 5 -34.5 18.5t-12.5 35.5q0 28 19.5 44t41.5 16q28 0 46.5 -17.5t18.5 -49.5t-17.5 -66.5t-45.5 -55.5l-42 29q20 26 26 46z
" />
    <glyph glyph-name="Ncaron" unicode="&#x147;" horiz-adv-x="731" 
d="M75 700h126l333 -501v501h122v-700h-125l-334 501v-501h-122v700zM522 905l-96 -134h-110l-97 134h99l53 -61l53 61h98z" />
    <glyph glyph-name="ncaron" unicode="&#x148;" horiz-adv-x="567" 
d="M60 499h99l17 -60q56 74 152 74q87 0 133 -52t46 -159v-302h-120v286q0 116 -97 116q-48 0 -79 -33.5t-31 -94.5v-274h-120v499zM434 704l-96 -134h-110l-97 134h99l53 -61l53 61h98z" />
    <glyph glyph-name="napostrophe" unicode="&#x149;" horiz-adv-x="628" 
d="M51 608q-22 5 -34.5 18.5t-12.5 35.5q0 28 19.5 44t41.5 16q28 0 46.5 -17.5t18.5 -48.5q0 -32 -17.5 -67t-45.5 -56l-42 29q19 22 26 46zM121 499h99l17 -60q56 74 152 74q87 0 133 -52t46 -159v-302h-120v286q0 116 -97 116q-48 0 -79 -33.5t-31 -94.5v-274h-120v499z
" />
    <glyph glyph-name="Eng" unicode="&#x14a;" horiz-adv-x="731" 
d="M657 499v-564q0 -69 -41 -109.5t-102 -40.5q-44 0 -73.5 13.5t-44.5 29.5l50 85q16 -16 45 -16q23 0 34.5 14t11.5 40v40l-340 510v-501h-122v700h126l333 -501v501h122v-201h1z" />
    <glyph glyph-name="eng" unicode="&#x14b;" horiz-adv-x="567" 
d="M461 461q46 -52 46 -159v-367q0 -69 -41 -109.5t-101 -40.5q-44 0 -74 13.5t-45 29.5l51 85q14 -16 44 -16q23 0 34.5 14t11.5 40v335q0 116 -97 116q-48 0 -79 -33.5t-31 -94.5v-274h-120v499h99l17 -60q56 74 152 74q87 0 133 -52z" />
    <glyph glyph-name="Omacron" unicode="&#x14c;" horiz-adv-x="815" 
d="M218.5 36.5q-81.5 49.5 -125 132.5t-43.5 182t43.5 182t124.5 132.5t190 49.5q107 0 188 -49.5t125 -132.5t44 -182t-44 -182t-125 -132.5t-188 -49.5q-108 0 -189.5 49.5zM532 132.5q53 32.5 82 89.5t29 129q0 71 -29 128.5t-82.5 90t-123.5 32.5q-71 0 -124.5 -32.5
t-82.5 -89.5t-29 -129t29 -129t82.5 -89.5t124.5 -32.5t124 32.5zM293 880h228v-88h-228v88z" />
    <glyph glyph-name="omacron" unicode="&#x14d;" horiz-adv-x="595" 
d="M164 21q-59 35 -92.5 95.5t-33.5 133.5t33.5 133t93 95t132.5 35q74 0 133 -35t93 -95t34 -133t-34 -133.5t-93 -95.5t-133 -35t-133 35zM397 140.5q40 43.5 40 109.5t-40 109t-100 43q-61 0 -100 -43t-39 -109q0 -67 39 -110t100 -43q60 0 100 43.5zM184 682h228v-88
h-228v88z" />
    <glyph glyph-name="Obreve" unicode="&#x14e;" horiz-adv-x="815" 
d="M218.5 36.5q-81.5 49.5 -125 132.5t-43.5 182t43.5 182t124.5 132.5t190 49.5q107 0 188 -49.5t125 -132.5t44 -182t-44 -182t-125 -132.5t-188 -49.5q-108 0 -189.5 49.5zM532 132.5q53 32.5 82 89.5t29 129q0 71 -29 128.5t-82.5 90t-123.5 32.5q-71 0 -124.5 -32.5
t-82.5 -89.5t-29 -129t29 -129t82.5 -89.5t124.5 -32.5t124 32.5zM307.5 809.5q-39.5 37.5 -42.5 96.5h82q3 -26 18.5 -41t41.5 -15q27 0 43 15t19 41h82q-4 -58 -44.5 -96t-100.5 -38q-59 0 -98.5 37.5z" />
    <glyph glyph-name="obreve" unicode="&#x14f;" horiz-adv-x="595" 
d="M164 21q-59 35 -92.5 95.5t-33.5 133.5t33.5 133t93 95t132.5 35q74 0 133 -35t93 -95t34 -133t-34 -133.5t-93 -95.5t-133 -35t-133 35zM397 140.5q40 43.5 40 109.5t-40 109t-100 43q-61 0 -100 -43t-39 -109q0 -67 39 -110t100 -43q60 0 100 43.5zM198.5 608.5
q-39.5 37.5 -42.5 96.5h82q3 -26 18.5 -41t41.5 -15q27 0 43 15t19 41h82q-4 -58 -44.5 -96t-100.5 -38q-59 0 -98.5 37.5z" />
    <glyph glyph-name="Ohungarumlaut" unicode="&#x150;" horiz-adv-x="815" 
d="M218.5 36.5q-81.5 49.5 -125 132.5t-43.5 182t43.5 182t124.5 132.5t190 49.5q107 0 188 -49.5t125 -132.5t44 -182t-44 -182t-125 -132.5t-188 -49.5q-108 0 -189.5 49.5zM532 132.5q53 32.5 82 89.5t29 129q0 71 -29 128.5t-82.5 90t-123.5 32.5q-71 0 -124.5 -32.5
t-82.5 -89.5t-29 -129t29 -129t82.5 -89.5t124.5 -32.5t124 32.5zM282 772l66 134h129l-111 -134h-84zM444 772l66 134h129l-111 -134h-84z" />
    <glyph glyph-name="ohungarumlaut" unicode="&#x151;" horiz-adv-x="595" 
d="M164 21q-59 35 -92.5 95.5t-33.5 133.5t33.5 133t93 95t132.5 35q74 0 133 -35t93 -95t34 -133t-34 -133.5t-93 -95.5t-133 -35t-133 35zM397 140.5q40 43.5 40 109.5t-40 109t-100 43q-61 0 -100 -43t-39 -109q0 -67 39 -110t100 -43q60 0 100 43.5zM173 571l66 134h129
l-111 -134h-84zM335 571l66 134h129l-111 -134h-84z" />
    <glyph glyph-name="OE" unicode="&#x152;" horiz-adv-x="1126" 
d="M763 590v-184h276v-107h-276v-189h318v-110h-440v81q-42 -45 -101 -70t-134 -25q-108 0 -188.5 49.5t-124 132.5t-43.5 182t43.5 182t124.5 132.5t188 49.5q147 0 235 -96v82h440v-110h-318zM529.5 133.5q53.5 32.5 82.5 89.5t29 127t-29.5 127t-83 90t-122.5 33
q-70 0 -122.5 -32.5t-81 -89.5t-28.5 -128t28 -127.5t81 -89t123 -32.5t123.5 32.5z" />
    <glyph glyph-name="oe" unicode="&#x153;" horiz-adv-x="976" 
d="M937 210h-373q3 -32 21 -61t48.5 -46.5t68.5 -17.5q48 0 79.5 23t42.5 53l101 -31q-23 -64 -79.5 -104t-143.5 -40q-62 0 -114 26t-86 72q-36 -46 -89 -72t-116 -26q-74 0 -133 35t-92.5 95.5t-33.5 133.5t33.5 133t93 95t132.5 35q63 0 116.5 -26t88.5 -72
q35 46 86.5 72t112.5 26q71 0 124.5 -32.5t82.5 -90.5t29 -134v-46zM831 302q-2 25 -17 51t-43.5 43.5t-68.5 17.5q-57 0 -92.5 -32.5t-44.5 -79.5h266zM397 140.5q40 43.5 40 109.5t-40 109t-100 43q-61 0 -100 -43t-39 -109q0 -67 39 -110t100 -43q60 0 100 43.5z" />
    <glyph glyph-name="Racute" unicode="&#x154;" horiz-adv-x="626" 
d="M73 700h256q71 0 123 -27t78.5 -74.5t26.5 -106.5q0 -79 -38.5 -130t-98.5 -71l167 -291h-135l-153 274h-104v-274h-122v700zM321 381q54 0 84.5 28.5t30.5 76.5q0 49 -31 76.5t-86 27.5h-124v-209h126zM311 903h147l-114 -134h-102z" />
    <glyph glyph-name="racute" unicode="&#x155;" horiz-adv-x="395" 
d="M60 499h99l17 -58q18 31 50 51.5t76 20.5q28 0 50 -7t36 -17l-43 -105q-9 7 -24.5 12t-35.5 5q-45 0 -75 -34.5t-30 -94.5v-272h-120v499zM240 705h147l-114 -134h-102z" />
    <glyph glyph-name="Rcommaaccent" unicode="&#x156;" horiz-adv-x="626" 
d="M73 700h256q71 0 123 -27t78.5 -74.5t26.5 -106.5q0 -79 -38.5 -130t-98.5 -71l167 -291h-135l-153 274h-104v-274h-122v700zM321 381q54 0 84.5 28.5t30.5 76.5q0 49 -31 76.5t-86 27.5h-124v-209h126zM294 -171q-22 5 -34.5 18.5t-12.5 35.5q0 28 19.5 44t41.5 16
q28 0 46.5 -17.5t18.5 -49.5t-17.5 -66.5t-45.5 -55.5l-42 29q20 26 26 46z" />
    <glyph glyph-name="rcommaaccent" unicode="&#x157;" horiz-adv-x="395" 
d="M60 499h99l17 -58q18 31 50 51.5t76 20.5q28 0 50 -7t36 -17l-43 -105q-9 7 -24.5 12t-35.5 5q-45 0 -75 -34.5t-30 -94.5v-272h-120v499zM109 -171q-22 5 -34.5 18.5t-12.5 35.5q0 28 19.5 44t41.5 16q28 0 46.5 -17.5t18.5 -49.5t-17.5 -66.5t-45.5 -55.5l-42 29
q20 26 26 46z" />
    <glyph glyph-name="Rcaron" unicode="&#x158;" horiz-adv-x="626" 
d="M73 700h256q71 0 123 -27t78.5 -74.5t26.5 -106.5q0 -79 -38.5 -130t-98.5 -71l167 -291h-135l-153 274h-104v-274h-122v700zM321 381q54 0 84.5 28.5t30.5 76.5q0 49 -31 76.5t-86 27.5h-124v-209h126zM445 905l-96 -134h-110l-97 134h99l53 -61l53 61h98z" />
    <glyph glyph-name="rcaron" unicode="&#x159;" horiz-adv-x="395" 
d="M60 499h99l17 -58q18 31 50 51.5t76 20.5q28 0 50 -7t36 -17l-43 -105q-9 7 -24.5 12t-35.5 5q-45 0 -75 -34.5t-30 -94.5v-272h-120v499zM375 704l-96 -134h-110l-97 134h99l53 -61l53 61h98z" />
    <glyph glyph-name="Sacute" unicode="&#x15a;" horiz-adv-x="602" 
d="M132.5 38q-69.5 51 -94.5 148l114 33q19 -63 54 -92.5t100 -29.5q61 0 98.5 26t37.5 74q0 38 -30 63t-107 38q-123 23 -185 73t-62 137q0 60 31.5 107t87.5 73.5t128 26.5q96 0 159 -50t86 -141l-114 -32q-15 57 -45.5 85t-85.5 28q-57 0 -91 -25t-34 -72q0 -39 34.5 -59
t112.5 -36q122 -24 179.5 -75.5t57.5 -140.5q0 -62 -34 -110t-93 -74t-131 -26q-104 0 -173.5 51zM322 903h147l-114 -134h-102z" />
    <glyph glyph-name="sacute" unicode="&#x15b;" horiz-adv-x="486" 
d="M111 25.5q-54 39.5 -73 109.5l106 34q23 -83 102 -83q41 0 65 15t24 42q0 21 -19.5 35.5t-72.5 23.5q-92 17 -141.5 50.5t-49.5 104.5q0 43 23.5 78.5t67.5 56.5t103 21q75 0 124.5 -37.5t65.5 -105.5l-105 -30q-18 73 -85 73q-40 0 -61 -15t-21 -36q0 -24 23.5 -36
t76.5 -22q91 -16 137.5 -52t46.5 -107q0 -45 -25 -81t-71 -57t-106 -21q-81 0 -135 39.5zM264 705h147l-114 -134h-102z" />
    <glyph glyph-name="Scircumflex" unicode="&#x15c;" horiz-adv-x="602" 
d="M132.5 38q-69.5 51 -94.5 148l114 33q19 -63 54 -92.5t100 -29.5q61 0 98.5 26t37.5 74q0 38 -30 63t-107 38q-123 23 -185 73t-62 137q0 60 31.5 107t87.5 73.5t128 26.5q96 0 159 -50t86 -141l-114 -32q-15 57 -45.5 85t-85.5 28q-57 0 -91 -25t-34 -72q0 -39 34.5 -59
t112.5 -36q122 -24 179.5 -75.5t57.5 -140.5q0 -62 -34 -110t-93 -74t-131 -26q-104 0 -173.5 51zM358 769l-53 61l-53 -61h-99l97 134h110l96 -134h-98z" />
    <glyph glyph-name="scircumflex" unicode="&#x15d;" horiz-adv-x="486" 
d="M111 25.5q-54 39.5 -73 109.5l106 34q23 -83 102 -83q41 0 65 15t24 42q0 21 -19.5 35.5t-72.5 23.5q-92 17 -141.5 50.5t-49.5 104.5q0 43 23.5 78.5t67.5 56.5t103 21q75 0 124.5 -37.5t65.5 -105.5l-105 -30q-18 73 -85 73q-40 0 -61 -15t-21 -36q0 -24 23.5 -36
t76.5 -22q91 -16 137.5 -52t46.5 -107q0 -45 -25 -81t-71 -57t-106 -21q-81 0 -135 39.5zM301 571l-53 61l-53 -61h-99l97 134h110l96 -134h-98z" />
    <glyph glyph-name="Scedilla" unicode="&#x15e;" horiz-adv-x="602" 
d="M534 93q-30 -46 -82 -73t-118 -32l-16 -30q38 -2 63.5 -25t25.5 -61q0 -45 -27.5 -72t-72.5 -27q-39 0 -66 21.5t-31 52.5l61 20q0 -15 10 -24.5t26 -9.5q14 0 24 9.5t10 24.5t-9.5 24t-24.5 9q-16 0 -23 -7l-48 27l37 68q-91 8 -151.5 58.5t-83.5 139.5l114 33
q19 -63 54 -92.5t100 -29.5q61 0 98.5 26t37.5 74q0 38 -30 63t-107 38q-123 23 -185 73t-62 137q0 60 31.5 107t87.5 73.5t128 26.5q96 0 159 -50t86 -141l-114 -32q-15 57 -45.5 85t-85.5 28q-57 0 -91 -25t-34 -72q0 -39 34.5 -59t112.5 -36q122 -24 179.5 -75.5
t57.5 -140.5q0 -58 -30 -104z" />
    <glyph glyph-name="scedilla" unicode="&#x15f;" horiz-adv-x="486" 
d="M401.5 39q-46.5 -44 -125.5 -52l-16 -29q38 -2 63 -24.5t25 -61.5q0 -45 -27.5 -72t-72.5 -27q-39 0 -66 21.5t-30 52.5l61 20q0 -15 9.5 -24.5t25.5 -9.5q15 0 24.5 9.5t9.5 24.5t-9.5 24t-24.5 9t-22 -7l-49 27l36 68q-68 7 -113 45.5t-62 101.5l106 34q23 -83 102 -83
q41 0 65 15t24 42q0 21 -19.5 35.5t-72.5 23.5q-92 17 -141.5 50.5t-49.5 104.5q0 43 23.5 78.5t67.5 56.5t103 21q75 0 124.5 -37.5t65.5 -105.5l-105 -30q-18 73 -85 73q-40 0 -61 -15t-21 -36q0 -24 23.5 -36t76.5 -22q91 -16 137.5 -52t46.5 -107q0 -62 -46.5 -106z" />
    <glyph glyph-name="Scaron" unicode="&#x160;" horiz-adv-x="602" 
d="M132.5 38q-69.5 51 -94.5 148l114 33q19 -63 54 -92.5t100 -29.5q61 0 98.5 26t37.5 74q0 38 -30 63t-107 38q-123 23 -185 73t-62 137q0 60 31.5 107t87.5 73.5t128 26.5q96 0 159 -50t86 -141l-114 -32q-15 57 -45.5 85t-85.5 28q-57 0 -91 -25t-34 -72q0 -39 34.5 -59
t112.5 -36q122 -24 179.5 -75.5t57.5 -140.5q0 -62 -34 -110t-93 -74t-131 -26q-104 0 -173.5 51zM456 905l-96 -134h-110l-97 134h99l53 -61l53 61h98z" />
    <glyph glyph-name="scaron" unicode="&#x161;" horiz-adv-x="486" 
d="M111 25.5q-54 39.5 -73 109.5l106 34q23 -83 102 -83q41 0 65 15t24 42q0 21 -19.5 35.5t-72.5 23.5q-92 17 -141.5 50.5t-49.5 104.5q0 43 23.5 78.5t67.5 56.5t103 21q75 0 124.5 -37.5t65.5 -105.5l-105 -30q-18 73 -85 73q-40 0 -61 -15t-21 -36q0 -24 23.5 -36
t76.5 -22q91 -16 137.5 -52t46.5 -107q0 -45 -25 -81t-71 -57t-106 -21q-81 0 -135 39.5zM399 704l-96 -134h-110l-97 134h99l53 -61l53 61h98z" />
    <glyph glyph-name="uni0162" unicode="&#x162;" horiz-adv-x="578" 
d="M324 0l-23 -42q38 -2 63.5 -25t25.5 -61q0 -45 -27.5 -72t-72.5 -27q-39 0 -66 21.5t-31 52.5l61 20q0 -15 10 -24.5t26 -9.5q14 0 24 9.5t10 24.5t-9.5 24t-24.5 9q-16 0 -23 -7l-48 27l43 80h-34v587h-202v113h526v-113h-202v-587h-26z" />
    <glyph glyph-name="uni0163" unicode="&#x163;" horiz-adv-x="385" 
d="M330 2q-27 -13 -66 -15l-16 -29q38 -2 63 -24.5t25 -61.5q0 -45 -27.5 -72t-72.5 -27q-39 0 -66 21.5t-30 52.5l61 20q0 -15 9.5 -24.5t25.5 -9.5q15 0 24.5 9.5t9.5 24.5t-9.5 24t-24.5 9t-22 -7l-49 27l38 72q-44 13 -70.5 49t-26.5 93v260h-86v105h86v130h120v-130
h127v-105h-127v-243q0 -53 47 -53q27 0 46 17l50 -85q-12 -15 -39 -28z" />
    <glyph glyph-name="Tcaron" unicode="&#x164;" horiz-adv-x="578" 
d="M228 587h-202v113h526v-113h-202v-587h-122v587zM440 905l-96 -134h-110l-97 134h99l53 -61l53 61h98z" />
    <glyph glyph-name="tcaron" unicode="&#x165;" horiz-adv-x="385" 
d="M302 700h133l-82 -134h-93zM146 24.5q-40 38.5 -40 109.5v260h-86v105h86v130h120v-130h127v-105h-127v-243q0 -53 47 -53q27 0 46 17l50 -85q-14 -17 -45 -30.5t-77 -13.5q-61 0 -101 38.5z" />
    <glyph glyph-name="Tbar" unicode="&#x166;" horiz-adv-x="578" 
d="M350 587v-216h105v-92h-105v-279h-122v279h-106v92h106v216h-202v113h526v-113h-202z" />
    <glyph glyph-name="tbar" unicode="&#x167;" horiz-adv-x="386" 
d="M370 29q-43 -43 -123 -43q-61 0 -101 37t-40 103v99h-63v80h63v108h-86v86h86v130h120v-130h127v-86h-127v-108h87v-80h-87v-81q0 -46 47 -46q29 0 46 17z" />
    <glyph glyph-name="Utilde" unicode="&#x168;" horiz-adv-x="696" 
d="M208 16q-62 30 -98.5 94.5t-36.5 163.5v426h122v-420q0 -93 38.5 -137t114.5 -44q153 0 153 181v420h122v-427q0 -147 -76 -217t-199 -70q-78 0 -140 30zM378.5 778q-15.5 5 -36.5 15q-28 15 -45 15q-14 0 -27.5 -9.5t-23.5 -29.5l-65 43q32 84 107 84q20 0 34.5 -4.5
t34.5 -14.5q19 -9 28.5 -12.5t22.5 -3.5q29 0 48 41l67 -45q-14 -42 -42.5 -63t-65.5 -21q-21 0 -36.5 5z" />
    <glyph glyph-name="utilde" unicode="&#x169;" horiz-adv-x="567" 
d="M507 0h-99l-17 60q-56 -74 -152 -74q-179 0 -179 212v301h120v-285q0 -63 25.5 -89.5t71.5 -26.5q48 0 79 33.5t31 94.5v273h120v-499zM307.5 580.5q-16.5 5.5 -35.5 15.5q-15 8 -25 11.5t-21 3.5q-14 0 -27.5 -9.5t-22.5 -29.5l-66 43q32 84 107 84q20 0 34.5 -5
t35.5 -15q12 -6 25 -11t25 -5q29 0 49 41l67 -45q-14 -42 -42.5 -63t-65.5 -21q-21 0 -37.5 5.5z" />
    <glyph glyph-name="Umacron" unicode="&#x16a;" horiz-adv-x="696" 
d="M208 16q-62 30 -98.5 94.5t-36.5 163.5v426h122v-420q0 -93 38.5 -137t114.5 -44q153 0 153 181v420h122v-427q0 -147 -76 -217t-199 -70q-78 0 -140 30zM236 880h228v-88h-228v88z" />
    <glyph glyph-name="umacron" unicode="&#x16b;" horiz-adv-x="567" 
d="M507 0h-99l-17 60q-56 -74 -152 -74q-179 0 -179 212v301h120v-285q0 -63 25.5 -89.5t71.5 -26.5q48 0 79 33.5t31 94.5v273h120v-499zM169 682h228v-88h-228v88z" />
    <glyph glyph-name="Ubreve" unicode="&#x16c;" horiz-adv-x="696" 
d="M208 16q-62 30 -98.5 94.5t-36.5 163.5v426h122v-420q0 -93 38.5 -137t114.5 -44q153 0 153 181v420h122v-427q0 -147 -76 -217t-199 -70q-78 0 -140 30zM250.5 809.5q-39.5 37.5 -42.5 96.5h82q3 -26 18.5 -41t41.5 -15q27 0 43 15t19 41h82q-4 -58 -44.5 -96
t-100.5 -38q-59 0 -98.5 37.5z" />
    <glyph glyph-name="ubreve" unicode="&#x16d;" horiz-adv-x="567" 
d="M507 0h-99l-17 60q-56 -74 -152 -74q-179 0 -179 212v301h120v-285q0 -63 25.5 -89.5t71.5 -26.5q48 0 79 33.5t31 94.5v273h120v-499zM183.5 608.5q-39.5 37.5 -42.5 96.5h82q3 -26 18.5 -41t41.5 -15q27 0 43 15t19 41h82q-4 -58 -44.5 -96t-100.5 -38
q-59 0 -98.5 37.5z" />
    <glyph glyph-name="Uring" unicode="&#x16e;" horiz-adv-x="696" 
d="M208 16q-62 30 -98.5 94.5t-36.5 163.5v426h122v-420q0 -93 38.5 -137t114.5 -44q153 0 153 181v420h122v-427q0 -147 -76 -217t-199 -70q-78 0 -140 30zM278.5 767.5q-28.5 29.5 -28.5 68.5t28.5 68t68.5 29q39 0 68 -28.5t29 -68.5q0 -39 -29 -68.5t-68 -29.5
q-40 0 -68.5 29.5zM371.5 811.5q10.5 10.5 10.5 24.5t-10.5 24.5t-24.5 10.5q-15 0 -25 -10.5t-10 -24.5t10 -24.5t25 -10.5q14 0 24.5 10.5z" />
    <glyph glyph-name="uring" unicode="&#x16f;" horiz-adv-x="567" 
d="M507 0h-99l-17 60q-56 -74 -152 -74q-179 0 -179 212v301h120v-285q0 -63 25.5 -89.5t71.5 -26.5q48 0 79 33.5t31 94.5v273h120v-499zM215.5 574.5q-28.5 29.5 -28.5 68.5t28.5 68t68.5 29q39 0 68 -28.5t29 -68.5q0 -39 -29 -68.5t-68 -29.5q-40 0 -68.5 29.5z
M308.5 618.5q10.5 10.5 10.5 24.5t-10.5 24.5t-24.5 10.5q-15 0 -25 -10.5t-10 -24.5t10 -24.5t25 -10.5q14 0 24.5 10.5z" />
    <glyph glyph-name="Uhungarumlaut" unicode="&#x170;" horiz-adv-x="696" 
d="M208 16q-62 30 -98.5 94.5t-36.5 163.5v426h122v-420q0 -93 38.5 -137t114.5 -44q153 0 153 181v420h122v-427q0 -147 -76 -217t-199 -70q-78 0 -140 30zM225 772l66 134h129l-111 -134h-84zM387 772l66 134h129l-111 -134h-84z" />
    <glyph glyph-name="uhungarumlaut" unicode="&#x171;" horiz-adv-x="567" 
d="M507 0h-99l-17 60q-56 -74 -152 -74q-179 0 -179 212v301h120v-285q0 -63 25.5 -89.5t71.5 -26.5q48 0 79 33.5t31 94.5v273h120v-499zM158 571l66 134h129l-111 -134h-84zM320 571l66 134h129l-111 -134h-84z" />
    <glyph glyph-name="Uogonek" unicode="&#x172;" horiz-adv-x="696" 
d="M401 -187q-53 0 -83.5 25.5t-30.5 66.5q0 46 38 82q-112 6 -182 77.5t-70 209.5v426h122v-420q0 -93 38.5 -137t114.5 -44q153 0 153 181v420h122v-427q0 -177 -113 -246q-14 -9 -49 -23l-20 -8q-33 -13 -50 -30.5t-17 -38.5q0 -16 11.5 -27t34.5 -11h7v-74
q-18 -2 -26 -2z" />
    <glyph glyph-name="uogonek" unicode="&#x173;" horiz-adv-x="567" 
d="M447 -73q0 -16 11.5 -27t34.5 -11h7v-74q-18 -2 -26 -2q-53 0 -83.5 25.5t-30.5 66.5q0 55 47 97l-16 58q-56 -74 -152 -74q-179 0 -179 212v301h120v-285q0 -63 25.5 -89.5t71.5 -26.5q48 0 79 33.5t31 94.5v273h120v-499q-60 -31 -60 -73z" />
    <glyph glyph-name="Wcircumflex" unicode="&#x174;" horiz-adv-x="955" 
d="M937 700l-197 -700h-122l-142 527l-139 -527h-122l-197 700h126l136 -519l137 519h122l137 -512l135 512h126zM531 769l-53 61l-53 -61h-99l97 134h110l96 -134h-98z" />
    <glyph glyph-name="wcircumflex" unicode="&#x175;" horiz-adv-x="779" 
d="M765 499l-155 -499h-122l-98 346l-98 -346h-123l-155 499h120l99 -359l101 359h112l101 -357l98 357h120zM443 571l-53 61l-53 -61h-99l97 134h110l96 -134h-98z" />
    <glyph glyph-name="Ycircumflex" unicode="&#x176;" horiz-adv-x="645" 
d="M261 273l-243 427h134l170 -305l171 305h134l-244 -427v-273h-122v273zM375 769l-53 61l-53 -61h-99l97 134h110l96 -134h-98z" />
    <glyph glyph-name="ycircumflex" unicode="&#x177;" horiz-adv-x="576" 
d="M516 499v-480q0 -106 -63 -169.5t-175 -63.5q-90 0 -144.5 43.5t-73.5 115.5l112 23q16 -79 106 -79q55 0 86.5 33.5t31.5 95.5v53l-1 3q-28 -34 -63 -51.5t-88 -17.5q-85 0 -133.5 52t-48.5 158v284h120v-264q0 -64 26 -91t74 -27q51 0 82.5 33t31.5 94v255h120z
M341 571l-53 61l-53 -61h-99l97 134h110l96 -134h-98z" />
    <glyph glyph-name="Ydieresis" unicode="&#x178;" horiz-adv-x="645" 
d="M261 273l-243 427h134l170 -305l171 305h134l-244 -427v-273h-122v273zM178 786q-21 21 -21 50t21 50t51 21q28 0 49 -21t21 -50t-21 -50t-49 -21q-30 0 -51 21zM365.5 786q-20.5 21 -20.5 50t20.5 50t49.5 21q30 0 50.5 -21t20.5 -50t-20.5 -50t-50.5 -21
q-29 0 -49.5 21z" />
    <glyph glyph-name="Zacute" unicode="&#x179;" horiz-adv-x="612" 
d="M42 107l374 483h-350v110h503v-107l-375 -483h372v-110h-524v107zM330 903h147l-114 -134h-102z" />
    <glyph glyph-name="zacute" unicode="&#x17a;" horiz-adv-x="475" 
d="M39 89l248 311h-241v99h386v-88l-247 -311h251v-100h-397v89zM254 705h147l-114 -134h-102z" />
    <glyph glyph-name="Zdotaccent" unicode="&#x17b;" horiz-adv-x="612" 
d="M42 107l374 483h-350v110h503v-107l-375 -483h372v-110h-524v107zM263.5 789q-20.5 21 -20.5 50t20.5 50t49.5 21t50.5 -21t21.5 -50t-21.5 -50t-50.5 -21t-49.5 21z" />
    <glyph glyph-name="zdotaccent" unicode="&#x17c;" horiz-adv-x="475" 
d="M39 89l248 311h-241v99h386v-88l-247 -311h251v-100h-397v89zM187.5 588q-20.5 21 -20.5 50t20.5 50t49.5 21t50.5 -21t21.5 -50t-21.5 -50t-50.5 -21t-49.5 21z" />
    <glyph glyph-name="Zcaron" unicode="&#x17d;" horiz-adv-x="612" 
d="M42 107l374 483h-350v110h503v-107l-375 -483h372v-110h-524v107zM464 905l-96 -134h-110l-97 134h99l53 -61l53 61h98z" />
    <glyph glyph-name="zcaron" unicode="&#x17e;" horiz-adv-x="475" 
d="M39 89l248 311h-241v99h386v-88l-247 -311h251v-100h-397v89zM389 704l-96 -134h-110l-97 134h99l53 -61l53 61h98z" />
    <glyph glyph-name="longs" unicode="&#x17f;" horiz-adv-x="291" 
d="M60 583q0 65 34.5 98t91.5 33q30 0 55 -5.5t36 -12.5l-28 -96q-12 5 -32 5q-37 0 -37 -40v-565h-120v583z" />
    <glyph glyph-name="florin" unicode="&#x192;" horiz-adv-x="437" 
d="M286 499h118v-105h-118v-417q0 -69 -41 -108.5t-101 -39.5q-80 0 -124 44l52 83q17 -17 46 -17q22 0 34 14t12 40v401h-93v105h93v122q0 69 41 108.5t101 39.5q49 0 79.5 -14.5t44.5 -29.5l-51 -83q-17 17 -46 17q-47 0 -47 -54v-106z" />
    <glyph glyph-name="uni01B5" unicode="&#x1b5;" horiz-adv-x="612" 
d="M569 593l-155 -200h109v-92h-181l-148 -191h372v-110h-524v107l150 194h-100v92h171l153 197h-350v110h503v-107z" />
    <glyph glyph-name="uni01B6" unicode="&#x1b6;" horiz-adv-x="475" 
d="M436 100v-100h-397v89l99 124h-74v76h134l89 111h-241v99h386v-88l-97 -122h72v-76h-132l-90 -113h251z" />
    <glyph glyph-name="AEacute" unicode="&#x1fc;" horiz-adv-x="990" 
d="M627 590v-184h276v-107h-276v-189h318v-110h-440v152h-256l-102 -152h-129l472 700h455v-110h-318zM505 259v273l-184 -273h184zM697 903h147l-114 -134h-102z" />
    <glyph glyph-name="aeacute" unicode="&#x1fd;" horiz-adv-x="874" 
d="M836 210h-373q3 -32 21 -61t48.5 -46.5t68.5 -17.5q48 0 79.5 23t42.5 53l101 -31q-23 -64 -79.5 -104t-143.5 -40q-59 0 -110 24.5t-86 67.5q-12 -34 -53.5 -63.5t-122.5 -29.5q-82 0 -135.5 42.5t-53.5 112.5q0 61 43.5 103.5t153.5 58.5l107 15v9q0 91 -92 91
q-46 0 -69.5 -20.5t-29.5 -60.5l-106 26q21 76 71 113.5t138 37.5q54 0 98.5 -17t72.5 -52q34 33 78.5 51t94.5 18q71 0 124.5 -32.5t82.5 -90.5t29 -134v-46zM730 302q-2 25 -17 51t-43.5 43.5t-68.5 17.5q-57 0 -92.5 -32.5t-44.5 -79.5h266zM344 236l-99 -15
q-47 -7 -68.5 -24.5t-21.5 -49.5q0 -29 23.5 -47t64.5 -18q43 0 72 25t29 68v61zM453 705h147l-114 -134h-102z" />
    <glyph glyph-name="Oslashacute" unicode="&#x1fe;" horiz-adv-x="815" 
d="M738 496.5q27 -68.5 27 -145.5q0 -99 -44 -182t-125 -132.5t-188 -49.5q-93 0 -167 37l-57 -80l-84 60l57 80q-52 50 -79.5 119.5t-27.5 147.5q0 99 43.5 182t124.5 132.5t190 49.5q94 0 170 -39l49 69l84 -61l-49 -69q49 -50 76 -118.5zM226 182l284 399q-48 21 -102 21
q-71 0 -124.5 -32.5t-82.5 -89.5t-29 -129q0 -101 54 -169zM532 132.5q53 32.5 82 89.5t29 129q0 98 -52 165l-282 -397q46 -19 99 -19q71 0 124 32.5zM426 903h147l-114 -134h-102z" />
    <glyph glyph-name="oslashacute" unicode="&#x1ff;" horiz-adv-x="595" 
d="M538.5 351q18.5 -47 18.5 -101q0 -73 -34 -133.5t-93 -95.5t-133 -35q-62 0 -115 25l-41 -56l-72 52l41 57q-34 36 -53 84t-19 102q0 73 33.5 133t93 95t132.5 35q63 0 117 -26l39 54l72 -53l-39 -54q34 -36 52.5 -83zM181 162l166 231q-24 9 -50 9q-61 0 -100 -43
t-39 -109q0 -50 23 -88zM397 140.5q40 43.5 40 109.5q0 47 -22 85l-166 -230q24 -8 48 -8q60 0 100 43.5zM308 705h147l-114 -134h-102z" />
    <glyph glyph-name="Scommaaccent" unicode="&#x218;" horiz-adv-x="602" 
d="M132.5 38q-69.5 51 -94.5 148l114 33q19 -63 54 -92.5t100 -29.5q61 0 98.5 26t37.5 74q0 38 -30 63t-107 38q-123 23 -185 73t-62 137q0 60 31.5 107t87.5 73.5t128 26.5q96 0 159 -50t86 -141l-114 -32q-15 57 -45.5 85t-85.5 28q-57 0 -91 -25t-34 -72q0 -39 34.5 -59
t112.5 -36q122 -24 179.5 -75.5t57.5 -140.5q0 -62 -34 -110t-93 -74t-131 -26q-104 0 -173.5 51zM289 -171q-22 5 -34.5 18.5t-12.5 35.5q0 28 19.5 44t41.5 16q28 0 46.5 -17.5t18.5 -49.5t-17.5 -66.5t-45.5 -55.5l-42 29q20 26 26 46z" />
    <glyph glyph-name="scommaaccent" unicode="&#x219;" horiz-adv-x="486" 
d="M111 25.5q-54 39.5 -73 109.5l106 34q23 -83 102 -83q41 0 65 15t24 42q0 21 -19.5 35.5t-72.5 23.5q-92 17 -141.5 50.5t-49.5 104.5q0 43 23.5 78.5t67.5 56.5t103 21q75 0 124.5 -37.5t65.5 -105.5l-105 -30q-18 73 -85 73q-40 0 -61 -15t-21 -36q0 -24 23.5 -36
t76.5 -22q91 -16 137.5 -52t46.5 -107q0 -45 -25 -81t-71 -57t-106 -21q-81 0 -135 39.5zM230 -171q-22 5 -34.5 18.5t-12.5 35.5q0 28 19.5 44t41.5 16q28 0 46.5 -17.5t18.5 -49.5t-17.5 -66.5t-45.5 -55.5l-42 29q20 26 26 46z" />
    <glyph glyph-name="uni021A" unicode="&#x21a;" horiz-adv-x="578" 
d="M228 587h-202v113h526v-113h-202v-587h-122v587zM272 -171q-22 5 -34.5 18.5t-12.5 35.5q0 28 19.5 44t41.5 16q28 0 46.5 -17.5t18.5 -49.5t-17.5 -66.5t-45.5 -55.5l-42 29q20 26 26 46z" />
    <glyph glyph-name="uni021B" unicode="&#x21b;" horiz-adv-x="385" 
d="M146 24.5q-40 38.5 -40 109.5v260h-86v105h86v130h120v-130h127v-105h-127v-243q0 -53 47 -53q27 0 46 17l50 -85q-14 -17 -45 -30.5t-77 -13.5q-61 0 -101 38.5zM218 -171q-22 5 -34.5 18.5t-12.5 35.5q0 28 19.5 44t41.5 16q28 0 46.5 -17.5t18.5 -49.5t-17.5 -66.5
t-45.5 -55.5l-42 29q20 26 26 46z" />
    <glyph glyph-name="uni0237" unicode="&#x237;" horiz-adv-x="255" 
d="M-23.5 -201.5q-29.5 13.5 -44.5 29.5l50 85q16 -16 45 -16q23 0 34.5 14t11.5 40v548h120v-564q0 -69 -41 -109.5t-102 -40.5q-44 0 -73.5 13.5z" />
    <glyph glyph-name="uni02BB" unicode="&#x2bb;" horiz-adv-x="209" 
d="M70 546q12 28 13 50q-25 9 -39.5 27t-14.5 44q0 32 21.5 54.5t53.5 22.5q33 0 55 -22t22 -64q0 -45 -24 -102t-67 -98l-49 37q17 23 29 51z" />
    <glyph glyph-name="circumflex" unicode="&#x2c6;" horiz-adv-x="567" 
d="M337 571l-53 61l-53 -61h-99l97 134h110l96 -134h-98z" />
    <glyph glyph-name="caron" unicode="&#x2c7;" horiz-adv-x="567" 
d="M435 704l-96 -134h-110l-97 134h99l53 -61l53 61h98z" />
    <glyph glyph-name="breve" unicode="&#x2d8;" horiz-adv-x="567" 
d="M177.5 608.5q-39.5 37.5 -42.5 96.5h82q3 -26 18.5 -41t41.5 -15q27 0 43 15t19 41h82q-4 -58 -44.5 -96t-100.5 -38q-59 0 -98.5 37.5z" />
    <glyph glyph-name="dotaccent" unicode="&#x2d9;" horiz-adv-x="567" 
d="M232.5 588q-20.5 21 -20.5 50t20.5 50t49.5 21t50.5 -21t21.5 -50t-21.5 -50t-50.5 -21t-49.5 21z" />
    <glyph glyph-name="ring" unicode="&#x2da;" horiz-adv-x="567" 
d="M215.5 574.5q-28.5 29.5 -28.5 68.5t28.5 68t68.5 29q39 0 68 -28.5t29 -68.5q0 -39 -29 -68.5t-68 -29.5q-40 0 -68.5 29.5zM308.5 618.5q10.5 10.5 10.5 24.5t-10.5 24.5t-24.5 10.5q-15 0 -25 -10.5t-10 -24.5t10 -24.5t25 -10.5q14 0 24.5 10.5z" />
    <glyph glyph-name="ogonek" unicode="&#x2db;" horiz-adv-x="567" 
d="M308 -187q-53 0 -83.5 25.5t-30.5 66.5q0 38 20.5 67t52.5 49l74 -21q-60 -31 -60 -73q0 -16 11.5 -27t34.5 -11h7v-74q-18 -2 -26 -2z" />
    <glyph glyph-name="tilde" unicode="&#x2dc;" horiz-adv-x="567" 
d="M309.5 580.5q-16.5 5.5 -35.5 15.5q-15 8 -25 11.5t-21 3.5q-14 0 -27.5 -9.5t-22.5 -29.5l-66 43q32 84 107 84q20 0 34.5 -5t35.5 -15q12 -6 25 -11t25 -5q29 0 49 41l67 -45q-14 -42 -42.5 -63t-65.5 -21q-21 0 -37.5 5.5z" />
    <glyph glyph-name="hungarumlaut" unicode="&#x2dd;" horiz-adv-x="567" 
d="M143 571l66 134h129l-111 -134h-84zM305 571l66 134h129l-111 -134h-84z" />
    <glyph glyph-name="gravecomb" unicode="&#x300;" 
d="M-162 705h147l69 -134h-102z" />
    <glyph glyph-name="acutecomb" unicode="&#x301;" 
d="M16 705h147l-114 -134h-102z" />
    <glyph glyph-name="uni0302" unicode="&#x302;" 
d="M53 571l-53 61l-53 -61h-99l97 134h110l96 -134h-98z" />
    <glyph glyph-name="tildecomb" unicode="&#x303;" 
d="M24.5 580.5q-16.5 5.5 -35.5 15.5q-15 8 -25 11.5t-21 3.5q-14 0 -27.5 -9.5t-22.5 -29.5l-66 43q32 84 107 84q20 0 34.5 -5t35.5 -15q12 -6 25 -11t25 -5q29 0 49 41l67 -45q-14 -42 -42.5 -63t-65.5 -21q-21 0 -37.5 5.5z" />
    <glyph glyph-name="uni0304" unicode="&#x304;" 
d="M-114 682h228v-88h-228v88z" />
    <glyph glyph-name="uni0306" unicode="&#x306;" 
d="M-99.5 608.5q-39.5 37.5 -42.5 96.5h82q3 -26 18.5 -41t41.5 -15q27 0 43 15t19 41h82q-4 -58 -44.5 -96t-100.5 -38q-59 0 -98.5 37.5z" />
    <glyph glyph-name="uni0307" unicode="&#x307;" 
d="M-50.5 588q-20.5 21 -20.5 50t20.5 50t49.5 21t50.5 -21t21.5 -50t-21.5 -50t-50.5 -21t-49.5 21z" />
    <glyph glyph-name="uni0308" unicode="&#x308;" 
d="M-140 588q-21 21 -21 50t21 50t50 21t50 -21t21 -50t-21 -50t-50 -21t-50 21zM38.5 588q-21.5 21 -21.5 50t21.5 50t50.5 21q28 0 49 -21t21 -50t-21 -50t-49 -21q-29 0 -50.5 21z" />
    <glyph glyph-name="uni030A" unicode="&#x30a;" 
d="M-67.5 574.5q-28.5 29.5 -28.5 68.5t28.5 68t68.5 29q39 0 68 -28.5t29 -68.5q0 -39 -29 -68.5t-68 -29.5q-40 0 -68.5 29.5zM25.5 618.5q10.5 10.5 10.5 24.5t-10.5 24.5t-24.5 10.5q-15 0 -25 -10.5t-10 -24.5t10 -24.5t25 -10.5q14 0 24.5 10.5z" />
    <glyph glyph-name="uni030B" unicode="&#x30b;" 
d="M-132 571l66 134h129l-111 -134h-84zM30 571l66 134h129l-111 -134h-84z" />
    <glyph glyph-name="uni030C" unicode="&#x30c;" 
d="M151 704l-96 -134h-110l-97 134h99l53 -61l53 61h98z" />
    <glyph glyph-name="uni0312" unicode="&#x312;" 
d="M14 687q21 -5 34 -18.5t13 -35.5q0 -28 -19.5 -44t-42.5 -16q-28 0 -46.5 17.5t-18.5 48.5q0 32 17.5 66.5t45.5 56.5l42 -29q-20 -26 -25 -46z" />
    <glyph glyph-name="uni0326" unicode="&#x326;" 
d="M-17 -171q-22 5 -34.5 18.5t-12.5 35.5q0 28 19.5 44t41.5 16q28 0 46.5 -17.5t18.5 -49.5t-17.5 -66.5t-45.5 -55.5l-42 29q20 26 26 46z" />
    <glyph glyph-name="uni0327" unicode="&#x327;" 
d="M-65 -205.5q-27 21.5 -30 52.5l61 20q0 -15 9.5 -24.5t25.5 -9.5q15 0 24.5 9.5t9.5 24.5t-9.5 24t-24.5 9t-22 -7l-49 27l47 88l59 -8l-23 -42q38 -2 63 -24.5t25 -61.5q0 -45 -27.5 -72t-72.5 -27q-39 0 -66 21.5z" />
    <glyph glyph-name="uni0328" unicode="&#x328;" 
d="M73 -187q-53 0 -83.5 25.5t-30.5 66.5q0 38 20.5 67t52.5 49l74 -21q-60 -31 -60 -73q0 -16 11.5 -27t34.5 -11h7v-74q-18 -2 -26 -2z" />
    <glyph glyph-name="uni0335" unicode="&#x335;" 
d="M-174 425h333v-80h-333v80z" />
    <glyph glyph-name="uni0336" unicode="&#x336;" 
d="M-54 396h360v-92h-360v92z" />
    <glyph glyph-name="uni0337" unicode="&#x337;" 
d="M-43 297l280 204l55 -77l-282 -205z" />
    <glyph glyph-name="uni0338" unicode="&#x338;" 
d="M-77 -3l384 534l72 -53l-383 -533z" />
    <glyph glyph-name="uni0394" unicode="&#x394;" horiz-adv-x="684" 
d="M277 700h130l259 -700h-648zM500 110l-158 434l-158 -434h316z" />
    <glyph glyph-name="uni03A9" unicode="&#x3a9;" horiz-adv-x="812" 
d="M732.5 215.5q-29.5 -63.5 -83.5 -108.5h113v-107h-297v107q82 19 128.5 85t46.5 159q0 71 -28.5 128t-82 90t-123.5 33t-123.5 -33t-82 -90t-28.5 -128q0 -93 46 -159t128 -85v-107h-296v107h111q-52 43 -81.5 105t-29.5 142q0 98 43.5 180.5t124.5 131.5t188 49t188 -49
t124.5 -131.5t43.5 -180.5q0 -75 -29.5 -138.5z" />
    <glyph glyph-name="uni03BC" unicode="&#x3bc;" horiz-adv-x="567" 
d="M507 499v-499h-99l-17 60q-56 -74 -152 -74q-34 0 -59 7v-193h-120v699h120v-285q0 -63 25.5 -89.5t71.5 -26.5q48 0 79 33.5t31 94.5v273h120z" />
    <glyph glyph-name="pi" unicode="&#x3c0;" horiz-adv-x="660" 
d="M644 27q-15 -16 -44 -28.5t-76 -12.5q-60 0 -99.5 38.5t-40.5 109.5v262h-144v-396h-120v396h-100v103h608v-103h-124v-248q0 -53 46 -53q27 0 44 15z" />
    <glyph glyph-name="Wgrave" unicode="&#x1e80;" horiz-adv-x="955" 
d="M937 700l-197 -700h-122l-142 527l-139 -527h-122l-197 700h126l136 -519l137 519h122l137 -512l135 512h126zM314 903h147l69 -134h-102z" />
    <glyph glyph-name="wgrave" unicode="&#x1e81;" horiz-adv-x="779" 
d="M765 499l-155 -499h-122l-98 346l-98 -346h-123l-155 499h120l99 -359l101 359h112l101 -357l98 357h120zM228 705h147l69 -134h-102z" />
    <glyph glyph-name="Wacute" unicode="&#x1e82;" horiz-adv-x="955" 
d="M937 700l-197 -700h-122l-142 527l-139 -527h-122l-197 700h126l136 -519l137 519h122l137 -512l135 512h126zM495 903h147l-114 -134h-102z" />
    <glyph glyph-name="wacute" unicode="&#x1e83;" horiz-adv-x="779" 
d="M765 499l-155 -499h-122l-98 346l-98 -346h-123l-155 499h120l99 -359l101 359h112l101 -357l98 357h120zM406 705h147l-114 -134h-102z" />
    <glyph glyph-name="Wdieresis" unicode="&#x1e84;" horiz-adv-x="955" 
d="M937 700l-197 -700h-122l-142 527l-139 -527h-122l-197 700h126l136 -519l137 519h122l137 -512l135 512h126zM334 786q-21 21 -21 50t21 50t51 21q28 0 49 -21t21 -50t-21 -50t-49 -21q-30 0 -51 21zM521.5 786q-20.5 21 -20.5 50t20.5 50t49.5 21q30 0 50.5 -21
t20.5 -50t-20.5 -50t-50.5 -21q-29 0 -49.5 21z" />
    <glyph glyph-name="wdieresis" unicode="&#x1e85;" horiz-adv-x="779" 
d="M765 499l-155 -499h-122l-98 346l-98 -346h-123l-155 499h120l99 -359l101 359h112l101 -357l98 357h120zM250 588q-21 21 -21 50t21 50t50 21t50 -21t21 -50t-21 -50t-50 -21t-50 21zM428.5 588q-21.5 21 -21.5 50t21.5 50t50.5 21q28 0 49 -21t21 -50t-21 -50t-49 -21
q-29 0 -50.5 21z" />
    <glyph glyph-name="uni1E8A" unicode="&#x1e8a;" horiz-adv-x="673" 
d="M512 0l-175 259l-175 -259h-144l239 355l-230 345h145l165 -248l165 248h144l-228 -342l237 -358h-143zM290.5 789q-20.5 21 -20.5 50t20.5 50t49.5 21t50.5 -21t21.5 -50t-21.5 -50t-50.5 -21t-49.5 21z" />
    <glyph glyph-name="uni1E8B" unicode="&#x1e8b;" horiz-adv-x="527" 
d="M380 0l-117 165l-117 -165h-132l181 252l-179 247h134l113 -159l113 159h132l-177 -246l182 -253h-133zM213.5 588q-20.5 21 -20.5 50t20.5 50t49.5 21t50.5 -21t21.5 -50t-21.5 -50t-50.5 -21t-49.5 21z" />
    <glyph glyph-name="Ygrave" unicode="&#x1ef2;" horiz-adv-x="645" 
d="M261 273l-243 427h134l170 -305l171 305h134l-244 -427v-273h-122v273zM158 903h147l69 -134h-102z" />
    <glyph glyph-name="ygrave" unicode="&#x1ef3;" horiz-adv-x="576" 
d="M516 499v-480q0 -106 -63 -169.5t-175 -63.5q-90 0 -144.5 43.5t-73.5 115.5l112 23q16 -79 106 -79q55 0 86.5 33.5t31.5 95.5v53l-1 3q-28 -34 -63 -51.5t-88 -17.5q-85 0 -133.5 52t-48.5 158v284h120v-264q0 -64 26 -91t74 -27q51 0 82.5 33t31.5 94v255h120z
M126 705h147l69 -134h-102z" />
    <glyph glyph-name="endash" unicode="&#x2013;" horiz-adv-x="600" 
d="M50 356h500v-112h-500v112z" />
    <glyph glyph-name="emdash" unicode="&#x2014;" horiz-adv-x="1100" 
d="M50 355h1000v-110h-1000v110z" />
    <glyph glyph-name="quoteleft" unicode="&#x2018;" horiz-adv-x="210" 
d="M140 675q-12 -28 -13 -50q25 -9 39.5 -27t14.5 -44q0 -32 -21.5 -54.5t-53.5 -22.5q-33 0 -55 22t-22 64q0 45 24 102t67 98l49 -37q-17 -23 -29 -51z" />
    <glyph glyph-name="quoteright" unicode="&#x2019;" horiz-adv-x="210" 
d="M70 564q12 28 13 50q-25 9 -39.5 27t-14.5 44q0 32 21.5 54.5t53.5 22.5q33 0 55 -22t22 -64q0 -45 -24 -102t-67 -98l-49 37q17 23 29 51z" />
    <glyph glyph-name="quotesinglbase" unicode="&#x201a;" horiz-adv-x="210" 
d="M70 -55q12 28 13 50q-25 9 -39.5 27t-14.5 44q0 32 21.5 54.5t53.5 22.5q33 0 55 -22t22 -64q0 -45 -24 -102t-67 -98l-49 37q17 23 29 51z" />
    <glyph glyph-name="quotedblleft" unicode="&#x201c;" horiz-adv-x="413" 
d="M140 675q-12 -28 -13 -50q25 -9 39.5 -27t14.5 -44q0 -32 -21.5 -54.5t-53.5 -22.5q-33 0 -55 22t-22 64q0 45 24 102t67 98l49 -37q-17 -23 -29 -51zM343 675q-12 -28 -13 -50q25 -9 39.5 -27t14.5 -44q0 -32 -21.5 -54.5t-53.5 -22.5q-33 0 -55 22t-22 64q0 45 24 102
t67 98l49 -37q-17 -23 -29 -51z" />
    <glyph glyph-name="quotedblright" unicode="&#x201d;" horiz-adv-x="413" 
d="M70 564q12 28 13 50q-25 9 -39.5 27t-14.5 44q0 32 21.5 54.5t53.5 22.5q33 0 55 -22t22 -64q0 -45 -24 -102t-67 -98l-49 37q17 23 29 51zM273 564q12 28 13 50q-25 9 -39.5 27t-14.5 44q0 32 21.5 54.5t53.5 22.5q33 0 55 -22t22 -64q0 -45 -24 -102t-67 -98l-49 37
q17 23 29 51z" />
    <glyph glyph-name="quotedblbase" unicode="&#x201e;" horiz-adv-x="413" 
d="M70 -38q12 28 13 50q-25 9 -39.5 27t-14.5 44q0 32 21.5 54.5t53.5 22.5q33 0 55 -22t22 -64q0 -45 -24 -102t-67 -98l-49 37q17 23 29 51zM273 -38q12 28 13 50q-25 9 -39.5 27t-14.5 44q0 32 21.5 54.5t53.5 22.5q33 0 55 -22t22 -64q0 -45 -24 -102t-67 -98l-49 37
q17 23 29 51z" />
    <glyph glyph-name="dagger" unicode="&#x2020;" horiz-adv-x="321" 
d="M287 529h-85v-179h-83v179h-85v76h85v95h83v-95h85v-76z" />
    <glyph glyph-name="daggerdbl" unicode="&#x2021;" horiz-adv-x="321" 
d="M202 529v-48h85v-76h-85v-95h-83v95h-85v76h85v48h-85v76h85v95h83v-95h85v-76h-85z" />
    <glyph glyph-name="bullet" unicode="&#x2022;" horiz-adv-x="269" 
d="M60 225.5q-31 30.5 -31 74.5t31 74.5t75 30.5q43 0 74 -31t31 -74q0 -44 -31 -74.5t-74 -30.5q-44 0 -75 30.5z" />
    <glyph glyph-name="ellipsis" unicode="&#x2026;" horiz-adv-x="667" 
d="M51 15.5q-22 22.5 -22 53.5t22 53t53 22t53.5 -22t22.5 -53t-22 -53.5t-54 -22.5q-31 0 -53 22.5zM280.5 15.5q-22.5 22.5 -22.5 53.5t22.5 53t53.5 22t53 -22t22 -53t-22 -53.5t-53 -22.5t-53.5 22.5zM509 15.5q-22 22.5 -22 53.5t22 53t53 22t53.5 -22t22.5 -53
t-22 -53.5t-54 -22.5q-31 0 -53 22.5z" />
    <glyph glyph-name="perthousand" unicode="&#x2030;" horiz-adv-x="1117" 
d="M127.5 427q-35.5 19 -56.5 53t-21 77t20 77t54 53.5t74 19.5q42 0 77 -19t55.5 -53.5t20.5 -77.5t-19.5 -77t-53 -53t-74.5 -19t-76.5 19zM560 700h113l-473 -700h-112zM252.5 506q19.5 20 19.5 51q0 34 -20 53t-52 19q-30 0 -49.5 -19.5t-19.5 -52.5q0 -32 21 -51.5
t52 -19.5q29 0 48.5 20zM488.5 12q-34.5 19 -55 53.5t-20.5 77.5t20 76.5t54.5 52.5t75.5 19t75.5 -19t55 -53t20.5 -76q0 -44 -20 -78t-54.5 -53t-75.5 -19t-75.5 19zM841.5 8q-34.5 19 -54.5 53t-20 77t20 77t54 53t75 19t75.5 -19t55 -53t20.5 -77t-20 -77t-54.5 -53
t-75.5 -19t-75.5 19zM616 90.5q20 20.5 20 52.5q0 33 -20.5 53t-50.5 20q-31 0 -51.5 -20t-20.5 -53q0 -32 21 -52.5t52 -20.5q30 0 50 20.5zM970 86.5q20 20.5 20 51.5q0 34 -20.5 53.5t-51.5 19.5t-51.5 -20t-20.5 -53q0 -32 21.5 -52t52.5 -20q30 0 50 20.5z" />
    <glyph glyph-name="guilsinglleft" unicode="&#x2039;" horiz-adv-x="307" 
d="M257 115h-123l-84 186l84 184h122l-84 -184z" />
    <glyph glyph-name="guilsinglright" unicode="&#x203a;" horiz-adv-x="307" 
d="M257 301l-84 -186h-123l85 186l-84 184h122z" />
    <glyph glyph-name="fraction" unicode="&#x2044;" horiz-adv-x="217" 
d="M-200 43l558 662l59 -47l-556 -663z" />
    <glyph glyph-name="uni2070" unicode="&#x2070;" horiz-adv-x="334" 
d="M68 482.5q-34 50.5 -34 132.5q0 81 34 131t100 50q64 0 98 -50t34 -131t-34 -132t-98 -51q-66 0 -100 50.5zM210 531.5q14 29.5 14 82.5q0 52 -14 81t-42 29q-58 0 -58 -110q0 -53 14.5 -82.5t43.5 -29.5q28 0 42 29.5z" />
    <glyph glyph-name="uni2074" unicode="&#x2074;" horiz-adv-x="310" 
d="M177 525h-155v55l149 210h82l1 -201h34v-64h-34l-1 -85h-77zM177 589l-1 97l-70 -96z" />
    <glyph glyph-name="uni2075" unicode="&#x2075;" horiz-adv-x="320" 
d="M71 463q-36 30 -37 72l71 21q0 -24 15 -37.5t38 -13.5q21 0 36 14t15 36q0 23 -14.5 37t-36.5 14q-15 0 -27 -6t-19 -15l-65 25l17 180h202v-72h-137l-6 -54q19 7 41 7q54 0 88 -31t34 -84q0 -56 -36 -89.5t-92 -33.5q-51 0 -87 30z" />
    <glyph glyph-name="uni2076" unicode="&#x2076;" horiz-adv-x="327" 
d="M66.5 478q-32.5 45 -32.5 125q0 194 136 194q48 0 77 -24t39 -66l-68 -19q-7 20 -18 29t-30 9q-53 0 -55 -72q3 5 20 12.5t42 7.5q50 0 83 -33t33 -87t-36.5 -87.5t-90.5 -33.5q-67 0 -99.5 45zM202.5 518.5q14.5 14.5 14.5 35.5q0 23 -14 36.5t-37 13.5t-37 -14t-14 -36
t14.5 -36t36.5 -14t36.5 14.5z" />
    <glyph glyph-name="uni2077" unicode="&#x2077;" horiz-adv-x="278" 
d="M114.5 587.5q26.5 80.5 55.5 131.5h-148v71h233v-71q-33 -51 -62 -132t-39 -147h-76q10 67 36.5 147.5z" />
    <glyph glyph-name="uni2078" unicode="&#x2078;" horiz-adv-x="323" 
d="M289 547q0 -50 -37 -82t-91 -32q-53 0 -90 32t-37 82q0 24 10.5 44.5t28.5 35.5q-27 27 -27 67q0 45 33 74t82 29t82 -29t33 -74q0 -39 -27 -66q40 -30 40 -81zM132 666q12 -11 29 -11q18 0 29.5 10.5t11.5 28.5q0 17 -11.5 27.5t-29.5 10.5q-17 0 -29 -10.5t-12 -27.5
t12 -28zM197 515q15 13 15 33q0 21 -15 34t-36 13t-35.5 -13t-14.5 -34q0 -20 14.5 -33t35.5 -13t36 13z" />
    <glyph glyph-name="uni2079" unicode="&#x2079;" horiz-adv-x="327" 
d="M81.5 457.5q-29.5 24.5 -39.5 65.5l67 19q7 -20 18.5 -29t30.5 -9q52 0 55 73q-4 -6 -20 -13t-42 -7q-50 0 -83.5 32.5t-33.5 86.5t36.5 87.5t91.5 33.5q67 0 99 -44.5t32 -124.5q0 -94 -32 -144.5t-103 -50.5q-47 0 -76.5 24.5zM199 640q14 14 14 36t-14.5 36.5
t-36.5 14.5t-37 -14.5t-15 -36.5t15 -36t37 -14q23 0 37 14z" />
    <glyph glyph-name="uni2080" unicode="&#x2080;" horiz-adv-x="334" 
d="M68 -32.5q-34 50.5 -34 132.5q0 81 34 131t100 50q64 0 98 -50t34 -131t-34 -132t-98 -51q-66 0 -100 50.5zM210 16.5q14 29.5 14 82.5q0 52 -14 81t-42 29q-58 0 -58 -110q0 -53 14.5 -82.5t43.5 -29.5q28 0 42 29.5z" />
    <glyph glyph-name="uni2081" unicode="&#x2081;" horiz-adv-x="213" 
d="M85 190q-12 -8 -32.5 -15t-35.5 -10v77q14 2 35 12t33 21h77v-350h-77v265z" />
    <glyph glyph-name="uni2082" unicode="&#x2082;" horiz-adv-x="313" 
d="M41 -3l120 101q25 23 33.5 37t8.5 32t-13 31t-34 13q-25 0 -38.5 -15.5t-13.5 -42.5l-70 19q3 49 37 79.5t85 30.5q52 0 87.5 -32.5t35.5 -81.5q0 -36 -15.5 -62.5t-48.5 -55.5l-63 -53h127v-72h-238v72z" />
    <glyph glyph-name="uni2083" unicode="&#x2083;" horiz-adv-x="323" 
d="M69.5 -51.5q-34.5 30.5 -35.5 74.5l70 21q1 -23 16 -38.5t39 -15.5t39 14t15 37q0 22 -15 36.5t-39 14.5q-4 0 -19 -3l-39 46l76 69h-130v71h219v-71l-55 -54q33 -8 55.5 -34.5t22.5 -74.5q0 -53 -37 -88t-93 -35q-55 0 -89.5 30.5z" />
    <glyph glyph-name="uni2084" unicode="&#x2084;" horiz-adv-x="310" 
d="M177 10h-155v55l149 210h82l1 -201h34v-64h-34l-1 -85h-77zM177 74l-1 97l-70 -96z" />
    <glyph glyph-name="uni2085" unicode="&#x2085;" horiz-adv-x="320" 
d="M71 -52q-36 30 -37 72l71 21q0 -24 15 -37.5t38 -13.5q21 0 36 14t15 36q0 23 -14.5 37t-36.5 14q-15 0 -27 -6t-19 -15l-65 25l17 180h202v-72h-137l-6 -54q19 7 41 7q54 0 88 -31t34 -84q0 -56 -36 -89.5t-92 -33.5q-51 0 -87 30z" />
    <glyph glyph-name="uni2086" unicode="&#x2086;" horiz-adv-x="327" 
d="M66.5 -37q-32.5 45 -32.5 125q0 194 136 194q48 0 77 -24t39 -66l-68 -19q-7 20 -18 29t-30 9q-53 0 -55 -72q3 5 20 12.5t42 7.5q50 0 83 -33t33 -87t-36.5 -87.5t-90.5 -33.5q-67 0 -99.5 45zM202.5 3.5q14.5 14.5 14.5 35.5q0 23 -14 36.5t-37 13.5t-37 -14t-14 -36
t14.5 -36t36.5 -14t36.5 14.5z" />
    <glyph glyph-name="uni2087" unicode="&#x2087;" horiz-adv-x="278" 
d="M114.5 72.5q26.5 80.5 55.5 131.5h-148v71h233v-71q-33 -51 -62 -132t-39 -147h-76q10 67 36.5 147.5z" />
    <glyph glyph-name="uni2088" unicode="&#x2088;" horiz-adv-x="323" 
d="M289 32q0 -50 -37 -82t-91 -32q-53 0 -90 32t-37 82q0 24 10.5 44.5t28.5 35.5q-27 27 -27 67q0 45 33 74t82 29t82 -29t33 -74q0 -39 -27 -66q40 -30 40 -81zM132 151q12 -11 29 -11q18 0 29.5 10.5t11.5 28.5q0 17 -11.5 27.5t-29.5 10.5q-17 0 -29 -10.5t-12 -27.5
t12 -28zM197 0q15 13 15 33q0 21 -15 34t-36 13t-35.5 -13t-14.5 -34q0 -20 14.5 -33t35.5 -13t36 13z" />
    <glyph glyph-name="uni2089" unicode="&#x2089;" horiz-adv-x="327" 
d="M81.5 -57.5q-29.5 24.5 -39.5 65.5l67 19q7 -20 18.5 -29t30.5 -9q52 0 55 73q-4 -6 -20 -13t-42 -7q-50 0 -83.5 32.5t-33.5 86.5t36.5 87.5t91.5 33.5q67 0 99 -44.5t32 -124.5q0 -94 -32 -144.5t-103 -50.5q-47 0 -76.5 24.5zM199 125q14 14 14 36t-14.5 36.5
t-36.5 14.5t-37 -14.5t-15 -36.5t15 -36t37 -14q23 0 37 14z" />
    <glyph glyph-name="Euro" unicode="&#x20ac;" horiz-adv-x="726" 
d="M686 92q-92 -106 -241 -106q-118 0 -204.5 61t-120.5 171h-100l27 95h55q-1 12 -1 38q0 22 1 33h-82l27 95h74q34 107 121 171t203 64q74 0 134.5 -25.5t103.5 -73.5l-88 -74q-25 28 -63 44t-85 16q-63 0 -114.5 -33t-80.5 -89h228l-29 -95h-227q-2 -22 -2 -35
q0 -12 2 -36h208l-29 -95h-153q28 -57 80 -88t119 -31q92 0 148 64z" />
    <glyph glyph-name="uni20BF" unicode="&#x20bf;" horiz-adv-x="577" 
d="M493.5 91q-43.5 -49 -118.5 -62v-79h-84v74h-53v-74h-83v74h-82v654h82v62h83v-62h53v62h84v-68q69 -14 104.5 -58.5t35.5 -110.5q0 -93 -82 -137v-2q42 -14 73 -51t31 -100q0 -73 -43.5 -122zM379 556q-25 22 -70 22h-122v-174h122q47 0 71 23.5t24 65.5q0 41 -25 63z
M397.5 149.5q25.5 25.5 25.5 66.5q0 42 -26 68t-80 26h-130v-186h134q51 0 76.5 25.5z" />
    <glyph glyph-name="trademark" unicode="&#x2122;" horiz-adv-x="577" 
d="M50 700h183v-48h-66v-191h-51v191h-66v48zM527 461h-51v144l-62 -144h-34l-60 142l-1 -142h-51v239h57l73 -169l72 169h57v-239z" />
    <glyph glyph-name="estimated" unicode="&#x212e;" horiz-adv-x="893" 
d="M239.5 30.5q-89.5 44.5 -139.5 127t-50 191.5q0 107 50.5 190t140.5 128.5t206 45.5q178 -2 283 -99t113 -276h-632q-8 0 -12 -3t-4 -15v-178q0 -20 34 -50.5t92 -53.5t129 -23t137.5 32t110.5 82h75q-74 -81 -145.5 -112t-182.5 -31q-116 0 -205.5 44.5zM678 361
q11 0 14.5 4t3.5 14v173q0 29 -39 60.5t-98 53t-115 21.5q-65 -1 -122 -24.5t-92 -54.5t-35 -48v-190q0 -9 17 -9h466z" />
    <glyph glyph-name="uni2153" unicode="&#x2153;" horiz-adv-x="835" 
d="M128 615q-12 -8 -32.5 -15t-35.5 -10v77q14 2 35 12t33 21h77v-350h-77v265zM91 43l558 662l59 -47l-556 -663zM555.5 23.5q-34.5 30.5 -35.5 74.5l70 21q1 -23 16 -38.5t39 -15.5t39 14t15 37q0 22 -15 36.5t-39 14.5q-4 0 -19 -3l-39 46l76 69h-130v71h219v-71l-55 -54
q33 -8 55.5 -34.5t22.5 -74.5q0 -53 -37 -88t-93 -35q-55 0 -89.5 30.5z" />
    <glyph glyph-name="uni2154" unicode="&#x2154;" horiz-adv-x="867" 
d="M67 422l120 101q25 23 33.5 37t8.5 32t-13 31t-34 13q-25 0 -38.5 -15.5t-13.5 -42.5l-70 19q3 49 37 79.5t85 30.5q52 0 87.5 -32.5t35.5 -81.5q0 -36 -15.5 -62.5t-48.5 -55.5l-63 -53h127v-72h-238v72zM127 43l558 662l59 -47l-556 -663zM587.5 23.5
q-34.5 30.5 -35.5 74.5l70 21q1 -23 16 -38.5t39 -15.5t39 14t15 37q0 22 -15 36.5t-39 14.5q-4 0 -19 -3l-39 46l76 69h-130v71h219v-71l-55 -54q33 -8 55.5 -34.5t22.5 -74.5q0 -53 -37 -88t-93 -35q-55 0 -89.5 30.5z" />
    <glyph glyph-name="uni215F" unicode="&#x215f;" horiz-adv-x="505" 
d="M128 615q-12 -8 -32.5 -15t-35.5 -10v77q14 2 35 12t33 21h77v-350h-77v265zM87 43l558 662l59 -47l-556 -663z" />
    <glyph glyph-name="arrowleft" unicode="&#x2190;" horiz-adv-x="666" 
d="M616 252h-383l148 -149l-67 -68l-264 265l263 265l68 -68l-149 -150h384v-95z" />
    <glyph glyph-name="arrowup" unicode="&#x2191;" horiz-adv-x="629" 
d="M512 253l-151 149v-385h-94l-1 384l-149 -149l-67 67l264 264l265 -263z" />
    <glyph glyph-name="arrowright" unicode="&#x2192;" horiz-adv-x="666" 
d="M616 300l-264 -265l-67 68l148 149h-383v95h384l-149 150l68 68z" />
    <glyph glyph-name="arrowdown" unicode="&#x2193;" horiz-adv-x="629" 
d="M579 280l-265 -263l-264 264l67 67l149 -149l1 384h94v-385l151 149z" />
    <glyph glyph-name="arrowboth" unicode="&#x2194;" horiz-adv-x="832" 
d="M782 300l-264 -265l-67 68l148 149h-366l148 -149l-67 -68l-264 265l263 265l68 -68l-149 -150h368l-149 150l68 68z" />
    <glyph glyph-name="arrowupdn" unicode="&#x2195;" horiz-adv-x="630" 
d="M512 267l68 -68l-265 -263l-265 264l68 67l149 -148v366l-149 -148l-68 67l265 264l265 -263l-68 -68l-150 149v-368z" />
    <glyph glyph-name="uni2196" unicode="&#x2196;" horiz-adv-x="534" 
d="M417 82l-272 271v-210h-95v373l374 1v-95l-213 -1l273 -272z" />
    <glyph glyph-name="uni2197" unicode="&#x2197;" horiz-adv-x="534" 
d="M484 516v-373h-95v210l-272 -271l-67 67l273 272l-213 1v95z" />
    <glyph glyph-name="uni2198" unicode="&#x2198;" horiz-adv-x="534" 
d="M484 457v-373l-374 -1v95l213 1l-273 272l67 67l272 -271v210h95z" />
    <glyph glyph-name="uni2199" unicode="&#x2199;" horiz-adv-x="534" 
d="M211 179l213 -1v-95l-374 1v373h95v-210l272 271l67 -67z" />
    <glyph glyph-name="uni21A9" unicode="&#x21a9;" horiz-adv-x="668" 
d="M521.5 625.5q44.5 -26.5 70.5 -72t26 -100.5q0 -54 -26.5 -100t-72 -73.5t-100.5 -27.5h-187l124 -124l-68 -67l-238 238l237 239l68 -67l-124 -125h188q45 2 75.5 32.5t30.5 74.5q0 43 -29.5 74t-73.5 32v93q55 0 99.5 -26.5z" />
    <glyph glyph-name="uni21AA" unicode="&#x21aa;" horiz-adv-x="668" 
d="M618 299l-238 -238l-68 67l124 124h-187q-55 0 -100.5 27.5t-72 73.5t-26.5 100q0 55 26 100.5t70.5 72t99.5 26.5v-93q-44 -1 -73.5 -32t-29.5 -74q0 -44 30.5 -74.5t75.5 -32.5h188l-124 125l68 67z" />
    <glyph glyph-name="uni21B0" unicode="&#x21b0;" horiz-adv-x="628" 
d="M578 348v-347h-94v252l-252 1l149 -151l-68 -67l-263 265l264 263l67 -66l-148 -149z" />
    <glyph glyph-name="uni21B1" unicode="&#x21b1;" horiz-adv-x="628" 
d="M578 301l-263 -265l-68 67l149 151l-252 -1v-252h-94v347l345 1l-148 149l67 66z" />
    <glyph glyph-name="uni21B2" unicode="&#x21b2;" horiz-adv-x="628" 
d="M578 599v-347l-345 -1l148 -149l-67 -66l-264 263l263 265l68 -67l-149 -151l252 1v252h94z" />
    <glyph glyph-name="uni21B3" unicode="&#x21b3;" horiz-adv-x="628" 
d="M578 299l-264 -263l-67 66l148 149l-345 1v347h94v-252l252 -1l-149 151l68 67z" />
    <glyph glyph-name="uni21B4" unicode="&#x21b4;" horiz-adv-x="638" 
d="M588 318l-264 -264l-264 263l66 68l152 -150l-1 271h-227v94h322v-363l149 148z" />
    <glyph glyph-name="partialdiff" unicode="&#x2202;" horiz-adv-x="588" 
d="M163 16q-57 30 -89.5 84t-32.5 125q0 70 31 124t85 83t120 29q53 0 90.5 -18.5t52.5 -38.5q-5 95 -36 146t-101 51q-48 0 -75 -24.5t-41 -70.5l-108 32q21 81 76.5 128.5t147.5 47.5q141 0 202.5 -102.5t61.5 -294.5q0 -158 -64 -244.5t-192 -86.5q-71 0 -128 30z
M382.5 134.5q35.5 36.5 35.5 90.5q0 55 -36 90.5t-91 35.5q-57 0 -92.5 -34.5t-35.5 -91.5q0 -56 36 -91.5t92 -35.5t91.5 36.5z" />
    <glyph glyph-name="emptyset" unicode="&#x2205;" horiz-adv-x="604" 
d="M507 490q44 -63 44 -140q0 -67 -33.5 -124.5t-91 -91t-124.5 -33.5q-77 0 -140 44l-47 -48l-65 66l47 47q-43 64 -43 140q0 67 33.5 124.5t90.5 91t124 33.5q76 0 140 -43l47 47l65 -66zM167 280l206 207q-34 16 -71 16q-43 0 -77.5 -20t-54 -55t-19.5 -78q0 -36 16 -70z
M437 420l-206 -207q34 -16 71 -16q43 0 77.5 20t54 55t19.5 78q0 36 -16 70z" />
    <glyph glyph-name="uni2206" unicode="&#x2206;" horiz-adv-x="684" 
d="M342 700l324 -700h-648zM500 110l-158 348l-158 -348h316z" />
    <glyph glyph-name="product" unicode="&#x220f;" horiz-adv-x="572" 
d="M522 0h-121v587h-231v-587h-120v700h472v-700z" />
    <glyph glyph-name="summation" unicode="&#x2211;" horiz-adv-x="600" 
d="M550 590h-333l223 -240l-223 -240h333v-110h-500v94l234 256l-234 256v94h500v-110z" />
    <glyph glyph-name="minus" unicode="&#x2212;" horiz-adv-x="600" 
d="M50 405h500v-110h-500v110z" />
    <glyph glyph-name="uni2219" unicode="&#x2219;" horiz-adv-x="600" 
d="M247.5 296.5q-22.5 22.5 -22.5 53.5t22.5 53t53.5 22t53 -22t22 -53t-22 -53.5t-53 -22.5t-53.5 22.5z" />
    <glyph glyph-name="radical" unicode="&#x221a;" horiz-adv-x="600" 
d="M582 700l-260 -700h-131l-102 296h-69l1 110h69v-1l71 1l96 -266l197 560h128z" />
    <glyph glyph-name="infinity" unicode="&#x221e;" horiz-adv-x="702" 
d="M125 218q-35 20 -55 54.5t-20 77.5t20 77.5t55 54.5t78 20q37 0 72.5 -20.5t75.5 -64.5q38 44 73.5 64.5t73.5 20.5q44 0 79 -20t55 -54.5t20 -77.5t-20 -77.5t-55 -54.5t-79 -20q-40 0 -74 21t-73 65q-40 -45 -75.5 -65.5t-72.5 -20.5q-43 0 -78 20zM248.5 304.5
q20.5 14.5 48.5 45.5q-28 31 -48.5 45.5t-45.5 14.5t-41.5 -17t-16.5 -43t16.5 -43t41.5 -17t45.5 14.5zM541 307q17 17 17 43t-17 43t-43 17q-22 0 -44.5 -14.5t-49.5 -45.5q27 -31 49.5 -45.5t44.5 -14.5q26 0 43 17z" />
    <glyph glyph-name="integral" unicode="&#x222b;" horiz-adv-x="437" 
d="M385.5 754.5q30.5 -14.5 44.5 -29.5l-51 -83q-17 17 -46 17q-47 0 -47 -54v-628q0 -69 -41 -108.5t-101 -39.5q-80 0 -124 44l52 83q17 -17 46 -17q22 0 34 14t12 40v628q0 69 41 108.5t101 39.5q49 0 79.5 -14.5z" />
    <glyph glyph-name="approxequal" unicode="&#x2248;" horiz-adv-x="600" 
d="M350.5 157q-27.5 7 -69.5 21q-33 11 -52 16t-36 5q-24 0 -43 -12t-40 -41l-75 66q34 50 69.5 72.5t81.5 22.5q30 0 56.5 -7t68.5 -21q31 -12 51.5 -17.5t40.5 -5.5q23 0 41.5 12t38.5 41l82 -64q-33 -50 -71 -72.5t-86 -22.5q-30 0 -57.5 7zM350.5 398q-27.5 7 -69.5 21
q-33 11 -52 16t-36 5q-24 0 -43 -12t-40 -41l-75 66q34 50 69.5 72.5t81.5 22.5q30 0 56.5 -7t68.5 -21q31 -12 51.5 -17.5t40.5 -5.5q23 0 41.5 12t38.5 41l82 -64q-33 -50 -71 -72.5t-86 -22.5q-30 0 -57.5 7z" />
    <glyph glyph-name="notequal" unicode="&#x2260;" horiz-adv-x="600" 
d="M392 418l-63 -135h221v-110h-272l-56 -121l-99 47l34 74h-107v110h158l63 135h-221v110h271l55 118l100 -47l-33 -71h107v-110h-158z" />
    <glyph glyph-name="lessequal" unicode="&#x2264;" horiz-adv-x="600" 
d="M551 612l-346 -135l346 -137v-122l-501 198v122l501 197v-123zM51 160h500v-110h-500v110z" />
    <glyph glyph-name="greaterequal" unicode="&#x2265;" horiz-adv-x="600" 
d="M551 538v-122l-500 -198v122l345 137l-345 135v123zM50 160h500v-110h-500v110z" />
    <glyph glyph-name="uni258A" unicode="&#x258a;" horiz-adv-x="600" 
d="M75 700h450v-700h-450v700z" />
    <glyph glyph-name="lozenge" unicode="&#x25ca;" horiz-adv-x="653" 
d="M603 350h-1l-209 -349h-133l-209 349h-1v1h1l209 349h133l209 -349h1v-1zM469 351l-142 238l-143 -238l143 -239z" />
    <glyph glyph-name="uni25D0" unicode="&#x25d0;" horiz-adv-x="597" 
d="M422.5 515.5q57.5 -33.5 91 -91t33.5 -124.5t-33.5 -124.5t-91 -91t-124.5 -33.5t-124 33.5t-90.5 91t-33.5 124.5t33.5 124.5t90.5 91t124 33.5t124.5 -33.5zM396 131.5q43 24.5 68.5 68.5t25.5 100t-25.5 99.5t-68.5 68.5t-94 26v-388q51 1 94 25.5z" />
    <glyph glyph-name="smileface" unicode="&#x263a;" horiz-adv-x="828" 
d="M232 35q-84 49 -133 132.5t-49 182.5t49 182.5t133 132.5t182 49q99 0 182.5 -49t132.5 -132.5t49 -182.5t-49 -182.5t-132.5 -132.5t-182.5 -49q-98 0 -182 49zM564 91.5q69 40.5 109.5 109t40.5 149.5t-40.5 149.5t-109.5 109t-150 40.5t-149.5 -40.5t-109 -109
t-40.5 -149.5t40.5 -149.5t109 -109t149.5 -40.5t150 40.5zM258.5 368q-18.5 18 -18.5 43q0 26 18.5 44t43.5 18t43 -18t18 -44q0 -25 -18 -43t-43 -18t-43.5 18zM483 368q-18 18 -18 43q0 26 18 44t43 18q26 0 44 -18t18 -44q0 -25 -18.5 -43t-43.5 -18t-43 18z" />
    <glyph glyph-name="uni2713" unicode="&#x2713;" horiz-adv-x="694" 
d="M644 651l-337 -651h-118l-140 249l91 52l106 -191l297 590z" />
    <glyph glyph-name="uni2B0F" unicode="&#x2b0f;" horiz-adv-x="638" 
d="M521 269l-149 148v-363h-322v94h227l1 271l-152 -150l-66 68l264 263l264 -264z" />
    <glyph glyph-name="uni2B10" unicode="&#x2b10;" horiz-adv-x="638" 
d="M361 506l-1 -271l152 150l66 -68l-264 -263l-264 264l67 67l149 -148v363h322v-94h-227z" />
    <glyph glyph-name="uni2B11" unicode="&#x2b11;" horiz-adv-x="638" 
d="M588 148v-94h-322v363l-149 -148l-67 67l264 264l264 -263l-66 -68l-152 150l1 -271h227z" />
    <glyph glyph-name="fi" unicode="&#xfb01;" horiz-adv-x="626" 
d="M106 394h-86v105h86v68q0 69 40.5 108.5t100.5 39.5q49 0 78.5 -13.5t45.5 -29.5l-52 -83q-20 17 -47 17q-46 0 -46 -53v-54h127v-105h-127v-394h-120v394zM442 499h120v-499h-120v499zM450.5 588q-20.5 21 -20.5 50t20.5 50t49.5 21t50.5 -21t21.5 -50t-21.5 -50
t-50.5 -21t-49.5 21z" />
    <glyph glyph-name="fl" unicode="&#xfb02;" horiz-adv-x="618" 
d="M106 394h-86v105h86v68q0 69 40.5 108.5t100.5 39.5q49 0 78.5 -13.5t45.5 -29.5l-52 -83q-20 17 -47 17q-46 0 -46 -53v-54h127v-105h-127v-394h-120v394zM438 700h120v-700h-120v700z" />
    <glyph glyph-name="G.ss05" horiz-adv-x="775" 
d="M218 33q-80 47 -124 129.5t-44 187.5q0 102 44.5 185t124 131t179.5 48q120 0 195 -53t108 -141l-115 -40q-47 121 -182 121q-67 0 -120 -34t-82.5 -91.5t-29.5 -125.5q0 -71 29.5 -128.5t83 -90t121.5 -32.5q66 0 110 26.5t65 67t22 83.5h-147v104h269v-66
q-1 -93 -38.5 -167.5t-111 -117.5t-175.5 -43t-182 47z" />
    <glyph glyph-name="Gbreve.ss05" horiz-adv-x="775" 
d="M299.5 809.5q-39.5 37.5 -42.5 96.5h82q3 -26 18.5 -41t41.5 -15q27 0 43 15t19 41h82q-4 -58 -44.5 -96t-100.5 -38q-59 0 -98.5 37.5zM218 33q-80 47 -124 129.5t-44 187.5q0 102 44.5 185t124 131t179.5 48q120 0 195 -53t108 -141l-115 -40q-47 121 -182 121
q-67 0 -120 -34t-82.5 -91.5t-29.5 -125.5q0 -71 29.5 -128.5t83 -90t121.5 -32.5q66 0 110 26.5t65 67t22 83.5h-147v104h269v-66q-1 -93 -38.5 -167.5t-111 -117.5t-175.5 -43t-182 47z" />
    <glyph glyph-name="Gcircumflex.ss05" horiz-adv-x="775" 
d="M218 33q-80 47 -124 129.5t-44 187.5q0 102 44.5 185t124 131t179.5 48q120 0 195 -53t108 -141l-115 -40q-47 121 -182 121q-67 0 -120 -34t-82.5 -91.5t-29.5 -125.5q0 -71 29.5 -128.5t83 -90t121.5 -32.5q66 0 110 26.5t65 67t22 83.5h-147v104h269v-66
q-1 -93 -38.5 -167.5t-111 -117.5t-175.5 -43t-182 47zM452 769l-53 61l-53 -61h-99l97 134h110l96 -134h-98z" />
    <glyph glyph-name="Gcommaaccent.ss05" horiz-adv-x="775" 
d="M218 33q-80 47 -124 129.5t-44 187.5q0 102 44.5 185t124 131t179.5 48q120 0 195 -53t108 -141l-115 -40q-47 121 -182 121q-67 0 -120 -34t-82.5 -91.5t-29.5 -125.5q0 -71 29.5 -128.5t83 -90t121.5 -32.5q66 0 110 26.5t65 67t22 83.5h-147v104h269v-66
q-1 -93 -38.5 -167.5t-111 -117.5t-175.5 -43t-182 47zM381 -177q-22 5 -34.5 18.5t-12.5 35.5q0 28 19.5 44t41.5 16q28 0 46.5 -17.5t18.5 -49.5t-17.5 -66.5t-45.5 -55.5l-42 29q20 26 26 46z" />
    <glyph glyph-name="Gdotaccent.ss05" horiz-adv-x="775" 
d="M218 33q-80 47 -124 129.5t-44 187.5q0 102 44.5 185t124 131t179.5 48q120 0 195 -53t108 -141l-115 -40q-47 121 -182 121q-67 0 -120 -34t-82.5 -91.5t-29.5 -125.5q0 -71 29.5 -128.5t83 -90t121.5 -32.5q66 0 110 26.5t65 67t22 83.5h-147v104h269v-66
q-1 -93 -38.5 -167.5t-111 -117.5t-175.5 -43t-182 47zM349.5 789q-20.5 21 -20.5 50t20.5 50t49.5 21t50.5 -21t21.5 -50t-21.5 -50t-50.5 -21t-49.5 21z" />
    <glyph glyph-name="i.loclTRK" horiz-adv-x="248" 
d="M64 499h120v-499h-120v499zM72.5 588q-20.5 21 -20.5 50t20.5 50t49.5 21t50.5 -21t21.5 -50t-21.5 -50t-50.5 -21t-49.5 21z" />
    <glyph glyph-name="a.ss01" horiz-adv-x="541" 
d="M535 -2q0 -1 -19 -6.5t-43 -5.5q-84 0 -111 62q-20 -26 -57 -44t-96 -18q-47 0 -86 19t-62 54t-23 81q0 63 43.5 107t153.5 60l107 15v4q0 91 -92 91q-46 0 -69.5 -20.5t-29.5 -60.5l-106 26q21 76 71 113.5t138 37.5q90 0 149 -46t59 -139v-213q0 -36 34 -36q8 0 13 1.5
t6 2.5zM342 231l-99 -15q-47 -7 -68.5 -23t-21.5 -46q0 -29 23.5 -46.5t64.5 -17.5q43 0 72 24.5t29 67.5v56z" />
    <glyph glyph-name="aacute.ss01" horiz-adv-x="541" 
d="M535 -2q0 -1 -19 -6.5t-43 -5.5q-84 0 -111 62q-20 -26 -57 -44t-96 -18q-47 0 -86 19t-62 54t-23 81q0 63 43.5 107t153.5 60l107 15v4q0 91 -92 91q-46 0 -69.5 -20.5t-29.5 -60.5l-106 26q21 76 71 113.5t138 37.5q90 0 149 -46t59 -139v-213q0 -36 34 -36q8 0 13 1.5
t6 2.5zM342 231l-99 -15q-47 -7 -68.5 -23t-21.5 -46q0 -29 23.5 -46.5t64.5 -17.5q43 0 72 24.5t29 67.5v56zM271 705h147l-114 -134h-102z" />
    <glyph glyph-name="abreve.ss01" horiz-adv-x="541" 
d="M535 -2q0 -1 -19 -6.5t-43 -5.5q-84 0 -111 62q-20 -26 -57 -44t-96 -18q-47 0 -86 19t-62 54t-23 81q0 63 43.5 107t153.5 60l107 15v4q0 91 -92 91q-46 0 -69.5 -20.5t-29.5 -60.5l-106 26q21 76 71 113.5t138 37.5q90 0 149 -46t59 -139v-213q0 -36 34 -36q8 0 13 1.5
t6 2.5zM342 231l-99 -15q-47 -7 -68.5 -23t-21.5 -46q0 -29 23.5 -46.5t64.5 -17.5q43 0 72 24.5t29 67.5v56zM155.5 608.5q-39.5 37.5 -42.5 96.5h82q3 -26 18.5 -41t41.5 -15q27 0 43 15t19 41h82q-4 -58 -44.5 -96t-100.5 -38q-59 0 -98.5 37.5z" />
    <glyph glyph-name="acircumflex.ss01" horiz-adv-x="541" 
d="M535 -2q0 -1 -19 -6.5t-43 -5.5q-84 0 -111 62q-20 -26 -57 -44t-96 -18q-47 0 -86 19t-62 54t-23 81q0 63 43.5 107t153.5 60l107 15v4q0 91 -92 91q-46 0 -69.5 -20.5t-29.5 -60.5l-106 26q21 76 71 113.5t138 37.5q90 0 149 -46t59 -139v-213q0 -36 34 -36q8 0 13 1.5
t6 2.5zM342 231l-99 -15q-47 -7 -68.5 -23t-21.5 -46q0 -29 23.5 -46.5t64.5 -17.5q43 0 72 24.5t29 67.5v56zM308 571l-53 61l-53 -61h-99l97 134h110l96 -134h-98z" />
    <glyph glyph-name="adieresis.ss01" horiz-adv-x="541" 
d="M535 -2q0 -1 -19 -6.5t-43 -5.5q-84 0 -111 62q-20 -26 -57 -44t-96 -18q-47 0 -86 19t-62 54t-23 81q0 63 43.5 107t153.5 60l107 15v4q0 91 -92 91q-46 0 -69.5 -20.5t-29.5 -60.5l-106 26q21 76 71 113.5t138 37.5q90 0 149 -46t59 -139v-213q0 -36 34 -36q8 0 13 1.5
t6 2.5zM342 231l-99 -15q-47 -7 -68.5 -23t-21.5 -46q0 -29 23.5 -46.5t64.5 -17.5q43 0 72 24.5t29 67.5v56zM115 588q-21 21 -21 50t21 50t50 21t50 -21t21 -50t-21 -50t-50 -21t-50 21zM293.5 588q-21.5 21 -21.5 50t21.5 50t50.5 21q28 0 49 -21t21 -50t-21 -50t-49 -21
q-29 0 -50.5 21z" />
    <glyph glyph-name="agrave.ss01" horiz-adv-x="541" 
d="M535 -2q0 -1 -19 -6.5t-43 -5.5q-84 0 -111 62q-20 -26 -57 -44t-96 -18q-47 0 -86 19t-62 54t-23 81q0 63 43.5 107t153.5 60l107 15v4q0 91 -92 91q-46 0 -69.5 -20.5t-29.5 -60.5l-106 26q21 76 71 113.5t138 37.5q90 0 149 -46t59 -139v-213q0 -36 34 -36q8 0 13 1.5
t6 2.5zM342 231l-99 -15q-47 -7 -68.5 -23t-21.5 -46q0 -29 23.5 -46.5t64.5 -17.5q43 0 72 24.5t29 67.5v56zM93 705h147l69 -134h-102z" />
    <glyph glyph-name="amacron.ss01" horiz-adv-x="541" 
d="M140 682h228v-88h-228v88zM535 -2q0 -1 -19 -6.5t-43 -5.5q-84 0 -111 62q-20 -26 -57 -44t-96 -18q-47 0 -86 19t-62 54t-23 81q0 63 43.5 107t153.5 60l107 15v4q0 91 -92 91q-46 0 -69.5 -20.5t-29.5 -60.5l-106 26q21 76 71 113.5t138 37.5q90 0 149 -46t59 -139
v-213q0 -36 34 -36q8 0 13 1.5t6 2.5zM342 231l-99 -15q-47 -7 -68.5 -23t-21.5 -46q0 -29 23.5 -46.5t64.5 -17.5q43 0 72 24.5t29 67.5v56z" />
    <glyph glyph-name="aogonek.ss01" horiz-adv-x="541" 
d="M453.5 -102q11.5 -11 34.5 -11h7v-74q-18 -2 -26 -2q-53 0 -83.5 25.5t-30.5 66.5q0 56 49 98q-28 15 -42 47q-20 -26 -57 -44t-96 -18q-47 0 -86 19t-62 54t-23 81q0 63 43.5 107t153.5 60l107 15v4q0 91 -92 91q-46 0 -69.5 -20.5t-29.5 -60.5l-106 26q21 76 71 113.5
t138 37.5q90 0 149 -46t59 -139v-213q0 -36 34 -36q8 0 13 1.5t6 2.5l20 -85q0 -1 -16 -6t-37 -6q-40 -27 -40 -61q0 -16 11.5 -27zM342 231l-99 -15q-47 -7 -68.5 -23t-21.5 -46q0 -29 23.5 -46.5t64.5 -17.5q43 0 72 24.5t29 67.5v56z" />
    <glyph glyph-name="aring.ss01" horiz-adv-x="541" 
d="M535 -2q0 -1 -19 -6.5t-43 -5.5q-84 0 -111 62q-20 -26 -57 -44t-96 -18q-47 0 -86 19t-62 54t-23 81q0 63 43.5 107t153.5 60l107 15v4q0 91 -92 91q-46 0 -69.5 -20.5t-29.5 -60.5l-106 26q21 76 71 113.5t138 37.5q90 0 149 -46t59 -139v-213q0 -36 34 -36q8 0 13 1.5
t6 2.5zM342 231l-99 -15q-47 -7 -68.5 -23t-21.5 -46q0 -29 23.5 -46.5t64.5 -17.5q43 0 72 24.5t29 67.5v56zM187.5 574.5q-28.5 29.5 -28.5 68.5t28.5 68t68.5 29q39 0 68 -28.5t29 -68.5q0 -39 -29 -68.5t-68 -29.5q-40 0 -68.5 29.5zM280.5 618.5q10.5 10.5 10.5 24.5
t-10.5 24.5t-24.5 10.5q-15 0 -25 -10.5t-10 -24.5t10 -24.5t25 -10.5q14 0 24.5 10.5z" />
    <glyph glyph-name="atilde.ss01" horiz-adv-x="541" 
d="M535 -2q0 -1 -19 -6.5t-43 -5.5q-84 0 -111 62q-20 -26 -57 -44t-96 -18q-47 0 -86 19t-62 54t-23 81q0 63 43.5 107t153.5 60l107 15v4q0 91 -92 91q-46 0 -69.5 -20.5t-29.5 -60.5l-106 26q21 76 71 113.5t138 37.5q90 0 149 -46t59 -139v-213q0 -36 34 -36q8 0 13 1.5
t6 2.5zM342 231l-99 -15q-47 -7 -68.5 -23t-21.5 -46q0 -29 23.5 -46.5t64.5 -17.5q43 0 72 24.5t29 67.5v56zM279.5 580.5q-16.5 5.5 -35.5 15.5q-15 8 -25 11.5t-21 3.5q-14 0 -27.5 -9.5t-22.5 -29.5l-66 43q32 84 107 84q20 0 34.5 -5t35.5 -15q12 -6 25 -11t25 -5
q29 0 49 41l67 -45q-14 -42 -42.5 -63t-65.5 -21q-21 0 -37.5 5.5z" />
    <glyph glyph-name="a.ss02" horiz-adv-x="614" 
d="M156.5 21.5q-55.5 35.5 -87 96t-31.5 132.5q0 73 31 133t86 95t124 35q53 0 92.5 -20t62.5 -50v56h120v-499h-99l-16 61q-23 -31 -63 -53t-96 -22q-68 0 -123.5 35.5zM396 138q39 44 39 112t-39 111.5t-99 43.5q-39 0 -71 -20t-50 -55.5t-18 -79.5q0 -45 18 -80.5
t50 -55.5t71 -20q60 0 99 44z" />
    <glyph glyph-name="aacute.ss02" horiz-adv-x="614" 
d="M308 705h147l-114 -134h-102zM156.5 21.5q-55.5 35.5 -87 96t-31.5 132.5q0 73 31 133t86 95t124 35q53 0 92.5 -20t62.5 -50v56h120v-499h-99l-16 61q-23 -31 -63 -53t-96 -22q-68 0 -123.5 35.5zM396 138q39 44 39 112t-39 111.5t-99 43.5q-39 0 -71 -20t-50 -55.5
t-18 -79.5q0 -45 18 -80.5t50 -55.5t71 -20q60 0 99 44z" />
    <glyph glyph-name="abreve.ss02" horiz-adv-x="614" 
d="M156.5 21.5q-55.5 35.5 -87 96t-31.5 132.5q0 73 31 133t86 95t124 35q53 0 92.5 -20t62.5 -50v56h120v-499h-99l-16 61q-23 -31 -63 -53t-96 -22q-68 0 -123.5 35.5zM396 138q39 44 39 112t-39 111.5t-99 43.5q-39 0 -71 -20t-50 -55.5t-18 -79.5q0 -45 18 -80.5
t50 -55.5t71 -20q60 0 99 44zM192.5 608.5q-39.5 37.5 -42.5 96.5h82q3 -26 18.5 -41t41.5 -15q27 0 43 15t19 41h82q-4 -58 -44.5 -96t-100.5 -38q-59 0 -98.5 37.5z" />
    <glyph glyph-name="acircumflex.ss02" horiz-adv-x="614" 
d="M156.5 21.5q-55.5 35.5 -87 96t-31.5 132.5q0 73 31 133t86 95t124 35q53 0 92.5 -20t62.5 -50v56h120v-499h-99l-16 61q-23 -31 -63 -53t-96 -22q-68 0 -123.5 35.5zM396 138q39 44 39 112t-39 111.5t-99 43.5q-39 0 -71 -20t-50 -55.5t-18 -79.5q0 -45 18 -80.5
t50 -55.5t71 -20q60 0 99 44zM345 571l-53 61l-53 -61h-99l97 134h110l96 -134h-98z" />
    <glyph glyph-name="adieresis.ss02" horiz-adv-x="614" 
d="M156.5 21.5q-55.5 35.5 -87 96t-31.5 132.5q0 73 31 133t86 95t124 35q53 0 92.5 -20t62.5 -50v56h120v-499h-99l-16 61q-23 -31 -63 -53t-96 -22q-68 0 -123.5 35.5zM396 138q39 44 39 112t-39 111.5t-99 43.5q-39 0 -71 -20t-50 -55.5t-18 -79.5q0 -45 18 -80.5
t50 -55.5t71 -20q60 0 99 44zM152 588q-21 21 -21 50t21 50t50 21t50 -21t21 -50t-21 -50t-50 -21t-50 21zM330.5 588q-21.5 21 -21.5 50t21.5 50t50.5 21q28 0 49 -21t21 -50t-21 -50t-49 -21q-29 0 -50.5 21z" />
    <glyph glyph-name="agrave.ss02" horiz-adv-x="614" 
d="M156.5 21.5q-55.5 35.5 -87 96t-31.5 132.5q0 73 31 133t86 95t124 35q53 0 92.5 -20t62.5 -50v56h120v-499h-99l-16 61q-23 -31 -63 -53t-96 -22q-68 0 -123.5 35.5zM396 138q39 44 39 112t-39 111.5t-99 43.5q-39 0 -71 -20t-50 -55.5t-18 -79.5q0 -45 18 -80.5
t50 -55.5t71 -20q60 0 99 44zM130 705h147l69 -134h-102z" />
    <glyph glyph-name="amacron.ss02" horiz-adv-x="614" 
d="M156.5 21.5q-55.5 35.5 -87 96t-31.5 132.5q0 73 31 133t86 95t124 35q53 0 92.5 -20t62.5 -50v56h120v-499h-99l-16 61q-23 -31 -63 -53t-96 -22q-68 0 -123.5 35.5zM396 138q39 44 39 112t-39 111.5t-99 43.5q-39 0 -71 -20t-50 -55.5t-18 -79.5q0 -45 18 -80.5
t50 -55.5t71 -20q60 0 99 44zM178 682h228v-88h-228v88z" />
    <glyph glyph-name="aogonek.ss02" horiz-adv-x="614" 
d="M506.5 -100q11.5 -11 34.5 -11h7v-74q-18 -2 -26 -2q-53 0 -83.5 25.5t-30.5 66.5q0 54 47 96l-16 60q-23 -31 -63 -53t-96 -22q-68 0 -123.5 35.5t-87 96t-31.5 132.5q0 73 31 133t86 95t124 35q53 0 92.5 -20t62.5 -50v56h120v-499h1q-60 -31 -60 -73q0 -16 11.5 -27z
M396 138q39 44 39 112t-39 111.5t-99 43.5q-39 0 -71 -20t-50 -55.5t-18 -79.5q0 -45 18 -80.5t50 -55.5t71 -20q60 0 99 44z" />
    <glyph glyph-name="aring.ss02" horiz-adv-x="614" 
d="M156.5 21.5q-55.5 35.5 -87 96t-31.5 132.5q0 73 31 133t86 95t124 35q53 0 92.5 -20t62.5 -50v56h120v-499h-99l-16 61q-23 -31 -63 -53t-96 -22q-68 0 -123.5 35.5zM396 138q39 44 39 112t-39 111.5t-99 43.5q-39 0 -71 -20t-50 -55.5t-18 -79.5q0 -45 18 -80.5
t50 -55.5t71 -20q60 0 99 44zM224.5 574.5q-28.5 29.5 -28.5 68.5t28.5 68t68.5 29q39 0 68 -28.5t29 -68.5q0 -39 -29 -68.5t-68 -29.5q-40 0 -68.5 29.5zM317.5 618.5q10.5 10.5 10.5 24.5t-10.5 24.5t-24.5 10.5q-15 0 -25 -10.5t-10 -24.5t10 -24.5t25 -10.5
q14 0 24.5 10.5z" />
    <glyph glyph-name="atilde.ss02" horiz-adv-x="614" 
d="M156.5 21.5q-55.5 35.5 -87 96t-31.5 132.5q0 73 31 133t86 95t124 35q53 0 92.5 -20t62.5 -50v56h120v-499h-99l-16 61q-23 -31 -63 -53t-96 -22q-68 0 -123.5 35.5zM396 138q39 44 39 112t-39 111.5t-99 43.5q-39 0 -71 -20t-50 -55.5t-18 -79.5q0 -45 18 -80.5
t50 -55.5t71 -20q60 0 99 44zM316.5 580.5q-16.5 5.5 -35.5 15.5q-15 8 -25 11.5t-21 3.5q-14 0 -27.5 -9.5t-22.5 -29.5l-66 43q32 84 107 84q20 0 34.5 -5t35.5 -15q12 -6 25 -11t25 -5q29 0 49 41l67 -45q-14 -42 -42.5 -63t-65.5 -21q-21 0 -37.5 5.5z" />
    <glyph glyph-name="l.ss03" horiz-adv-x="291" 
d="M94.5 19q-34.5 33 -34.5 98v583h120v-565q0 -40 37 -40q20 0 32 5l28 -96q-11 -7 -36 -12.5t-55 -5.5q-57 0 -91.5 33z" />
    <glyph glyph-name="lacute.ss03" horiz-adv-x="301" 
d="M140 903h147l-114 -134h-102zM94.5 19q-34.5 33 -34.5 98v583h120v-565q0 -40 37 -40q20 0 32 5l28 -96q-11 -7 -36 -12.5t-55 -5.5q-57 0 -91.5 33z" />
    <glyph glyph-name="lcaron.ss03" horiz-adv-x="305" 
d="M94.5 19q-34.5 33 -34.5 98v583h120v-565q0 -40 37 -40q20 0 32 5l28 -96q-11 -7 -36 -12.5t-55 -5.5q-57 0 -91.5 33zM258 700h118l-76 -134h-77z" />
    <glyph glyph-name="lcommaaccent.ss03" horiz-adv-x="291" 
d="M159 -171q-22 5 -34.5 18.5t-12.5 35.5q0 28 19.5 44t41.5 16q28 0 46.5 -17.5t18.5 -49.5t-17.5 -66.5t-45.5 -55.5l-42 29q20 26 26 46zM94.5 19q-34.5 33 -34.5 98v583h120v-565q0 -40 37 -40q20 0 32 5l28 -96q-11 -7 -36 -12.5t-55 -5.5q-57 0 -91.5 33z" />
    <glyph glyph-name="ldot.ss03" horiz-adv-x="390" 
d="M265.5 296.5q-22.5 22.5 -22.5 53.5t22.5 53t53.5 22t53 -22t22 -53t-22 -53.5t-53 -22.5t-53.5 22.5zM94.5 19q-34.5 33 -34.5 98v583h120v-565q0 -40 37 -40q20 0 32 5l28 -96q-11 -7 -36 -12.5t-55 -5.5q-57 0 -91.5 33z" />
    <glyph glyph-name="lslash.ss03" horiz-adv-x="354" 
d="M303 100l28 -96q-11 -7 -36 -12.5t-55 -5.5q-57 0 -91.5 33t-34.5 98v134l-53 -39l-53 77l106 77v334h120v-246l54 39l55 -76l-109 -79v-203q0 -40 37 -40q20 0 32 5z" />
    <glyph glyph-name="y.ss04" horiz-adv-x="533" 
d="M519 499l-227 -596q-23 -62 -62 -90t-95 -28q-46 0 -80.5 19.5t-54.5 49.5l90 60q5 -9 16 -15.5t28 -6.5q21 0 33.5 10.5t19.5 31.5l29 79l-193 486h123l128 -331l122 331h123z" />
    <glyph glyph-name="yacute.ss04" horiz-adv-x="533" 
d="M519 499l-227 -596q-23 -62 -62 -90t-95 -28q-46 0 -80.5 19.5t-54.5 49.5l90 60q5 -9 16 -15.5t28 -6.5q21 0 33.5 10.5t19.5 31.5l29 79l-193 486h123l128 -331l122 331h123zM285 705h147l-114 -134h-102z" />
    <glyph glyph-name="ycircumflex.ss04" horiz-adv-x="533" 
d="M519 499l-227 -596q-23 -62 -62 -90t-95 -28q-46 0 -80.5 19.5t-54.5 49.5l90 60q5 -9 16 -15.5t28 -6.5q21 0 33.5 10.5t19.5 31.5l29 79l-193 486h123l128 -331l122 331h123zM322 571l-53 61l-53 -61h-99l97 134h110l96 -134h-98z" />
    <glyph glyph-name="ydieresis.ss04" horiz-adv-x="533" 
d="M519 499l-227 -596q-23 -62 -62 -90t-95 -28q-46 0 -80.5 19.5t-54.5 49.5l90 60q5 -9 16 -15.5t28 -6.5q21 0 33.5 10.5t19.5 31.5l29 79l-193 486h123l128 -331l122 331h123zM129 588q-21 21 -21 50t21 50t50 21t50 -21t21 -50t-21 -50t-50 -21t-50 21zM307.5 588
q-21.5 21 -21.5 50t21.5 50t50.5 21q28 0 49 -21t21 -50t-21 -50t-49 -21q-29 0 -50.5 21z" />
    <glyph glyph-name="ygrave.ss04" horiz-adv-x="533" 
d="M519 499l-227 -596q-23 -62 -62 -90t-95 -28q-46 0 -80.5 19.5t-54.5 49.5l90 60q5 -9 16 -15.5t28 -6.5q21 0 33.5 10.5t19.5 31.5l29 79l-193 486h123l128 -331l122 331h123zM107 705h147l69 -134h-102z" />
    <glyph glyph-name="f_f.dlig" horiz-adv-x="711" 
d="M558 499h128v-105h-128v-394h-120v394h-212v-394h-120v394h-86v105h86v68q0 69 40.5 108.5t100.5 39.5q49 0 78.5 -13.5t45.5 -29.5l-52 -83q-20 17 -47 17q-46 0 -46 -53v-54h212v68q0 69 40.5 108.5t101.5 39.5q49 0 78.5 -13.5t45.5 -29.5l-53 -83q-17 17 -46 17
q-47 0 -47 -53v-54z" />
    <glyph glyph-name="f_f_i.dlig" horiz-adv-x="955" 
d="M891 0h-120v394h-213v-394h-120v394h-212v-394h-120v394h-86v105h86v68q0 69 40.5 108.5t100.5 39.5q49 0 78.5 -13.5t45.5 -29.5l-52 -83q-20 17 -47 17q-46 0 -46 -53v-54h212v68q0 69 40.5 108.5t101.5 39.5q49 0 78.5 -13.5t45.5 -29.5l-53 -83q-17 17 -46 17
q-47 0 -47 -53v-54h333v-499zM779.5 588q-20.5 21 -20.5 50t20.5 50t49.5 21t50.5 -21t21.5 -50t-21.5 -50t-50.5 -21t-49.5 21z" />
    <glyph glyph-name="f_f_j.dlig" horiz-adv-x="954" 
d="M892 -65q0 -69 -41 -109.5t-102 -40.5q-44 0 -73.5 13.5t-44.5 29.5l50 85q16 -16 45 -16q23 0 34.5 14t11.5 40v443h-214v-394h-120v394h-212v-394h-120v394h-86v105h86v68q0 69 40.5 108.5t100.5 39.5q49 0 78.5 -13.5t45.5 -29.5l-52 -83q-20 17 -47 17q-46 0 -46 -53
v-54h212v68q0 69 40.5 108.5t101.5 39.5q49 0 78.5 -13.5t45.5 -29.5l-53 -83q-17 17 -46 17q-47 0 -47 -53v-54h334v-564zM781.5 588q-20.5 21 -20.5 50t20.5 50t49.5 21t50.5 -21t21.5 -50t-21.5 -50t-50.5 -21t-49.5 21z" />
    <glyph glyph-name="f_f_l.dlig" horiz-adv-x="951" 
d="M891 700v-700h-120v394h-213v-394h-120v394h-212v-394h-120v394h-86v105h86v68q0 69 40.5 108.5t100.5 39.5q49 0 78.5 -13.5t45.5 -29.5l-52 -83q-20 17 -47 17q-46 0 -46 -53v-54h212v68q0 69 40.5 108.5t101.5 39.5q49 0 78.5 -13.5t45.5 -29.5l-53 -83q-17 17 -46 17
q-47 0 -47 -53v-54h213v201h120z" />
    <glyph glyph-name="f_i.dlig" horiz-adv-x="622" 
d="M559 0h-120v394h-213v-394h-120v394h-86v105h86v68q0 69 40.5 108.5t100.5 39.5q49 0 78.5 -13.5t45.5 -29.5l-52 -83q-20 17 -47 17q-46 0 -46 -53v-54h333v-499zM447.5 588q-20.5 21 -20.5 50t20.5 50t49.5 21t50.5 -21t21.5 -50t-21.5 -50t-50.5 -21t-49.5 21z" />
    <glyph glyph-name="f_j.dlig" horiz-adv-x="621" 
d="M559 -65q0 -69 -41 -109.5t-102 -40.5q-44 0 -73.5 13.5t-44.5 29.5l50 85q16 -16 45 -16q23 0 34.5 14t11.5 40v443h-213v-394h-120v394h-86v105h86v68q0 69 40.5 108.5t100.5 39.5q49 0 78.5 -13.5t45.5 -29.5l-52 -83q-20 17 -47 17q-46 0 -46 -53v-54h333v-564z
M448.5 588q-20.5 21 -20.5 50t20.5 50t49.5 21t50.5 -21t21.5 -50t-21.5 -50t-50.5 -21t-49.5 21z" />
    <glyph glyph-name="f_l.dlig" horiz-adv-x="618" 
d="M558 700v-700h-120v394h-212v-394h-120v394h-86v105h86v68q0 69 40.5 108.5t100.5 39.5q49 0 78.5 -13.5t45.5 -29.5l-52 -83q-20 17 -47 17q-46 0 -46 -53v-54h212v201h120z" />
    <glyph glyph-name="fl.dlig" horiz-adv-x="618" 
d="M558 700v-700h-120v394h-212v-394h-120v394h-86v105h86v68q0 69 40.5 108.5t100.5 39.5q49 0 78.5 -13.5t45.5 -29.5l-52 -83q-20 17 -47 17q-46 0 -46 -53v-54h212v201h120z" />
    <glyph glyph-name="zero.tf" horiz-adv-x="600" 
d="M105.5 88q-66.5 101 -66.5 264q0 104 28.5 186t87.5 129.5t146 47.5q86 0 144.5 -47.5t87 -129.5t28.5 -186q0 -105 -28 -187t-86.5 -130t-144.5 -48q-130 0 -196.5 101zM405 168q34 68 34 183q0 113 -34.5 182t-103.5 69q-71 0 -105.5 -69t-34.5 -182
q0 -116 34.5 -183.5t106.5 -67.5q69 0 103 68z" />
    <glyph glyph-name="one.tf" horiz-adv-x="600" 
d="M528 113v-113h-454v113h165v451q-26 -17 -69 -31.5t-77 -18.5v123q32 5 72.5 22.5t73.5 40.5h122v-587h167z" />
    <glyph glyph-name="two.tf" horiz-adv-x="600" 
d="M76 113l236 206q57 49 82 85.5t25 86.5q0 46 -32.5 78t-84.5 32q-57 0 -92.5 -37t-34.5 -98l-113 31q3 64 36 113.5t86.5 76.5t117.5 27q66 0 121 -29t86.5 -79.5t31.5 -113.5q0 -77 -35.5 -132t-107.5 -118l-148 -129h292v-113h-466v113z" />
    <glyph glyph-name="three.tf" horiz-adv-x="600" 
d="M171.5 14q-55.5 28 -86.5 75.5t-33 103.5l112 33q2 -54 39.5 -90.5t94.5 -36.5t94.5 36t37.5 90q0 55 -36.5 90.5t-95.5 35.5q-21 0 -47 -8l-62 74l173 170h-286v113h430v-113l-139 -141q80 -10 132.5 -67t52.5 -154q0 -68 -33 -122.5t-90.5 -85.5t-130.5 -31
q-71 0 -126.5 28z" />
    <glyph glyph-name="four.tf" horiz-adv-x="600" 
d="M347 177h-314v91l305 432h130l1 -419h81v-104h-81l-1 -177h-122zM347 281l-1 250l-180 -250h181z" />
    <glyph glyph-name="five.tf" horiz-adv-x="600" 
d="M177.5 13q-55.5 27 -88.5 72t-35 98l113 34q3 -54 40.5 -86t92.5 -32q56 0 92.5 35.5t37.5 91.5q-1 56 -38 91.5t-93 35.5q-36 0 -65 -13.5t-46 -34.5l-105 39l36 356h385v-114h-280l-17 -153q15 10 42.5 17.5t59.5 7.5q70 0 125 -28.5t86 -81t31 -121.5
q0 -72 -33 -126.5t-90 -84.5t-128 -30q-67 0 -122.5 27z" />
    <glyph glyph-name="six.tf" horiz-adv-x="600" 
d="M108 72.5q-64 86.5 -64 244.5q0 192 61.5 294.5t202.5 102.5q92 0 147.5 -47.5t76.5 -128.5l-108 -32q-14 46 -41 70.5t-75 24.5q-70 0 -101 -51t-36 -146q15 20 52.5 38.5t90.5 18.5q66 0 120 -29t85 -83t31 -124q0 -71 -32.5 -125t-89.5 -84t-128 -30q-128 0 -192 86.5
zM392 133.5q36 35.5 36 91.5q0 57 -35.5 91.5t-92.5 34.5q-55 0 -91 -35.5t-36 -90.5q0 -54 35.5 -90.5t91.5 -36.5t92 35.5z" />
    <glyph glyph-name="seven.tf" horiz-adv-x="600" 
d="M265.5 309.5q61.5 171.5 124.5 277.5h-323v113h460v-113q-68 -107 -135 -278.5t-90 -308.5h-122q24 138 85.5 309.5z" />
    <glyph glyph-name="eight.tf" horiz-adv-x="600" 
d="M520.5 304.5q23.5 -43.5 23.5 -97.5q0 -64 -32 -114.5t-88.5 -78.5t-126.5 -28t-126.5 28t-88.5 78.5t-32 114.5q0 53 23.5 97t64.5 72q-30 26 -46 61.5t-16 77.5q0 58 29 103t79.5 70.5t112.5 25.5t112.5 -25.5t79.5 -71t29 -102.5q0 -42 -16.5 -77.5t-46.5 -60.5
q42 -29 65.5 -72.5zM224.5 447.5q29.5 -25.5 72.5 -25.5t72.5 25.5t29.5 68.5q0 42 -29 68t-73 26t-73 -26t-29 -68q0 -43 29.5 -68.5zM386 127q36 31 36 82t-36.5 83t-88.5 32t-88.5 -32t-36.5 -83t36 -82t89 -31t89 31z" />
    <glyph glyph-name="nine.tf" horiz-adv-x="600" 
d="M486 627.5q64 -86.5 64 -244.5q0 -192 -61.5 -294.5t-202.5 -102.5q-92 0 -147.5 47.5t-76.5 128.5l108 32q14 -46 41 -70.5t75 -24.5q70 0 101 51t36 146q-15 -20 -52.5 -38.5t-90.5 -18.5q-66 0 -120 29t-85 83t-31 124q0 71 32.5 125t89.5 84t128 30q128 0 192 -86.5z
M202 566.5q-36 -35.5 -36 -91.5q0 -57 35.5 -91.5t92.5 -34.5q55 0 91 35.5t36 90.5q0 54 -35.5 90.5t-91.5 36.5t-92 -35.5z" />
    <glyph glyph-name="zero.tf.zero" horiz-adv-x="600" 
d="M445.5 666.5q58.5 -47.5 87 -129.5t28.5 -186q0 -105 -28 -187t-86.5 -130t-144.5 -48q-130 0 -196.5 101t-66.5 264q0 104 28.5 186t87.5 129.5t146 47.5q86 0 144.5 -47.5zM195.5 532q-34.5 -69 -34.5 -182q0 -48 6 -87l216 301q-32 37 -82 37q-71 0 -105.5 -69z
M405 167q34 68 34 183q0 40 -5 83l-215 -299q32 -35 83 -35q69 0 103 68z" />
    <glyph glyph-name="zero.zero" horiz-adv-x="604" 
d="M447.5 666.5q58.5 -47.5 87 -129.5t28.5 -186q0 -105 -28 -187t-86.5 -130t-144.5 -48q-130 0 -196.5 101t-66.5 264q0 104 28.5 186t87.5 129.5t146 47.5q86 0 144.5 -47.5zM197.5 532q-34.5 -69 -34.5 -182q0 -48 6 -87l216 301q-32 37 -82 37q-71 0 -105.5 -69z
M407 167q34 68 34 183q0 40 -5 83l-215 -299q32 -35 83 -35q69 0 103 68z" />
    <glyph glyph-name="zero.dnom" horiz-adv-x="334" 
d="M68 42.5q-34 50.5 -34 132.5q0 81 34 131t100 50q64 0 98 -50t34 -131t-34 -132t-98 -51q-66 0 -100 50.5zM210 91.5q14 29.5 14 82.5q0 52 -14 81t-42 29q-58 0 -58 -110q0 -53 14.5 -82.5t43.5 -29.5q28 0 42 29.5z" />
    <glyph glyph-name="one.dnom" horiz-adv-x="213" 
d="M85 265q-12 -8 -32.5 -15t-35.5 -10v77q14 2 35 12t33 21h77v-350h-77v265z" />
    <glyph glyph-name="two.dnom" horiz-adv-x="313" 
d="M41 72l120 101q25 23 33.5 37t8.5 32t-13 31t-34 13q-25 0 -38.5 -15.5t-13.5 -42.5l-70 19q3 49 37 79.5t85 30.5q52 0 87.5 -32.5t35.5 -81.5q0 -36 -15.5 -62.5t-48.5 -55.5l-63 -53h127v-72h-238v72z" />
    <glyph glyph-name="three.dnom" horiz-adv-x="323" 
d="M69.5 23.5q-34.5 30.5 -35.5 74.5l70 21q1 -23 16 -38.5t39 -15.5t39 14t15 37q0 22 -15 36.5t-39 14.5q-4 0 -19 -3l-39 46l76 69h-130v71h219v-71l-55 -54q33 -8 55.5 -34.5t22.5 -74.5q0 -53 -37 -88t-93 -35q-55 0 -89.5 30.5z" />
    <glyph glyph-name="four.dnom" horiz-adv-x="310" 
d="M177 85h-155v55l149 210h82l1 -201h34v-64h-34l-1 -85h-77zM177 149l-1 97l-70 -96z" />
    <glyph glyph-name="five.dnom" horiz-adv-x="320" 
d="M71 23q-36 30 -37 72l71 21q0 -24 15 -37.5t38 -13.5q21 0 36 14t15 36q0 23 -14.5 37t-36.5 14q-15 0 -27 -6t-19 -15l-65 25l17 180h202v-72h-137l-6 -54q19 7 41 7q54 0 88 -31t34 -84q0 -56 -36 -89.5t-92 -33.5q-51 0 -87 30z" />
    <glyph glyph-name="six.dnom" horiz-adv-x="327" 
d="M66.5 38q-32.5 45 -32.5 125q0 194 136 194q48 0 77 -24t39 -66l-68 -19q-7 20 -18 29t-30 9q-53 0 -55 -72q3 5 20 12.5t42 7.5q50 0 83 -33t33 -87t-36.5 -87.5t-90.5 -33.5q-67 0 -99.5 45zM202.5 78.5q14.5 14.5 14.5 35.5q0 23 -14 36.5t-37 13.5t-37 -14t-14 -36
t14.5 -36t36.5 -14t36.5 14.5z" />
    <glyph glyph-name="seven.dnom" horiz-adv-x="278" 
d="M114.5 147.5q26.5 80.5 55.5 131.5h-148v71h233v-71q-33 -51 -62 -132t-39 -147h-76q10 67 36.5 147.5z" />
    <glyph glyph-name="eight.dnom" horiz-adv-x="323" 
d="M289 107q0 -50 -37 -82t-91 -32q-53 0 -90 32t-37 82q0 24 10.5 44.5t28.5 35.5q-27 27 -27 67q0 45 33 74t82 29t82 -29t33 -74q0 -39 -27 -66q40 -30 40 -81zM132 226q12 -11 29 -11q18 0 29.5 10.5t11.5 28.5q0 17 -11.5 27.5t-29.5 10.5q-17 0 -29 -10.5t-12 -27.5
t12 -28zM197 75q15 13 15 33q0 21 -15 34t-36 13t-35.5 -13t-14.5 -34q0 -20 14.5 -33t35.5 -13t36 13z" />
    <glyph glyph-name="nine.dnom" horiz-adv-x="327" 
d="M81.5 17.5q-29.5 24.5 -39.5 65.5l67 19q7 -20 18.5 -29t30.5 -9q52 0 55 73q-4 -6 -20 -13t-42 -7q-50 0 -83.5 32.5t-33.5 86.5t36.5 87.5t91.5 33.5q67 0 99 -44.5t32 -124.5q0 -94 -32 -144.5t-103 -50.5q-47 0 -76.5 24.5zM199 200q14 14 14 36t-14.5 36.5
t-36.5 14.5t-37 -14.5t-15 -36.5t15 -36t37 -14q23 0 37 14z" />
    <glyph glyph-name="zero.numr" horiz-adv-x="334" 
d="M68 392.5q-34 50.5 -34 132.5q0 81 34 131t100 50q64 0 98 -50t34 -131t-34 -132t-98 -51q-66 0 -100 50.5zM210 441.5q14 29.5 14 82.5q0 52 -14 81t-42 29q-58 0 -58 -110q0 -53 14.5 -82.5t43.5 -29.5q28 0 42 29.5z" />
    <glyph glyph-name="one.numr" horiz-adv-x="213" 
d="M85 615q-12 -8 -32.5 -15t-35.5 -10v77q14 2 35 12t33 21h77v-350h-77v265z" />
    <glyph glyph-name="two.numr" horiz-adv-x="313" 
d="M41 422l120 101q25 23 33.5 37t8.5 32t-13 31t-34 13q-25 0 -38.5 -15.5t-13.5 -42.5l-70 19q3 49 37 79.5t85 30.5q52 0 87.5 -32.5t35.5 -81.5q0 -36 -15.5 -62.5t-48.5 -55.5l-63 -53h127v-72h-238v72z" />
    <glyph glyph-name="three.numr" horiz-adv-x="323" 
d="M69.5 373.5q-34.5 30.5 -35.5 74.5l70 21q1 -23 16 -38.5t39 -15.5t39 14t15 37q0 22 -15 36.5t-39 14.5q-4 0 -19 -3l-39 46l76 69h-130v71h219v-71l-55 -54q33 -8 55.5 -34.5t22.5 -74.5q0 -53 -37 -88t-93 -35q-55 0 -89.5 30.5z" />
    <glyph glyph-name="four.numr" horiz-adv-x="310" 
d="M177 435h-155v55l149 210h82l1 -201h34v-64h-34l-1 -85h-77zM177 499l-1 97l-70 -96z" />
    <glyph glyph-name="five.numr" horiz-adv-x="320" 
d="M71 373q-36 30 -37 72l71 21q0 -24 15 -37.5t38 -13.5q21 0 36 14t15 36q0 23 -14.5 37t-36.5 14q-15 0 -27 -6t-19 -15l-65 25l17 180h202v-72h-137l-6 -54q19 7 41 7q54 0 88 -31t34 -84q0 -56 -36 -89.5t-92 -33.5q-51 0 -87 30z" />
    <glyph glyph-name="six.numr" horiz-adv-x="327" 
d="M66.5 388q-32.5 45 -32.5 125q0 194 136 194q48 0 77 -24t39 -66l-68 -19q-7 20 -18 29t-30 9q-53 0 -55 -72q3 5 20 12.5t42 7.5q50 0 83 -33t33 -87t-36.5 -87.5t-90.5 -33.5q-67 0 -99.5 45zM202.5 428.5q14.5 14.5 14.5 35.5q0 23 -14 36.5t-37 13.5t-37 -14t-14 -36
t14.5 -36t36.5 -14t36.5 14.5z" />
    <glyph glyph-name="seven.numr" horiz-adv-x="278" 
d="M114.5 497.5q26.5 80.5 55.5 131.5h-148v71h233v-71q-33 -51 -62 -132t-39 -147h-76q10 67 36.5 147.5z" />
    <glyph glyph-name="eight.numr" horiz-adv-x="323" 
d="M289 457q0 -50 -37 -82t-91 -32q-53 0 -90 32t-37 82q0 24 10.5 44.5t28.5 35.5q-27 27 -27 67q0 45 33 74t82 29t82 -29t33 -74q0 -39 -27 -66q40 -30 40 -81zM132 576q12 -11 29 -11q18 0 29.5 10.5t11.5 28.5q0 17 -11.5 27.5t-29.5 10.5q-17 0 -29 -10.5t-12 -27.5
t12 -28zM197 425q15 13 15 33q0 21 -15 34t-36 13t-35.5 -13t-14.5 -34q0 -20 14.5 -33t35.5 -13t36 13z" />
    <glyph glyph-name="nine.numr" horiz-adv-x="327" 
d="M81.5 367.5q-29.5 24.5 -39.5 65.5l67 19q7 -20 18.5 -29t30.5 -9q52 0 55 73q-4 -6 -20 -13t-42 -7q-50 0 -83.5 32.5t-33.5 86.5t36.5 87.5t91.5 33.5q67 0 99 -44.5t32 -124.5q0 -94 -32 -144.5t-103 -50.5q-47 0 -76.5 24.5zM199 550q14 14 14 36t-14.5 36.5
t-36.5 14.5t-37 -14.5t-15 -36.5t15 -36t37 -14q23 0 37 14z" />
    <glyph glyph-name="periodcentered.case" horiz-adv-x="209" 
d="M51.5 296.5q-22.5 22.5 -22.5 53.5t22.5 53t53.5 22t53 -22t22 -53t-22 -53.5t-53 -22.5t-53.5 22.5z" />
    <glyph glyph-name="bullet.case" horiz-adv-x="269" 
d="M60 275.5q-31 30.5 -31 74.5t31 74.5t75 30.5q43 0 74 -31t31 -74q0 -44 -31 -74.5t-74 -30.5q-44 0 -75 30.5z" />
    <glyph glyph-name="exclamdown.case" horiz-adv-x="297" 
d="M201 685q23 -22 23 -53q0 -30 -22.5 -53t-53.5 -23t-53 23t-22 52t22 52.5t53 23.5q30 0 53 -22zM210 495v-495h-122v495h122z" />
    <glyph glyph-name="questiondown.case" horiz-adv-x="527" 
d="M201 579q-22 22 -22 53t22 53.5t53 22.5q32 0 54 -22t22 -54q0 -31 -22.5 -53t-53.5 -22t-53 22zM498 195q-3 -61 -33.5 -108.5t-82 -74t-116.5 -26.5q-67 0 -121.5 29t-85 79.5t-30.5 112.5q0 75 42.5 132t122.5 80v83h121v-161h-27q-68 0 -104.5 -37t-37.5 -92
q0 -48 33 -80.5t85 -32.5q59 0 91.5 34.5t32.5 91.5z" />
    <glyph glyph-name="braceleft.case" horiz-adv-x="304" 
d="M217 -120q-49 0 -86 31.5t-37 88.5v236q0 31 -17 45t-43 14v116q26 0 43 14t17 45v230q0 57 37 88.5t86 31.5h53v-107h-19q-23 0 -32 -16.5t-9 -47.5v-220q0 -49 -34 -78q34 -26 34 -76v-223q0 -31 9 -48t32 -17h19v-107h-53z" />
    <glyph glyph-name="braceright.case" horiz-adv-x="304" 
d="M34 -14h19q23 0 32 17t9 48v223q0 50 34 76q-34 29 -34 78v220q0 31 -9 47.5t-32 16.5h-19v107h53q49 0 86 -31.5t37 -88.5v-230q0 -31 17 -45t43 -14v-116q-26 0 -43 -14t-17 -45v-236q0 -57 -37 -88.5t-86 -31.5h-53v107z" />
    <glyph glyph-name="bracketleft.case" horiz-adv-x="246" 
d="M34 820h178v-107h-68v-726h68v-107h-178v940z" />
    <glyph glyph-name="bracketright.case" horiz-adv-x="246" 
d="M34 -13h68v726h-68v107h178v-940h-178v107z" />
    <glyph glyph-name="parenleft.case" horiz-adv-x="287" 
d="M72.5 77q-38.5 123 -38.5 274t39 273t92 196l94 -62q-47 -66 -78 -170t-31 -239q0 -133 32 -237t80 -171l-99 -61q-52 74 -90.5 197z" />
    <glyph glyph-name="parenright.case" horiz-adv-x="287" 
d="M25 -59q48 67 80 171t32 237q0 135 -31 239t-78 170l94 62q53 -74 92 -196t39 -273t-38.5 -274t-90.5 -197z" />
    <glyph glyph-name="emdash.case" horiz-adv-x="1100" 
d="M50 405h1000v-110h-1000v110z" />
    <glyph glyph-name="endash.case" horiz-adv-x="600" 
d="M50 406h500v-112h-500v112z" />
    <glyph glyph-name="hyphen.case" horiz-adv-x="376" 
d="M50 405h276v-110h-276v110z" />
    <glyph glyph-name="guillemotleft.case" horiz-adv-x="537" 
d="M172 349l85 -186h-123l-84 186l84 184h122zM487 163h-123l-84 186l84 184h122l-84 -184z" />
    <glyph glyph-name="guillemotright.case" horiz-adv-x="537" 
d="M487 350l-84 -186h-123l85 186l-84 184h122zM257 350l-84 -186h-123l85 186l-84 184h122z" />
    <glyph glyph-name="guilsinglleft.case" horiz-adv-x="307" 
d="M257 165h-123l-84 186l84 184h122l-84 -184z" />
    <glyph glyph-name="guilsinglright.case" horiz-adv-x="307" 
d="M257 350l-84 -186h-123l85 186l-84 184h122z" />
    <glyph glyph-name="at.case" horiz-adv-x="832" 
d="M607 670.5q83 -44.5 129 -126.5t46 -190q0 -84 -43.5 -133.5t-116.5 -49.5q-39 0 -68 14.5t-43 39.5q-48 -54 -115 -54q-70 0 -108 47.5t-38 114.5q0 48 20 91.5t58.5 70.5t91.5 27q33 0 57.5 -12.5t37.5 -29.5l6 33h72l-19 -226q5 -34 47 -34q34 0 54.5 29.5t20.5 71.5
q0 85 -34 148t-97 97t-148 34q-78 0 -142 -37.5t-101 -102.5t-37 -143t37 -143t101 -103t142 -38q43 0 83.5 13t68.5 33l48 -66q-35 -27 -89 -44t-111 -17q-101 0 -185 48t-133 131.5t-49 185.5q0 99 49 183t133.5 133t184.5 49q107 0 190 -44.5zM476.5 283q24.5 32 24.5 74
q0 36 -19 60.5t-56 24.5q-43 0 -68 -32t-25 -74q0 -36 19.5 -60.5t57.5 -24.5q42 0 66.5 32z" />
    <glyph glyph-name="uni0308.case" 
d="M-144 786q-21 21 -21 50t21 50t51 21q28 0 49 -21t21 -50t-21 -50t-49 -21q-30 0 -51 21zM43.5 786q-20.5 21 -20.5 50t20.5 50t49.5 21q30 0 50.5 -21t20.5 -50t-20.5 -50t-50.5 -21q-29 0 -49.5 21z" />
    <glyph glyph-name="uni0307.case" 
d="M-49.5 789q-20.5 21 -20.5 50t20.5 50t49.5 21t50.5 -21t21.5 -50t-21.5 -50t-50.5 -21t-49.5 21z" />
    <glyph glyph-name="gravecomb.case" 
d="M-164 903h147l69 -134h-102z" />
    <glyph glyph-name="acutecomb.case" 
d="M17 903h147l-114 -134h-102z" />
    <glyph glyph-name="uni0302.case" 
d="M53 769l-53 61l-53 -61h-99l97 134h110l96 -134h-98z" />
    <glyph glyph-name="uni030A.case" 
d="M-67.5 771.5q-28.5 29.5 -28.5 68.5t28.5 68t68.5 29q39 0 68 -28.5t29 -68.5q0 -39 -29 -68.5t-68 -29.5q-40 0 -68.5 29.5zM25.5 815.5q10.5 10.5 10.5 24.5t-10.5 24.5t-24.5 10.5q-15 0 -25 -10.5t-10 -24.5t10 -24.5t25 -10.5q14 0 24.5 10.5z" />
    <glyph glyph-name="tildecomb.case" 
d="M28.5 778q-15.5 5 -36.5 15q-28 15 -45 15q-14 0 -27.5 -9.5t-23.5 -29.5l-65 43q32 84 107 84q20 0 34.5 -4.5t34.5 -14.5q19 -9 28.5 -12.5t22.5 -3.5q29 0 48 41l67 -45q-14 -42 -42.5 -63t-65.5 -21q-21 0 -36.5 5z" />
    <glyph glyph-name="uni0304.case" 
d="M-114 880h228v-88h-228v88z" />
    <glyph glyph-name="uni0327.case" 
d="M-65 -205.5q-27 21.5 -31 52.5l61 20q0 -15 10 -24.5t26 -9.5q14 0 24 9.5t10 24.5t-9.5 24t-24.5 9q-16 0 -23 -7l-48 27l47 88l58 -8l-23 -42q38 -2 63.5 -25t25.5 -61q0 -45 -27.5 -72t-72.5 -27q-39 0 -66 21.5z" />
    <glyph glyph-name="uni0328.case" 
d="M96 -187q-53 0 -83.5 25.5t-30.5 66.5q0 38 21 67t53 49l73 -21q-60 -31 -60 -73q0 -16 11.5 -27t34.5 -11h7v-74q-18 -2 -26 -2z" />
    <glyph glyph-name="uni0335.case" 
d="M-114 881h228v-88h-228v88z" />
    <glyph glyph-name="uni0338.case" 
d="M-502 5l527 741l84 -60l-527 -741z" />
    </font>
</defs>
</svg>
