<?xml version="1.0" standalone="no"?>
<!DOCTYPE svg PUBLIC "-//W3C//DTD SVG 1.1//EN" "http://www.w3.org/Graphics/SVG/1.1/DTD/svg11.dtd" >
<svg xmlns="http://www.w3.org/2000/svg" xmlns:xlink="http://www.w3.org/1999/xlink" version="1.1">
<metadata>
Created by FontForge 20190801 at Thu Jul  6 09:10:17 2017
 By Jimmy Wärting
Copyright 2017 OMSE LTD. All rights reserved.
</metadata>
<defs>
<font id="ModernEra-Medium" horiz-adv-x="557" >
  <font-face 
    font-family="Modern Era Medium"
    font-weight="500"
    font-stretch="normal"
    units-per-em="1000"
    panose-1="2 0 0 0 0 0 0 0 0 0"
    ascent="785"
    descent="-215"
    x-height="495"
    cap-height="700"
    bbox="-431 -244 1097 929"
    underline-thickness="86"
    underline-position="-265"
    unicode-range="U+000D-FB02"
  />
<missing-glyph horiz-adv-x="828" 
d="M232 35q-84 49 -133 132.5t-49 182.5t49 182.5t133 132.5t182 49q99 0 182.5 -49t132.5 -132.5t49 -182.5t-49 -182.5t-132.5 -132.5t-182.5 -49q-98 0 -182 49zM564 91.5q69 40.5 109.5 109t40.5 149.5t-40.5 149.5t-109.5 109t-150 40.5t-149.5 -40.5t-109 -109
t-40.5 -149.5t40.5 -149.5t109 -109t149.5 -40.5t150 40.5zM258.5 368q-18.5 18 -18.5 43q0 26 18.5 44t43.5 18t43 -18t18 -44q0 -25 -18 -43t-43 -18t-43.5 18zM483 368q-18 18 -18 43q0 26 18 44t43 18q26 0 44 -18t18 -44q0 -25 -18.5 -43t-43.5 -18t-43 18z" />
    <glyph glyph-name=".notdef" horiz-adv-x="828" 
d="M232 35q-84 49 -133 132.5t-49 182.5t49 182.5t133 132.5t182 49q99 0 182.5 -49t132.5 -132.5t49 -182.5t-49 -182.5t-132.5 -132.5t-182.5 -49q-98 0 -182 49zM564 91.5q69 40.5 109.5 109t40.5 149.5t-40.5 149.5t-109.5 109t-150 40.5t-149.5 -40.5t-109 -109
t-40.5 -149.5t40.5 -149.5t109 -109t149.5 -40.5t150 40.5zM258.5 368q-18.5 18 -18.5 43q0 26 18.5 44t43.5 18t43 -18t18 -44q0 -25 -18 -43t-43 -18t-43.5 18zM483 368q-18 18 -18 43q0 26 18 44t43 18q26 0 44 -18t18 -44q0 -25 -18.5 -43t-43.5 -18t-43 18z" />
    <glyph glyph-name=".null" horiz-adv-x="0" 
 />
    <glyph glyph-name="nonmarkingreturn" unicode="&#xd;" horiz-adv-x="280" 
 />
    <glyph glyph-name="NULL" horiz-adv-x="0" 
 />
    <glyph glyph-name="NULL" horiz-adv-x="0" 
 />
    <glyph glyph-name="space" unicode=" " horiz-adv-x="280" 
 />
    <glyph glyph-name="exclam" unicode="!" horiz-adv-x="288" 
d="M94 700h100v-510h-100v510zM96.5 13.5q-19.5 20.5 -19.5 47.5q0 26 19.5 46t47.5 20q27 0 47 -20.5t20 -47.5t-20 -46.5t-47 -19.5q-28 0 -47.5 20.5z" />
    <glyph glyph-name="quotedbl" unicode="&#x22;" horiz-adv-x="328" 
d="M199 736h98v-223h-98v223zM31 736h98v-223h-98v223z" />
    <glyph glyph-name="numbersign" unicode="#" horiz-adv-x="761" 
d="M579 439l-25 -179h143v-82h-154l-24 -178h-89l24 178h-196l-24 -178h-88l24 178h-139v82h150l25 179h-144v82h155l24 179h88l-24 -179h196l25 179h88l-24 -179h140v-82h-151zM490 439h-196l-25 -179h197z" />
    <glyph glyph-name="dollar" unicode="$" horiz-adv-x="602" 
d="M503 57q-57 -55 -148 -67v-68h-97v68q-83 11 -138.5 61t-77.5 136l94 27q15 -57 44.5 -89.5t77.5 -42.5v238q-95 23 -144 69.5t-49 123.5q0 79 53 132.5t140 66.5v66h97v-67q75 -11 123.5 -59.5t68.5 -127.5l-93 -27q-12 50 -35.5 80.5t-63.5 41.5v-221
q105 -26 155 -74.5t50 -130.5q0 -81 -57 -136zM187.5 455.5q22.5 -21.5 70.5 -35.5v200q-43 -10 -68 -37.5t-25 -69.5q0 -36 22.5 -57.5zM431.5 118.5q28.5 28.5 28.5 74.5q0 36 -21.5 61.5t-83.5 43.5v-217q48 9 76.5 37.5z" />
    <glyph glyph-name="percent" unicode="%" horiz-adv-x="755" 
d="M125.5 430.5q-34.5 18.5 -55 52.5t-20.5 76t19.5 76t52.5 53t73 19q41 0 76 -19t55 -52.5t20 -76.5t-19 -76.5t-52.5 -52t-73.5 -18.5q-41 0 -75.5 18.5zM566 700h96l-477 -700h-97zM255.5 502.5q22.5 22.5 22.5 56.5q0 37 -23 58.5t-58 21.5q-33 0 -54.5 -22t-21.5 -58
q0 -35 23 -57t57 -22q32 0 54.5 22.5zM483 11.5q-34 18.5 -54 52.5t-20 76t19.5 76t53 53t73.5 19q41 0 75.5 -19t54.5 -52.5t20 -76.5t-19.5 -76.5t-53.5 -52t-74 -18.5q-41 0 -75 18.5zM614.5 84q22.5 23 22.5 56q0 37 -23 58.5t-57 21.5t-56 -21.5t-22 -58.5
q0 -35 23 -57t58 -22q32 0 54.5 23z" />
    <glyph glyph-name="ampersand" unicode="&#x26;" horiz-adv-x="585" 
d="M564 334h-69v-130q0 -64 -29 -114t-79 -77.5t-112 -27.5q-67 0 -120 27.5t-83 77t-30 114.5q0 58 27 104t75 73q-31 25 -47.5 60.5t-16.5 77.5q0 56 27.5 100t75 69t106.5 25q81 0 132.5 -39.5t65.5 -106.5l-89 -22q-8 38 -37.5 60t-70.5 22q-50 0 -83 -29t-33 -77
t32.5 -76.5t82.5 -28.5h112v67h94v-67h69v-82zM401 334h-118q-59 0 -100 -35.5t-41 -94.5q0 -58 39.5 -93.5t94.5 -35.5q53 0 89 35.5t36 93.5v130z" />
    <glyph glyph-name="quotesingle" unicode="'" horiz-adv-x="160" 
d="M31 736h98v-223h-98v223z" />
    <glyph glyph-name="parenleft" unicode="(" horiz-adv-x="265" 
d="M74 29.5q-38 120.5 -38 270.5q0 151 38 271t93 198l78 -51q-47 -66 -80 -174.5t-33 -245.5q0 -134 33.5 -241.5t79.5 -175.5l-79 -52q-54 80 -92 200.5z" />
    <glyph glyph-name="parenright" unicode=")" horiz-adv-x="265" 
d="M20 -119q46 68 79.5 175.5t33.5 241.5q0 137 -33 245.5t-80 174.5l78 51q55 -78 93 -198t38 -271q0 -150 -38 -270.5t-92 -200.5z" />
    <glyph glyph-name="asterisk" unicode="*" horiz-adv-x="436" 
d="M277 538l77 -105l-60 -44l-76 104l-77 -104l-60 44l77 105l-122 39l22 70l123 -40v129h73v-128l122 39l24 -70z" />
    <glyph glyph-name="plus" unicode="+" horiz-adv-x="600" 
d="M254 305h-204v90h204v205h92v-205h204v-90h-204v-205h-92v205z" />
    <glyph glyph-name="comma" unicode="," horiz-adv-x="196" 
d="M67.5 -51q11.5 26 12.5 47q-23 8 -36 24t-13 39q0 29 19.5 48.5t46.5 19.5q29 0 48.5 -19.5t19.5 -56.5q0 -42 -22 -94.5t-61 -88.5l-42 35q16 20 27.5 46z" />
    <glyph glyph-name="hyphen" unicode="-" horiz-adv-x="361" 
d="M50 345h261v-90h-261v90z" />
    <glyph glyph-name="period" unicode="." horiz-adv-x="196" 
d="M50.5 12.5q-19.5 19.5 -19.5 47.5t19.5 47.5t47.5 19.5t47.5 -19.5t19.5 -47.5t-19.5 -47.5t-47.5 -19.5t-47.5 19.5z" />
    <glyph glyph-name="slash" unicode="/" horiz-adv-x="430" 
d="M299 700h100l-268 -700h-100z" />
    <glyph glyph-name="zero" unicode="0" horiz-adv-x="603" 
d="M109 88q-65 102 -65 265q0 103 28 184.5t86 129t144 47.5q85 0 143 -47.5t86 -129t28 -184.5q0 -105 -27.5 -187.5t-85 -131t-143.5 -48.5q-129 0 -194 102zM420.5 153q38.5 75 38.5 197q0 120 -39.5 196t-117.5 76q-80 0 -119.5 -76t-39.5 -196q0 -121 39.5 -196.5
t120.5 -75.5q79 0 117.5 75z" />
    <glyph glyph-name="one" unicode="1" horiz-adv-x="355" 
d="M167 590q-27 -17 -69 -31.5t-76 -19.5v98q33 6 73 23.5t72 39.5h100v-700h-100v590z" />
    <glyph glyph-name="two" unicode="2" horiz-adv-x="560" 
d="M57 93l234 206q44 38 68 64t40 59t16 73q0 54 -37.5 90.5t-96.5 36.5q-62 0 -103 -41t-41 -108l-93 27q3 64 35.5 112.5t85.5 75t116 26.5q66 0 119.5 -28t84 -78t30.5 -112q0 -56 -20 -101t-51.5 -80t-82.5 -79l-163 -144h318v-92h-459v93z" />
    <glyph glyph-name="three" unicode="3" horiz-adv-x="580" 
d="M162.5 13.5q-54.5 27.5 -85.5 74.5t-33 102l92 27q3 -59 45.5 -99t104.5 -40q66 0 108 40.5t42 101.5q0 63 -40.5 103t-109.5 40q-27 0 -51 -8l-51 62l187 191h-305v92h424v-92l-158 -165q91 -5 147.5 -64.5t56.5 -158.5q0 -66 -32 -119.5t-89 -84t-129 -30.5
q-69 0 -123.5 27.5z" />
    <glyph glyph-name="four" unicode="4" horiz-adv-x="565" 
d="M345 183h-316v76l311 441h105v-431h91v-86h-91v-183h-100v183zM345 269v291l-208 -292z" />
    <glyph glyph-name="five" unicode="5" horiz-adv-x="580" 
d="M167 13q-55 27 -87 71.5t-36 95.5l93 28q5 -58 47.5 -94t103.5 -36q66 0 107.5 41t41.5 105q0 63 -42 104t-107 41q-40 0 -73.5 -15.5t-50.5 -37.5l-89 31l38 353h377v-92h-293l-20 -186q18 13 49.5 23.5t67.5 10.5q71 0 126 -29t85.5 -82t30.5 -121q0 -70 -32.5 -124
t-89.5 -84t-126 -30q-66 0 -121 27z" />
    <glyph glyph-name="six" unicode="6" horiz-adv-x="585" 
d="M108 70.5q-64 84.5 -64 241.5q0 194 60 298t199 104q89 0 143.5 -46.5t75.5 -125.5l-88 -27q-31 107 -131 107q-82 0 -116 -60.5t-38 -172.5q20 25 61 46t95 21q67 0 120.5 -29t84.5 -82t31 -123q0 -69 -32 -123t-87.5 -83.5t-125.5 -29.5q-124 0 -188 84.5zM401 118.5
q40 40.5 40 104.5t-40 103.5t-105 39.5q-63 0 -103.5 -40t-40.5 -103q0 -40 18 -73t51 -52.5t75 -19.5q65 0 105 40.5z" />
    <glyph glyph-name="seven" unicode="7" horiz-adv-x="513" 
d="M238 318.5q68 177.5 134 289.5h-343v92h455v-92q-71 -111 -142.5 -288.5t-97.5 -319.5h-100q26 141 94 318.5z" />
    <glyph glyph-name="eight" unicode="8" horiz-adv-x="573" 
d="M503.5 305.5q25.5 -45.5 25.5 -101.5q0 -64 -31.5 -114t-86.5 -77.5t-124 -27.5q-70 0 -125.5 27.5t-86.5 77.5t-31 114q0 56 25.5 101t72.5 73q-33 25 -51 61.5t-18 79.5q0 56 27.5 100.5t76.5 69t110 24.5q60 0 109 -25t77 -69t28 -100q0 -43 -18 -79.5t-51 -61.5
q46 -27 71.5 -72.5zM204 444.5q33 -28.5 83 -28.5q49 0 82.5 28.5t33.5 76.5t-33.5 77t-82.5 29q-50 0 -83 -29t-33 -77t33 -76.5zM388 110.5q41 35.5 41 93.5q0 60 -41 95t-101 35t-101.5 -35.5t-41.5 -94.5q0 -58 42 -93.5t101 -35.5q60 0 101 35.5z" />
    <glyph glyph-name="nine" unicode="9" horiz-adv-x="585" 
d="M477 629.5q64 -84.5 64 -241.5q0 -194 -60 -298t-199 -104q-89 0 -143.5 46.5t-75.5 125.5l88 27q31 -107 131 -107q82 0 116 60.5t38 172.5q-20 -25 -61 -46t-95 -21q-67 0 -120.5 29t-84.5 82t-31 123q0 69 32 123t87.5 83.5t125.5 29.5q124 0 188 -84.5zM184.5 582
q-40.5 -40 -40.5 -105q0 -64 40 -103.5t105 -39.5q63 0 103.5 40t40.5 103q0 40 -18 73t-51 52.5t-75 19.5q-64 0 -104.5 -40z" />
    <glyph glyph-name="colon" unicode=":" horiz-adv-x="196" 
d="M50.5 313.5q-19.5 19.5 -19.5 48.5q0 27 19.5 46.5t47.5 19.5t47.5 -19.5t19.5 -46.5q0 -28 -19.5 -48t-47.5 -20t-47.5 19.5zM50.5 12.5q-19.5 19.5 -19.5 47.5t19.5 47.5t47.5 19.5t47.5 -19.5t19.5 -47.5t-19.5 -47.5t-47.5 -19.5t-47.5 19.5z" />
    <glyph glyph-name="semicolon" unicode=";" horiz-adv-x="202" 
d="M56.5 313.5q-19.5 19.5 -19.5 47.5q0 29 19.5 48t47.5 19t47.5 -19.5t19.5 -47.5t-19.5 -47.5t-47.5 -19.5t-47.5 19.5zM67.5 -54q11.5 26 12.5 47q-23 8 -36 24t-13 39q0 29 19.5 48.5t46.5 19.5q29 0 48.5 -19.5t19.5 -56.5q0 -42 -22 -94.5t-61 -88.5l-42 35
q16 20 27.5 46z" />
    <glyph glyph-name="less" unicode="&#x3c;" horiz-adv-x="600" 
d="M50 401l500 208v-100l-380 -158l380 -160v-100l-500 210v100z" />
    <glyph glyph-name="equal" unicode="=" horiz-adv-x="600" 
d="M50 511h500v-90h-500v90zM50 279h500v-90h-500v90z" />
    <glyph glyph-name="greater" unicode="&#x3e;" horiz-adv-x="600" 
d="M550 401v-100l-500 -210v100l380 160l-380 158v100z" />
    <glyph glyph-name="question" unicode="?" horiz-adv-x="518" 
d="M373.5 687q52.5 -28 83 -77t30.5 -110q0 -78 -45 -137.5t-128 -80.5v-96h-99v164h18q75 0 115.5 41t42.5 104q0 55 -37.5 91.5t-95.5 36.5q-63 0 -99.5 -37t-37.5 -99l-90 24q3 60 33 106.5t80 72t112 25.5q65 0 117.5 -28zM313.5 107.5q19.5 -19.5 19.5 -47.5
t-19.5 -47.5t-47.5 -19.5t-47.5 19.5t-19.5 47.5t19.5 47.5t47.5 19.5t47.5 -19.5z" />
    <glyph glyph-name="at" unicode="@" horiz-adv-x="839" 
d="M610.5 567q82.5 -45 128 -127t45.5 -189q0 -85 -43 -135t-116 -50q-40 0 -67.5 14.5t-39.5 39.5q-52 -54 -120 -54q-70 0 -108.5 47.5t-38.5 115.5q0 49 20.5 93t59.5 72t93 28q35 0 60.5 -12.5t40.5 -32.5l7 35h63l-19 -217v-10q-2 -20 10.5 -33t38.5 -13q39 0 61 32.5
t22 79.5q0 88 -35 153t-100 100t-152 35q-82 0 -148 -39t-103.5 -106t-37.5 -148q0 -80 38.5 -147t105 -106t145.5 -39q44 0 85 13t68 32l41 -59q-35 -25 -86.5 -42t-107.5 -17q-101 0 -184.5 48.5t-132.5 132t-49 184.5q0 99 49 183t133 133.5t184 49.5q107 0 189.5 -45z
M484 173q28 36 28 82q0 40 -21.5 68t-62.5 28q-47 0 -75.5 -36.5t-28.5 -82.5q0 -40 22 -67.5t63 -27.5q47 0 75 36z" />
    <glyph glyph-name="A" unicode="A" horiz-adv-x="671" 
d="M480 177h-290l-65 -177h-103l262 700h103l262 -700h-103zM447 267l-112 301l-111 -301h223z" />
    <glyph glyph-name="B" unicode="B" horiz-adv-x="608" 
d="M77 700h253q101 0 154 -51.5t53 -133.5q0 -53 -23.5 -90.5t-63.5 -59.5v-2q45 -15 79 -54.5t34 -108.5q0 -58 -27 -103.5t-77.5 -71t-118.5 -25.5h-263v700zM327 398q55 0 83.5 30t28.5 81q0 48 -30 75.5t-82 27.5h-150v-214h150zM340 88q59 0 91 32.5t32 81.5
q0 51 -32.5 81.5t-99.5 30.5h-154v-226h163z" />
    <glyph glyph-name="C" unicode="C" horiz-adv-x="759" 
d="M224 32q-80 46 -124.5 128.5t-44.5 189.5q0 104 45 187t124.5 130t179.5 47q113 0 194.5 -57t115.5 -160l-96 -32q-24 75 -78 116t-135 41q-71 0 -128 -35.5t-89.5 -97.5t-32.5 -139q0 -79 32.5 -141t90 -96.5t130.5 -34.5q81 0 133.5 39t74.5 104l95 -31
q-37 -97 -114 -150.5t-190 -53.5q-103 0 -183 46z" />
    <glyph glyph-name="D" unicode="D" horiz-adv-x="706" 
d="M77 700h229q120 0 197 -48t112.5 -126t35.5 -173q0 -98 -38.5 -178t-114.5 -127.5t-183 -47.5h-238v700zM310 90q126 0 183.5 76t57.5 188q0 114 -56 185t-194 71h-124v-520h133z" />
    <glyph glyph-name="E" unicode="E" horiz-adv-x="559" 
d="M77 700h432v-90h-332v-213h290v-88h-290v-219h332v-90h-432v700z" />
    <glyph glyph-name="F" unicode="F" horiz-adv-x="559" 
d="M77 700h432v-90h-332v-230h292v-88h-292v-292h-100v700z" />
    <glyph glyph-name="G" unicode="G" horiz-adv-x="792" 
d="M225.5 32.5q-80.5 46.5 -125.5 129.5t-45 188q0 102 45.5 185t126 131t179.5 48q112 0 187.5 -52t109.5 -141l-93 -32q-25 62 -74.5 97.5t-125.5 35.5q-74 0 -132 -36.5t-90.5 -98.5t-32.5 -137q0 -77 32.5 -139t90.5 -97.5t133 -35.5q71 0 119.5 30.5t72.5 79.5t26 104
h-163v86h261v-378h-71l-15 92q-14 -22 -44 -46t-78.5 -42t-110.5 -18q-102 0 -182.5 46.5z" />
    <glyph glyph-name="H" unicode="H" horiz-adv-x="689" 
d="M77 700h100v-297h335v297h100v-700h-100v311h-335v-311h-100v700z" />
    <glyph glyph-name="I" unicode="I" horiz-adv-x="254" 
d="M77 700h100v-700h-100v700z" />
    <glyph glyph-name="J" unicode="J" horiz-adv-x="516" 
d="M88.5 37.5q-56.5 51.5 -58.5 137.5v37l98 -18v-11q0 -47 28 -76t78 -29q52 0 79.5 32.5t27.5 90.5v499h100v-496q0 -107 -55.5 -162.5t-151.5 -55.5q-89 0 -145.5 51.5z" />
    <glyph glyph-name="K" unicode="K" horiz-adv-x="638" 
d="M259 336l-83 -87v-249h-99v700h99v-313l296 313h130l-274 -290l288 -410h-124z" />
    <glyph glyph-name="L" unicode="L" horiz-adv-x="527" 
d="M77 700h100v-608h321v-92h-421v700z" />
    <glyph glyph-name="M" unicode="M" horiz-adv-x="872" 
d="M791 0h-99v515l-220 -515h-74l-218 513l-1 -513h-99v700h114l242 -566l241 566h115z" />
    <glyph glyph-name="N" unicode="N" horiz-adv-x="729" 
d="M80 700h105l363 -539v539h101v-700h-105l-364 538v-538h-100v700z" />
    <glyph glyph-name="O" unicode="O" horiz-adv-x="821" 
d="M225 35q-81 48 -125.5 131t-44.5 185q0 101 44.5 184t125.5 131.5t186 48.5q104 0 185 -48.5t125.5 -131.5t44.5 -184q0 -102 -45 -185t-125.5 -131t-184.5 -48q-105 0 -186 48zM544 114q58 35 90 97t32 140q0 77 -32.5 139t-90.5 97.5t-132 35.5q-75 0 -133.5 -35.5
t-90.5 -97.5t-32 -139q0 -79 32 -140.5t90 -96.5t134 -35q75 0 133 35z" />
    <glyph glyph-name="P" unicode="P" horiz-adv-x="596" 
d="M77 700h236q106 0 171.5 -55.5t65.5 -161.5q0 -69 -30.5 -118t-83.5 -74t-119 -25h-140v-266h-100v700zM306 356q69 0 106.5 33t37.5 95q0 61 -38 93.5t-106 32.5h-129v-254h129z" />
    <glyph glyph-name="Q" unicode="Q" horiz-adv-x="821" 
d="M745.5 222.5q-20.5 -60.5 -59.5 -109.5l77 -77l-67 -64l-78 78q-88 -63 -207 -63q-105 0 -186 48t-125.5 131t-44.5 185q0 101 44.5 184t125.5 131.5t186 48.5q104 0 185 -48.5t125.5 -131.5t44.5 -184q0 -68 -20.5 -128.5zM550 118l-86 86l67 65l86 -87q49 70 49 169
q0 77 -32.5 139t-90.5 97.5t-132 35.5q-75 0 -133.5 -35.5t-90.5 -97.5t-32 -139q0 -79 32 -140.5t90 -96.5t134 -35q80 0 139 39z" />
    <glyph glyph-name="R" unicode="R" horiz-adv-x="621" 
d="M77 700h242q73 0 124.5 -26.5t77.5 -73t26 -104.5q0 -80 -42 -130.5t-104 -67.5l174 -298h-110l-165 285h-123v-285h-100v700zM317 373q60 0 95 31t35 88q0 59 -36 88.5t-96 29.5h-138v-237h140z" />
    <glyph glyph-name="S" unicode="S" horiz-adv-x="602" 
d="M135 37.5q-68 50.5 -93 149.5l94 27q18 -70 59 -103.5t112 -33.5q68 0 110.5 30t42.5 86q0 42 -30.5 70.5t-120.5 45.5q-120 21 -182 69.5t-62 134.5q0 60 31.5 106t86.5 71t124 25q96 0 156.5 -50t83.5 -141l-93 -27q-15 63 -50 95.5t-97 32.5q-64 0 -103 -29.5
t-39 -82.5q0 -47 38 -70t123 -39q120 -25 177 -74.5t57 -136.5q0 -62 -33.5 -108.5t-91 -72t-128.5 -25.5q-104 0 -172 50.5z" />
    <glyph glyph-name="T" unicode="T" horiz-adv-x="575" 
d="M237 608h-208v92h517v-92h-209v-608h-100v608z" />
    <glyph glyph-name="U" unicode="U" horiz-adv-x="685" 
d="M150.5 55.5q-73.5 69.5 -73.5 207.5v437h100v-432q0 -98 43.5 -144t122.5 -46q78 0 121.5 46.5t43.5 143.5v432h100v-438q0 -139 -73 -207.5t-192 -68.5t-192.5 69.5z" />
    <glyph glyph-name="V" unicode="V" horiz-adv-x="669" 
d="M647 700l-259 -700h-107l-259 700h106l207 -572l207 572h105z" />
    <glyph glyph-name="W" unicode="W" horiz-adv-x="940" 
d="M918 700l-197 -700h-101l-150 556l-150 -556h-101l-197 700h103l148 -549l147 549h102l147 -547l147 547h102z" />
    <glyph glyph-name="X" unicode="X" horiz-adv-x="658" 
d="M518 0l-189 278l-188 -278h-119l242 356l-232 344h118l179 -266l180 266h118l-231 -343l240 -357h-118z" />
    <glyph glyph-name="Y" unicode="Y" horiz-adv-x="623" 
d="M262 279l-240 421h109l180 -322l181 322h109l-239 -421v-279h-100v279z" />
    <glyph glyph-name="Z" unicode="Z" horiz-adv-x="615" 
d="M43 88l405 522h-377v90h500v-88l-404 -522h400v-90h-524v88z" />
    <glyph glyph-name="bracketleft" unicode="[" horiz-adv-x="232" 
d="M36 769h160v-88h-68v-764h68v-88h-160v940z" />
    <glyph glyph-name="backslash" unicode="\" horiz-adv-x="420" 
d="M289 0l-268 700h100l268 -700h-100z" />
    <glyph glyph-name="bracketright" unicode="]" horiz-adv-x="232" 
d="M36 -83h68v764h-68v88h160v-940h-160v88z" />
    <glyph glyph-name="asciicircum" unicode="^" horiz-adv-x="629" 
d="M469 350l-154 259l-155 -259h-110l210 350h109l210 -350h-110z" />
    <glyph glyph-name="underscore" unicode="_" horiz-adv-x="500" 
d="M0 -50h500v-86h-500v86z" />
    <glyph glyph-name="grave" unicode="`" 
d="M125 695h127l67 -126h-87z" />
    <glyph glyph-name="a" unicode="a" horiz-adv-x="507" 
d="M123 5.5q-39 19.5 -60 54t-21 77.5q0 64 44.5 105.5t148.5 56.5l119 17v11q0 101 -106 101q-51 0 -77.5 -23.5t-33.5 -66.5l-87 21q36 149 200 149q91 0 146.5 -46t55.5 -134v-328h-83l-10 48q-45 -62 -146 -62q-51 0 -90 19.5zM320 95q34 28 34 81v65l-111 -17
q-53 -8 -79.5 -26.5t-26.5 -55.5q0 -34 27 -54.5t73 -20.5q49 0 83 28z" />
    <glyph glyph-name="b" unicode="b" horiz-adv-x="606" 
d="M226 10q-42 23 -67 57l-13 -67h-81v700h98v-269q25 34 67 56t97 22q72 0 126 -36t82.5 -95.5t28.5 -129.5q0 -68 -30 -128t-84.5 -96.5t-123.5 -36.5q-58 0 -100 23zM392 97.5q35 22.5 54.5 62t19.5 88.5q0 50 -19.5 89.5t-54.5 61.5t-78 22q-67 0 -109.5 -48.5
t-42.5 -124.5q0 -75 42.5 -124t109.5 -49q43 0 78 22.5z" />
    <glyph glyph-name="c" unicode="c" horiz-adv-x="558" 
d="M161.5 21.5q-57.5 35.5 -88.5 95.5t-31 130q0 71 31.5 131t89 95.5t132.5 35.5q82 0 139 -42t80 -112l-90 -30q-14 44 -48 69t-81 25q-45 0 -80 -22t-55 -61.5t-20 -88.5t20 -88t55 -61t80 -22q46 0 80 25t49 68l89 -30q-26 -69 -82.5 -111t-135.5 -42q-76 0 -133.5 35.5
z" />
    <glyph glyph-name="d" unicode="d" horiz-adv-x="606" 
d="M156.5 23.5q-54.5 36.5 -84.5 96.5t-30 128q0 70 28.5 129.5t82.5 95.5t126 36q55 0 97 -22t67 -56v269h98v-700h-81l-13 67q-25 -34 -67 -57t-100 -23q-69 0 -123.5 36.5zM401 123.5q42 48.5 42 124.5t-42 124.5t-109 48.5q-44 0 -78.5 -22t-54 -61.5t-19.5 -89.5
q0 -49 19.5 -88.5t54 -62t78.5 -22.5q67 0 109 48.5z" />
    <glyph glyph-name="e" unicode="e" horiz-adv-x="564" 
d="M137 217q3 -40 22.5 -74t53.5 -54.5t77 -20.5q52 0 87.5 25.5t47.5 60.5l84 -27q-22 -62 -78 -101.5t-141 -39.5q-72 0 -128.5 34.5t-88 94.5t-31.5 133q0 72 32.5 131.5t89 94t125.5 34.5q70 0 122.5 -31.5t81.5 -88.5t29 -132v-39h-385zM391.5 386.5
q-38.5 39.5 -101.5 39.5t-103 -38t-49 -94h296q-4 53 -42.5 92.5z" />
    <glyph glyph-name="f" unicode="f" horiz-adv-x="362" 
d="M107 407h-87v88h87v82q0 63 37 100.5t95 37.5q48 0 75.5 -13.5t39.5 -27.5l-48 -67q-5 6 -17.5 12.5t-30.5 6.5q-53 0 -53 -60v-71h135v-88h-135v-407h-98v407z" />
    <glyph glyph-name="g" unicode="g" horiz-adv-x="601" 
d="M140.5 -175q-55.5 43 -76.5 116l92 22q25 -97 132 -97q73 0 111.5 37t38.5 104v74q-21 -34 -63 -57.5t-98 -23.5q-72 0 -125 34.5t-81.5 92.5t-28.5 126t29 126.5t82.5 94t122.5 35.5q58 0 98.5 -22.5t63.5 -56.5l16 65h82v-486q0 -64 -27.5 -115.5t-83 -81.5t-137.5 -30
q-92 0 -147.5 43zM396.5 133.5q41.5 45.5 41.5 119.5q0 75 -41.5 121.5t-107.5 46.5t-107.5 -46.5t-41.5 -121.5q0 -74 41.5 -119.5t108.5 -45.5q65 0 106.5 45.5z" />
    <glyph glyph-name="h" unicode="h" horiz-adv-x="556" 
d="M65 700h97v-265q56 74 156 74q82 0 127.5 -49t45.5 -149v-311h-98v294q0 68 -28 95.5t-78 27.5q-52 0 -88.5 -38t-36.5 -104v-275h-97v700z" />
    <glyph glyph-name="i" unicode="i" horiz-adv-x="238" 
d="M70 495h98v-495h-98v495zM74 586.5q-19 18.5 -19 45.5q0 26 19 45t46 19q26 0 44.5 -19t18.5 -45q0 -27 -18.5 -45.5t-44.5 -18.5q-27 0 -46 18.5z" />
    <glyph glyph-name="j" unicode="j" horiz-adv-x="246" 
d="M-22.5 -207q-27.5 12 -39.5 26l45 70q16 -18 46 -18q50 0 50 60v564h98v-575q0 -63 -37.5 -101t-94.5 -38q-40 0 -67.5 12zM83 586.5q-19 18.5 -19 45.5q0 26 19 45t46 19q26 0 44.5 -19t18.5 -45q0 -27 -18.5 -45.5t-44.5 -18.5q-27 0 -46 18.5z" />
    <glyph glyph-name="k" unicode="k" horiz-adv-x="510" 
d="M219 231l-56 -59v-172h-98v700h98v-401l188 196h120l-187 -196l210 -299h-112z" />
    <glyph glyph-name="l" unicode="l" horiz-adv-x="228" 
d="M65 700h98v-700h-98v700z" />
    <glyph glyph-name="m" unicode="m" horiz-adv-x="846" 
d="M65 495h81l14 -63q26 36 65.5 56.5t90.5 20.5q52 0 87 -22.5t52 -58.5q27 37 69 59t96 22q72 0 116.5 -45t44.5 -135v-329h-98v298q0 65 -25 92t-72 27q-49 0 -81.5 -36t-32.5 -101v-280h-98v298q0 119 -96 119q-49 0 -82 -36t-33 -101v-280h-98v495z" />
    <glyph glyph-name="n" unicode="n" 
d="M65 495h81l15 -63q57 77 157 77q82 0 128 -49t46 -149v-311h-98v294q0 68 -28 95.5t-78 27.5q-53 0 -89 -37.5t-36 -103.5v-276h-98v495z" />
    <glyph glyph-name="o" unicode="o" horiz-adv-x="594" 
d="M163.5 22q-58.5 36 -90 96t-31.5 129q0 70 32 130t90.5 96t132.5 36q75 0 133 -36t90 -96t32 -130q0 -69 -32 -129t-90 -96t-133 -36t-133.5 36zM377.5 98q35.5 22 56 61.5t20.5 87.5q0 49 -20.5 88t-56 61.5t-80.5 22.5t-81 -22.5t-56 -61.5t-20 -88t20 -88t56 -61
t81 -22t80.5 22z" />
    <glyph glyph-name="p" unicode="p" horiz-adv-x="606" 
d="M449.5 471.5q54.5 -36.5 84.5 -96.5t30 -128q0 -70 -28.5 -129.5t-82.5 -95.5t-126 -36q-55 0 -97 22t-67 56v-269h-98v700h81l13 -67q25 34 67 57t100 23q69 0 123.5 -36.5zM204.5 371q-42.5 -49 -42.5 -124q0 -76 42.5 -124.5t109.5 -48.5q43 0 78 22t54.5 61.5
t19.5 89.5q0 49 -19.5 88.5t-54.5 62t-78 22.5q-67 0 -109.5 -49z" />
    <glyph glyph-name="q" unicode="q" horiz-adv-x="606" 
d="M380 485q42 -23 67 -57l13 67h81v-700h-98v269q-25 -34 -67 -56t-97 -22q-72 0 -126 36t-82.5 95.5t-28.5 129.5q0 68 30 128t84.5 96.5t123.5 36.5q58 0 100 -23zM213.5 397.5q-34.5 -22.5 -54 -62t-19.5 -88.5q0 -50 19.5 -89.5t54 -61.5t78.5 -22q67 0 109 48.5
t42 124.5t-42 124.5t-109 48.5q-44 0 -78.5 -22.5z" />
    <glyph glyph-name="r" unicode="r" horiz-adv-x="387" 
d="M65 495h81l15 -62q18 32 51.5 54t77.5 22q29 0 52 -7.5t37 -17.5l-38 -86q-9 7 -25.5 12.5t-38.5 5.5q-49 0 -81.5 -38.5t-32.5 -103.5v-274h-98v495z" />
    <glyph glyph-name="s" unicode="s" horiz-adv-x="484" 
d="M114 24.5q-52 38.5 -72 111.5l88 27q12 -42 37.5 -68t78.5 -26q46 0 74.5 18.5t28.5 50.5q0 24 -21 41.5t-83 28.5q-88 16 -137 48.5t-49 101.5q0 67 52.5 108.5t134.5 41.5q75 0 123.5 -37.5t63.5 -105.5l-87 -25q-9 38 -32.5 61.5t-67.5 23.5q-48 0 -71 -18.5
t-23 -44.5q0 -29 27 -43.5t83 -24.5q88 -17 134 -51.5t46 -103.5q0 -44 -25 -79t-70 -54.5t-101 -19.5q-80 0 -132 38.5z" />
    <glyph glyph-name="t" unicode="t" horiz-adv-x="373" 
d="M145.5 22.5q-36.5 36.5 -36.5 100.5v284h-89v88h89v129h98v-129h134v-88h-134v-272q0 -58 52 -58q29 0 48 19l45 -70q-13 -15 -41.5 -27.5t-70.5 -12.5q-58 0 -94.5 36.5z" />
    <glyph glyph-name="u" unicode="u" 
d="M492 0h-81l-15 63q-57 -77 -157 -77q-82 0 -128 48.5t-46 148.5v312h98v-295q0 -67 28 -95t78 -28q53 0 89 37.5t36 103.5v277h98v-495z" />
    <glyph glyph-name="v" unicode="v" horiz-adv-x="513" 
d="M497 495l-188 -495h-104l-189 495h101l140 -384l140 384h100z" />
    <glyph glyph-name="w" unicode="w" horiz-adv-x="759" 
d="M743 495l-153 -495h-101l-109 373l-110 -373h-101l-153 495h99l107 -378l109 378h96l110 -377l107 377h99z" />
    <glyph glyph-name="x" unicode="x" horiz-adv-x="504" 
d="M379 0l-127 178l-128 -178h-108l180 249l-176 246h109l123 -174l123 174h108l-175 -245l180 -250h-109z" />
    <glyph glyph-name="y" unicode="y" horiz-adv-x="569" 
d="M504 495v-486q0 -64 -25 -115.5t-75.5 -81.5t-125.5 -30q-87 0 -140 42.5t-73 115.5l92 20q22 -93 121 -93q63 0 95.5 37t32.5 103v68q-30 -37 -67 -55.5t-93 -18.5q-79 0 -129 48.5t-50 146.5v299h98v-277q0 -68 29 -97t82 -29q57 0 93.5 37.5t36.5 104.5v261h98z" />
    <glyph glyph-name="z" unicode="z" horiz-adv-x="469" 
d="M41 77l264 334h-256v84h376v-77l-265 -335h268l-1 -83h-386v77z" />
    <glyph glyph-name="braceleft" unicode="{" horiz-adv-x="278" 
d="M197 -171q-43 0 -75.5 28.5t-32.5 80.5v260q0 29 -14.5 43t-38.5 14v93q24 0 38.5 14t14.5 43v255q0 52 32.5 80.5t75.5 28.5h45v-88h-22q-35 -1 -35 -55v-249q0 -51 -31 -77q16 -13 23.5 -31t7.5 -45v-252q0 -54 35 -55h22v-88h-45z" />
    <glyph glyph-name="bar" unicode="|" horiz-adv-x="200" 
d="M50 769h100v-940h-100v940z" />
    <glyph glyph-name="braceright" unicode="}" horiz-adv-x="278" 
d="M36 -83h22q35 1 35 55v252q0 27 7.5 45t23.5 31q-31 26 -31 77v249q0 54 -35 55h-22v88h45q43 0 75.5 -28.5t32.5 -80.5v-255q0 -29 14.5 -43t38.5 -14v-93q-24 0 -38.5 -14t-14.5 -43v-260q0 -52 -32.5 -80.5t-75.5 -28.5h-45v88z" />
    <glyph glyph-name="asciitilde" unicode="~" horiz-adv-x="600" 
d="M354.5 287.5q-26.5 7.5 -69.5 22.5q-35 13 -54.5 18.5t-37.5 5.5q-24 0 -43 -12.5t-39 -40.5l-64 53q30 46 64 66.5t77 20.5q30 0 58 -7.5t66 -21.5q35 -13 54.5 -18.5t39.5 -5.5q23 0 41 12t37 39l68 -52q-30 -45 -64 -66t-78 -21q-29 0 -55.5 7.5z" />
    <glyph glyph-name="uni00A0" unicode="&#xa0;" horiz-adv-x="280" 
 />
    <glyph glyph-name="exclamdown" unicode="&#xa1;" horiz-adv-x="288" 
d="M191 482.5q20 -19.5 20 -46.5t-20 -47.5t-47 -20.5q-28 0 -47.5 20t-19.5 46q0 27 19.5 47.5t47.5 20.5q27 0 47 -19.5zM194 305v-510h-100v510h100z" />
    <glyph glyph-name="cent" unicode="&#xa2;" horiz-adv-x="558" 
d="M375 202q34 25 49 68l89 -30q-22 -59 -66.5 -98.5t-107.5 -50.5v-81h-99v82q-60 12 -105 49.5t-69 91.5t-24 115q0 62 24 116t69 91t105 50v86h99v-84q65 -11 110 -51t65 -100l-90 -30q-14 44 -48 69t-81 25q-45 0 -80 -22t-55 -61.5t-20 -88.5t20 -88t55 -61t80 -22
q46 0 80 25z" />
    <glyph glyph-name="sterling" unicode="&#xa3;" horiz-adv-x="525" 
d="M510 90v-90h-490v90h73v213h-73v88h73v105q0 105 58 161.5t149 56.5q87 0 138 -43.5t62 -113.5l-91 -18q-6 34 -33.5 58.5t-75.5 24.5t-77.5 -32t-29.5 -90v-109h231v-88h-231v-213h317z" />
    <glyph glyph-name="currency" unicode="&#xa4;" horiz-adv-x="602" 
d="M490 227l70 -72l-65 -64l-71 70q-54 -35 -122 -35q-71 0 -125 35l-71 -70l-64 64l70 72q-35 55 -35 125q0 67 35 122l-70 70l64 64l69 -68q55 38 127 38q73 0 126 -36l67 66l65 -64l-68 -68q35 -56 35 -124t-37 -125zM395.5 254q36.5 38 36.5 98t-36.5 98t-93.5 38
q-58 0 -94.5 -38t-36.5 -98q0 -59 36.5 -97.5t94.5 -38.5q57 0 93.5 38z" />
    <glyph glyph-name="yen" unicode="&#xa5;" horiz-adv-x="623" 
d="M407 358h116v-82h-161v-72h161v-82h-161v-122h-100v122h-162v82h162v72h-162v82h117l-195 342h109l180 -322l181 322h109z" />
    <glyph glyph-name="brokenbar" unicode="&#xa6;" horiz-adv-x="200" 
d="M50 769h100v-409h-100v409zM50 240h100v-411h-100v411z" />
    <glyph glyph-name="section" unicode="&#xa7;" horiz-adv-x="487" 
d="M445 139q0 -44 -25.5 -79t-70.5 -54.5t-102 -19.5q-79 0 -132.5 37t-72.5 103l84 27q27 -88 121 -88q47 0 75.5 19t28.5 52q0 25 -22 43t-83 28q-89 16 -138.5 49t-49.5 102q0 64 48 104q-48 37 -48 102q0 67 53 108.5t136 41.5q73 0 121.5 -35t66.5 -100l-83 -22
q-10 36 -36 56.5t-68 20.5q-50 0 -73 -19t-23 -47q0 -29 27.5 -44t83.5 -25q89 -17 135.5 -51.5t46.5 -103.5q0 -30 -12.5 -55.5t-35.5 -44.5q48 -38 48 -105zM179 319q27 -15 84 -26q28 -5 47 -10q41 18 41 59q0 24 -22 42.5t-83 28.5l-46 9q-26 -8 -37 -23.5t-11 -35.5
q0 -29 27 -44z" />
    <glyph glyph-name="dieresis" unicode="&#xa8;" 
d="M150 587q-19 19 -19 45t19 45t45 19t45 -19t19 -45t-19 -45t-45 -19t-45 19zM318 587q-19 19 -19 45t19 45t45 19t45 -19t19 -45t-19 -45t-45 -19t-45 19z" />
    <glyph glyph-name="copyright" unicode="&#xa9;" horiz-adv-x="828" 
d="M231.5 36q-83.5 49 -132.5 132.5t-49 182.5t49 182.5t132.5 132.5t182.5 49t182.5 -49t132.5 -132.5t49 -182.5t-49 -182.5t-132.5 -132.5t-182.5 -49t-182.5 49zM563 94q68 40 108 108t40 149t-40 149t-108 108t-149 40t-149 -40t-108 -108t-40 -149t40 -149t108 -108
t149 -40t149 40zM315 178.5q-43 24.5 -67 69t-24 103.5q0 57 24 102t66.5 70t97.5 25q61 0 105.5 -30.5t63.5 -87.5l-66 -21q-11 35 -36.5 55t-66.5 20q-52 0 -86 -38t-34 -95q0 -59 34.5 -96t87.5 -37q40 0 64.5 18.5t35.5 49.5l65 -21q-21 -53 -62.5 -82t-103.5 -29
q-55 0 -98 24.5z" />
    <glyph glyph-name="ordfeminine" unicode="&#xaa;" horiz-adv-x="342" 
d="M59.5 406.5q-33.5 29.5 -33.5 77.5q0 42 30.5 70.5t105.5 39.5l78 12v8q0 66 -69 66q-63 0 -73 -59l-66 16q12 52 46.5 78t94.5 26q62 0 102 -32t40 -95l1 -227h-64l-8 32q-32 -42 -99 -42q-52 0 -85.5 29.5zM218.5 457q21.5 18 21.5 52v44l-73 -10q-35 -5 -51.5 -18
t-16.5 -37q0 -22 17.5 -35.5t47.5 -13.5q33 0 54.5 18z" />
    <glyph glyph-name="guillemotleft" unicode="&#xab;" horiz-adv-x="498" 
d="M245 485l-93 -184l93 -186h-101l-94 186l93 184h102zM355 301l93 -186h-101l-94 186l93 184h102z" />
    <glyph glyph-name="logicalnot" unicode="&#xac;" horiz-adv-x="600" 
d="M551 230h-96v150h-407v90h503v-240z" />
    <glyph glyph-name="uni00AD" unicode="&#xad;" horiz-adv-x="600" 
d="M51 345h261v-90h-261v90z" />
    <glyph glyph-name="registered" unicode="&#xae;" horiz-adv-x="436" 
d="M127 368.5q-42 24.5 -66.5 66t-24.5 91.5q0 49 24.5 91t66.5 66.5t91 24.5t91 -24.5t66.5 -66.5t24.5 -91q0 -50 -24.5 -91.5t-66.5 -66t-91 -24.5t-91 24.5zM288 405q32 19 50.5 51t18.5 70t-18.5 70t-50.5 50.5t-70 18.5t-70 -18.5t-51 -50.5t-19 -70t19 -70t51 -51
t70 -19t70 19zM156 618h73q27 0 43.5 -16t16.5 -39q0 -41 -32 -56l35 -74h-45l-30 68h-20v-68h-41v185zM224 537q12 0 18.5 6.5t6.5 15.5q0 10 -6 16t-19 6h-27v-44h27z" />
    <glyph glyph-name="macron" unicode="&#xaf;" 
d="M172 670h212v-76h-212v76z" />
    <glyph glyph-name="degree" unicode="&#xb0;" horiz-adv-x="369" 
d="M110 431q-34 20 -54 54t-20 74q0 41 20 75t54 54t74 20q41 0 75 -20t54 -54t20 -75q0 -40 -20 -74t-54 -54t-75 -20q-40 0 -74 20zM241 503q23 23 23 56t-23 56t-57 23q-33 0 -56 -23t-23 -56t23 -56t56 -23q34 0 57 23z" />
    <glyph glyph-name="plusminus" unicode="&#xb1;" horiz-adv-x="600" 
d="M254 404h-204v90h204v205h92v-205h204v-90h-204v-205h-92v205zM52 140h500v-90h-500v90z" />
    <glyph glyph-name="uni00B2" unicode="&#xb2;" horiz-adv-x="315" 
d="M43 501l119 102q26 24 36.5 40t10.5 37q0 20 -14.5 34.5t-37.5 14.5q-26 0 -42 -17t-15 -46l-64 18q2 49 36.5 79t84.5 30q51 0 86.5 -32t35.5 -80q0 -37 -17 -64.5t-51 -57.5l-69 -58h137v-65h-236v65z" />
    <glyph glyph-name="uni00B3" unicode="&#xb3;" horiz-adv-x="325" 
d="M71.5 459.5q-34.5 30.5 -35.5 74.5l64 18q1 -25 17.5 -41.5t42.5 -16.5t43 15.5t17 40.5t-16.5 41t-43.5 16q-10 0 -21 -3l-35 41l81 77h-136v64h217v-64l-62 -62q36 -6 60.5 -34t24.5 -76q0 -53 -36.5 -87t-92.5 -34q-54 0 -88.5 30.5z" />
    <glyph glyph-name="acute" unicode="&#xb4;" 
d="M289 695h127l-107 -126h-87z" />
    <glyph glyph-name="uni00B5" unicode="&#xb5;" 
d="M492 495v-495h-81l-15 63q-57 -77 -157 -77q-44 0 -76 13v-204h-98v700h98v-295q0 -67 28 -95t78 -28q53 0 89 37.5t36 103.5v277h98z" />
    <glyph glyph-name="paragraph" unicode="&#xb6;" horiz-adv-x="618" 
d="M589 622h-90v-827h-87l-1 827h-95v-827h-87v505q-54 0 -100 27t-73 73t-27 100t27 100t72.5 73t100.5 27h360v-78z" />
    <glyph glyph-name="periodcentered" unicode="&#xb7;" horiz-adv-x="196" 
d="M50.5 252.5q-19.5 19.5 -19.5 47.5t19.5 47.5t47.5 19.5t47.5 -19.5t19.5 -47.5t-19.5 -47.5t-47.5 -19.5t-47.5 19.5z" />
    <glyph glyph-name="cedilla" unicode="&#xb8;" 
d="M208.5 -196.5q-25.5 20.5 -28.5 50.5l55 19q0 -16 10 -25.5t27 -9.5q15 0 25 9.5t10 25.5q0 15 -10 24t-25 9q-16 0 -23 -7l-43 25l45 84l53 -8l-22 -42q36 -1 60.5 -23t24.5 -58q0 -43 -26 -68.5t-69 -25.5q-38 0 -63.5 20.5z" />
    <glyph glyph-name="uni00B9" unicode="&#xb9;" horiz-adv-x="209" 
d="M87 709q-13 -8 -33.5 -15t-35.5 -9v68q14 3 35.5 13t33.5 20h68v-350h-68v273z" />
    <glyph glyph-name="ordmasculine" unicode="&#xba;" horiz-adv-x="416" 
d="M114.5 406q-40.5 25 -62.5 67t-22 90t22.5 90t63 67t92.5 25q53 0 93.5 -25t62.5 -67t22 -90t-22 -90t-62.5 -67t-93.5 -25t-93.5 25zM287.5 477q31.5 34 31.5 86t-31.5 86.5t-79.5 34.5q-49 0 -80 -34t-31 -87q0 -52 31 -86t80 -34q48 0 79.5 34z" />
    <glyph glyph-name="guillemotright" unicode="&#xbb;" horiz-adv-x="498" 
d="M448 301l-94 -186h-101l93 186l-93 184h102zM245 301l-94 -186h-101l93 186l-93 184h102z" />
    <glyph glyph-name="onequarter" unicode="&#xbc;" horiz-adv-x="784" 
d="M134 623q-13 -8 -33.5 -15t-35.5 -9v68q14 3 35.5 13t33.5 20h68v-350h-68v273zM92 37l563 670l54 -43l-563 -671zM613 87h-156v50l150 213h74v-205h37v-58h-37v-87h-69zM613 145l-1 111l-80 -111h81z" />
    <glyph glyph-name="onehalf" unicode="&#xbd;" horiz-adv-x="813" 
d="M134 623q-13 -8 -33.5 -15t-35.5 -9v68q14 3 35.5 13t33.5 20h68v-350h-68v273zM80 37l563 670l54 -43l-563 -671zM513 65l119 102q26 24 36.5 40t10.5 37q0 20 -14.5 34.5t-37.5 14.5q-26 0 -42 -17t-15 -46l-64 18q2 49 36.5 79t84.5 30q51 0 86.5 -32t35.5 -80
q0 -37 -17 -64.5t-51 -57.5l-69 -58h137v-65h-236v65z" />
    <glyph glyph-name="threequarters" unicode="&#xbe;" horiz-adv-x="818" 
d="M100.5 373.5q-34.5 30.5 -35.5 74.5l64 18q1 -25 17.5 -41.5t42.5 -16.5t43 15.5t17 40.5t-16.5 41t-43.5 16q-10 0 -21 -3l-35 41l81 77h-136v64h217v-64l-62 -62q36 -6 60.5 -34t24.5 -76q0 -53 -36.5 -87t-92.5 -34q-54 0 -88.5 30.5zM125 37l563 670l54 -43
l-563 -671zM647 87h-156v50l150 213h74v-205h37v-58h-37v-87h-69zM647 145l-1 111l-80 -111h81z" />
    <glyph glyph-name="questiondown" unicode="&#xbf;" horiz-adv-x="518" 
d="M204.5 387.5q-19.5 19.5 -19.5 47.5t19.5 47.5t47.5 19.5t47.5 -19.5t19.5 -47.5t-19.5 -47.5t-47.5 -19.5t-47.5 19.5zM487 -16q-3 -60 -33 -106.5t-80 -72t-112 -25.5q-65 0 -117.5 28t-83 77t-30.5 110q0 78 45 137.5t128 80.5v96h99v-164h-18q-75 0 -115.5 -41
t-42.5 -104q0 -55 37.5 -91.5t95.5 -36.5q63 0 99.5 37t37.5 99z" />
    <glyph glyph-name="Agrave" unicode="&#xc0;" horiz-adv-x="671" 
d="M480 177h-290l-65 -177h-103l262 700h103l262 -700h-103zM447 267l-112 301l-111 -301h223zM187 897h127l67 -126h-87z" />
    <glyph glyph-name="Aacute" unicode="&#xc1;" horiz-adv-x="671" 
d="M480 177h-290l-65 -177h-103l262 700h103l262 -700h-103zM447 267l-112 301l-111 -301h223zM358 897h127l-107 -126h-87z" />
    <glyph glyph-name="Acircumflex" unicode="&#xc2;" horiz-adv-x="671" 
d="M480 177h-290l-65 -177h-103l262 700h103l262 -700h-103zM447 267l-112 301l-111 -301h223zM392 771l-56 63l-56 -63h-86l90 126h103l90 -126h-85z" />
    <glyph glyph-name="Atilde" unicode="&#xc3;" horiz-adv-x="671" 
d="M480 177h-290l-65 -177h-103l262 700h103l262 -700h-103zM447 267l-112 301l-111 -301h223zM361.5 782.5q-15.5 5.5 -34.5 15.5q-28 15 -45 15q-13 0 -26 -9t-22 -28l-55 37q15 39 40.5 57t55.5 18q20 0 35 -5t34 -15q17 -8 27 -12t22 -4q27 0 47 40l57 -39
q-14 -38 -40 -57t-59 -19q-21 0 -36.5 5.5z" />
    <glyph glyph-name="Adieresis" unicode="&#xc4;" horiz-adv-x="671" 
d="M480 177h-290l-65 -177h-103l262 700h103l262 -700h-103zM447 267l-112 301l-111 -301h223zM203.5 789q-19.5 19 -19.5 45t19.5 45t45.5 19t45 -19t19 -45t-19 -45t-45 -19t-45.5 19zM378 789q-19 19 -19 45t19 45t45 19q27 0 45.5 -19t18.5 -45t-18.5 -45t-45.5 -19
q-26 0 -45 19z" />
    <glyph glyph-name="Aring" unicode="&#xc5;" horiz-adv-x="671" 
d="M480 177h-290l-65 -177h-103l262 700h103l262 -700h-103zM447 267l-112 301l-111 -301h223zM270 769q-27 27 -27 65t27 65t64 27q38 0 65 -27t27 -65q0 -37 -27 -64.5t-65 -27.5q-37 0 -64 27zM358 810q10 10 10 24t-10 24t-24 10t-24 -10t-10 -24t10 -24t24 -10t24 10z
" />
    <glyph glyph-name="AE" unicode="&#xc6;" horiz-adv-x="986" 
d="M604 610v-213h290v-88h-290v-219h332v-90h-432v160h-268l-107 -160h-107l467 700h447v-90h-332zM504 248v315l-210 -315h210z" />
    <glyph glyph-name="Ccedilla" unicode="&#xc7;" horiz-adv-x="759" 
d="M541.5 117q52.5 39 74.5 104l95 -31q-35 -92 -106 -145t-175 -58l-15 -29q36 -1 60 -23t24 -58q0 -43 -26 -68.5t-69 -25.5q-37 0 -63 20.5t-28 50.5l55 19q0 -16 9.5 -25.5t26.5 -9.5q16 0 25.5 9.5t9.5 25.5q0 15 -10 24t-25 9t-22 -7l-44 25l34 63q-93 8 -165 55.5
t-112 127t-40 180.5q0 104 45 187t124.5 130t179.5 47q113 0 194.5 -57t115.5 -160l-96 -32q-24 75 -78 116t-135 41q-71 0 -128 -35.5t-89.5 -97.5t-32.5 -139q0 -79 32.5 -141t90 -96.5t130.5 -34.5q81 0 133.5 39z" />
    <glyph glyph-name="Egrave" unicode="&#xc8;" horiz-adv-x="559" 
d="M77 700h432v-90h-332v-213h290v-88h-290v-219h332v-90h-432v700zM158 897h127l67 -126h-87z" />
    <glyph glyph-name="Eacute" unicode="&#xc9;" horiz-adv-x="559" 
d="M77 700h432v-90h-332v-213h290v-88h-290v-219h332v-90h-432v700zM329 897h127l-107 -126h-87z" />
    <glyph glyph-name="Ecircumflex" unicode="&#xca;" horiz-adv-x="559" 
d="M77 700h432v-90h-332v-213h290v-88h-290v-219h332v-90h-432v700zM363 771l-56 63l-56 -63h-86l90 126h103l90 -126h-85z" />
    <glyph glyph-name="Edieresis" unicode="&#xcb;" horiz-adv-x="559" 
d="M77 700h432v-90h-332v-213h290v-88h-290v-219h332v-90h-432v700zM174.5 789q-19.5 19 -19.5 45t19.5 45t45.5 19t45 -19t19 -45t-19 -45t-45 -19t-45.5 19zM349 789q-19 19 -19 45t19 45t45 19q27 0 45.5 -19t18.5 -45t-18.5 -45t-45.5 -19q-26 0 -45 19z" />
    <glyph glyph-name="Igrave" unicode="&#xcc;" horiz-adv-x="254" 
d="M77 700h100v-700h-100v700zM-22 897h127l67 -126h-87z" />
    <glyph glyph-name="Iacute" unicode="&#xcd;" horiz-adv-x="254" 
d="M77 700h100v-700h-100v700zM149 897h127l-107 -126h-87z" />
    <glyph glyph-name="Icircumflex" unicode="&#xce;" horiz-adv-x="254" 
d="M77 700h100v-700h-100v700zM183 771l-56 63l-56 -63h-86l90 126h103l90 -126h-85z" />
    <glyph glyph-name="Idieresis" unicode="&#xcf;" horiz-adv-x="254" 
d="M77 700h100v-700h-100v700zM-2 792q-19 19 -19 45t19 45t45 19t45 -19t19 -45t-19 -45t-45 -19t-45 19zM166 792q-19 19 -19 45t19 45t45 19t45 -19t19 -45t-19 -45t-45 -19t-45 19z" />
    <glyph glyph-name="Eth" unicode="&#xd0;" horiz-adv-x="706" 
d="M503 652q77 -48 112.5 -126t35.5 -173q0 -98 -38.5 -178t-114.5 -127.5t-183 -47.5h-238v311h-75v81h75v308h229q120 0 197 -48zM493.5 166q57.5 76 57.5 188q0 114 -56 185t-194 71h-124v-218h152v-81h-152v-221h133q126 0 183.5 76z" />
    <glyph glyph-name="Ntilde" unicode="&#xd1;" horiz-adv-x="729" 
d="M80 700h105l363 -539v539h101v-700h-105l-364 538v-538h-100v700zM396.5 782.5q-15.5 5.5 -34.5 15.5q-28 15 -45 15q-13 0 -26 -9t-22 -28l-55 37q15 39 40.5 57t55.5 18q20 0 35 -5t34 -15q17 -8 27 -12t22 -4q27 0 47 40l57 -39q-14 -38 -40 -57t-59 -19
q-21 0 -36.5 5.5z" />
    <glyph glyph-name="Ograve" unicode="&#xd2;" horiz-adv-x="821" 
d="M225 35q-81 48 -125.5 131t-44.5 185q0 101 44.5 184t125.5 131.5t186 48.5q104 0 185 -48.5t125.5 -131.5t44.5 -184q0 -102 -45 -185t-125.5 -131t-184.5 -48q-105 0 -186 48zM544 114q58 35 90 97t32 140q0 77 -32.5 139t-90.5 97.5t-132 35.5q-75 0 -133.5 -35.5
t-90.5 -97.5t-32 -139q0 -79 32 -140.5t90 -96.5t134 -35q75 0 133 35zM262 897h127l67 -126h-87z" />
    <glyph glyph-name="Oacute" unicode="&#xd3;" horiz-adv-x="821" 
d="M225 35q-81 48 -125.5 131t-44.5 185q0 101 44.5 184t125.5 131.5t186 48.5q104 0 185 -48.5t125.5 -131.5t44.5 -184q0 -102 -45 -185t-125.5 -131t-184.5 -48q-105 0 -186 48zM544 114q58 35 90 97t32 140q0 77 -32.5 139t-90.5 97.5t-132 35.5q-75 0 -133.5 -35.5
t-90.5 -97.5t-32 -139q0 -79 32 -140.5t90 -96.5t134 -35q75 0 133 35zM433 897h127l-107 -126h-87z" />
    <glyph glyph-name="Ocircumflex" unicode="&#xd4;" horiz-adv-x="821" 
d="M225 35q-81 48 -125.5 131t-44.5 185q0 101 44.5 184t125.5 131.5t186 48.5q104 0 185 -48.5t125.5 -131.5t44.5 -184q0 -102 -45 -185t-125.5 -131t-184.5 -48q-105 0 -186 48zM544 114q58 35 90 97t32 140q0 77 -32.5 139t-90.5 97.5t-132 35.5q-75 0 -133.5 -35.5
t-90.5 -97.5t-32 -139q0 -79 32 -140.5t90 -96.5t134 -35q75 0 133 35zM467 771l-56 63l-56 -63h-86l90 126h103l90 -126h-85z" />
    <glyph glyph-name="Otilde" unicode="&#xd5;" horiz-adv-x="821" 
d="M225 35q-81 48 -125.5 131t-44.5 185q0 101 44.5 184t125.5 131.5t186 48.5q104 0 185 -48.5t125.5 -131.5t44.5 -184q0 -102 -45 -185t-125.5 -131t-184.5 -48q-105 0 -186 48zM544 114q58 35 90 97t32 140q0 77 -32.5 139t-90.5 97.5t-132 35.5q-75 0 -133.5 -35.5
t-90.5 -97.5t-32 -139q0 -79 32 -140.5t90 -96.5t134 -35q75 0 133 35zM436.5 782.5q-15.5 5.5 -34.5 15.5q-28 15 -45 15q-13 0 -26 -9t-22 -28l-55 37q15 39 40.5 57t55.5 18q20 0 35 -5t34 -15q17 -8 27 -12t22 -4q27 0 47 40l57 -39q-14 -38 -40 -57t-59 -19
q-21 0 -36.5 5.5z" />
    <glyph glyph-name="Odieresis" unicode="&#xd6;" horiz-adv-x="821" 
d="M225 35q-81 48 -125.5 131t-44.5 185q0 101 44.5 184t125.5 131.5t186 48.5q104 0 185 -48.5t125.5 -131.5t44.5 -184q0 -102 -45 -185t-125.5 -131t-184.5 -48q-105 0 -186 48zM544 114q58 35 90 97t32 140q0 77 -32.5 139t-90.5 97.5t-132 35.5q-75 0 -133.5 -35.5
t-90.5 -97.5t-32 -139q0 -79 32 -140.5t90 -96.5t134 -35q75 0 133 35zM278.5 789q-19.5 19 -19.5 45t19.5 45t45.5 19t45 -19t19 -45t-19 -45t-45 -19t-45.5 19zM453 789q-19 19 -19 45t19 45t45 19q27 0 45.5 -19t18.5 -45t-18.5 -45t-45.5 -19q-26 0 -45 19z" />
    <glyph glyph-name="multiply" unicode="&#xd7;" horiz-adv-x="600" 
d="M365 350l169 -169l-65 -65l-169 169l-169 -169l-65 65l169 169l-169 169l65 66l169 -170l170 170l64 -66z" />
    <glyph glyph-name="Oslash" unicode="&#xd8;" horiz-adv-x="821" 
d="M738 499.5q28 -69.5 28 -148.5q0 -102 -45 -185t-125.5 -131t-184.5 -48q-95 0 -174 41l-57 -80l-70 50l57 80q-54 50 -83 120.5t-29 152.5q0 101 44.5 184t125.5 131.5t186 48.5q99 0 178 -45l50 70l69 -50l-50 -71q52 -50 80 -119.5zM173 243.5q18 -49.5 51 -86.5
l310 436q-57 30 -123 30q-75 0 -133.5 -35.5t-90.5 -97.5t-32 -139q0 -58 18 -107.5zM544 114q58 35 90 97t32 140q0 55 -17 103.5t-48 84.5l-309 -433q53 -27 119 -27q75 0 133 35z" />
    <glyph glyph-name="Ugrave" unicode="&#xd9;" horiz-adv-x="685" 
d="M150.5 55.5q-73.5 69.5 -73.5 207.5v437h100v-432q0 -98 43.5 -144t122.5 -46q78 0 121.5 46.5t43.5 143.5v432h100v-438q0 -139 -73 -207.5t-192 -68.5t-192.5 69.5zM197 897h127l67 -126h-87z" />
    <glyph glyph-name="Uacute" unicode="&#xda;" horiz-adv-x="685" 
d="M150.5 55.5q-73.5 69.5 -73.5 207.5v437h100v-432q0 -98 43.5 -144t122.5 -46q78 0 121.5 46.5t43.5 143.5v432h100v-438q0 -139 -73 -207.5t-192 -68.5t-192.5 69.5zM368 897h127l-107 -126h-87z" />
    <glyph glyph-name="Ucircumflex" unicode="&#xdb;" horiz-adv-x="685" 
d="M150.5 55.5q-73.5 69.5 -73.5 207.5v437h100v-432q0 -98 43.5 -144t122.5 -46q78 0 121.5 46.5t43.5 143.5v432h100v-438q0 -139 -73 -207.5t-192 -68.5t-192.5 69.5zM402 771l-56 63l-56 -63h-86l90 126h103l90 -126h-85z" />
    <glyph glyph-name="Udieresis" unicode="&#xdc;" horiz-adv-x="685" 
d="M150.5 55.5q-73.5 69.5 -73.5 207.5v437h100v-432q0 -98 43.5 -144t122.5 -46q78 0 121.5 46.5t43.5 143.5v432h100v-438q0 -139 -73 -207.5t-192 -68.5t-192.5 69.5zM213.5 789q-19.5 19 -19.5 45t19.5 45t45.5 19t45 -19t19 -45t-19 -45t-45 -19t-45.5 19zM388 789
q-19 19 -19 45t19 45t45 19q27 0 45.5 -19t18.5 -45t-18.5 -45t-45.5 -19q-26 0 -45 19z" />
    <glyph glyph-name="Yacute" unicode="&#xdd;" horiz-adv-x="623" 
d="M262 279l-240 421h109l180 -322l181 322h109l-239 -421v-279h-100v279zM334 897h127l-107 -126h-87z" />
    <glyph glyph-name="Thorn" unicode="&#xde;" horiz-adv-x="590" 
d="M77 700h100v-130h130q106 0 171.5 -56t65.5 -163q0 -70 -31 -119.5t-83.5 -74.5t-118.5 -25h-134v-132h-100v700zM300 222q69 0 106.5 33.5t37.5 96.5q0 62 -38 95t-106 33h-123v-258h123z" />
    <glyph glyph-name="germandbls" unicode="&#xdf;" horiz-adv-x="541" 
d="M65 521q0 89 54.5 141.5t146.5 52.5q52 0 94.5 -22.5t68 -65t25.5 -99.5q0 -50 -23 -83.5t-52 -53.5v-2q42 -15 81 -55.5t39 -125.5q0 -61 -27 -110t-77 -77.5t-117 -28.5q-35 0 -62 7l11 84q17 -5 42 -5q55 0 94.5 32.5t39.5 96.5t-39 96.5t-102 32.5h-25v84h26
q43 0 74.5 28t31.5 77q0 50 -28 79t-80 29q-45 0 -73.5 -30t-28.5 -84v-519h-94v521z" />
    <glyph glyph-name="agrave" unicode="&#xe0;" horiz-adv-x="507" 
d="M123 5.5q-39 19.5 -60 54t-21 77.5q0 64 44.5 105.5t148.5 56.5l119 17v11q0 101 -106 101q-51 0 -77.5 -23.5t-33.5 -66.5l-87 21q36 149 200 149q91 0 146.5 -46t55.5 -134v-328h-83l-10 48q-45 -62 -146 -62q-51 0 -90 19.5zM320 95q34 28 34 81v65l-111 -17
q-53 -8 -79.5 -26.5t-26.5 -55.5q0 -34 27 -54.5t73 -20.5q49 0 83 28zM104 694h127l67 -126h-87z" />
    <glyph glyph-name="aacute" unicode="&#xe1;" horiz-adv-x="507" 
d="M123 5.5q-39 19.5 -60 54t-21 77.5q0 64 44.5 105.5t148.5 56.5l119 17v11q0 101 -106 101q-51 0 -77.5 -23.5t-33.5 -66.5l-87 21q36 149 200 149q91 0 146.5 -46t55.5 -134v-328h-83l-10 48q-45 -62 -146 -62q-51 0 -90 19.5zM320 95q34 28 34 81v65l-111 -17
q-53 -8 -79.5 -26.5t-26.5 -55.5q0 -34 27 -54.5t73 -20.5q49 0 83 28zM271 694h127l-107 -126h-87z" />
    <glyph glyph-name="acircumflex" unicode="&#xe2;" horiz-adv-x="507" 
d="M123 5.5q-39 19.5 -60 54t-21 77.5q0 64 44.5 105.5t148.5 56.5l119 17v11q0 101 -106 101q-51 0 -77.5 -23.5t-33.5 -66.5l-87 21q36 149 200 149q91 0 146.5 -46t55.5 -134v-328h-83l-10 48q-45 -62 -146 -62q-51 0 -90 19.5zM320 95q34 28 34 81v65l-111 -17
q-53 -8 -79.5 -26.5t-26.5 -55.5q0 -34 27 -54.5t73 -20.5q49 0 83 28zM307 568l-56 63l-56 -63h-86l90 126h103l90 -126h-85z" />
    <glyph glyph-name="atilde" unicode="&#xe3;" horiz-adv-x="507" 
d="M123 5.5q-39 19.5 -60 54t-21 77.5q0 64 44.5 105.5t148.5 56.5l119 17v11q0 101 -106 101q-51 0 -77.5 -23.5t-33.5 -66.5l-87 21q36 149 200 149q91 0 146.5 -46t55.5 -134v-328h-83l-10 48q-45 -62 -146 -62q-51 0 -90 19.5zM320 95q34 28 34 81v65l-111 -17
q-53 -8 -79.5 -26.5t-26.5 -55.5q0 -34 27 -54.5t73 -20.5q49 0 83 28zM275 580q-15 5 -36 15q-28 15 -45 15q-13 0 -25.5 -9t-22.5 -28l-55 37q28 75 96 75q20 0 34.5 -4.5t34.5 -14.5q17 -8 27 -12t23 -4q27 0 47 39l57 -38q-14 -38 -40.5 -57t-59.5 -19q-20 0 -35 5z" />
    <glyph glyph-name="adieresis" unicode="&#xe4;" horiz-adv-x="507" 
d="M123 5.5q-39 19.5 -60 54t-21 77.5q0 64 44.5 105.5t148.5 56.5l119 17v11q0 101 -106 101q-51 0 -77.5 -23.5t-33.5 -66.5l-87 21q36 149 200 149q91 0 146.5 -46t55.5 -134v-328h-83l-10 48q-45 -62 -146 -62q-51 0 -90 19.5zM320 95q34 28 34 81v65l-111 -17
q-53 -8 -79.5 -26.5t-26.5 -55.5q0 -34 27 -54.5t73 -20.5q49 0 83 28zM122 586q-19 19 -19 45t19 45t45 19t45 -19t19 -45t-19 -45t-45 -19t-45 19zM290 586q-19 19 -19 45t19 45t45 19t45 -19t19 -45t-19 -45t-45 -19t-45 19z" />
    <glyph glyph-name="aring" unicode="&#xe5;" horiz-adv-x="507" 
d="M123 5.5q-39 19.5 -60 54t-21 77.5q0 64 44.5 105.5t148.5 56.5l119 17v11q0 101 -106 101q-51 0 -77.5 -23.5t-33.5 -66.5l-87 21q36 149 200 149q91 0 146.5 -46t55.5 -134v-328h-83l-10 48q-45 -62 -146 -62q-51 0 -90 19.5zM320 95q34 28 34 81v65l-111 -17
q-53 -8 -79.5 -26.5t-26.5 -55.5q0 -34 27 -54.5t73 -20.5q49 0 83 28zM187 570q-27 27 -27 65t27 65t64 27q38 0 65 -27t27 -65q0 -37 -27 -64.5t-65 -27.5q-37 0 -64 27zM275 611q10 10 10 24t-10 24t-24 10t-24 -10t-10 -24t10 -24t24 -10t24 10z" />
    <glyph glyph-name="ae" unicode="&#xe6;" horiz-adv-x="884" 
d="M841 217h-385q3 -40 22.5 -74t53.5 -54.5t77 -20.5q52 0 87.5 25.5t47.5 60.5l84 -27q-22 -62 -78 -101.5t-141 -39.5q-63 0 -114.5 26.5t-85.5 74.5v-1q-12 -36 -54.5 -68t-121.5 -32q-57 0 -99.5 19.5t-65.5 54t-23 77.5q0 63 44.5 104t148.5 55l118 17v13
q0 103 -105 103q-96 0 -111 -91l-87 21q36 150 200 150q59 0 104.5 -20t70.5 -60q34 37 80.5 58t99.5 21q70 0 122.5 -31.5t81.5 -88.5t29 -132v-39zM753 294q-4 53 -42.5 92.5t-101.5 39.5t-103 -38t-49 -94h296zM356 243l-110 -16q-53 -8 -79.5 -27.5t-26.5 -56.5
q0 -35 26.5 -55.5t73.5 -20.5q49 0 82.5 28t33.5 81v67z" />
    <glyph glyph-name="ccedilla" unicode="&#xe7;" horiz-adv-x="558" 
d="M375 101q34 25 49 68l89 -30q-23 -63 -73 -104t-119 -48l-15 -29q36 -1 60.5 -23t24.5 -58q0 -43 -26 -68.5t-69 -25.5q-38 0 -63.5 20.5t-28.5 50.5l55 19q0 -16 10 -25.5t27 -9.5q15 0 25 9.5t10 25.5q0 15 -10 24t-25 9q-16 0 -23 -7l-43 25l34 64q-67 7 -117.5 44
t-77.5 93.5t-27 121.5q0 71 31.5 131t89 95.5t132.5 35.5q82 0 139 -42t80 -112l-90 -30q-14 44 -48 69t-81 25q-45 0 -80 -22t-55 -61.5t-20 -88.5t20 -88t55 -61t80 -22q46 0 80 25z" />
    <glyph glyph-name="egrave" unicode="&#xe8;" horiz-adv-x="564" 
d="M137 217q3 -40 22.5 -74t53.5 -54.5t77 -20.5q52 0 87.5 25.5t47.5 60.5l84 -27q-22 -62 -78 -101.5t-141 -39.5q-72 0 -128.5 34.5t-88 94.5t-31.5 133q0 72 32.5 131.5t89 94t125.5 34.5q70 0 122.5 -31.5t81.5 -88.5t29 -132v-39h-385zM391.5 386.5
q-38.5 39.5 -101.5 39.5t-103 -38t-49 -94h296q-4 53 -42.5 92.5zM143 694h127l67 -126h-87z" />
    <glyph glyph-name="eacute" unicode="&#xe9;" horiz-adv-x="564" 
d="M137 217q3 -40 22.5 -74t53.5 -54.5t77 -20.5q52 0 87.5 25.5t47.5 60.5l84 -27q-22 -62 -78 -101.5t-141 -39.5q-72 0 -128.5 34.5t-88 94.5t-31.5 133q0 72 32.5 131.5t89 94t125.5 34.5q70 0 122.5 -31.5t81.5 -88.5t29 -132v-39h-385zM391.5 386.5
q-38.5 39.5 -101.5 39.5t-103 -38t-49 -94h296q-4 53 -42.5 92.5zM310 694h127l-107 -126h-87z" />
    <glyph glyph-name="ecircumflex" unicode="&#xea;" horiz-adv-x="564" 
d="M137 217q3 -40 22.5 -74t53.5 -54.5t77 -20.5q52 0 87.5 25.5t47.5 60.5l84 -27q-22 -62 -78 -101.5t-141 -39.5q-72 0 -128.5 34.5t-88 94.5t-31.5 133q0 72 32.5 131.5t89 94t125.5 34.5q70 0 122.5 -31.5t81.5 -88.5t29 -132v-39h-385zM391.5 386.5
q-38.5 39.5 -101.5 39.5t-103 -38t-49 -94h296q-4 53 -42.5 92.5zM346 568l-56 63l-56 -63h-86l90 126h103l90 -126h-85z" />
    <glyph glyph-name="edieresis" unicode="&#xeb;" horiz-adv-x="564" 
d="M137 217q3 -40 22.5 -74t53.5 -54.5t77 -20.5q52 0 87.5 25.5t47.5 60.5l84 -27q-22 -62 -78 -101.5t-141 -39.5q-72 0 -128.5 34.5t-88 94.5t-31.5 133q0 72 32.5 131.5t89 94t125.5 34.5q70 0 122.5 -31.5t81.5 -88.5t29 -132v-39h-385zM391.5 386.5
q-38.5 39.5 -101.5 39.5t-103 -38t-49 -94h296q-4 53 -42.5 92.5zM161 586q-19 19 -19 45t19 45t45 19t45 -19t19 -45t-19 -45t-45 -19t-45 19zM329 586q-19 19 -19 45t19 45t45 19t45 -19t19 -45t-19 -45t-45 -19t-45 19z" />
    <glyph glyph-name="igrave" unicode="&#xec;" horiz-adv-x="238" 
d="M70 495h98v-495h-98v495zM-28 695h127l67 -126h-87z" />
    <glyph glyph-name="iacute" unicode="&#xed;" horiz-adv-x="238" 
d="M70 495h98v-495h-98v495zM139 695h127l-107 -126h-87z" />
    <glyph glyph-name="icircumflex" unicode="&#xee;" horiz-adv-x="238" 
d="M70 495h98v-495h-98v495zM175 569l-56 63l-56 -63h-86l90 126h103l90 -126h-85z" />
    <glyph glyph-name="idieresis" unicode="&#xef;" horiz-adv-x="238" 
d="M70 495h98v-495h-98v495zM-10 587q-19 19 -19 45t19 45t45 19t45 -19t19 -45t-19 -45t-45 -19t-45 19zM158 587q-19 19 -19 45t19 45t45 19t45 -19t19 -45t-19 -45t-45 -19t-45 19z" />
    <glyph glyph-name="eth" unicode="&#xf0;" horiz-adv-x="611" 
d="M161 22q-58 36 -88.5 95t-30.5 127q0 66 32.5 125t90.5 94.5t132 35.5q82 0 141 -57q-13 43 -39.5 83.5t-59.5 73.5l-130 -48l-24 62l99 36q-38 32 -80 57l54 58q7 -5 41 -28t70 -56l106 39l23 -62l-78 -29q59 -66 96.5 -153t37.5 -189q0 -91 -31 -158.5t-89 -104.5
t-137 -37q-78 0 -136 36zM379 96q36 22 56 61t20 87t-20 86.5t-56 60.5t-82 22q-45 0 -81 -22t-56 -60.5t-20 -86.5t20 -87t56 -61t81 -22q46 0 82 22z" />
    <glyph glyph-name="ntilde" unicode="&#xf1;" 
d="M65 495h81l15 -63q57 77 157 77q82 0 128 -49t46 -149v-311h-98v294q0 68 -28 95.5t-78 27.5q-53 0 -89 -37.5t-36 -103.5v-276h-98v495zM303 581q-15 5 -36 15q-28 15 -45 15q-13 0 -25.5 -9t-22.5 -28l-55 37q28 75 96 75q20 0 34.5 -4.5t34.5 -14.5q17 -8 27 -12
t23 -4q27 0 47 39l57 -38q-14 -38 -40.5 -57t-59.5 -19q-20 0 -35 5z" />
    <glyph glyph-name="ograve" unicode="&#xf2;" horiz-adv-x="594" 
d="M163.5 22q-58.5 36 -90 96t-31.5 129q0 70 32 130t90.5 96t132.5 36q75 0 133 -36t90 -96t32 -130q0 -69 -32 -129t-90 -96t-133 -36t-133.5 36zM377.5 98q35.5 22 56 61.5t20.5 87.5q0 49 -20.5 88t-56 61.5t-80.5 22.5t-81 -22.5t-56 -61.5t-20 -88t20 -88t56 -61
t81 -22t80.5 22zM150 695h127l67 -126h-87z" />
    <glyph glyph-name="oacute" unicode="&#xf3;" horiz-adv-x="594" 
d="M163.5 22q-58.5 36 -90 96t-31.5 129q0 70 32 130t90.5 96t132.5 36q75 0 133 -36t90 -96t32 -130q0 -69 -32 -129t-90 -96t-133 -36t-133.5 36zM377.5 98q35.5 22 56 61.5t20.5 87.5q0 49 -20.5 88t-56 61.5t-80.5 22.5t-81 -22.5t-56 -61.5t-20 -88t20 -88t56 -61
t81 -22t80.5 22zM317 695h127l-107 -126h-87z" />
    <glyph glyph-name="ocircumflex" unicode="&#xf4;" horiz-adv-x="594" 
d="M163.5 22q-58.5 36 -90 96t-31.5 129q0 70 32 130t90.5 96t132.5 36q75 0 133 -36t90 -96t32 -130q0 -69 -32 -129t-90 -96t-133 -36t-133.5 36zM377.5 98q35.5 22 56 61.5t20.5 87.5q0 49 -20.5 88t-56 61.5t-80.5 22.5t-81 -22.5t-56 -61.5t-20 -88t20 -88t56 -61
t81 -22t80.5 22zM353 569l-56 63l-56 -63h-86l90 126h103l90 -126h-85z" />
    <glyph glyph-name="otilde" unicode="&#xf5;" horiz-adv-x="594" 
d="M163.5 22q-58.5 36 -90 96t-31.5 129q0 70 32 130t90.5 96t132.5 36q75 0 133 -36t90 -96t32 -130q0 -69 -32 -129t-90 -96t-133 -36t-133.5 36zM377.5 98q35.5 22 56 61.5t20.5 87.5q0 49 -20.5 88t-56 61.5t-80.5 22.5t-81 -22.5t-56 -61.5t-20 -88t20 -88t56 -61
t81 -22t80.5 22zM321 581q-15 5 -36 15q-28 15 -45 15q-13 0 -25.5 -9t-22.5 -28l-55 37q28 75 96 75q20 0 34.5 -4.5t34.5 -14.5q17 -8 27 -12t23 -4q27 0 47 39l57 -38q-14 -38 -40.5 -57t-59.5 -19q-20 0 -35 5z" />
    <glyph glyph-name="odieresis" unicode="&#xf6;" horiz-adv-x="594" 
d="M163.5 22q-58.5 36 -90 96t-31.5 129q0 70 32 130t90.5 96t132.5 36q75 0 133 -36t90 -96t32 -130q0 -69 -32 -129t-90 -96t-133 -36t-133.5 36zM377.5 98q35.5 22 56 61.5t20.5 87.5q0 49 -20.5 88t-56 61.5t-80.5 22.5t-81 -22.5t-56 -61.5t-20 -88t20 -88t56 -61
t81 -22t80.5 22zM168 587q-19 19 -19 45t19 45t45 19t45 -19t19 -45t-19 -45t-45 -19t-45 19zM336 587q-19 19 -19 45t19 45t45 19t45 -19t19 -45t-19 -45t-45 -19t-45 19z" />
    <glyph glyph-name="divide" unicode="&#xf7;" horiz-adv-x="600" 
d="M251.5 516.5q-19.5 19.5 -19.5 47.5t19.5 47.5t47.5 19.5t47.5 -19.5t19.5 -47.5t-19.5 -47.5t-47.5 -19.5t-47.5 19.5zM40 393h520v-86h-520v86zM252.5 103.5q-19.5 19.5 -19.5 47.5t19.5 47.5t47.5 19.5t47.5 -19.5t19.5 -47.5t-19.5 -47.5t-47.5 -19.5t-47.5 19.5z
" />
    <glyph glyph-name="oslash" unicode="&#xf8;" horiz-adv-x="594" 
d="M533 348.5q19 -48.5 19 -101.5q0 -69 -32 -129t-90 -96t-133 -36q-66 0 -119 28l-40 -55l-62 45l40 56q-35 36 -54.5 85t-19.5 102q0 70 32 130t90.5 96t132.5 36q65 0 121 -29l38 52l61 -45l-38 -53q35 -37 54 -85.5zM173 139l191 265q-30 15 -67 15q-45 0 -81 -22.5
t-56 -61.5t-20 -88q0 -62 33 -108zM377.5 98q35.5 22 56 61.5t20.5 87.5q0 62 -32 108l-190 -265q30 -14 65 -14q45 0 80.5 22z" />
    <glyph glyph-name="ugrave" unicode="&#xf9;" 
d="M492 0h-81l-15 63q-57 -77 -157 -77q-82 0 -128 48.5t-46 148.5v312h98v-295q0 -67 28 -95t78 -28q53 0 89 37.5t36 103.5v277h98v-495zM132 695h127l67 -126h-87z" />
    <glyph glyph-name="uacute" unicode="&#xfa;" 
d="M492 0h-81l-15 63q-57 -77 -157 -77q-82 0 -128 48.5t-46 148.5v312h98v-295q0 -67 28 -95t78 -28q53 0 89 37.5t36 103.5v277h98v-495zM299 695h127l-107 -126h-87z" />
    <glyph glyph-name="ucircumflex" unicode="&#xfb;" 
d="M492 0h-81l-15 63q-57 -77 -157 -77q-82 0 -128 48.5t-46 148.5v312h98v-295q0 -67 28 -95t78 -28q53 0 89 37.5t36 103.5v277h98v-495zM335 569l-56 63l-56 -63h-86l90 126h103l90 -126h-85z" />
    <glyph glyph-name="udieresis" unicode="&#xfc;" 
d="M492 0h-81l-15 63q-57 -77 -157 -77q-82 0 -128 48.5t-46 148.5v312h98v-295q0 -67 28 -95t78 -28q53 0 89 37.5t36 103.5v277h98v-495zM150 587q-19 19 -19 45t19 45t45 19t45 -19t19 -45t-19 -45t-45 -19t-45 19zM318 587q-19 19 -19 45t19 45t45 19t45 -19t19 -45
t-19 -45t-45 -19t-45 19z" />
    <glyph glyph-name="yacute" unicode="&#xfd;" horiz-adv-x="569" 
d="M504 495v-486q0 -64 -25 -115.5t-75.5 -81.5t-125.5 -30q-87 0 -140 42.5t-73 115.5l92 20q22 -93 121 -93q63 0 95.5 37t32.5 103v68q-30 -37 -67 -55.5t-93 -18.5q-79 0 -129 48.5t-50 146.5v299h98v-277q0 -68 29 -97t82 -29q57 0 93.5 37.5t36.5 104.5v261h98z
M305 695h127l-107 -126h-87z" />
    <glyph glyph-name="thorn" unicode="&#xfe;" horiz-adv-x="605" 
d="M65 700h100l-3 -270q27 36 68.5 57t95.5 21q69 0 123 -36.5t84 -96.5t30 -128q0 -70 -28.5 -129.5t-82.5 -95.5t-126 -36q-101 0 -163 78v-269h-98v905zM392 98q35 22 54.5 61t19.5 88q0 48 -19.5 87.5t-54.5 61.5t-79 22t-78.5 -22t-53.5 -61t-19 -88q0 -75 42 -123
t109 -48q44 0 79 22z" />
    <glyph glyph-name="ydieresis" unicode="&#xff;" horiz-adv-x="569" 
d="M504 495v-486q0 -64 -25 -115.5t-75.5 -81.5t-125.5 -30q-87 0 -140 42.5t-73 115.5l92 20q22 -93 121 -93q63 0 95.5 37t32.5 103v68q-30 -37 -67 -55.5t-93 -18.5q-79 0 -129 48.5t-50 146.5v299h98v-277q0 -68 29 -97t82 -29q57 0 93.5 37.5t36.5 104.5v261h98z
M156 587q-19 19 -19 45t19 45t45 19t45 -19t19 -45t-19 -45t-45 -19t-45 19zM324 587q-19 19 -19 45t19 45t45 19t45 -19t19 -45t-19 -45t-45 -19t-45 19z" />
    <glyph glyph-name="Amacron" unicode="&#x100;" horiz-adv-x="671" 
d="M480 177h-290l-65 -177h-103l262 700h103l262 -700h-103zM447 267l-112 301l-111 -301h223zM230 872h212v-76h-212v76z" />
    <glyph glyph-name="amacron" unicode="&#x101;" horiz-adv-x="507" 
d="M123 5.5q-39 19.5 -60 54t-21 77.5q0 64 44.5 105.5t148.5 56.5l119 17v11q0 101 -106 101q-51 0 -77.5 -23.5t-33.5 -66.5l-87 21q36 149 200 149q91 0 146.5 -46t55.5 -134v-328h-83l-10 48q-45 -62 -146 -62q-51 0 -90 19.5zM320 95q34 28 34 81v65l-111 -17
q-53 -8 -79.5 -26.5t-26.5 -55.5q0 -34 27 -54.5t73 -20.5q49 0 83 28zM145 669h212v-76h-212v76z" />
    <glyph glyph-name="Abreve" unicode="&#x102;" horiz-adv-x="671" 
d="M480 177h-290l-65 -177h-103l262 700h103l262 -700h-103zM447 267l-112 301l-111 -301h223zM243 810.5q-36 35.5 -39 90.5h72q2 -26 18 -42t42 -16t42.5 16t18.5 42h71q-2 -55 -39 -90.5t-94 -35.5q-56 0 -92 35.5z" />
    <glyph glyph-name="abreve" unicode="&#x103;" horiz-adv-x="507" 
d="M123 5.5q-39 19.5 -60 54t-21 77.5q0 64 44.5 105.5t148.5 56.5l119 17v11q0 101 -106 101q-51 0 -77.5 -23.5t-33.5 -66.5l-87 21q36 149 200 149q91 0 146.5 -46t55.5 -134v-328h-83l-10 48q-45 -62 -146 -62q-51 0 -90 19.5zM320 95q34 28 34 81v65l-111 -17
q-53 -8 -79.5 -26.5t-26.5 -55.5q0 -34 27 -54.5t73 -20.5q49 0 83 28zM158 604.5q-36 35.5 -39 90.5h72q2 -26 18 -42t42 -16t42.5 16t18.5 42h71q-2 -55 -39 -90.5t-94 -35.5q-56 0 -92 35.5z" />
    <glyph glyph-name="Aogonek" unicode="&#x104;" horiz-adv-x="671" 
d="M600.5 -104.5q12.5 -11.5 36.5 -11.5h6v-66q-7 -1 -20 -1q-51 0 -81 24.5t-30 64.5q0 47 37 86l-69 185h-290l-65 -177h-103l262 700h103l262 -700q-61 -33 -61 -75q0 -18 12.5 -29.5zM447 267l-112 301l-111 -301h223z" />
    <glyph glyph-name="aogonek" unicode="&#x105;" horiz-adv-x="507" 
d="M396.5 462q55.5 -46 55.5 -134v-328h-34q-62 -32 -62 -75q0 -18 13 -29.5t37 -11.5h6l-1 -66q-7 -1 -20 -1q-51 0 -80.5 24.5t-29.5 64.5q0 39 21.5 68t54.5 48l8 -3l-6 29q-45 -62 -146 -62q-51 0 -90 19.5t-60 54t-21 77.5q0 64 44.5 105.5t148.5 56.5l119 17v11
q0 101 -106 101q-51 0 -77.5 -23.5t-33.5 -66.5l-87 21q36 149 200 149q91 0 146.5 -46zM354 241l-111 -17q-53 -8 -79.5 -26.5t-26.5 -55.5q0 -34 27 -54.5t73 -20.5q49 0 83 28t34 81v65z" />
    <glyph glyph-name="Cacute" unicode="&#x106;" horiz-adv-x="759" 
d="M224 32q-80 46 -124.5 128.5t-44.5 189.5q0 104 45 187t124.5 130t179.5 47q113 0 194.5 -57t115.5 -160l-96 -32q-24 75 -78 116t-135 41q-71 0 -128 -35.5t-89.5 -97.5t-32.5 -139q0 -79 32.5 -141t90 -96.5t130.5 -34.5q81 0 133.5 39t74.5 104l95 -31
q-37 -97 -114 -150.5t-190 -53.5q-103 0 -183 46zM426 897h127l-107 -126h-87z" />
    <glyph glyph-name="cacute" unicode="&#x107;" horiz-adv-x="558" 
d="M161.5 21.5q-57.5 35.5 -88.5 95.5t-31 130q0 71 31.5 131t89 95.5t132.5 35.5q82 0 139 -42t80 -112l-90 -30q-14 44 -48 69t-81 25q-45 0 -80 -22t-55 -61.5t-20 -88.5t20 -88t55 -61t80 -22q46 0 80 25t49 68l89 -30q-26 -69 -82.5 -111t-135.5 -42q-76 0 -133.5 35.5
zM315 695h127l-107 -126h-87z" />
    <glyph glyph-name="Ccircumflex" unicode="&#x108;" horiz-adv-x="759" 
d="M224 32q-80 46 -124.5 128.5t-44.5 189.5q0 104 45 187t124.5 130t179.5 47q113 0 194.5 -57t115.5 -160l-96 -32q-24 75 -78 116t-135 41q-71 0 -128 -35.5t-89.5 -97.5t-32.5 -139q0 -79 32.5 -141t90 -96.5t130.5 -34.5q81 0 133.5 39t74.5 104l95 -31
q-37 -97 -114 -150.5t-190 -53.5q-103 0 -183 46zM460 771l-56 63l-56 -63h-86l90 126h103l90 -126h-85z" />
    <glyph glyph-name="ccircumflex" unicode="&#x109;" horiz-adv-x="558" 
d="M161.5 21.5q-57.5 35.5 -88.5 95.5t-31 130q0 71 31.5 131t89 95.5t132.5 35.5q82 0 139 -42t80 -112l-90 -30q-14 44 -48 69t-81 25q-45 0 -80 -22t-55 -61.5t-20 -88.5t20 -88t55 -61t80 -22q46 0 80 25t49 68l89 -30q-26 -69 -82.5 -111t-135.5 -42q-76 0 -133.5 35.5
zM351 569l-56 63l-56 -63h-86l90 126h103l90 -126h-85z" />
    <glyph glyph-name="Cdotaccent" unicode="&#x10a;" horiz-adv-x="759" 
d="M224 32q-80 46 -124.5 128.5t-44.5 189.5q0 104 45 187t124.5 130t179.5 47q113 0 194.5 -57t115.5 -160l-96 -32q-24 75 -78 116t-135 41q-71 0 -128 -35.5t-89.5 -97.5t-32.5 -139q0 -79 32.5 -141t90 -96.5t130.5 -34.5q81 0 133.5 39t74.5 104l95 -31
q-37 -97 -114 -150.5t-190 -53.5q-103 0 -183 46zM359 790.5q-19 18.5 -19 45.5q0 26 19 45t46 19q26 0 44.5 -19t18.5 -45q0 -27 -18.5 -45.5t-44.5 -18.5q-27 0 -46 18.5z" />
    <glyph glyph-name="cdotaccent" unicode="&#x10b;" horiz-adv-x="558" 
d="M161.5 21.5q-57.5 35.5 -88.5 95.5t-31 130q0 71 31.5 131t89 95.5t132.5 35.5q82 0 139 -42t80 -112l-90 -30q-14 44 -48 69t-81 25q-45 0 -80 -22t-55 -61.5t-20 -88.5t20 -88t55 -61t80 -22q46 0 80 25t49 68l89 -30q-26 -69 -82.5 -111t-135.5 -42q-76 0 -133.5 35.5
zM250 586.5q-19 18.5 -19 45.5q0 26 19 45t46 19q26 0 44.5 -19t18.5 -45q0 -27 -18.5 -45.5t-44.5 -18.5q-27 0 -46 18.5z" />
    <glyph glyph-name="Ccaron" unicode="&#x10c;" horiz-adv-x="759" 
d="M224 32q-80 46 -124.5 128.5t-44.5 189.5q0 104 45 187t124.5 130t179.5 47q113 0 194.5 -57t115.5 -160l-96 -32q-24 75 -78 116t-135 41q-71 0 -128 -35.5t-89.5 -97.5t-32.5 -139q0 -79 32.5 -141t90 -96.5t130.5 -34.5q81 0 133.5 39t74.5 104l95 -31
q-37 -97 -114 -150.5t-190 -53.5q-103 0 -183 46zM545 900l-90 -126h-103l-90 126h86l56 -63l56 63h85z" />
    <glyph glyph-name="ccaron" unicode="&#x10d;" horiz-adv-x="558" 
d="M161.5 21.5q-57.5 35.5 -88.5 95.5t-31 130q0 71 31.5 131t89 95.5t132.5 35.5q82 0 139 -42t80 -112l-90 -30q-14 44 -48 69t-81 25q-45 0 -80 -22t-55 -61.5t-20 -88.5t20 -88t55 -61t80 -22q46 0 80 25t49 68l89 -30q-26 -69 -82.5 -111t-135.5 -42q-76 0 -133.5 35.5
zM436 695l-90 -126h-103l-90 126h86l56 -63l56 63h85z" />
    <glyph glyph-name="Dcaron" unicode="&#x10e;" horiz-adv-x="706" 
d="M77 700h229q120 0 197 -48t112.5 -126t35.5 -173q0 -98 -38.5 -178t-114.5 -127.5t-183 -47.5h-238v700zM310 90q126 0 183.5 76t57.5 188q0 114 -56 185t-194 71h-124v-520h133zM490 900l-90 -126h-103l-90 126h86l56 -63l56 63h85z" />
    <glyph glyph-name="dcaron" unicode="&#x10f;" horiz-adv-x="606" 
d="M156.5 23.5q-54.5 36.5 -84.5 96.5t-30 128q0 70 28.5 129.5t82.5 95.5t126 36q55 0 97 -22t67 -56v269h98v-700h-81l-13 67q-25 -34 -67 -57t-100 -23q-69 0 -123.5 36.5zM619 700h102l-73 -126h-66zM401 123.5q42 48.5 42 124.5t-42 124.5t-109 48.5q-44 0 -78.5 -22
t-54 -61.5t-19.5 -89.5q0 -49 19.5 -88.5t54 -62t78.5 -22.5q67 0 109 48.5z" />
    <glyph glyph-name="Dcroat" unicode="&#x110;" horiz-adv-x="706" 
d="M503 652q77 -48 112.5 -126t35.5 -173q0 -98 -38.5 -178t-114.5 -127.5t-183 -47.5h-238v311h-75v81h75v308h229q120 0 197 -48zM493.5 166q57.5 76 57.5 188q0 114 -56 185t-194 71h-124v-218h152v-81h-152v-221h133q126 0 183.5 76z" />
    <glyph glyph-name="dcroat" unicode="&#x111;" horiz-adv-x="607" 
d="M589 556h-48v-556h-81l-13 67q-25 -34 -67 -57t-100 -23q-69 0 -123.5 36.5t-84.5 96.5t-30 128q0 70 28.5 129.5t82.5 95.5t126 36q55 0 97 -22t67 -56v125h-142v70h142v74h98v-74h48v-70zM401 123.5q42 48.5 42 124.5t-42 124.5t-109 48.5q-44 0 -78.5 -22t-54 -61.5
t-19.5 -89.5q0 -49 19.5 -88.5t54 -62t78.5 -22.5q67 0 109 48.5z" />
    <glyph glyph-name="Emacron" unicode="&#x112;" horiz-adv-x="559" 
d="M77 700h432v-90h-332v-213h290v-88h-290v-219h332v-90h-432v700zM201 872h212v-76h-212v76z" />
    <glyph glyph-name="emacron" unicode="&#x113;" horiz-adv-x="564" 
d="M137 217q3 -40 22.5 -74t53.5 -54.5t77 -20.5q52 0 87.5 25.5t47.5 60.5l84 -27q-22 -62 -78 -101.5t-141 -39.5q-72 0 -128.5 34.5t-88 94.5t-31.5 133q0 72 32.5 131.5t89 94t125.5 34.5q70 0 122.5 -31.5t81.5 -88.5t29 -132v-39h-385zM391.5 386.5
q-38.5 39.5 -101.5 39.5t-103 -38t-49 -94h296q-4 53 -42.5 92.5zM184 669h212v-76h-212v76z" />
    <glyph glyph-name="Ebreve" unicode="&#x114;" horiz-adv-x="559" 
d="M77 700h432v-90h-332v-213h290v-88h-290v-219h332v-90h-432v700zM214 810.5q-36 35.5 -39 90.5h72q2 -26 18 -42t42 -16t42.5 16t18.5 42h71q-2 -55 -39 -90.5t-94 -35.5q-56 0 -92 35.5z" />
    <glyph glyph-name="ebreve" unicode="&#x115;" horiz-adv-x="564" 
d="M137 217q3 -40 22.5 -74t53.5 -54.5t77 -20.5q52 0 87.5 25.5t47.5 60.5l84 -27q-22 -62 -78 -101.5t-141 -39.5q-72 0 -128.5 34.5t-88 94.5t-31.5 133q0 72 32.5 131.5t89 94t125.5 34.5q70 0 122.5 -31.5t81.5 -88.5t29 -132v-39h-385zM391.5 386.5
q-38.5 39.5 -101.5 39.5t-103 -38t-49 -94h296q-4 53 -42.5 92.5zM197 604.5q-36 35.5 -39 90.5h72q2 -26 18 -42t42 -16t42.5 16t18.5 42h71q-2 -55 -39 -90.5t-94 -35.5q-56 0 -92 35.5z" />
    <glyph glyph-name="Edotaccent" unicode="&#x116;" horiz-adv-x="559" 
d="M77 700h432v-90h-332v-213h290v-88h-290v-219h332v-90h-432v700zM262 790.5q-19 18.5 -19 45.5q0 26 19 45t46 19q26 0 44.5 -19t18.5 -45q0 -27 -18.5 -45.5t-44.5 -18.5q-27 0 -46 18.5z" />
    <glyph glyph-name="edotaccent" unicode="&#x117;" horiz-adv-x="564" 
d="M137 217q3 -40 22.5 -74t53.5 -54.5t77 -20.5q52 0 87.5 25.5t47.5 60.5l84 -27q-22 -62 -78 -101.5t-141 -39.5q-72 0 -128.5 34.5t-88 94.5t-31.5 133q0 72 32.5 131.5t89 94t125.5 34.5q70 0 122.5 -31.5t81.5 -88.5t29 -132v-39h-385zM391.5 386.5
q-38.5 39.5 -101.5 39.5t-103 -38t-49 -94h296q-4 53 -42.5 92.5zM245 585.5q-19 18.5 -19 45.5q0 26 19 45t46 19q26 0 44.5 -19t18.5 -45q0 -27 -18.5 -45.5t-44.5 -18.5q-27 0 -46 18.5z" />
    <glyph glyph-name="Eogonek" unicode="&#x118;" horiz-adv-x="559" 
d="M177 610v-213h290v-88h-290v-219h332v-90q-62 -32 -62 -75q0 -18 13 -29.5t37 -11.5h6l-1 -66q-7 -1 -20 -1q-51 0 -80.5 24.5t-29.5 64.5q0 54 45 94h-340v700h432v-90h-332z" />
    <glyph glyph-name="eogonek" unicode="&#x119;" horiz-adv-x="565" 
d="M278 -13h-5q-68 3 -120.5 38.5t-81.5 93.5t-29 128q0 72 32.5 132t88.5 95t125 35q70 0 123.5 -31.5t82.5 -88.5t29 -132v-36h-387q4 -66 46.5 -109.5t108.5 -43.5q51 0 86.5 25t47.5 60l84 -25q-16 -43 -44 -72.5t-75 -51.5q-40 -18 -56 -37.5t-16 -41.5
q0 -18 12.5 -29.5t36.5 -11.5h6v-66q-7 -1 -20 -1q-51 0 -81 24.5t-30 64.5q0 41 36 81zM434 291q-2 36 -20 67.5t-49.5 51t-74.5 19.5q-64 0 -104 -39t-49 -99h297z" />
    <glyph glyph-name="Ecaron" unicode="&#x11a;" horiz-adv-x="559" 
d="M77 700h432v-90h-332v-213h290v-88h-290v-219h332v-90h-432v700zM448 900l-90 -126h-103l-90 126h86l56 -63l56 63h85z" />
    <glyph glyph-name="ecaron" unicode="&#x11b;" horiz-adv-x="564" 
d="M137 217q3 -40 22.5 -74t53.5 -54.5t77 -20.5q52 0 87.5 25.5t47.5 60.5l84 -27q-22 -62 -78 -101.5t-141 -39.5q-72 0 -128.5 34.5t-88 94.5t-31.5 133q0 72 32.5 131.5t89 94t125.5 34.5q70 0 122.5 -31.5t81.5 -88.5t29 -132v-39h-385zM391.5 386.5
q-38.5 39.5 -101.5 39.5t-103 -38t-49 -94h296q-4 53 -42.5 92.5zM431 694l-90 -126h-103l-90 126h86l56 -63l56 63h85z" />
    <glyph glyph-name="Gcircumflex" unicode="&#x11c;" horiz-adv-x="792" 
d="M225.5 32.5q-80.5 46.5 -125.5 129.5t-45 188q0 102 45.5 185t126 131t179.5 48q112 0 187.5 -52t109.5 -141l-93 -32q-25 62 -74.5 97.5t-125.5 35.5q-74 0 -132 -36.5t-90.5 -98.5t-32.5 -137q0 -77 32.5 -139t90.5 -97.5t133 -35.5q71 0 119.5 30.5t72.5 79.5t26 104
h-163v86h261v-378h-71l-15 92q-14 -22 -44 -46t-78.5 -42t-110.5 -18q-102 0 -182.5 46.5zM463 771l-56 63l-56 -63h-86l90 126h103l90 -126h-85z" />
    <glyph glyph-name="gcircumflex" unicode="&#x11d;" horiz-adv-x="601" 
d="M140.5 -175q-55.5 43 -76.5 116l92 22q25 -97 132 -97q73 0 111.5 37t38.5 104v74q-21 -34 -63 -57.5t-98 -23.5q-72 0 -125 34.5t-81.5 92.5t-28.5 126t29 126.5t82.5 94t122.5 35.5q58 0 98.5 -22.5t63.5 -56.5l16 65h82v-486q0 -64 -27.5 -115.5t-83 -81.5t-137.5 -30
q-92 0 -147.5 43zM396.5 133.5q41.5 45.5 41.5 119.5q0 75 -41.5 121.5t-107.5 46.5t-107.5 -46.5t-41.5 -121.5q0 -74 41.5 -119.5t108.5 -45.5q65 0 106.5 45.5zM347 569l-56 63l-56 -63h-86l90 126h103l90 -126h-85z" />
    <glyph glyph-name="Gbreve" unicode="&#x11e;" horiz-adv-x="792" 
d="M225.5 32.5q-80.5 46.5 -125.5 129.5t-45 188q0 102 45.5 185t126 131t179.5 48q112 0 187.5 -52t109.5 -141l-93 -32q-25 62 -74.5 97.5t-125.5 35.5q-74 0 -132 -36.5t-90.5 -98.5t-32.5 -137q0 -77 32.5 -139t90.5 -97.5t133 -35.5q71 0 119.5 30.5t72.5 79.5t26 104
h-163v86h261v-378h-71l-15 92q-14 -22 -44 -46t-78.5 -42t-110.5 -18q-102 0 -182.5 46.5zM314 810.5q-36 35.5 -39 90.5h72q2 -26 18 -42t42 -16t42.5 16t18.5 42h71q-2 -55 -39 -90.5t-94 -35.5q-56 0 -92 35.5z" />
    <glyph glyph-name="gbreve" unicode="&#x11f;" horiz-adv-x="601" 
d="M140.5 -175q-55.5 43 -76.5 116l92 22q25 -97 132 -97q73 0 111.5 37t38.5 104v74q-21 -34 -63 -57.5t-98 -23.5q-72 0 -125 34.5t-81.5 92.5t-28.5 126t29 126.5t82.5 94t122.5 35.5q58 0 98.5 -22.5t63.5 -56.5l16 65h82v-486q0 -64 -27.5 -115.5t-83 -81.5t-137.5 -30
q-92 0 -147.5 43zM396.5 133.5q41.5 45.5 41.5 119.5q0 75 -41.5 121.5t-107.5 46.5t-107.5 -46.5t-41.5 -121.5q0 -74 41.5 -119.5t108.5 -45.5q65 0 106.5 45.5zM198 605.5q-36 35.5 -39 90.5h72q2 -26 18 -42t42 -16t42.5 16t18.5 42h71q-2 -55 -39 -90.5t-94 -35.5
q-56 0 -92 35.5z" />
    <glyph glyph-name="Gdotaccent" unicode="&#x120;" horiz-adv-x="792" 
d="M225.5 32.5q-80.5 46.5 -125.5 129.5t-45 188q0 102 45.5 185t126 131t179.5 48q112 0 187.5 -52t109.5 -141l-93 -32q-25 62 -74.5 97.5t-125.5 35.5q-74 0 -132 -36.5t-90.5 -98.5t-32.5 -137q0 -77 32.5 -139t90.5 -97.5t133 -35.5q71 0 119.5 30.5t72.5 79.5t26 104
h-163v86h261v-378h-71l-15 92q-14 -22 -44 -46t-78.5 -42t-110.5 -18q-102 0 -182.5 46.5zM362 790.5q-19 18.5 -19 45.5q0 26 19 45t46 19q26 0 44.5 -19t18.5 -45q0 -27 -18.5 -45.5t-44.5 -18.5q-27 0 -46 18.5z" />
    <glyph glyph-name="gdotaccent" unicode="&#x121;" horiz-adv-x="601" 
d="M140.5 -175q-55.5 43 -76.5 116l92 22q25 -97 132 -97q73 0 111.5 37t38.5 104v74q-21 -34 -63 -57.5t-98 -23.5q-72 0 -125 34.5t-81.5 92.5t-28.5 126t29 126.5t82.5 94t122.5 35.5q58 0 98.5 -22.5t63.5 -56.5l16 65h82v-486q0 -64 -27.5 -115.5t-83 -81.5t-137.5 -30
q-92 0 -147.5 43zM396.5 133.5q41.5 45.5 41.5 119.5q0 75 -41.5 121.5t-107.5 46.5t-107.5 -46.5t-41.5 -121.5q0 -74 41.5 -119.5t108.5 -45.5q65 0 106.5 45.5zM246 586.5q-19 18.5 -19 45.5q0 26 19 45t46 19q26 0 44.5 -19t18.5 -45q0 -27 -18.5 -45.5t-44.5 -18.5
q-27 0 -46 18.5z" />
    <glyph glyph-name="Gcommaaccent" unicode="&#x122;" horiz-adv-x="792" 
d="M225.5 32.5q-80.5 46.5 -125.5 129.5t-45 188q0 102 45.5 185t126 131t179.5 48q112 0 187.5 -52t109.5 -141l-93 -32q-25 62 -74.5 97.5t-125.5 35.5q-74 0 -132 -36.5t-90.5 -98.5t-32.5 -137q0 -77 32.5 -139t90.5 -97.5t133 -35.5q71 0 119.5 30.5t72.5 79.5t26 104
h-163v86h261v-378h-71l-15 92q-14 -22 -44 -46t-78.5 -42t-110.5 -18q-102 0 -182.5 46.5zM391 -165q-20 4 -32 17.5t-12 33.5q0 26 17.5 40.5t38.5 14.5q26 0 42.5 -16t16.5 -45q0 -31 -16 -63t-43 -53l-36 26q18 21 24 45z" />
    <glyph glyph-name="gcommaaccent" unicode="&#x123;" horiz-adv-x="601" 
d="M140.5 -175q-55.5 43 -76.5 116l92 22q25 -97 132 -97q73 0 111.5 37t38.5 104v74q-21 -34 -63 -57.5t-98 -23.5q-72 0 -125 34.5t-81.5 92.5t-28.5 126t29 126.5t82.5 94t122.5 35.5q58 0 98.5 -22.5t63.5 -56.5l16 65h82v-486q0 -64 -27.5 -115.5t-83 -81.5t-137.5 -30
q-92 0 -147.5 43zM396.5 133.5q41.5 45.5 41.5 119.5q0 75 -41.5 121.5t-107.5 46.5t-107.5 -46.5t-41.5 -121.5q0 -74 41.5 -119.5t108.5 -45.5q65 0 106.5 45.5zM302 678q20 -4 32 -17.5t12 -33.5q0 -26 -17.5 -40.5t-37.5 -14.5q-26 0 -42.5 16t-16.5 46q0 31 16 63
t43 52l36 -26q-18 -21 -25 -45z" />
    <glyph glyph-name="Hcircumflex" unicode="&#x124;" horiz-adv-x="689" 
d="M77 700h100v-297h335v297h100v-700h-100v311h-335v-311h-100v700zM402 771l-56 63l-56 -63h-86l90 126h103l90 -126h-85z" />
    <glyph glyph-name="hcircumflex" unicode="&#x125;" horiz-adv-x="556" 
d="M117 802l-56 -63h-86l91 126h102l91 -126h-86zM445.5 460q45.5 -49 45.5 -149v-311h-98v294q0 68 -28 95.5t-78 27.5q-52 0 -88.5 -38t-36.5 -104v-275h-97v700h97v-265q56 74 156 74q82 0 127.5 -49z" />
    <glyph glyph-name="Hbar" unicode="&#x126;" horiz-adv-x="789" 
d="M711 508h-49v-508h-100v303h-335v-303h-100v508h-50v81h50v111h100v-111h335v111h100v-111h49v-81zM562 508h-335v-113h335v113z" />
    <glyph glyph-name="hbar" unicode="&#x127;" horiz-adv-x="560" 
d="M449.5 460q45.5 -49 45.5 -149v-311h-98v294q0 68 -28 95.5t-78 27.5q-52 0 -88.5 -38t-36.5 -104v-275h-97v556h-48v70h48v74h97v-74h143v-70h-143v-121q56 74 156 74q82 0 127.5 -49z" />
    <glyph glyph-name="Itilde" unicode="&#x128;" horiz-adv-x="254" 
d="M77 700h100v-700h-100v700zM152.5 782.5q-15.5 5.5 -34.5 15.5q-28 15 -45 15q-13 0 -26 -9t-22 -28l-55 37q15 39 40.5 57t55.5 18q20 0 35 -5t34 -15q17 -8 27 -12t22 -4q27 0 47 40l57 -39q-14 -38 -40 -57t-59 -19q-21 0 -36.5 5.5z" />
    <glyph glyph-name="itilde" unicode="&#x129;" horiz-adv-x="238" 
d="M70 495h98v-495h-98v495zM143 581q-15 5 -36 15q-28 15 -45 15q-13 0 -25.5 -9t-22.5 -28l-55 37q28 75 96 75q20 0 34.5 -4.5t34.5 -14.5q17 -8 27 -12t23 -4q27 0 47 39l57 -38q-14 -38 -40.5 -57t-59.5 -19q-20 0 -35 5z" />
    <glyph glyph-name="Imacron" unicode="&#x12a;" horiz-adv-x="254" 
d="M77 700h100v-700h-100v700zM21 872h212v-76h-212v76z" />
    <glyph glyph-name="imacron" unicode="&#x12b;" horiz-adv-x="238" 
d="M70 495h98v-495h-98v495zM13 670h212v-76h-212v76z" />
    <glyph glyph-name="Ibreve" unicode="&#x12c;" horiz-adv-x="254" 
d="M77 700h100v-700h-100v700zM34 810.5q-36 35.5 -39 90.5h72q2 -26 18 -42t42 -16t42.5 16t18.5 42h71q-2 -55 -39 -90.5t-94 -35.5q-56 0 -92 35.5z" />
    <glyph glyph-name="ibreve" unicode="&#x12d;" horiz-adv-x="238" 
d="M70 495h98v-495h-98v495zM26 605.5q-36 35.5 -39 90.5h72q2 -26 18 -42t42 -16t42.5 16t18.5 42h71q-2 -55 -39 -90.5t-94 -35.5q-56 0 -92 35.5z" />
    <glyph glyph-name="Iogonek" unicode="&#x12e;" horiz-adv-x="254" 
d="M115 -75q0 -18 13 -29.5t37 -11.5h6l-1 -66q-7 -1 -20 -1q-51 0 -80.5 24.5t-29.5 64.5q0 54 45 94h-8v700h100v-700q-62 -32 -62 -75z" />
    <glyph glyph-name="iogonek" unicode="&#x12f;" horiz-adv-x="238" 
d="M74 586.5q-19 18.5 -19 45.5q0 26 19 45t46 19q26 0 44.5 -19t18.5 -45q0 -27 -18.5 -45.5t-44.5 -18.5q-27 0 -46 18.5zM70 495h98v-495q-62 -32 -62 -75q0 -18 13 -29.5t37 -11.5h6l-1 -66q-7 -1 -20 -1q-51 0 -80.5 24.5t-29.5 64.5q0 54 45 94h-6v495z" />
    <glyph glyph-name="Idotaccent" unicode="&#x130;" horiz-adv-x="254" 
d="M77 700h100v-700h-100v700zM82 790.5q-19 18.5 -19 45.5q0 26 19 45t46 19q26 0 44.5 -19t18.5 -45q0 -27 -18.5 -45.5t-44.5 -18.5q-27 0 -46 18.5z" />
    <glyph glyph-name="dotlessi" unicode="&#x131;" horiz-adv-x="238" 
d="M70 495h98v-495h-98v495z" />
    <glyph glyph-name="IJ" unicode="&#x132;" horiz-adv-x="770" 
d="M77 700h100v-700h-100v700zM342.5 37.5q-56.5 51.5 -58.5 137.5v37l98 -18v-11q0 -47 28 -76t78 -29q52 0 79.5 32.5t27.5 90.5v499h100v-496q0 -107 -55.5 -162.5t-151.5 -55.5q-89 0 -145.5 51.5z" />
    <glyph glyph-name="ij" unicode="&#x133;" horiz-adv-x="484" 
d="M70 495h98v-495h-98v495zM74 586.5q-19 18.5 -19 45.5q0 26 19 45t46 19q26 0 44.5 -19t18.5 -45q0 -27 -18.5 -45.5t-44.5 -18.5q-27 0 -46 18.5zM215.5 -207q-27.5 12 -39.5 26l45 70q16 -18 46 -18q50 0 50 60v564h98v-575q0 -63 -37.5 -101t-94.5 -38q-40 0 -67.5 12
zM321 586.5q-19 18.5 -19 45.5q0 26 19 45t46 19q26 0 44.5 -19t18.5 -45q0 -27 -18.5 -45.5t-44.5 -18.5q-27 0 -46 18.5z" />
    <glyph glyph-name="Jcircumflex" unicode="&#x134;" horiz-adv-x="516" 
d="M88.5 37.5q-56.5 51.5 -58.5 137.5v37l98 -18v-11q0 -47 28 -76t78 -29q52 0 79.5 32.5t27.5 90.5v499h100v-496q0 -107 -55.5 -162.5t-151.5 -55.5q-89 0 -145.5 51.5zM446 771l-56 63l-56 -63h-86l90 126h103l90 -126h-85z" />
    <glyph glyph-name="jcircumflex" unicode="&#x135;" horiz-adv-x="246" 
d="M-22.5 -207q-27.5 12 -39.5 26l45 70q16 -18 46 -18q50 0 50 60v564h98v-575q0 -63 -37.5 -101t-94.5 -38q-40 0 -67.5 12zM184 569l-56 63l-56 -63h-86l90 126h103l90 -126h-85z" />
    <glyph glyph-name="Kcommaaccent" unicode="&#x136;" horiz-adv-x="638" 
d="M259 336l-83 -87v-249h-99v700h99v-313l296 313h130l-274 -290l288 -410h-124zM312 -165q-20 4 -32 17.5t-12 33.5q0 26 17.5 40.5t38.5 14.5q26 0 42.5 -16t16.5 -45q0 -31 -16 -63t-43 -53l-36 26q18 21 24 45z" />
    <glyph glyph-name="kcommaaccent" unicode="&#x137;" horiz-adv-x="510" 
d="M219 231l-56 -59v-172h-98v700h98v-401l188 196h120l-187 -196l210 -299h-112zM251 -165q-20 4 -32 17.5t-12 33.5q0 26 17.5 40.5t38.5 14.5q26 0 42.5 -16t16.5 -45q0 -31 -16 -63t-43 -53l-36 26q18 21 24 45z" />
    <glyph glyph-name="kgreenlandic" unicode="&#x138;" horiz-adv-x="510" 
d="M219 231l-56 -59v-172h-98v495h98v-196l188 196h120l-187 -196l210 -299h-112z" />
    <glyph glyph-name="Lacute" unicode="&#x139;" horiz-adv-x="527" 
d="M77 700h100v-608h321v-92h-421v700zM159 897h127l-107 -126h-87z" />
    <glyph glyph-name="lacute" unicode="&#x13a;" horiz-adv-x="228" 
d="M65 700h98v-700h-98v700zM137 897h127l-107 -126h-87z" />
    <glyph glyph-name="Lcommaaccent" unicode="&#x13b;" horiz-adv-x="527" 
d="M77 700h100v-608h321v-92h-421v700zM272 -165q-20 4 -32 17.5t-12 33.5q0 26 17.5 40.5t38.5 14.5q26 0 42.5 -16t16.5 -45q0 -31 -16 -63t-43 -53l-36 26q18 21 24 45z" />
    <glyph glyph-name="lcommaaccent" unicode="&#x13c;" horiz-adv-x="228" 
d="M65 700h98v-700h-98v700zM99 -165q-20 4 -32 17.5t-12 33.5q0 26 17.5 40.5t38.5 14.5q26 0 42.5 -16t16.5 -45q0 -31 -16 -63t-43 -53l-36 26q18 21 24 45z" />
    <glyph glyph-name="Lcaron" unicode="&#x13d;" horiz-adv-x="527" 
d="M77 700h100v-608h321v-92h-421v700zM279 700h116l-77 -126h-80z" />
    <glyph glyph-name="lcaron" unicode="&#x13e;" horiz-adv-x="228" 
d="M65 700h98v-700h-98v700zM242 700h101l-72 -126h-66z" />
    <glyph glyph-name="Ldot" unicode="&#x13f;" horiz-adv-x="527" 
d="M77 700h100v-608h321v-92h-421v700zM342.5 346.5q-19.5 19.5 -19.5 47.5t19.5 47.5t47.5 19.5t47.5 -19.5t19.5 -47.5t-19.5 -47.5t-47.5 -19.5t-47.5 19.5z" />
    <glyph glyph-name="ldot" unicode="&#x140;" horiz-adv-x="357" 
d="M65 700h98v-700h-98v700zM247.5 302.5q-19.5 19.5 -19.5 47.5t19.5 47.5t47.5 19.5t47.5 -19.5t19.5 -47.5t-19.5 -47.5t-47.5 -19.5t-47.5 19.5z" />
    <glyph glyph-name="Lslash" unicode="&#x141;" 
d="M528 92v-92h-421v275l-70 -32l-30 71l100 46v340h100v-294l138 63l32 -71l-170 -77v-229h321z" />
    <glyph glyph-name="lslash" unicode="&#x142;" horiz-adv-x="318" 
d="M208 339v-339h-98v265l-57 -43l-47 66l104 78v334h98v-260l56 42l48 -65z" />
    <glyph glyph-name="Nacute" unicode="&#x143;" horiz-adv-x="729" 
d="M80 700h105l363 -539v539h101v-700h-105l-364 538v-538h-100v700zM393 897h127l-107 -126h-87z" />
    <glyph glyph-name="nacute" unicode="&#x144;" 
d="M65 495h81l15 -63q57 77 157 77q82 0 128 -49t46 -149v-311h-98v294q0 68 -28 95.5t-78 27.5q-53 0 -89 -37.5t-36 -103.5v-276h-98v495zM299 695h127l-107 -126h-87z" />
    <glyph glyph-name="Ncommaaccent" unicode="&#x145;" horiz-adv-x="729" 
d="M80 700h105l363 -539v539h101v-700h-105l-364 538v-538h-100v700zM350 -165q-20 4 -32 17.5t-12 33.5q0 26 17.5 40.5t38.5 14.5q26 0 42.5 -16t16.5 -45q0 -31 -16 -63t-43 -53l-36 26q18 21 24 45z" />
    <glyph glyph-name="ncommaaccent" unicode="&#x146;" 
d="M65 495h81l15 -63q57 77 157 77q82 0 128 -49t46 -149v-311h-98v294q0 68 -28 95.5t-78 27.5q-53 0 -89 -37.5t-36 -103.5v-276h-98v495zM269 -165q-20 4 -32 17.5t-12 33.5q0 26 17.5 40.5t38.5 14.5q26 0 42.5 -16t16.5 -45q0 -31 -16 -63t-43 -53l-36 26q18 21 24 45z
" />
    <glyph glyph-name="Ncaron" unicode="&#x147;" horiz-adv-x="729" 
d="M80 700h105l363 -539v539h101v-700h-105l-364 538v-538h-100v700zM512 900l-90 -126h-103l-90 126h86l56 -63l56 63h85z" />
    <glyph glyph-name="ncaron" unicode="&#x148;" 
d="M65 495h81l15 -63q57 77 157 77q82 0 128 -49t46 -149v-311h-98v294q0 68 -28 95.5t-78 27.5q-53 0 -89 -37.5t-36 -103.5v-276h-98v495zM420 695l-90 -126h-103l-90 126h86l56 -63l56 63h85z" />
    <glyph glyph-name="napostrophe" unicode="&#x149;" horiz-adv-x="598" 
d="M46 605q-20 4 -32 17.5t-12 33.5q0 26 17.5 40.5t38.5 14.5q26 0 42.5 -16t16.5 -46t-16 -62t-43 -53l-36 26q19 25 24 45zM106 495h81l15 -63q57 77 157 77q82 0 128 -49t46 -149v-311h-98v294q0 68 -28 95.5t-78 27.5q-53 0 -89 -37.5t-36 -103.5v-276h-98v495z" />
    <glyph glyph-name="Eng" unicode="&#x14a;" horiz-adv-x="729" 
d="M649 0h-1v-80q0 -63 -37.5 -101t-94.5 -38q-40 0 -67.5 12t-39.5 26l45 70q16 -18 46 -18q50 0 50 60v60l-6 9l-364 538v-538h-100v700h105l363 -539v539h101v-700z" />
    <glyph glyph-name="eng" unicode="&#x14b;" 
d="M446 460q46 -49 46 -149v-391q0 -63 -38 -101t-95 -38q-39 0 -66.5 12t-39.5 26l44 70q18 -18 47 -18q50 0 50 60v363q0 68 -28 95.5t-78 27.5q-53 0 -89 -37.5t-36 -103.5v-276h-98v495h81l15 -63q57 77 157 77q82 0 128 -49z" />
    <glyph glyph-name="Omacron" unicode="&#x14c;" horiz-adv-x="821" 
d="M225 35q-81 48 -125.5 131t-44.5 185q0 101 44.5 184t125.5 131.5t186 48.5q104 0 185 -48.5t125.5 -131.5t44.5 -184q0 -102 -45 -185t-125.5 -131t-184.5 -48q-105 0 -186 48zM544 114q58 35 90 97t32 140q0 77 -32.5 139t-90.5 97.5t-132 35.5q-75 0 -133.5 -35.5
t-90.5 -97.5t-32 -139q0 -79 32 -140.5t90 -96.5t134 -35q75 0 133 35zM305 872h212v-76h-212v76z" />
    <glyph glyph-name="omacron" unicode="&#x14d;" horiz-adv-x="594" 
d="M163.5 22q-58.5 36 -90 96t-31.5 129q0 70 32 130t90.5 96t132.5 36q75 0 133 -36t90 -96t32 -130q0 -69 -32 -129t-90 -96t-133 -36t-133.5 36zM377.5 98q35.5 22 56 61.5t20.5 87.5q0 49 -20.5 88t-56 61.5t-80.5 22.5t-81 -22.5t-56 -61.5t-20 -88t20 -88t56 -61
t81 -22t80.5 22zM191 670h212v-76h-212v76z" />
    <glyph glyph-name="Obreve" unicode="&#x14e;" horiz-adv-x="821" 
d="M225 35q-81 48 -125.5 131t-44.5 185q0 101 44.5 184t125.5 131.5t186 48.5q104 0 185 -48.5t125.5 -131.5t44.5 -184q0 -102 -45 -185t-125.5 -131t-184.5 -48q-105 0 -186 48zM544 114q58 35 90 97t32 140q0 77 -32.5 139t-90.5 97.5t-132 35.5q-75 0 -133.5 -35.5
t-90.5 -97.5t-32 -139q0 -79 32 -140.5t90 -96.5t134 -35q75 0 133 35zM318 810.5q-36 35.5 -39 90.5h72q2 -26 18 -42t42 -16t42.5 16t18.5 42h71q-2 -55 -39 -90.5t-94 -35.5q-56 0 -92 35.5z" />
    <glyph glyph-name="obreve" unicode="&#x14f;" horiz-adv-x="594" 
d="M163.5 22q-58.5 36 -90 96t-31.5 129q0 70 32 130t90.5 96t132.5 36q75 0 133 -36t90 -96t32 -130q0 -69 -32 -129t-90 -96t-133 -36t-133.5 36zM377.5 98q35.5 22 56 61.5t20.5 87.5q0 49 -20.5 88t-56 61.5t-80.5 22.5t-81 -22.5t-56 -61.5t-20 -88t20 -88t56 -61
t81 -22t80.5 22zM204 605.5q-36 35.5 -39 90.5h72q2 -26 18 -42t42 -16t42.5 16t18.5 42h71q-2 -55 -39 -90.5t-94 -35.5q-56 0 -92 35.5z" />
    <glyph glyph-name="Ohungarumlaut" unicode="&#x150;" horiz-adv-x="821" 
d="M225 35q-81 48 -125.5 131t-44.5 185q0 101 44.5 184t125.5 131.5t186 48.5q104 0 185 -48.5t125.5 -131.5t44.5 -184q0 -102 -45 -185t-125.5 -131t-184.5 -48q-105 0 -186 48zM544 114q58 35 90 97t32 140q0 77 -32.5 139t-90.5 97.5t-132 35.5q-75 0 -133.5 -35.5
t-90.5 -97.5t-32 -139q0 -79 32 -140.5t90 -96.5t134 -35q75 0 133 35zM296 774l65 126h115l-105 -126h-75zM443 774l65 126h115l-105 -126h-75z" />
    <glyph glyph-name="ohungarumlaut" unicode="&#x151;" horiz-adv-x="594" 
d="M163.5 22q-58.5 36 -90 96t-31.5 129q0 70 32 130t90.5 96t132.5 36q75 0 133 -36t90 -96t32 -130q0 -69 -32 -129t-90 -96t-133 -36t-133.5 36zM377.5 98q35.5 22 56 61.5t20.5 87.5q0 49 -20.5 88t-56 61.5t-80.5 22.5t-81 -22.5t-56 -61.5t-20 -88t20 -88t56 -61
t81 -22t80.5 22zM182 569l65 126h115l-105 -126h-75zM329 569l65 126h115l-105 -126h-75z" />
    <glyph glyph-name="OE" unicode="&#x152;" horiz-adv-x="1147" 
d="M765 610v-213h290v-88h-290v-219h332v-90h-432v102q-44 -55 -108.5 -85t-145.5 -30q-106 0 -186.5 48t-125 131t-44.5 185q0 101 45 184t126 131.5t185 48.5q81 0 145.5 -31t108.5 -86v102h432v-90h-332zM543.5 116q57.5 35 89.5 96.5t32 138.5q0 75 -32.5 137
t-90.5 97.5t-131 35.5q-74 0 -132 -35.5t-89.5 -97t-31.5 -137.5q0 -78 31 -139.5t88.5 -96t133.5 -34.5q75 0 132.5 35z" />
    <glyph glyph-name="oe" unicode="&#x153;" horiz-adv-x="985" 
d="M943 217h-385q3 -40 22.5 -74t53.5 -54.5t77 -20.5q52 0 87.5 25.5t47.5 60.5l84 -27q-22 -62 -78 -101.5t-141 -39.5q-66 0 -119 29t-86 80q-34 -50 -88 -79.5t-121 -29.5q-75 0 -133.5 36t-90 96t-31.5 129q0 70 32 130t90.5 96t132.5 36q68 0 122 -29.5t88 -80.5
q34 51 87 80t116 29q70 0 122.5 -31.5t81.5 -88.5t29 -132v-39zM855 294q-4 53 -42.5 92.5t-101.5 39.5t-103 -38t-49 -94h296zM377.5 98q35.5 22 56 61.5t20.5 87.5q0 49 -20.5 88t-56 61.5t-80.5 22.5t-81 -22.5t-56 -61.5t-20 -88t20 -88t56 -61t81 -22t80.5 22z" />
    <glyph glyph-name="Racute" unicode="&#x154;" horiz-adv-x="621" 
d="M77 700h242q73 0 124.5 -26.5t77.5 -73t26 -104.5q0 -80 -42 -130.5t-104 -67.5l174 -298h-110l-165 285h-123v-285h-100v700zM317 373q60 0 95 31t35 88q0 59 -36 88.5t-96 29.5h-138v-237h140zM316 897h127l-107 -126h-87z" />
    <glyph glyph-name="racute" unicode="&#x155;" horiz-adv-x="387" 
d="M65 495h81l15 -62q18 32 51.5 54t77.5 22q29 0 52 -7.5t37 -17.5l-38 -86q-9 7 -25.5 12.5t-38.5 5.5q-49 0 -81.5 -38.5t-32.5 -103.5v-274h-98v495zM244 695h127l-107 -126h-87z" />
    <glyph glyph-name="Rcommaaccent" unicode="&#x156;" horiz-adv-x="621" 
d="M77 700h242q73 0 124.5 -26.5t77.5 -73t26 -104.5q0 -80 -42 -130.5t-104 -67.5l174 -298h-110l-165 285h-123v-285h-100v700zM317 373q60 0 95 31t35 88q0 59 -36 88.5t-96 29.5h-138v-237h140zM295 -165q-20 4 -32 17.5t-12 33.5q0 26 17.5 40.5t38.5 14.5
q26 0 42.5 -16t16.5 -45q0 -31 -16 -63t-43 -53l-36 26q18 21 24 45z" />
    <glyph glyph-name="rcommaaccent" unicode="&#x157;" horiz-adv-x="387" 
d="M65 495h81l15 -62q18 32 51.5 54t77.5 22q29 0 52 -7.5t37 -17.5l-38 -86q-9 7 -25.5 12.5t-38.5 5.5q-49 0 -81.5 -38.5t-32.5 -103.5v-274h-98v495zM104 -165q-20 4 -32 17.5t-12 33.5q0 26 17.5 40.5t38.5 14.5q26 0 42.5 -16t16.5 -45q0 -31 -16 -63t-43 -53l-36 26
q18 21 24 45z" />
    <glyph glyph-name="Rcaron" unicode="&#x158;" horiz-adv-x="621" 
d="M77 700h242q73 0 124.5 -26.5t77.5 -73t26 -104.5q0 -80 -42 -130.5t-104 -67.5l174 -298h-110l-165 285h-123v-285h-100v700zM317 373q60 0 95 31t35 88q0 59 -36 88.5t-96 29.5h-138v-237h140zM435 900l-90 -126h-103l-90 126h86l56 -63l56 63h85z" />
    <glyph glyph-name="rcaron" unicode="&#x159;" horiz-adv-x="387" 
d="M65 495h81l15 -62q18 32 51.5 54t77.5 22q29 0 52 -7.5t37 -17.5l-38 -86q-9 7 -25.5 12.5t-38.5 5.5q-49 0 -81.5 -38.5t-32.5 -103.5v-274h-98v495zM365 695l-90 -126h-103l-90 126h86l56 -63l56 63h85z" />
    <glyph glyph-name="Sacute" unicode="&#x15a;" horiz-adv-x="602" 
d="M135 37.5q-68 50.5 -93 149.5l94 27q18 -70 59 -103.5t112 -33.5q68 0 110.5 30t42.5 86q0 42 -30.5 70.5t-120.5 45.5q-120 21 -182 69.5t-62 134.5q0 60 31.5 106t86.5 71t124 25q96 0 156.5 -50t83.5 -141l-93 -27q-15 63 -50 95.5t-97 32.5q-64 0 -103 -29.5
t-39 -82.5q0 -47 38 -70t123 -39q120 -25 177 -74.5t57 -136.5q0 -62 -33.5 -108.5t-91 -72t-128.5 -25.5q-104 0 -172 50.5zM329 897h127l-107 -126h-87z" />
    <glyph glyph-name="sacute" unicode="&#x15b;" horiz-adv-x="484" 
d="M114 24.5q-52 38.5 -72 111.5l88 27q12 -42 37.5 -68t78.5 -26q46 0 74.5 18.5t28.5 50.5q0 24 -21 41.5t-83 28.5q-88 16 -137 48.5t-49 101.5q0 67 52.5 108.5t134.5 41.5q75 0 123.5 -37.5t63.5 -105.5l-87 -25q-9 38 -32.5 61.5t-67.5 23.5q-48 0 -71 -18.5
t-23 -44.5q0 -29 27 -43.5t83 -24.5q88 -17 134 -51.5t46 -103.5q0 -44 -25 -79t-70 -54.5t-101 -19.5q-80 0 -132 38.5zM268 694h127l-107 -126h-87z" />
    <glyph glyph-name="Scircumflex" unicode="&#x15c;" horiz-adv-x="602" 
d="M135 37.5q-68 50.5 -93 149.5l94 27q18 -70 59 -103.5t112 -33.5q68 0 110.5 30t42.5 86q0 42 -30.5 70.5t-120.5 45.5q-120 21 -182 69.5t-62 134.5q0 60 31.5 106t86.5 71t124 25q96 0 156.5 -50t83.5 -141l-93 -27q-15 63 -50 95.5t-97 32.5q-64 0 -103 -29.5
t-39 -82.5q0 -47 38 -70t123 -39q120 -25 177 -74.5t57 -136.5q0 -62 -33.5 -108.5t-91 -72t-128.5 -25.5q-104 0 -172 50.5zM363 771l-56 63l-56 -63h-86l90 126h103l90 -126h-85z" />
    <glyph glyph-name="scircumflex" unicode="&#x15d;" horiz-adv-x="484" 
d="M114 24.5q-52 38.5 -72 111.5l88 27q12 -42 37.5 -68t78.5 -26q46 0 74.5 18.5t28.5 50.5q0 24 -21 41.5t-83 28.5q-88 16 -137 48.5t-49 101.5q0 67 52.5 108.5t134.5 41.5q75 0 123.5 -37.5t63.5 -105.5l-87 -25q-9 38 -32.5 61.5t-67.5 23.5q-48 0 -71 -18.5
t-23 -44.5q0 -29 27 -43.5t83 -24.5q88 -17 134 -51.5t46 -103.5q0 -44 -25 -79t-70 -54.5t-101 -19.5q-80 0 -132 38.5zM304 568l-56 63l-56 -63h-86l90 126h103l90 -126h-85z" />
    <glyph glyph-name="Scedilla" unicode="&#x15e;" horiz-adv-x="602" 
d="M530.5 90.5q-29.5 -44.5 -81 -71t-116.5 -31.5l-16 -30q36 -1 60 -23t24 -58q0 -43 -26 -68.5t-69 -25.5q-37 0 -63 20.5t-28 50.5l55 19q0 -16 9.5 -25.5t26.5 -9.5q16 0 25.5 9.5t9.5 25.5q0 15 -10 24t-25 9t-22 -7l-44 25l34 64q-90 8 -149.5 58t-82.5 141l94 27
q18 -70 59 -103.5t112 -33.5q68 0 110.5 30t42.5 86q0 42 -30.5 70.5t-120.5 45.5q-120 21 -182 69.5t-62 134.5q0 60 31.5 106t86.5 71t124 25q96 0 156.5 -50t83.5 -141l-93 -27q-15 63 -50 95.5t-97 32.5q-64 0 -103 -29.5t-39 -82.5q0 -47 38 -70t123 -39
q120 -25 177 -74.5t57 -136.5q0 -58 -29.5 -102.5z" />
    <glyph glyph-name="scedilla" unicode="&#x15f;" horiz-adv-x="484" 
d="M395 36.5q-47 -41.5 -122 -49.5l-15 -29q36 -1 60.5 -23t24.5 -58q0 -43 -26 -68.5t-69 -25.5q-38 0 -63.5 20.5t-28.5 50.5l55 19q0 -16 10 -25.5t27 -9.5q15 0 25 9.5t10 25.5q0 15 -10 24t-25 9q-16 0 -23 -7l-43 25l34 63q-67 8 -111.5 45.5t-62.5 103.5l88 27
q12 -42 37.5 -68t78.5 -26q46 0 74.5 18.5t28.5 50.5q0 24 -21 41.5t-83 28.5q-88 16 -137 48.5t-49 101.5q0 67 52.5 108.5t134.5 41.5q75 0 123.5 -37.5t63.5 -105.5l-87 -25q-9 38 -32.5 61.5t-67.5 23.5q-48 0 -71 -18.5t-23 -44.5q0 -29 27 -43.5t83 -24.5
q88 -17 134 -51.5t46 -103.5q0 -61 -47 -102.5z" />
    <glyph glyph-name="Scaron" unicode="&#x160;" horiz-adv-x="602" 
d="M135 37.5q-68 50.5 -93 149.5l94 27q18 -70 59 -103.5t112 -33.5q68 0 110.5 30t42.5 86q0 42 -30.5 70.5t-120.5 45.5q-120 21 -182 69.5t-62 134.5q0 60 31.5 106t86.5 71t124 25q96 0 156.5 -50t83.5 -141l-93 -27q-15 63 -50 95.5t-97 32.5q-64 0 -103 -29.5
t-39 -82.5q0 -47 38 -70t123 -39q120 -25 177 -74.5t57 -136.5q0 -62 -33.5 -108.5t-91 -72t-128.5 -25.5q-104 0 -172 50.5zM448 900l-90 -126h-103l-90 126h86l56 -63l56 63h85z" />
    <glyph glyph-name="scaron" unicode="&#x161;" horiz-adv-x="484" 
d="M114 24.5q-52 38.5 -72 111.5l88 27q12 -42 37.5 -68t78.5 -26q46 0 74.5 18.5t28.5 50.5q0 24 -21 41.5t-83 28.5q-88 16 -137 48.5t-49 101.5q0 67 52.5 108.5t134.5 41.5q75 0 123.5 -37.5t63.5 -105.5l-87 -25q-9 38 -32.5 61.5t-67.5 23.5q-48 0 -71 -18.5
t-23 -44.5q0 -29 27 -43.5t83 -24.5q88 -17 134 -51.5t46 -103.5q0 -44 -25 -79t-70 -54.5t-101 -19.5q-80 0 -132 38.5zM389 694l-90 -126h-103l-90 126h86l56 -63l56 63h85z" />
    <glyph glyph-name="uni0162" unicode="&#x162;" horiz-adv-x="575" 
d="M320 0l-22 -42q36 -1 60 -23t24 -58q0 -43 -26 -68.5t-69 -25.5q-37 0 -63 20.5t-28 50.5l55 19q0 -16 9.5 -25.5t26.5 -9.5q16 0 25.5 9.5t9.5 25.5q0 15 -10 24t-25 9t-22 -7l-44 25l41 76h-25v608h-208v92h517v-92h-209v-608h-17z" />
    <glyph glyph-name="uni0163" unicode="&#x163;" horiz-adv-x="373" 
d="M315.5 0.5q-24.5 -11.5 -60.5 -14.5l-15 -28q36 -1 60.5 -23t24.5 -58q0 -43 -26 -68.5t-69 -25.5q-38 0 -63.5 20.5t-28.5 50.5l55 19q0 -16 10 -25.5t27 -9.5q15 0 25 9.5t10 25.5q0 15 -10 24t-25 9q-16 0 -23 -7l-43 25l36 67q-42 12 -66.5 45.5t-24.5 86.5v284h-89
v88h89v129h98v-129h134v-88h-134v-272q0 -58 52 -58q29 0 48 19l45 -70q-12 -14 -36.5 -25.5z" />
    <glyph glyph-name="Tcaron" unicode="&#x164;" horiz-adv-x="575" 
d="M237 608h-208v92h517v-92h-209v-608h-100v608zM429 900l-90 -126h-103l-90 126h86l56 -63l56 63h85z" />
    <glyph glyph-name="tcaron" unicode="&#x165;" horiz-adv-x="373" 
d="M284 700h116l-77 -126h-80zM145.5 22.5q-36.5 36.5 -36.5 100.5v284h-89v88h89v129h98v-129h134v-88h-134v-272q0 -58 52 -58q29 0 48 19l45 -70q-13 -15 -41.5 -27.5t-70.5 -12.5q-58 0 -94.5 36.5z" />
    <glyph glyph-name="Tbar" unicode="&#x166;" horiz-adv-x="575" 
d="M337 608v-236h112v-77h-112v-295h-100v295h-110v77h110v236h-208v92h517v-92h-209z" />
    <glyph glyph-name="tbar" unicode="&#x167;" horiz-adv-x="374" 
d="M353 26q-40 -40 -113 -40q-58 0 -94.5 33.5t-36.5 93.5v111h-66v70h66v127h-89v74h89v129h98v-129h134v-74h-134v-127h94v-70h-94v-99q0 -25 13 -36.5t39 -11.5q18 0 30.5 6t17.5 12z" />
    <glyph glyph-name="Utilde" unicode="&#x168;" horiz-adv-x="685" 
d="M150.5 55.5q-73.5 69.5 -73.5 207.5v437h100v-432q0 -98 43.5 -144t122.5 -46q78 0 121.5 46.5t43.5 143.5v432h100v-438q0 -139 -73 -207.5t-192 -68.5t-192.5 69.5zM371.5 782.5q-15.5 5.5 -34.5 15.5q-28 15 -45 15q-13 0 -26 -9t-22 -28l-55 37q15 39 40.5 57
t55.5 18q20 0 35 -5t34 -15q17 -8 27 -12t22 -4q27 0 47 40l57 -39q-14 -38 -40 -57t-59 -19q-21 0 -36.5 5.5z" />
    <glyph glyph-name="utilde" unicode="&#x169;" 
d="M492 0h-81l-15 63q-57 -77 -157 -77q-82 0 -128 48.5t-46 148.5v312h98v-295q0 -67 28 -95t78 -28q53 0 89 37.5t36 103.5v277h98v-495zM303 581q-15 5 -36 15q-28 15 -45 15q-13 0 -25.5 -9t-22.5 -28l-55 37q28 75 96 75q20 0 34.5 -4.5t34.5 -14.5q17 -8 27 -12t23 -4
q27 0 47 39l57 -38q-14 -38 -40.5 -57t-59.5 -19q-20 0 -35 5z" />
    <glyph glyph-name="Umacron" unicode="&#x16a;" horiz-adv-x="685" 
d="M150.5 55.5q-73.5 69.5 -73.5 207.5v437h100v-432q0 -98 43.5 -144t122.5 -46q78 0 121.5 46.5t43.5 143.5v432h100v-438q0 -139 -73 -207.5t-192 -68.5t-192.5 69.5zM240 872h212v-76h-212v76z" />
    <glyph glyph-name="umacron" unicode="&#x16b;" 
d="M492 0h-81l-15 63q-57 -77 -157 -77q-82 0 -128 48.5t-46 148.5v312h98v-295q0 -67 28 -95t78 -28q53 0 89 37.5t36 103.5v277h98v-495zM173 670h212v-76h-212v76z" />
    <glyph glyph-name="Ubreve" unicode="&#x16c;" horiz-adv-x="685" 
d="M150.5 55.5q-73.5 69.5 -73.5 207.5v437h100v-432q0 -98 43.5 -144t122.5 -46q78 0 121.5 46.5t43.5 143.5v432h100v-438q0 -139 -73 -207.5t-192 -68.5t-192.5 69.5zM253 810.5q-36 35.5 -39 90.5h72q2 -26 18 -42t42 -16t42.5 16t18.5 42h71q-2 -55 -39 -90.5
t-94 -35.5q-56 0 -92 35.5z" />
    <glyph glyph-name="ubreve" unicode="&#x16d;" 
d="M492 0h-81l-15 63q-57 -77 -157 -77q-82 0 -128 48.5t-46 148.5v312h98v-295q0 -67 28 -95t78 -28q53 0 89 37.5t36 103.5v277h98v-495zM186 605.5q-36 35.5 -39 90.5h72q2 -26 18 -42t42 -16t42.5 16t18.5 42h71q-2 -55 -39 -90.5t-94 -35.5q-56 0 -92 35.5z" />
    <glyph glyph-name="Uring" unicode="&#x16e;" horiz-adv-x="685" 
d="M150.5 55.5q-73.5 69.5 -73.5 207.5v437h100v-432q0 -98 43.5 -144t122.5 -46q78 0 121.5 46.5t43.5 143.5v432h100v-438q0 -139 -73 -207.5t-192 -68.5t-192.5 69.5zM280 769q-27 27 -27 65t27 65t64 27q38 0 65 -27t27 -65q0 -37 -27 -64.5t-65 -27.5q-37 0 -64 27z
M368 810q10 10 10 24t-10 24t-24 10t-24 -10t-10 -24t10 -24t24 -10t24 10z" />
    <glyph glyph-name="uring" unicode="&#x16f;" 
d="M492 0h-81l-15 63q-57 -77 -157 -77q-82 0 -128 48.5t-46 148.5v312h98v-295q0 -67 28 -95t78 -28q53 0 89 37.5t36 103.5v277h98v-495zM215 571q-27 27 -27 65t27 65t64 27q38 0 65 -27t27 -65q0 -37 -27 -64.5t-65 -27.5q-37 0 -64 27zM303 612q10 10 10 24t-10 24
t-24 10t-24 -10t-10 -24t10 -24t24 -10t24 10z" />
    <glyph glyph-name="Uhungarumlaut" unicode="&#x170;" horiz-adv-x="685" 
d="M150.5 55.5q-73.5 69.5 -73.5 207.5v437h100v-432q0 -98 43.5 -144t122.5 -46q78 0 121.5 46.5t43.5 143.5v432h100v-438q0 -139 -73 -207.5t-192 -68.5t-192.5 69.5zM231 774l65 126h115l-105 -126h-75zM378 774l65 126h115l-105 -126h-75z" />
    <glyph glyph-name="uhungarumlaut" unicode="&#x171;" 
d="M492 0h-81l-15 63q-57 -77 -157 -77q-82 0 -128 48.5t-46 148.5v312h98v-295q0 -67 28 -95t78 -28q53 0 89 37.5t36 103.5v277h98v-495zM164 569l65 126h115l-105 -126h-75zM311 569l65 126h115l-105 -126h-75z" />
    <glyph glyph-name="Uogonek" unicode="&#x172;" horiz-adv-x="685" 
d="M397 -183q-51 0 -80.5 24.5t-29.5 64.5q0 46 37 81q-112 6 -179.5 75t-67.5 201v437h100v-432q0 -98 43.5 -144t122.5 -46q78 0 121.5 46.5t43.5 143.5v432h100v-438q0 -168 -108 -235q-22 -15 -43 -22t-26 -9q-69 -28 -69 -71q0 -18 13 -29.5t37 -11.5h6l-1 -66
q-7 -1 -20 -1z" />
    <glyph glyph-name="uogonek" unicode="&#x173;" 
d="M430 -75q0 -18 13 -29.5t37 -11.5h6l-1 -66q-7 -1 -20 -1q-51 0 -80.5 24.5t-29.5 64.5q0 32 15 57.5t39 43.5l-13 56q-57 -77 -157 -77q-82 0 -128 48.5t-46 148.5v312h98v-295q0 -67 28 -95t78 -28q53 0 89 37.5t36 103.5v277h98v-495q-62 -32 -62 -75z" />
    <glyph glyph-name="Wcircumflex" unicode="&#x174;" horiz-adv-x="940" 
d="M918 700l-197 -700h-101l-150 556l-150 -556h-101l-197 700h103l148 -549l147 549h102l147 -547l147 547h102zM526 771l-56 63l-56 -63h-86l90 126h103l90 -126h-85z" />
    <glyph glyph-name="wcircumflex" unicode="&#x175;" horiz-adv-x="759" 
d="M743 495l-153 -495h-101l-109 373l-110 -373h-101l-153 495h99l107 -378l109 378h96l110 -377l107 377h99zM435 569l-56 63l-56 -63h-86l90 126h103l90 -126h-85z" />
    <glyph glyph-name="Ycircumflex" unicode="&#x176;" horiz-adv-x="623" 
d="M262 279l-240 421h109l180 -322l181 322h109l-239 -421v-279h-100v279zM368 771l-56 63l-56 -63h-86l90 126h103l90 -126h-85z" />
    <glyph glyph-name="ycircumflex" unicode="&#x177;" horiz-adv-x="569" 
d="M504 495v-486q0 -64 -25 -115.5t-75.5 -81.5t-125.5 -30q-87 0 -140 42.5t-73 115.5l92 20q22 -93 121 -93q63 0 95.5 37t32.5 103v68q-30 -37 -67 -55.5t-93 -18.5q-79 0 -129 48.5t-50 146.5v299h98v-277q0 -68 29 -97t82 -29q57 0 93.5 37.5t36.5 104.5v261h98z
M341 569l-56 63l-56 -63h-86l90 126h103l90 -126h-85z" />
    <glyph glyph-name="Ydieresis" unicode="&#x178;" horiz-adv-x="623" 
d="M262 279l-240 421h109l180 -322l181 322h109l-239 -421v-279h-100v279zM179.5 789q-19.5 19 -19.5 45t19.5 45t45.5 19t45 -19t19 -45t-19 -45t-45 -19t-45.5 19zM354 789q-19 19 -19 45t19 45t45 19q27 0 45.5 -19t18.5 -45t-18.5 -45t-45.5 -19q-26 0 -45 19z" />
    <glyph glyph-name="Zacute" unicode="&#x179;" horiz-adv-x="615" 
d="M43 88l405 522h-377v90h500v-88l-404 -522h400v-90h-524v88zM339 897h127l-107 -126h-87z" />
    <glyph glyph-name="zacute" unicode="&#x17a;" horiz-adv-x="469" 
d="M41 77l264 334h-256v84h376v-77l-265 -335h268l-1 -83h-386v77zM255 695h127l-107 -126h-87z" />
    <glyph glyph-name="Zdotaccent" unicode="&#x17b;" horiz-adv-x="615" 
d="M43 88l405 522h-377v90h500v-88l-404 -522h400v-90h-524v88zM272 790.5q-19 18.5 -19 45.5q0 26 19 45t46 19q26 0 44.5 -19t18.5 -45q0 -27 -18.5 -45.5t-44.5 -18.5q-27 0 -46 18.5z" />
    <glyph glyph-name="zdotaccent" unicode="&#x17c;" horiz-adv-x="469" 
d="M41 77l264 334h-256v84h376v-77l-265 -335h268l-1 -83h-386v77zM190 586.5q-19 18.5 -19 45.5q0 26 19 45t46 19q26 0 44.5 -19t18.5 -45q0 -27 -18.5 -45.5t-44.5 -18.5q-27 0 -46 18.5z" />
    <glyph glyph-name="Zcaron" unicode="&#x17d;" horiz-adv-x="615" 
d="M43 88l405 522h-377v90h500v-88l-404 -522h400v-90h-524v88zM458 900l-90 -126h-103l-90 126h86l56 -63l56 63h85z" />
    <glyph glyph-name="zcaron" unicode="&#x17e;" horiz-adv-x="469" 
d="M41 77l264 334h-256v84h376v-77l-265 -335h268l-1 -83h-386v77zM376 695l-90 -126h-103l-90 126h86l56 -63l56 63h85z" />
    <glyph glyph-name="longs" unicode="&#x17f;" horiz-adv-x="274" 
d="M65 597q0 58 31 87.5t83 29.5q25 0 46.5 -4.5t32.5 -10.5l-23 -80q-14 6 -34 6q-18 0 -28 -10.5t-10 -29.5v-585h-98v597z" />
    <glyph glyph-name="florin" unicode="&#x192;" horiz-adv-x="423" 
d="M268 495h124v-88h-124v-440q0 -63 -37.5 -100.5t-95.5 -37.5q-48 0 -75.5 13.5t-39.5 26.5l47 69q18 -18 49 -18q52 0 52 58v429h-97v88h97v136q0 63 37 100.5t95 37.5q75 0 115 -40l-47 -69q-18 18 -49 18q-51 0 -51 -58v-125z" />
    <glyph glyph-name="uni01B5" unicode="&#x1b5;" horiz-adv-x="615" 
d="M571 612l-175 -226h124v-77h-184l-169 -219h400v-90h-524v88l171 221h-113v77h173l174 224h-377v90h500v-88z" />
    <glyph glyph-name="uni01B6" unicode="&#x1b6;" horiz-adv-x="469" 
d="M428 83l-1 -83h-386v77l108 137h-79v68h133l102 129h-256v84h376v-77l-108 -136h78v-68h-131l-104 -131h268z" />
    <glyph glyph-name="AEacute" unicode="&#x1fc;" horiz-adv-x="986" 
d="M604 610v-213h290v-88h-290v-219h332v-90h-432v160h-268l-107 -160h-107l467 700h447v-90h-332zM504 248v315l-210 -315h210zM696 897h127l-107 -126h-87z" />
    <glyph glyph-name="aeacute" unicode="&#x1fd;" horiz-adv-x="884" 
d="M841 217h-385q3 -40 22.5 -74t53.5 -54.5t77 -20.5q52 0 87.5 25.5t47.5 60.5l84 -27q-22 -62 -78 -101.5t-141 -39.5q-63 0 -114.5 26.5t-85.5 74.5v-1q-12 -36 -54.5 -68t-121.5 -32q-57 0 -99.5 19.5t-65.5 54t-23 77.5q0 63 44.5 104t148.5 55l118 17v13
q0 103 -105 103q-96 0 -111 -91l-87 21q36 150 200 150q59 0 104.5 -20t70.5 -60q34 37 80.5 58t99.5 21q70 0 122.5 -31.5t81.5 -88.5t29 -132v-39zM753 294q-4 53 -42.5 92.5t-101.5 39.5t-103 -38t-49 -94h296zM356 243l-110 -16q-53 -8 -79.5 -27.5t-26.5 -56.5
q0 -35 26.5 -55.5t73.5 -20.5q49 0 82.5 28t33.5 81v67zM461 695h127l-107 -126h-87z" />
    <glyph glyph-name="Oslashacute" unicode="&#x1fe;" horiz-adv-x="821" 
d="M738 499.5q28 -69.5 28 -148.5q0 -102 -45 -185t-125.5 -131t-184.5 -48q-95 0 -174 41l-57 -80l-70 50l57 80q-54 50 -83 120.5t-29 152.5q0 101 44.5 184t125.5 131.5t186 48.5q99 0 178 -45l50 70l69 -50l-50 -71q52 -50 80 -119.5zM173 243.5q18 -49.5 51 -86.5
l310 436q-57 30 -123 30q-75 0 -133.5 -35.5t-90.5 -97.5t-32 -139q0 -58 18 -107.5zM544 114q58 35 90 97t32 140q0 55 -17 103.5t-48 84.5l-309 -433q53 -27 119 -27q75 0 133 35zM434 897h127l-107 -126h-87z" />
    <glyph glyph-name="oslashacute" unicode="&#x1ff;" horiz-adv-x="594" 
d="M533 348.5q19 -48.5 19 -101.5q0 -69 -32 -129t-90 -96t-133 -36q-66 0 -119 28l-40 -55l-62 45l40 56q-35 36 -54.5 85t-19.5 102q0 70 32 130t90.5 96t132.5 36q65 0 121 -29l38 52l61 -45l-38 -53q35 -37 54 -85.5zM173 139l191 265q-30 15 -67 15q-45 0 -81 -22.5
t-56 -61.5t-20 -88q0 -62 33 -108zM377.5 98q35.5 22 56 61.5t20.5 87.5q0 62 -32 108l-190 -265q30 -14 65 -14q45 0 80.5 22zM315 695h127l-107 -126h-87z" />
    <glyph glyph-name="Scommaaccent" unicode="&#x218;" horiz-adv-x="602" 
d="M135 37.5q-68 50.5 -93 149.5l94 27q18 -70 59 -103.5t112 -33.5q68 0 110.5 30t42.5 86q0 42 -30.5 70.5t-120.5 45.5q-120 21 -182 69.5t-62 134.5q0 60 31.5 106t86.5 71t124 25q96 0 156.5 -50t83.5 -141l-93 -27q-15 63 -50 95.5t-97 32.5q-64 0 -103 -29.5
t-39 -82.5q0 -47 38 -70t123 -39q120 -25 177 -74.5t57 -136.5q0 -62 -33.5 -108.5t-91 -72t-128.5 -25.5q-104 0 -172 50.5zM292 -165q-20 4 -32 17.5t-12 33.5q0 26 17.5 40.5t38.5 14.5q26 0 42.5 -16t16.5 -45q0 -31 -16 -63t-43 -53l-36 26q18 21 24 45z" />
    <glyph glyph-name="scommaaccent" unicode="&#x219;" horiz-adv-x="484" 
d="M114 24.5q-52 38.5 -72 111.5l88 27q12 -42 37.5 -68t78.5 -26q46 0 74.5 18.5t28.5 50.5q0 24 -21 41.5t-83 28.5q-88 16 -137 48.5t-49 101.5q0 67 52.5 108.5t134.5 41.5q75 0 123.5 -37.5t63.5 -105.5l-87 -25q-9 38 -32.5 61.5t-67.5 23.5q-48 0 -71 -18.5
t-23 -44.5q0 -29 27 -43.5t83 -24.5q88 -17 134 -51.5t46 -103.5q0 -44 -25 -79t-70 -54.5t-101 -19.5q-80 0 -132 38.5zM232 -165q-20 4 -32 17.5t-12 33.5q0 26 17.5 40.5t38.5 14.5q26 0 42.5 -16t16.5 -45q0 -31 -16 -63t-43 -53l-36 26q18 21 24 45z" />
    <glyph glyph-name="uni021A" unicode="&#x21a;" horiz-adv-x="575" 
d="M237 608h-208v92h517v-92h-209v-608h-100v608zM273 -165q-20 4 -32 17.5t-12 33.5q0 26 17.5 40.5t38.5 14.5q26 0 42.5 -16t16.5 -45q0 -31 -16 -63t-43 -53l-36 26q18 21 24 45z" />
    <glyph glyph-name="uni021B" unicode="&#x21b;" horiz-adv-x="373" 
d="M145.5 22.5q-36.5 36.5 -36.5 100.5v284h-89v88h89v129h98v-129h134v-88h-134v-272q0 -58 52 -58q29 0 48 19l45 -70q-13 -15 -41.5 -27.5t-70.5 -12.5q-58 0 -94.5 36.5zM214 -165q-20 4 -32 17.5t-12 33.5q0 26 17.5 40.5t38.5 14.5q26 0 42.5 -16t16.5 -45
q0 -31 -16 -63t-43 -53l-36 26q18 21 24 45z" />
    <glyph glyph-name="uni0237" unicode="&#x237;" horiz-adv-x="246" 
d="M-22.5 -207q-27.5 12 -39.5 26l45 70q16 -18 46 -18q50 0 50 60v564h98v-575q0 -63 -37.5 -101t-94.5 -38q-40 0 -67.5 12z" />
    <glyph glyph-name="uni02BB" unicode="&#x2bb;" horiz-adv-x="196" 
d="M67.5 562q11.5 26 12.5 47q-23 8 -36 24t-13 39q0 29 19.5 48.5t46.5 19.5q29 0 48.5 -19.5t19.5 -56.5q0 -42 -22 -94.5t-61 -88.5l-42 35q16 20 27.5 46z" />
    <glyph glyph-name="circumflex" unicode="&#x2c6;" 
d="M335 569l-56 63l-56 -63h-86l90 126h103l90 -126h-85z" />
    <glyph glyph-name="caron" unicode="&#x2c7;" 
d="M421 695l-90 -126h-103l-90 126h86l56 -63l56 63h85z" />
    <glyph glyph-name="breve" unicode="&#x2d8;" 
d="M176 605.5q-36 35.5 -39 90.5h72q2 -26 18 -42t42 -16t42.5 16t18.5 42h71q-2 -55 -39 -90.5t-94 -35.5q-56 0 -92 35.5z" />
    <glyph glyph-name="dotaccent" unicode="&#x2d9;" 
d="M234 586.5q-19 18.5 -19 45.5q0 26 19 45t46 19q26 0 44.5 -19t18.5 -45q0 -27 -18.5 -45.5t-44.5 -18.5q-27 0 -46 18.5z" />
    <glyph glyph-name="ring" unicode="&#x2da;" 
d="M215 571q-27 27 -27 65t27 65t64 27q38 0 65 -27t27 -65q0 -37 -27 -64.5t-65 -27.5q-37 0 -64 27zM303 612q10 10 10 24t-10 24t-24 10t-24 -10t-10 -24t10 -24t24 -10t24 10z" />
    <glyph glyph-name="ogonek" unicode="&#x2db;" 
d="M302 -183q-51 0 -80.5 24.5t-29.5 64.5q0 39 21.5 68t54.5 48l61 -22q-62 -32 -62 -75q0 -18 13 -29.5t37 -11.5h6l-1 -66q-7 -1 -20 -1z" />
    <glyph glyph-name="tilde" unicode="&#x2dc;" 
d="M303 581q-15 5 -36 15q-28 15 -45 15q-13 0 -25.5 -9t-22.5 -28l-55 37q28 75 96 75q20 0 34.5 -4.5t34.5 -14.5q17 -8 27 -12t23 -4q27 0 47 39l57 -38q-14 -38 -40.5 -57t-59.5 -19q-20 0 -35 5z" />
    <glyph glyph-name="hungarumlaut" unicode="&#x2dd;" 
d="M151 569l65 126h115l-105 -126h-75zM298 569l65 126h115l-105 -126h-75z" />
    <glyph glyph-name="gravecomb" unicode="&#x300;" horiz-adv-x="0" 
d="M-147 695h127l67 -126h-87z" />
    <glyph glyph-name="acutecomb" unicode="&#x301;" horiz-adv-x="0" 
d="M20 695h127l-107 -126h-87z" />
    <glyph glyph-name="uni0302" unicode="&#x302;" horiz-adv-x="0" 
d="M56 569l-56 63l-56 -63h-86l90 126h103l90 -126h-85z" />
    <glyph glyph-name="tildecomb" unicode="&#x303;" horiz-adv-x="0" 
d="M24 581q-15 5 -36 15q-28 15 -45 15q-13 0 -25.5 -9t-22.5 -28l-55 37q28 75 96 75q20 0 34.5 -4.5t34.5 -14.5q17 -8 27 -12t23 -4q27 0 47 39l57 -38q-14 -38 -40.5 -57t-59.5 -19q-20 0 -35 5z" />
    <glyph glyph-name="uni0304" unicode="&#x304;" horiz-adv-x="0" 
d="M-106 670h212v-76h-212v76z" />
    <glyph glyph-name="uni0306" unicode="&#x306;" horiz-adv-x="0" 
d="M-93 605.5q-36 35.5 -39 90.5h72q2 -26 18 -42t42 -16t42.5 16t18.5 42h71q-2 -55 -39 -90.5t-94 -35.5q-56 0 -92 35.5z" />
    <glyph glyph-name="uni0307" unicode="&#x307;" horiz-adv-x="0" 
d="M-45 586.5q-19 18.5 -19 45.5q0 26 19 45t46 19q26 0 44.5 -19t18.5 -45q0 -27 -18.5 -45.5t-44.5 -18.5q-27 0 -46 18.5z" />
    <glyph glyph-name="uni0308" unicode="&#x308;" horiz-adv-x="0" 
d="M-129 587q-19 19 -19 45t19 45t45 19t45 -19t19 -45t-19 -45t-45 -19t-45 19zM39 587q-19 19 -19 45t19 45t45 19t45 -19t19 -45t-19 -45t-45 -19t-45 19z" />
    <glyph glyph-name="uni030A" unicode="&#x30a;" horiz-adv-x="0" 
d="M-64 571q-27 27 -27 65t27 65t64 27q38 0 65 -27t27 -65q0 -37 -27 -64.5t-65 -27.5q-37 0 -64 27zM24 612q10 10 10 24t-10 24t-24 10t-24 -10t-10 -24t10 -24t24 -10t24 10z" />
    <glyph glyph-name="uni030B" unicode="&#x30b;" horiz-adv-x="0" 
d="M-119 569l65 126h115l-105 -126h-75zM28 569l65 126h115l-105 -126h-75z" />
    <glyph glyph-name="uni030C" unicode="&#x30c;" horiz-adv-x="0" 
d="M141 695l-90 -126h-103l-90 126h86l56 -63l56 63h85z" />
    <glyph glyph-name="uni0312" unicode="&#x312;" horiz-adv-x="0" 
d="M11 678q20 -4 32 -17.5t12 -33.5q0 -26 -17.5 -40.5t-37.5 -14.5q-26 0 -42.5 16t-16.5 46q0 31 16 63t43 52l36 -26q-18 -21 -25 -45z" />
    <glyph glyph-name="uni0326" unicode="&#x326;" horiz-adv-x="0" 
d="M-15 -165q-20 4 -32 17.5t-12 33.5q0 26 17.5 40.5t38.5 14.5q26 0 42.5 -16t16.5 -45q0 -31 -16 -63t-43 -53l-36 26q18 21 24 45z" />
    <glyph glyph-name="uni0327" unicode="&#x327;" horiz-adv-x="0" 
d="M-62.5 -196.5q-25.5 20.5 -28.5 50.5l55 19q0 -16 10 -25.5t27 -9.5q15 0 25 9.5t10 25.5q0 15 -10 24t-25 9q-16 0 -23 -7l-43 25l45 84l53 -8l-22 -42q36 -1 60.5 -23t24.5 -58q0 -43 -26 -68.5t-69 -25.5q-38 0 -63.5 20.5z" />
    <glyph glyph-name="uni0328" unicode="&#x328;" horiz-adv-x="0" 
d="M44 -183q-51 0 -80.5 24.5t-29.5 64.5q0 39 21.5 68t54.5 48l61 -22q-62 -32 -62 -75q0 -18 13 -29.5t37 -11.5h6l-1 -66q-7 -1 -20 -1z" />
    <glyph glyph-name="uni0335" unicode="&#x335;" horiz-adv-x="0" 
d="M-173 409h321v-70h-321v70z" />
    <glyph glyph-name="uni0336" unicode="&#x336;" horiz-adv-x="0" 
d="M-86 389h340v-78h-340v78z" />
    <glyph glyph-name="uni0337" unicode="&#x337;" horiz-adv-x="0" 
d="M-70 292l258 194l47 -64l-258 -195z" />
    <glyph glyph-name="uni0338" unicode="&#x338;" horiz-adv-x="0" 
d="M-120 -3l380 528l62 -45l-380 -528z" />
    <glyph glyph-name="uni0394" unicode="&#x394;" horiz-adv-x="668" 
d="M281 700h107l258 -700h-624zM511 90l-176 483l-178 -483h354z" />
    <glyph glyph-name="uni03A9" unicode="&#x3a9;" horiz-adv-x="820" 
d="M731 203q-34 -69 -93 -115h127v-88h-285v88q86 22 135.5 93t49.5 170q0 77 -32 139t-90 97.5t-132 35.5q-75 0 -133.5 -35.5t-90.5 -97.5t-32 -139q0 -99 49 -169.5t135 -93.5v-88h-284v88h123q-56 43 -89.5 109.5t-33.5 155.5q0 101 45 183.5t126 130.5t185 48
q102 0 183 -48t126 -131t45 -183q0 -81 -34 -150z" />
    <glyph glyph-name="uni03BC" unicode="&#x3bc;" 
d="M492 495v-495h-81l-15 63q-57 -77 -157 -77q-44 0 -76 13v-204h-98v700h98v-295q0 -67 28 -95t78 -28q53 0 89 37.5t36 103.5v277h98z" />
    <glyph glyph-name="pi" unicode="&#x3c0;" horiz-adv-x="642" 
d="M621 25q-13 -15 -40.5 -27t-70.5 -12q-56 0 -92.5 36.5t-37.5 100.5v287h-161v-410h-98v410h-101v85h588v-85h-130v-277q0 -58 51 -58q15 0 28 5.5t19 11.5z" />
    <glyph glyph-name="Wgrave" unicode="&#x1e80;" horiz-adv-x="940" 
d="M918 700l-197 -700h-101l-150 556l-150 -556h-101l-197 700h103l148 -549l147 549h102l147 -547l147 547h102zM321 897h127l67 -126h-87z" />
    <glyph glyph-name="wgrave" unicode="&#x1e81;" horiz-adv-x="759" 
d="M743 495l-153 -495h-101l-109 373l-110 -373h-101l-153 495h99l107 -378l109 378h96l110 -377l107 377h99zM232 695h127l67 -126h-87z" />
    <glyph glyph-name="Wacute" unicode="&#x1e82;" horiz-adv-x="940" 
d="M918 700l-197 -700h-101l-150 556l-150 -556h-101l-197 700h103l148 -549l147 549h102l147 -547l147 547h102zM492 897h127l-107 -126h-87z" />
    <glyph glyph-name="wacute" unicode="&#x1e83;" horiz-adv-x="759" 
d="M743 495l-153 -495h-101l-109 373l-110 -373h-101l-153 495h99l107 -378l109 378h96l110 -377l107 377h99zM399 695h127l-107 -126h-87z" />
    <glyph glyph-name="Wdieresis" unicode="&#x1e84;" horiz-adv-x="940" 
d="M918 700l-197 -700h-101l-150 556l-150 -556h-101l-197 700h103l148 -549l147 549h102l147 -547l147 547h102zM337.5 789q-19.5 19 -19.5 45t19.5 45t45.5 19t45 -19t19 -45t-19 -45t-45 -19t-45.5 19zM512 789q-19 19 -19 45t19 45t45 19q27 0 45.5 -19t18.5 -45
t-18.5 -45t-45.5 -19q-26 0 -45 19z" />
    <glyph glyph-name="wdieresis" unicode="&#x1e85;" horiz-adv-x="759" 
d="M743 495l-153 -495h-101l-109 373l-110 -373h-101l-153 495h99l107 -378l109 378h96l110 -377l107 377h99zM250 587q-19 19 -19 45t19 45t45 19t45 -19t19 -45t-19 -45t-45 -19t-45 19zM418 587q-19 19 -19 45t19 45t45 19t45 -19t19 -45t-19 -45t-45 -19t-45 19z" />
    <glyph glyph-name="uni1E8A" unicode="&#x1e8a;" horiz-adv-x="658" 
d="M518 0l-189 278l-188 -278h-119l242 356l-232 344h118l179 -266l180 266h118l-231 -343l240 -357h-118zM287 790.5q-19 18.5 -19 45.5q0 26 19 45t46 19q26 0 44.5 -19t18.5 -45q0 -27 -18.5 -45.5t-44.5 -18.5q-27 0 -46 18.5z" />
    <glyph glyph-name="uni1E8B" unicode="&#x1e8b;" horiz-adv-x="504" 
d="M379 0l-127 178l-128 -178h-108l180 249l-176 246h109l123 -174l123 174h108l-175 -245l180 -250h-109zM207 586.5q-19 18.5 -19 45.5q0 26 19 45t46 19q26 0 44.5 -19t18.5 -45q0 -27 -18.5 -45.5t-44.5 -18.5q-27 0 -46 18.5z" />
    <glyph glyph-name="Ygrave" unicode="&#x1ef2;" horiz-adv-x="623" 
d="M262 279l-240 421h109l180 -322l181 322h109l-239 -421v-279h-100v279zM163 897h127l67 -126h-87z" />
    <glyph glyph-name="ygrave" unicode="&#x1ef3;" horiz-adv-x="569" 
d="M504 495v-486q0 -64 -25 -115.5t-75.5 -81.5t-125.5 -30q-87 0 -140 42.5t-73 115.5l92 20q22 -93 121 -93q63 0 95.5 37t32.5 103v68q-30 -37 -67 -55.5t-93 -18.5q-79 0 -129 48.5t-50 146.5v299h98v-277q0 -68 29 -97t82 -29q57 0 93.5 37.5t36.5 104.5v261h98z
M138 695h127l67 -126h-87z" />
    <glyph glyph-name="endash" unicode="&#x2013;" horiz-adv-x="600" 
d="M50 345h500v-90h-500v90z" />
    <glyph glyph-name="emdash" unicode="&#x2014;" horiz-adv-x="1100" 
d="M50 345h1000v-90h-1000v90z" />
    <glyph glyph-name="quoteleft" unicode="&#x2018;" horiz-adv-x="196" 
d="M128.5 674q-11.5 -26 -12.5 -47q23 -8 36 -24t13 -39q0 -29 -19.5 -48.5t-46.5 -19.5q-29 0 -48.5 19.5t-19.5 56.5q0 42 22 94.5t61 88.5l42 -35q-16 -20 -27.5 -46z" />
    <glyph glyph-name="quoteright" unicode="&#x2019;" horiz-adv-x="196" 
d="M67.5 576q11.5 26 12.5 47q-23 8 -36 24t-13 39q0 29 19.5 48.5t46.5 19.5q29 0 48.5 -19.5t19.5 -56.5q0 -42 -22 -94.5t-61 -88.5l-42 35q16 20 27.5 46z" />
    <glyph glyph-name="quotesinglbase" unicode="&#x201a;" horiz-adv-x="196" 
d="M67.5 -51q11.5 26 12.5 47q-23 8 -36 24t-13 39q0 29 19.5 48.5t46.5 19.5q29 0 48.5 -19.5t19.5 -56.5q0 -42 -22 -94.5t-61 -88.5l-42 35q16 20 27.5 46z" />
    <glyph glyph-name="quotedblleft" unicode="&#x201c;" horiz-adv-x="381" 
d="M128.5 675q-11.5 -26 -12.5 -47q23 -8 36 -24t13 -39q0 -29 -19.5 -48.5t-46.5 -19.5q-29 0 -48.5 19.5t-19.5 56.5q0 42 22 94.5t61 88.5l42 -35q-16 -20 -27.5 -46zM313.5 675q-11.5 -26 -12.5 -47q23 -8 36 -24t13 -39q0 -29 -19.5 -48.5t-46.5 -19.5
q-29 0 -48.5 19.5t-19.5 56.5q0 42 22 94.5t61 88.5l42 -35q-16 -20 -27.5 -46z" />
    <glyph glyph-name="quotedblright" unicode="&#x201d;" horiz-adv-x="381" 
d="M67.5 574q11.5 26 12.5 47q-23 8 -36 24t-13 39q0 29 19.5 48.5t46.5 19.5q29 0 48.5 -19.5t19.5 -56.5q0 -42 -22 -94.5t-61 -88.5l-42 35q16 20 27.5 46zM252.5 574q11.5 26 12.5 47q-23 8 -36 24t-13 39q0 29 19.5 48.5t46.5 19.5q29 0 48.5 -19.5t19.5 -56.5
q0 -42 -22 -94.5t-61 -88.5l-42 35q16 20 27.5 46z" />
    <glyph glyph-name="quotedblbase" unicode="&#x201e;" horiz-adv-x="381" 
d="M67.5 -41q11.5 26 12.5 47q-23 8 -36 24t-13 39q0 29 19.5 48.5t46.5 19.5q29 0 48.5 -19.5t19.5 -56.5q0 -42 -22 -94.5t-61 -88.5l-42 35q16 20 27.5 46zM252.5 -41q11.5 26 12.5 47q-23 8 -36 24t-13 39q0 29 19.5 48.5t46.5 19.5q29 0 48.5 -19.5t19.5 -56.5
q0 -42 -22 -94.5t-61 -88.5l-42 35q16 20 27.5 46z" />
    <glyph glyph-name="dagger" unicode="&#x2020;" horiz-adv-x="318" 
d="M282 536h-86v-186h-73v186h-87v67h87v97h73v-97h86v-67z" />
    <glyph glyph-name="daggerdbl" unicode="&#x2021;" horiz-adv-x="318" 
d="M196 536v-49h86v-67h-86v-97h-73v97h-87v67h87v49h-87v67h87v97h73v-97h86v-67h-86z" />
    <glyph glyph-name="bullet" unicode="&#x2022;" horiz-adv-x="252" 
d="M58.5 232.5q-27.5 27.5 -27.5 67.5q0 39 28 67t68 28q38 0 66 -28t28 -67q0 -40 -27.5 -67.5t-66.5 -27.5q-41 0 -68.5 27.5z" />
    <glyph glyph-name="ellipsis" unicode="&#x2026;" horiz-adv-x="628" 
d="M50.5 13q-19.5 20 -19.5 47q0 28 19.5 47.5t47.5 19.5t47.5 -19.5t19.5 -47.5q0 -27 -19.5 -47t-47.5 -20t-47.5 20zM267.5 13q-19.5 20 -19.5 47q0 28 19.5 47.5t46.5 19.5q28 0 48 -19.5t20 -47.5q0 -27 -20 -47t-48 -20q-27 0 -46.5 20zM482.5 13q-19.5 20 -19.5 47
q0 28 19.5 47.5t47.5 19.5t47.5 -19.5t19.5 -47.5q0 -27 -19.5 -47t-47.5 -20t-47.5 20z" />
    <glyph glyph-name="perthousand" unicode="&#x2030;" horiz-adv-x="1102" 
d="M125.5 430.5q-34.5 18.5 -55 52.5t-20.5 76t19.5 76t52.5 53t73 19q41 0 76 -19t55 -52.5t20 -76.5t-19 -76.5t-52.5 -52t-73.5 -18.5q-41 0 -75.5 18.5zM566 700h96l-477 -700h-97zM255.5 502.5q22.5 22.5 22.5 56.5q0 37 -23 58.5t-58 21.5q-33 0 -54.5 -22t-21.5 -58
q0 -35 23 -57t57 -22q32 0 54.5 22.5zM483 11.5q-34 18.5 -54 52.5t-20 76t19.5 76t53 53t73.5 19q41 0 75.5 -19t54.5 -52.5t20 -76.5t-19.5 -76.5t-53.5 -52t-74 -18.5q-41 0 -75 18.5zM829.5 7q-34.5 19 -54.5 53t-20 76t19.5 75.5t53.5 52.5t74 19q41 0 75.5 -18.5
t54.5 -52.5t20 -76q0 -43 -19.5 -76.5t-53.5 -52.5t-74 -19q-41 0 -75.5 19zM614.5 84q22.5 23 22.5 56q0 37 -23 58.5t-57 21.5t-56 -21.5t-22 -58.5q0 -35 23 -57t58 -22q32 0 54.5 23zM960.5 79q22.5 23 22.5 57q0 37 -22.5 58.5t-56.5 21.5t-56 -21.5t-22 -58.5
q0 -35 23 -57.5t57 -22.5q32 0 54.5 23z" />
    <glyph glyph-name="guilsinglleft" unicode="&#x2039;" horiz-adv-x="295" 
d="M152 301l93 -186h-101l-94 186l93 184h102z" />
    <glyph glyph-name="guilsinglright" unicode="&#x203a;" horiz-adv-x="295" 
d="M245 301l-94 -186h-101l93 186l-93 184h102z" />
    <glyph glyph-name="fraction" unicode="&#x2044;" horiz-adv-x="217" 
d="M-200 37l563 670l54 -43l-563 -671z" />
    <glyph glyph-name="uni2070" unicode="&#x2070;" horiz-adv-x="336" 
d="M69.5 479q-33.5 50 -33.5 132q0 80 34 131t98 51q65 0 98.5 -50.5t33.5 -131.5t-33.5 -131.5t-97.5 -50.5q-66 0 -99.5 50zM215 523.5q15 31.5 15 87.5q0 54 -15.5 85.5t-46.5 31.5q-32 0 -47.5 -31t-15.5 -86q0 -56 15.5 -87.5t48.5 -31.5q31 0 46 31.5z" />
    <glyph glyph-name="uni2074" unicode="&#x2074;" horiz-adv-x="309" 
d="M180 523h-156v50l150 213h74v-205h37v-58h-37v-87h-69zM180 581l-1 111l-80 -111h81z" />
    <glyph glyph-name="uni2075" unicode="&#x2075;" horiz-adv-x="322" 
d="M72.5 458.5q-35.5 29.5 -36.5 70.5l65 20q1 -25 17 -40t41 -15t41.5 16t16.5 41q0 24 -17 39.5t-41 15.5q-17 0 -30 -6.5t-19 -14.5l-61 22l18 179h199v-65h-140l-6 -64q6 4 18.5 7t26.5 3q54 0 87.5 -31.5t33.5 -84.5q0 -55 -35.5 -88.5t-91.5 -33.5q-51 0 -86.5 29.5z
" />
    <glyph glyph-name="uni2076" unicode="&#x2076;" horiz-adv-x="329" 
d="M68.5 473q-32.5 44 -32.5 124q0 95 31.5 145.5t102.5 50.5q47 0 76 -24t38 -65l-60 -18q-7 22 -19.5 32.5t-34.5 10.5q-31 0 -45 -22t-16 -63q6 8 23 16t43 8q51 0 84.5 -32.5t33.5 -85.5q0 -54 -36 -87.5t-90 -33.5q-66 0 -98.5 44zM208 509q16 16 16 41t-16 40.5
t-41 15.5q-26 0 -42 -15.5t-16 -40.5q0 -24 16.5 -40.5t41.5 -16.5t41 16z" />
    <glyph glyph-name="uni2077" unicode="&#x2077;" horiz-adv-x="278" 
d="M119 587.5q29 83.5 59 134.5h-154v64h231v-64q-34 -52 -65 -135.5t-41 -150.5h-69q10 68 39 151.5z" />
    <glyph glyph-name="uni2078" unicode="&#x2078;" horiz-adv-x="323" 
d="M276 588q11 -21 11 -47q0 -49 -36 -80.5t-89 -31.5q-54 0 -90 31.5t-36 80.5q0 26 11 47t31 36q-29 27 -29 68q0 44 32.5 72.5t80.5 28.5t80.5 -28.5t32.5 -72.5q0 -41 -29 -68q19 -15 30 -36zM129.5 661.5q13.5 -11.5 32.5 -11.5t32.5 11.5t13.5 30.5t-13.5 30.5
t-32.5 11.5t-32.5 -11.5t-13.5 -30.5t13.5 -30.5zM202.5 505q16.5 14 16.5 37t-16.5 37.5t-40.5 14.5t-40.5 -14.5t-16.5 -37.5t16.5 -37t40.5 -14t40.5 14z" />
    <glyph glyph-name="uni2079" unicode="&#x2079;" horiz-adv-x="328" 
d="M83 453q-29 24 -38 65l60 18q7 -22 19.5 -32.5t34.5 -10.5q58 0 61 86q-6 -8 -23 -16.5t-43 -8.5q-51 0 -84.5 32.5t-33.5 86.5t36 87t90 33q66 0 98 -44t32 -124q0 -95 -31 -145.5t-102 -50.5q-47 0 -76 24zM203.5 632q16.5 16 16.5 40t-16.5 40.5t-41.5 16.5t-41 -16
t-16 -41t16 -40.5t41 -15.5t41.5 16z" />
    <glyph glyph-name="uni2080" unicode="&#x2080;" horiz-adv-x="336" 
d="M69.5 -32q-33.5 50 -33.5 132q0 80 34 131t98 51q65 0 98.5 -50.5t33.5 -131.5t-33.5 -131.5t-97.5 -50.5q-66 0 -99.5 50zM215 12.5q15 31.5 15 87.5q0 54 -15.5 85.5t-46.5 31.5q-32 0 -47.5 -31t-15.5 -86q0 -56 15.5 -87.5t48.5 -31.5q31 0 46 31.5z" />
    <glyph glyph-name="uni2081" unicode="&#x2081;" horiz-adv-x="209" 
d="M87 198q-13 -8 -33.5 -15t-35.5 -9v68q14 3 35.5 13t33.5 20h68v-350h-68v273z" />
    <glyph glyph-name="uni2082" unicode="&#x2082;" horiz-adv-x="315" 
d="M43 -10l119 102q26 24 36.5 40t10.5 37q0 20 -14.5 34.5t-37.5 14.5q-26 0 -42 -17t-15 -46l-64 18q2 49 36.5 79t84.5 30q51 0 86.5 -32t35.5 -80q0 -37 -17 -64.5t-51 -57.5l-69 -58h137v-65h-236v65z" />
    <glyph glyph-name="uni2083" unicode="&#x2083;" horiz-adv-x="325" 
d="M71.5 -51.5q-34.5 30.5 -35.5 74.5l64 18q1 -25 17.5 -41.5t42.5 -16.5t43 15.5t17 40.5t-16.5 41t-43.5 16q-10 0 -21 -3l-35 41l81 77h-136v64h217v-64l-62 -62q36 -6 60.5 -34t24.5 -76q0 -53 -36.5 -87t-92.5 -34q-54 0 -88.5 30.5z" />
    <glyph glyph-name="uni2084" unicode="&#x2084;" horiz-adv-x="309" 
d="M180 12h-156v50l150 213h74v-205h37v-58h-37v-87h-69zM180 70l-1 111l-80 -111h81z" />
    <glyph glyph-name="uni2085" unicode="&#x2085;" horiz-adv-x="322" 
d="M72.5 -52.5q-35.5 29.5 -36.5 70.5l65 20q1 -25 17 -40t41 -15t41.5 16t16.5 41q0 24 -17 39.5t-41 15.5q-17 0 -30 -6.5t-19 -14.5l-61 22l18 179h199v-65h-140l-6 -64q6 4 18.5 7t26.5 3q54 0 87.5 -31.5t33.5 -84.5q0 -55 -35.5 -88.5t-91.5 -33.5q-51 0 -86.5 29.5z
" />
    <glyph glyph-name="uni2086" unicode="&#x2086;" horiz-adv-x="329" 
d="M68.5 -38q-32.5 44 -32.5 124q0 95 31.5 145.5t102.5 50.5q47 0 76 -24t38 -65l-60 -18q-7 22 -19.5 32.5t-34.5 10.5q-31 0 -45 -22t-16 -63q6 8 23 16t43 8q51 0 84.5 -32.5t33.5 -85.5q0 -54 -36 -87.5t-90 -33.5q-66 0 -98.5 44zM208 -2q16 16 16 41t-16 40.5
t-41 15.5q-26 0 -42 -15.5t-16 -40.5q0 -24 16.5 -40.5t41.5 -16.5t41 16z" />
    <glyph glyph-name="uni2087" unicode="&#x2087;" horiz-adv-x="278" 
d="M119 76.5q29 83.5 59 134.5h-154v64h231v-64q-34 -52 -65 -135.5t-41 -150.5h-69q10 68 39 151.5z" />
    <glyph glyph-name="uni2088" unicode="&#x2088;" horiz-adv-x="323" 
d="M276 77q11 -21 11 -47q0 -49 -36 -80.5t-89 -31.5q-54 0 -90 31.5t-36 80.5q0 26 11 47t31 36q-29 27 -29 68q0 44 32.5 72.5t80.5 28.5t80.5 -28.5t32.5 -72.5q0 -41 -29 -68q19 -15 30 -36zM129.5 150.5q13.5 -11.5 32.5 -11.5t32.5 11.5t13.5 30.5t-13.5 30.5
t-32.5 11.5t-32.5 -11.5t-13.5 -30.5t13.5 -30.5zM202.5 -6q16.5 14 16.5 37t-16.5 37.5t-40.5 14.5t-40.5 -14.5t-16.5 -37.5t16.5 -37t40.5 -14t40.5 14z" />
    <glyph glyph-name="uni2089" unicode="&#x2089;" horiz-adv-x="328" 
d="M83 -58q-29 24 -38 65l60 18q7 -22 19.5 -32.5t34.5 -10.5q58 0 61 86q-6 -8 -23 -16.5t-43 -8.5q-51 0 -84.5 32.5t-33.5 86.5t36 87t90 33q66 0 98 -44t32 -124q0 -95 -31 -145.5t-102 -50.5q-47 0 -76 24zM203.5 121q16.5 16 16.5 40t-16.5 40.5t-41.5 16.5t-41 -16
t-16 -41t16 -40.5t41 -15.5t41.5 16z" />
    <glyph glyph-name="Euro" unicode="&#x20ac;" horiz-adv-x="732" 
d="M687 89q-90 -103 -239 -103q-121 0 -209 64t-120 176h-99l22 80h62q-2 28 -2 44t2 44h-84l22 80h79q34 109 122 174.5t205 65.5q145 0 236 -99l-73 -61q-28 32 -69 50t-94 18q-75 0 -133.5 -40t-88.5 -108h245l-23 -80h-244q-3 -22 -3 -45q0 -15 2 -43h221l-23 -80h-178
q28 -71 87.5 -110t138.5 -39q104 0 165 70z" />
    <glyph glyph-name="uni20BF" unicode="&#x20bf;" horiz-adv-x="576" 
d="M486.5 88q-44.5 -50 -122.5 -61v-77h-73v74h-55v-74h-74v74h-85v654h85v62h74v-62h55v62h73v-66q70 -13 106 -58t36 -111q0 -50 -22 -85t-59 -55v-2q42 -14 74 -51t32 -101q0 -73 -44.5 -123zM387 569.5q-28 25.5 -77 25.5h-140v-199h140q51 0 78 28t27 75q0 45 -28 70.5
zM407.5 136.5q29.5 30.5 29.5 76.5q0 47 -30 75.5t-93 28.5h-144v-211h152q56 0 85.5 30.5z" />
    <glyph glyph-name="trademark" unicode="&#x2122;" horiz-adv-x="570" 
d="M50 700h181v-42h-67v-197h-46v197h-68v42zM520 461h-46v155l-66 -155h-31l-66 153v-153h-45v239h50l76 -177l76 177h52v-239z" />
    <glyph glyph-name="estimated" unicode="&#x212e;" horiz-adv-x="893" 
d="M239.5 30.5q-89.5 44.5 -139.5 127t-50 191.5q0 107 50.5 190t140.5 128.5t206 45.5q178 -2 283 -99t113 -276h-632q-8 0 -12 -3t-4 -15v-178q0 -20 34 -50.5t92 -53.5t129 -23t137.5 32t110.5 82h75q-74 -81 -145.5 -112t-182.5 -31q-116 0 -205.5 44.5zM678 361
q11 0 14.5 4t3.5 14v173q0 29 -39 60.5t-98 53t-115 21.5q-65 -1 -122 -24.5t-92 -54.5t-35 -48v-190q0 -9 17 -9h466z" />
    <glyph glyph-name="uni2153" unicode="&#x2153;" horiz-adv-x="842" 
d="M134 623q-13 -8 -33.5 -15t-35.5 -9v68q14 3 35.5 13t33.5 20h68v-350h-68v273zM91 37l563 670l54 -43l-563 -671zM559.5 23.5q-34.5 30.5 -35.5 74.5l64 18q1 -25 17.5 -41.5t42.5 -16.5t43 15.5t17 40.5t-16.5 41t-43.5 16q-10 0 -21 -3l-35 41l81 77h-136v64h217v-64
l-62 -62q36 -6 60.5 -34t24.5 -76q0 -53 -36.5 -87t-92.5 -34q-54 0 -88.5 30.5z" />
    <glyph glyph-name="uni2154" unicode="&#x2154;" horiz-adv-x="879" 
d="M72 415l119 102q26 24 36.5 40t10.5 37q0 20 -14.5 34.5t-37.5 14.5q-26 0 -42 -17t-15 -46l-64 18q2 49 36.5 79t84.5 30q51 0 86.5 -32t35.5 -80q0 -37 -17 -64.5t-51 -57.5l-69 -58h137v-65h-236v65zM135 37l563 670l54 -43l-563 -671zM596.5 23.5
q-34.5 30.5 -35.5 74.5l64 18q1 -25 17.5 -41.5t42.5 -16.5t43 15.5t17 40.5t-16.5 41t-43.5 16q-10 0 -21 -3l-35 41l81 77h-136v64h217v-64l-62 -62q36 -6 60.5 -34t24.5 -76q0 -53 -36.5 -87t-92.5 -34q-54 0 -88.5 30.5z" />
    <glyph glyph-name="uni215F" unicode="&#x215f;" horiz-adv-x="506" 
d="M134 623q-13 -8 -33.5 -15t-35.5 -9v68q14 3 35.5 13t33.5 20h68v-350h-68v273zM90 37l563 670l54 -43l-563 -671z" />
    <glyph glyph-name="arrowleft" unicode="&#x2190;" horiz-adv-x="673" 
d="M623 258h-419l169 -168l-56 -57l-267 266l266 268l56 -57l-169 -171l420 1v-82z" />
    <glyph glyph-name="arrowup" unicode="&#x2191;" horiz-adv-x="633" 
d="M527 264l-171 169v-419h-80v419l-169 -170l-57 58l266 265l267 -265z" />
    <glyph glyph-name="arrowright" unicode="&#x2192;" horiz-adv-x="673" 
d="M623 299l-267 -266l-56 57l169 168h-419v82l420 -1l-169 171l56 57z" />
    <glyph glyph-name="arrowdown" unicode="&#x2193;" horiz-adv-x="633" 
d="M583 279l-267 -265l-266 265l57 58l169 -170v419h80v-419l171 169z" />
    <glyph glyph-name="arrowboth" unicode="&#x2194;" horiz-adv-x="823" 
d="M773 299l-267 -266l-56 57l169 168h-415l169 -168l-56 -57l-267 266l266 268l56 -57l-168 -170h415l-168 170l56 57z" />
    <glyph glyph-name="arrowupdn" unicode="&#x2195;" horiz-adv-x="634" 
d="M527 263l57 -56l-268 -266l-266 267l57 56l168 -169v415l-168 -169l-57 56l266 267l268 -266l-57 -56l-170 168v-415z" />
    <glyph glyph-name="uni2196" unicode="&#x2196;" horiz-adv-x="533" 
d="M426 81l-296 296v-239h-80v377l376 1v-80l-240 -1l297 -297z" />
    <glyph glyph-name="uni2197" unicode="&#x2197;" horiz-adv-x="533" 
d="M483 515v-377h-80v239l-296 -296l-57 57l297 297l-240 1v80z" />
    <glyph glyph-name="uni2198" unicode="&#x2198;" horiz-adv-x="533" 
d="M483 461v-377l-376 -1v80l240 1l-297 297l57 57l296 -296v239h80z" />
    <glyph glyph-name="uni2199" unicode="&#x2199;" horiz-adv-x="533" 
d="M186 164l240 -1v-80l-376 1v377h80v-239l296 296l57 -57z" />
    <glyph glyph-name="uni21A9" unicode="&#x21a9;" horiz-adv-x="655" 
d="M514 608.5q42 -25.5 66.5 -67.5t24.5 -93t-24.5 -93.5t-67 -68t-93.5 -26.5h-218l132 -132l-56 -57l-228 228l227 228l57 -56l-131 -132h217q44 2 75 33.5t31 75.5q0 43 -31 74.5t-74 32.5v80q51 -1 93 -26.5z" />
    <glyph glyph-name="uni21AA" unicode="&#x21aa;" horiz-adv-x="655" 
d="M605 299l-228 -228l-56 57l132 132h-218q-51 1 -93.5 26.5t-67 68t-24.5 93.5t24.5 93t66.5 67.5t93 26.5v-80q-43 -1 -74 -32.5t-31 -74.5q0 -44 31 -75.5t75 -33.5h217l-131 132l57 56z" />
    <glyph glyph-name="uni21B0" unicode="&#x21b0;" horiz-adv-x="616" 
d="M566 342v-341h-81v261h-283l170 -171l-56 -57l-266 267l267 267l56 -57l-169 -169h362z" />
    <glyph glyph-name="uni21B1" unicode="&#x21b1;" horiz-adv-x="616" 
d="M566 301l-266 -267l-56 57l170 171h-283v-261h-81v341h362l-169 169l56 57z" />
    <glyph glyph-name="uni21B2" unicode="&#x21b2;" horiz-adv-x="616" 
d="M566 600v-341h-362l169 -169l-56 -57l-267 267l266 267l56 -57l-170 -171h283v261h81z" />
    <glyph glyph-name="uni21B3" unicode="&#x21b3;" horiz-adv-x="616" 
d="M566 300l-267 -267l-56 57l169 169h-362v341h81v-261h283l-170 171l56 57z" />
    <glyph glyph-name="uni21B4" unicode="&#x21b4;" horiz-adv-x="643" 
d="M593 321l-266 -267l-268 266l57 56l171 -169v312h-237v81h317l1 -392l168 169z" />
    <glyph glyph-name="partialdiff" unicode="&#x2202;" horiz-adv-x="585" 
d="M163.5 15.5q-55.5 29.5 -87.5 83.5t-32 123q0 70 31 123t84.5 82t120.5 29q54 0 95 -21t61 -46q-4 112 -38 172.5t-116 60.5q-100 0 -131 -107l-88 27q21 79 75.5 125.5t143.5 46.5q139 0 199 -104t60 -298q0 -157 -64 -241.5t-188 -84.5q-70 0 -125.5 29.5zM364 97.5
q33 19.5 51 52.5t18 73q0 63 -40.5 103t-103.5 40q-65 0 -105 -39.5t-40 -103.5t40.5 -104.5t104.5 -40.5q42 0 75 19.5z" />
    <glyph glyph-name="emptyset" unicode="&#x2205;" horiz-adv-x="602" 
d="M502 495q47 -64 47 -145q0 -67 -33.5 -124.5t-91 -91t-124.5 -33.5q-80 0 -144 47l-49 -49l-57 56l49 49q-47 66 -47 146q0 67 33.5 124.5t90.5 91t124 33.5q80 0 146 -47l49 49l57 -56zM157 263l231 231q-40 24 -88 24q-46 0 -84 -22t-59.5 -60.5t-21.5 -85.5
q0 -48 22 -87zM444 437l-231 -231q37 -24 87 -24q47 0 85.5 22t60 60.5t21.5 85.5q0 49 -23 87z" />
    <glyph glyph-name="uni2206" unicode="&#x2206;" horiz-adv-x="668" 
d="M335 700l311 -700h-624zM511 90l-176 404l-178 -404h354z" />
    <glyph glyph-name="product" unicode="&#x220f;" 
d="M507 0h-98v608h-260v-608h-99v700h457v-700z" />
    <glyph glyph-name="summation" unicode="&#x2211;" horiz-adv-x="600" 
d="M550 610h-364l238 -260l-238 -260h364v-90h-500v79l246 271l-246 271v79h500v-90z" />
    <glyph glyph-name="minus" unicode="&#x2212;" horiz-adv-x="600" 
d="M50 395h500v-90h-500v90z" />
    <glyph glyph-name="uni2219" unicode="&#x2219;" horiz-adv-x="600" 
d="M252.5 301.5q-19.5 19.5 -19.5 47.5t19.5 47.5t47.5 19.5t47.5 -19.5t19.5 -47.5t-19.5 -47.5t-47.5 -19.5t-47.5 19.5z" />
    <glyph glyph-name="radical" unicode="&#x221a;" horiz-adv-x="600" 
d="M578 700l-267 -700h-108l-113 305h-70v90h129l108 -284l216 589h105z" />
    <glyph glyph-name="infinity" unicode="&#x221e;" horiz-adv-x="658" 
d="M89.5 251q-39.5 40 -39.5 99t39.5 99t99.5 40q36 0 70 -19.5t70 -61.5q35 41 68 61t71 20q61 0 100.5 -39.5t39.5 -99.5t-39.5 -99.5t-100.5 -39.5q-38 0 -69.5 20t-69.5 62q-37 -43 -70.5 -62.5t-69.5 -19.5q-60 0 -99.5 40zM234 304.5q20 14.5 49 45.5q-29 31 -49 45.5
t-45 14.5t-42 -17t-17 -43t17 -43t42 -17t45 14.5zM510.5 307q16.5 17 16.5 43t-16.5 43t-42.5 17q-23 0 -45.5 -14.5t-47.5 -45.5q25 -31 47.5 -45.5t45.5 -14.5q26 0 42.5 17z" />
    <glyph glyph-name="integral" unicode="&#x222b;" horiz-adv-x="423" 
d="M415 729l-47 -69q-18 18 -49 18q-51 0 -51 -58v-653q0 -63 -37.5 -100.5t-95.5 -37.5q-48 0 -75.5 13.5t-39.5 26.5l47 69q18 -18 49 -18q52 0 52 58v653q0 63 37 100.5t95 37.5q75 0 115 -40z" />
    <glyph glyph-name="approxequal" unicode="&#x2248;" horiz-adv-x="600" 
d="M355.5 171.5q-26.5 7.5 -69.5 22.5q-35 13 -54.5 18.5t-37.5 5.5q-24 0 -43 -12.5t-39 -40.5l-64 53q30 46 64 66.5t77 20.5q30 0 58 -7.5t66 -21.5q35 -13 54.5 -18.5t39.5 -5.5q23 0 41 12t37 39l68 -52q-30 -45 -64 -66t-78 -21q-29 0 -55.5 7.5zM355.5 399.5
q-26.5 7.5 -69.5 22.5q-35 13 -54.5 18.5t-37.5 5.5q-24 0 -43 -12.5t-39 -40.5l-64 53q30 46 64 66.5t77 20.5q30 0 58 -7.5t66 -21.5q35 -13 54.5 -18.5t39.5 -5.5q23 0 41 12t37 39l68 -52q-30 -45 -64 -66t-78 -21q-29 0 -55.5 7.5z" />
    <glyph glyph-name="notequal" unicode="&#x2260;" horiz-adv-x="600" 
d="M382 421l-66 -142h234v-90h-276l-51 -111l-82 38l34 73h-125v90h167l65 142h-232v90h274l51 110l82 -38l-33 -72h126v-90h-168z" />
    <glyph glyph-name="lessequal" unicode="&#x2264;" horiz-adv-x="600" 
d="M551 605l-376 -151l376 -151v-100l-500 201v100l500 201v-100zM50 141h500v-90h-500v90z" />
    <glyph glyph-name="greaterequal" unicode="&#x2265;" horiz-adv-x="600" 
d="M551 504v-100l-501 -201v100l376 151l-376 151v100zM51 141h500v-90h-500v90z" />
    <glyph glyph-name="uni258A" unicode="&#x258a;" horiz-adv-x="600" 
d="M75 700h450v-700h-450v700z" />
    <glyph glyph-name="lozenge" unicode="&#x25ca;" horiz-adv-x="629" 
d="M579 350h-1l-209 -349h-109l-209 349h-1v1h1l209 349h109l209 -349h1v-1zM469 351l-154 258l-155 -258l155 -259z" />
    <glyph glyph-name="uni25D0" unicode="&#x25d0;" horiz-adv-x="597" 
d="M422.5 515.5q57.5 -33.5 91 -91t33.5 -124.5t-33.5 -124.5t-91 -91t-124.5 -33.5t-124 33.5t-90.5 91t-33.5 124.5t33.5 124.5t90.5 91t124 33.5t124.5 -33.5zM397.5 130.5q43.5 25.5 69 69.5t25.5 100q0 55 -25.5 99.5t-69 70t-96.5 26.5v-392q53 1 96.5 26.5z" />
    <glyph glyph-name="smileface" unicode="&#x263a;" horiz-adv-x="828" 
d="M232 35q-84 49 -133 132.5t-49 182.5t49 182.5t133 132.5t182 49q99 0 182.5 -49t132.5 -132.5t49 -182.5t-49 -182.5t-132.5 -132.5t-182.5 -49q-98 0 -182 49zM564 91.5q69 40.5 109.5 109t40.5 149.5t-40.5 149.5t-109.5 109t-150 40.5t-149.5 -40.5t-109 -109
t-40.5 -149.5t40.5 -149.5t109 -109t149.5 -40.5t150 40.5zM258.5 368q-18.5 18 -18.5 43q0 26 18.5 44t43.5 18t43 -18t18 -44q0 -25 -18 -43t-43 -18t-43.5 18zM483 368q-18 18 -18 43q0 26 18 44t43 18q26 0 44 -18t18 -44q0 -25 -18.5 -43t-43.5 -18t-43 18z" />
    <glyph glyph-name="uni2713" unicode="&#x2713;" horiz-adv-x="677" 
d="M627 659l-339 -659h-99l-139 249l75 43l112 -201l306 609z" />
    <glyph glyph-name="uni2B0F" unicode="&#x2b0f;" horiz-adv-x="643" 
d="M536 277l-168 169l-1 -392h-317v81h237v312l-171 -169l-57 56l268 266l266 -267z" />
    <glyph glyph-name="uni2B10" unicode="&#x2b10;" horiz-adv-x="643" 
d="M356 519v-312l171 169l57 -56l-268 -266l-266 267l57 56l168 -169l1 392h317v-81h-237z" />
    <glyph glyph-name="uni2B11" unicode="&#x2b11;" horiz-adv-x="643" 
d="M593 135v-81h-317l-1 392l-168 -169l-57 56l266 267l268 -266l-57 -56l-171 169v-312h237z" />
    <glyph glyph-name="fi" unicode="&#xfb01;" horiz-adv-x="600" 
d="M107 407h-87v88h87v82q0 63 37 100.5t95 37.5q48 0 75.5 -13.5t39.5 -27.5l-48 -67q-5 6 -17.5 12.5t-30.5 6.5q-53 0 -53 -60v-71h135v-88h-135v-407h-98v407zM432 495h98v-495h-98v495zM436 586.5q-19 18.5 -19 45.5q0 26 19 45t46 19q26 0 44.5 -19t18.5 -45
q0 -27 -18.5 -45.5t-44.5 -18.5q-27 0 -46 18.5z" />
    <glyph glyph-name="fl" unicode="&#xfb02;" horiz-adv-x="590" 
d="M107 407h-87v88h87v82q0 63 37 100.5t95 37.5q48 0 75.5 -13.5t39.5 -27.5l-48 -67q-5 6 -17.5 12.5t-30.5 6.5q-53 0 -53 -60v-71h135v-88h-135v-407h-98v407zM427 700h98v-700h-98v700z" />
    <glyph glyph-name="G.ss05" horiz-adv-x="784" 
d="M225.5 32.5q-80.5 46.5 -125.5 129.5t-45 188q0 102 45.5 185t126 131t179.5 48q112 0 187.5 -52t109.5 -141l-93 -32q-25 62 -74.5 97.5t-125.5 35.5q-74 0 -132 -36.5t-90.5 -98.5t-32.5 -137q0 -77 32.5 -139t90.5 -97.5t133 -35.5q71 0 119.5 29.5t73 76.5t26.5 99
h-160v86h259v-57q-2 -94 -40.5 -168t-110.5 -116t-170 -42q-102 0 -182.5 46.5z" />
    <glyph glyph-name="Gbreve.ss05" horiz-adv-x="784" 
d="M314 810.5q-36 35.5 -39 90.5h72q2 -26 18 -42t42 -16t42.5 16t18.5 42h71q-2 -55 -39 -90.5t-94 -35.5q-56 0 -92 35.5zM225.5 32.5q-80.5 46.5 -125.5 129.5t-45 188q0 102 45.5 185t126 131t179.5 48q112 0 187.5 -52t109.5 -141l-93 -32q-25 62 -74.5 97.5
t-125.5 35.5q-74 0 -132 -36.5t-90.5 -98.5t-32.5 -137q0 -77 32.5 -139t90.5 -97.5t133 -35.5q71 0 119.5 29.5t73 76.5t26.5 99h-160v86h259v-57q-2 -94 -40.5 -168t-110.5 -116t-170 -42q-102 0 -182.5 46.5z" />
    <glyph glyph-name="Gcircumflex.ss05" horiz-adv-x="784" 
d="M225.5 32.5q-80.5 46.5 -125.5 129.5t-45 188q0 102 45.5 185t126 131t179.5 48q112 0 187.5 -52t109.5 -141l-93 -32q-25 62 -74.5 97.5t-125.5 35.5q-74 0 -132 -36.5t-90.5 -98.5t-32.5 -137q0 -77 32.5 -139t90.5 -97.5t133 -35.5q71 0 119.5 29.5t73 76.5t26.5 99
h-160v86h259v-57q-2 -94 -40.5 -168t-110.5 -116t-170 -42q-102 0 -182.5 46.5zM463 771l-56 63l-56 -63h-86l90 126h103l90 -126h-85z" />
    <glyph glyph-name="Gcommaaccent.ss05" horiz-adv-x="784" 
d="M225.5 32.5q-80.5 46.5 -125.5 129.5t-45 188q0 102 45.5 185t126 131t179.5 48q112 0 187.5 -52t109.5 -141l-93 -32q-25 62 -74.5 97.5t-125.5 35.5q-74 0 -132 -36.5t-90.5 -98.5t-32.5 -137q0 -77 32.5 -139t90.5 -97.5t133 -35.5q71 0 119.5 29.5t73 76.5t26.5 99
h-160v86h259v-57q-2 -94 -40.5 -168t-110.5 -116t-170 -42q-102 0 -182.5 46.5zM392 -173q-20 4 -32 17.5t-12 33.5q0 26 17.5 40.5t38.5 14.5q26 0 42.5 -16t16.5 -45q0 -31 -16 -63t-43 -53l-36 26q18 21 24 45z" />
    <glyph glyph-name="Gdotaccent.ss05" horiz-adv-x="784" 
d="M225.5 32.5q-80.5 46.5 -125.5 129.5t-45 188q0 102 45.5 185t126 131t179.5 48q112 0 187.5 -52t109.5 -141l-93 -32q-25 62 -74.5 97.5t-125.5 35.5q-74 0 -132 -36.5t-90.5 -98.5t-32.5 -137q0 -77 32.5 -139t90.5 -97.5t133 -35.5q71 0 119.5 29.5t73 76.5t26.5 99
h-160v86h259v-57q-2 -94 -40.5 -168t-110.5 -116t-170 -42q-102 0 -182.5 46.5zM362 790.5q-19 18.5 -19 45.5q0 26 19 45t46 19q26 0 44.5 -19t18.5 -45q0 -27 -18.5 -45.5t-44.5 -18.5q-27 0 -46 18.5z" />
    <glyph glyph-name="i.loclTRK" horiz-adv-x="238" 
d="M70 495h98v-495h-98v495zM74 586.5q-19 18.5 -19 45.5q0 26 19 45t46 19q26 0 44.5 -19t18.5 -45q0 -27 -18.5 -45.5t-44.5 -18.5q-27 0 -46 18.5z" />
    <glyph glyph-name="a.ss01" horiz-adv-x="531" 
d="M521 -5q-1 0 -14.5 -4.5t-36.5 -4.5q-82 0 -103 63q-22 -28 -59.5 -45.5t-94.5 -17.5q-51 0 -90 19.5t-60 54t-21 77.5q0 65 44.5 106.5t148.5 56.5l119 17v10q0 101 -106 101q-52 0 -78.5 -23.5t-32.5 -66.5l-87 21q36 149 200 149q91 0 146.5 -45.5t55.5 -134.5v-229
q0 -35 34 -35q8 0 12.5 1.5t5.5 1.5zM354 240l-111 -17q-54 -8 -80 -26.5t-26 -54.5q0 -34 27 -54.5t73 -20.5q49 0 83 28t34 81v64z" />
    <glyph glyph-name="aacute.ss01" horiz-adv-x="531" 
d="M521 -5q-1 0 -14.5 -4.5t-36.5 -4.5q-82 0 -103 63q-22 -28 -59.5 -45.5t-94.5 -17.5q-51 0 -90 19.5t-60 54t-21 77.5q0 65 44.5 106.5t148.5 56.5l119 17v10q0 101 -106 101q-52 0 -78.5 -23.5t-32.5 -66.5l-87 21q36 149 200 149q91 0 146.5 -45.5t55.5 -134.5v-229
q0 -35 34 -35q8 0 12.5 1.5t5.5 1.5zM354 240l-111 -17q-54 -8 -80 -26.5t-26 -54.5q0 -34 27 -54.5t73 -20.5q49 0 83 28t34 81v64zM271 694h127l-107 -126h-87z" />
    <glyph glyph-name="abreve.ss01" horiz-adv-x="531" 
d="M521 -5q-1 0 -14.5 -4.5t-36.5 -4.5q-82 0 -103 63q-22 -28 -59.5 -45.5t-94.5 -17.5q-51 0 -90 19.5t-60 54t-21 77.5q0 65 44.5 106.5t148.5 56.5l119 17v10q0 101 -106 101q-52 0 -78.5 -23.5t-32.5 -66.5l-87 21q36 149 200 149q91 0 146.5 -45.5t55.5 -134.5v-229
q0 -35 34 -35q8 0 12.5 1.5t5.5 1.5zM354 240l-111 -17q-54 -8 -80 -26.5t-26 -54.5q0 -34 27 -54.5t73 -20.5q49 0 83 28t34 81v64zM158 604.5q-36 35.5 -39 90.5h72q2 -26 18 -42t42 -16t42.5 16t18.5 42h71q-2 -55 -39 -90.5t-94 -35.5q-56 0 -92 35.5z" />
    <glyph glyph-name="acircumflex.ss01" horiz-adv-x="531" 
d="M521 -5q-1 0 -14.5 -4.5t-36.5 -4.5q-82 0 -103 63q-22 -28 -59.5 -45.5t-94.5 -17.5q-51 0 -90 19.5t-60 54t-21 77.5q0 65 44.5 106.5t148.5 56.5l119 17v10q0 101 -106 101q-52 0 -78.5 -23.5t-32.5 -66.5l-87 21q36 149 200 149q91 0 146.5 -45.5t55.5 -134.5v-229
q0 -35 34 -35q8 0 12.5 1.5t5.5 1.5zM354 240l-111 -17q-54 -8 -80 -26.5t-26 -54.5q0 -34 27 -54.5t73 -20.5q49 0 83 28t34 81v64zM307 568l-56 63l-56 -63h-86l90 126h103l90 -126h-85z" />
    <glyph glyph-name="adieresis.ss01" horiz-adv-x="531" 
d="M521 -5q-1 0 -14.5 -4.5t-36.5 -4.5q-82 0 -103 63q-22 -28 -59.5 -45.5t-94.5 -17.5q-51 0 -90 19.5t-60 54t-21 77.5q0 65 44.5 106.5t148.5 56.5l119 17v10q0 101 -106 101q-52 0 -78.5 -23.5t-32.5 -66.5l-87 21q36 149 200 149q91 0 146.5 -45.5t55.5 -134.5v-229
q0 -35 34 -35q8 0 12.5 1.5t5.5 1.5zM354 240l-111 -17q-54 -8 -80 -26.5t-26 -54.5q0 -34 27 -54.5t73 -20.5q49 0 83 28t34 81v64zM122 586q-19 19 -19 45t19 45t45 19t45 -19t19 -45t-19 -45t-45 -19t-45 19zM290 586q-19 19 -19 45t19 45t45 19t45 -19t19 -45t-19 -45
t-45 -19t-45 19z" />
    <glyph glyph-name="agrave.ss01" horiz-adv-x="531" 
d="M521 -5q-1 0 -14.5 -4.5t-36.5 -4.5q-82 0 -103 63q-22 -28 -59.5 -45.5t-94.5 -17.5q-51 0 -90 19.5t-60 54t-21 77.5q0 65 44.5 106.5t148.5 56.5l119 17v10q0 101 -106 101q-52 0 -78.5 -23.5t-32.5 -66.5l-87 21q36 149 200 149q91 0 146.5 -45.5t55.5 -134.5v-229
q0 -35 34 -35q8 0 12.5 1.5t5.5 1.5zM354 240l-111 -17q-54 -8 -80 -26.5t-26 -54.5q0 -34 27 -54.5t73 -20.5q49 0 83 28t34 81v64zM104 694h127l67 -126h-87z" />
    <glyph glyph-name="amacron.ss01" horiz-adv-x="531" 
d="M145 670h212v-76h-212v76zM521 -5q-1 0 -14.5 -4.5t-36.5 -4.5q-82 0 -103 63q-22 -28 -59.5 -45.5t-94.5 -17.5q-51 0 -90 19.5t-60 54t-21 77.5q0 65 44.5 106.5t148.5 56.5l119 17v10q0 101 -106 101q-52 0 -78.5 -23.5t-32.5 -66.5l-87 21q36 149 200 149
q91 0 146.5 -45.5t55.5 -134.5v-229q0 -35 34 -35q8 0 12.5 1.5t5.5 1.5zM354 240l-111 -17q-54 -8 -80 -26.5t-26 -54.5q0 -34 27 -54.5t73 -20.5q49 0 83 28t34 81v64z" />
    <glyph glyph-name="aogonek.ss01" horiz-adv-x="531" 
d="M450 -109.5q13 -11.5 37 -11.5h6l-1 -66q-7 -1 -20 -1q-51 0 -80.5 24.5t-29.5 64.5q0 55 49 97q-32 15 -44 51q-22 -28 -59.5 -45.5t-94.5 -17.5q-51 0 -90 19.5t-60 54t-21 77.5q0 65 44.5 106.5t148.5 56.5l119 17v10q0 101 -106 101q-52 0 -78.5 -23.5t-32.5 -66.5
l-87 21q36 149 200 149q91 0 146.5 -45.5t55.5 -134.5v-229q0 -35 34 -35q8 0 12.5 1.5t5.5 1.5l17 -72q-1 0 -11.5 -3.5t-25.5 -4.5q-47 -30 -47 -67q0 -18 13 -29.5zM354 240l-111 -17q-54 -8 -80 -26.5t-26 -54.5q0 -34 27 -54.5t73 -20.5q49 0 83 28t34 81v64z" />
    <glyph glyph-name="aring.ss01" horiz-adv-x="531" 
d="M521 -5q-1 0 -14.5 -4.5t-36.5 -4.5q-82 0 -103 63q-22 -28 -59.5 -45.5t-94.5 -17.5q-51 0 -90 19.5t-60 54t-21 77.5q0 65 44.5 106.5t148.5 56.5l119 17v10q0 101 -106 101q-52 0 -78.5 -23.5t-32.5 -66.5l-87 21q36 149 200 149q91 0 146.5 -45.5t55.5 -134.5v-229
q0 -35 34 -35q8 0 12.5 1.5t5.5 1.5zM354 240l-111 -17q-54 -8 -80 -26.5t-26 -54.5q0 -34 27 -54.5t73 -20.5q49 0 83 28t34 81v64zM187 570q-27 27 -27 65t27 65t64 27q38 0 65 -27t27 -65q0 -37 -27 -64.5t-65 -27.5q-37 0 -64 27zM275 611q10 10 10 24t-10 24t-24 10
t-24 -10t-10 -24t10 -24t24 -10t24 10z" />
    <glyph glyph-name="atilde.ss01" horiz-adv-x="531" 
d="M521 -5q-1 0 -14.5 -4.5t-36.5 -4.5q-82 0 -103 63q-22 -28 -59.5 -45.5t-94.5 -17.5q-51 0 -90 19.5t-60 54t-21 77.5q0 65 44.5 106.5t148.5 56.5l119 17v10q0 101 -106 101q-52 0 -78.5 -23.5t-32.5 -66.5l-87 21q36 149 200 149q91 0 146.5 -45.5t55.5 -134.5v-229
q0 -35 34 -35q8 0 12.5 1.5t5.5 1.5zM354 240l-111 -17q-54 -8 -80 -26.5t-26 -54.5q0 -34 27 -54.5t73 -20.5q49 0 83 28t34 81v64zM275 580q-15 5 -36 15q-28 15 -45 15q-13 0 -25.5 -9t-22.5 -28l-55 37q28 75 96 75q20 0 34.5 -4.5t34.5 -14.5q17 -8 27 -12t23 -4
q27 0 47 39l57 -38q-14 -38 -40.5 -57t-59.5 -19q-20 0 -35 5z" />
    <glyph glyph-name="a.ss02" horiz-adv-x="606" 
d="M156.5 23.5q-54.5 36.5 -84.5 96.5t-30 128q0 70 28.5 129.5t82.5 95.5t126 36q55 0 97 -22t67 -56v64h98v-495h-81l-13 67q-25 -34 -67 -57t-100 -23q-69 0 -123.5 36.5zM401 123.5q42 48.5 42 124.5t-42 124.5t-109 48.5q-44 0 -78.5 -22t-54 -61.5t-19.5 -89.5
q0 -49 19.5 -88.5t54 -62t78.5 -22.5q67 0 109 48.5z" />
    <glyph glyph-name="aacute.ss02" horiz-adv-x="606" 
d="M308 695h127l-107 -126h-87zM156.5 23.5q-54.5 36.5 -84.5 96.5t-30 128q0 70 28.5 129.5t82.5 95.5t126 36q55 0 97 -22t67 -56v64h98v-495h-81l-13 67q-25 -34 -67 -57t-100 -23q-69 0 -123.5 36.5zM401 123.5q42 48.5 42 124.5t-42 124.5t-109 48.5q-44 0 -78.5 -22
t-54 -61.5t-19.5 -89.5q0 -49 19.5 -88.5t54 -62t78.5 -22.5q67 0 109 48.5z" />
    <glyph glyph-name="abreve.ss02" horiz-adv-x="606" 
d="M156.5 23.5q-54.5 36.5 -84.5 96.5t-30 128q0 70 28.5 129.5t82.5 95.5t126 36q55 0 97 -22t67 -56v64h98v-495h-81l-13 67q-25 -34 -67 -57t-100 -23q-69 0 -123.5 36.5zM401 123.5q42 48.5 42 124.5t-42 124.5t-109 48.5q-44 0 -78.5 -22t-54 -61.5t-19.5 -89.5
q0 -49 19.5 -88.5t54 -62t78.5 -22.5q67 0 109 48.5zM195 605.5q-36 35.5 -39 90.5h72q2 -26 18 -42t42 -16t42.5 16t18.5 42h71q-2 -55 -39 -90.5t-94 -35.5q-56 0 -92 35.5z" />
    <glyph glyph-name="acircumflex.ss02" horiz-adv-x="606" 
d="M156.5 23.5q-54.5 36.5 -84.5 96.5t-30 128q0 70 28.5 129.5t82.5 95.5t126 36q55 0 97 -22t67 -56v64h98v-495h-81l-13 67q-25 -34 -67 -57t-100 -23q-69 0 -123.5 36.5zM401 123.5q42 48.5 42 124.5t-42 124.5t-109 48.5q-44 0 -78.5 -22t-54 -61.5t-19.5 -89.5
q0 -49 19.5 -88.5t54 -62t78.5 -22.5q67 0 109 48.5zM344 569l-56 63l-56 -63h-86l90 126h103l90 -126h-85z" />
    <glyph glyph-name="adieresis.ss02" horiz-adv-x="606" 
d="M156.5 23.5q-54.5 36.5 -84.5 96.5t-30 128q0 70 28.5 129.5t82.5 95.5t126 36q55 0 97 -22t67 -56v64h98v-495h-81l-13 67q-25 -34 -67 -57t-100 -23q-69 0 -123.5 36.5zM401 123.5q42 48.5 42 124.5t-42 124.5t-109 48.5q-44 0 -78.5 -22t-54 -61.5t-19.5 -89.5
q0 -49 19.5 -88.5t54 -62t78.5 -22.5q67 0 109 48.5zM159 587q-19 19 -19 45t19 45t45 19t45 -19t19 -45t-19 -45t-45 -19t-45 19zM327 587q-19 19 -19 45t19 45t45 19t45 -19t19 -45t-19 -45t-45 -19t-45 19z" />
    <glyph glyph-name="agrave.ss02" horiz-adv-x="606" 
d="M156.5 23.5q-54.5 36.5 -84.5 96.5t-30 128q0 70 28.5 129.5t82.5 95.5t126 36q55 0 97 -22t67 -56v64h98v-495h-81l-13 67q-25 -34 -67 -57t-100 -23q-69 0 -123.5 36.5zM401 123.5q42 48.5 42 124.5t-42 124.5t-109 48.5q-44 0 -78.5 -22t-54 -61.5t-19.5 -89.5
q0 -49 19.5 -88.5t54 -62t78.5 -22.5q67 0 109 48.5zM141 695h127l67 -126h-87z" />
    <glyph glyph-name="amacron.ss02" horiz-adv-x="606" 
d="M156.5 23.5q-54.5 36.5 -84.5 96.5t-30 128q0 70 28.5 129.5t82.5 95.5t126 36q55 0 97 -22t67 -56v64h98v-495h-81l-13 67q-25 -34 -67 -57t-100 -23q-69 0 -123.5 36.5zM401 123.5q42 48.5 42 124.5t-42 124.5t-109 48.5q-44 0 -78.5 -22t-54 -61.5t-19.5 -89.5
q0 -49 19.5 -88.5t54 -62t78.5 -22.5q67 0 109 48.5zM182 670h212v-76h-212v76z" />
    <glyph glyph-name="aogonek.ss02" horiz-adv-x="606" 
d="M494 -104.5q13 -11.5 37 -11.5h6l-1 -66q-7 -1 -20 -1q-51 0 -80.5 24.5t-29.5 64.5q0 31 14.5 56.5t38.5 43.5l-12 61q-25 -34 -67 -57t-100 -23q-69 0 -123.5 36.5t-84.5 96.5t-30 128q0 70 28.5 129.5t82.5 95.5t126 36q55 0 97 -22t67 -56v64h98v-494l2 -1
q-62 -32 -62 -75q0 -18 13 -29.5zM401 123.5q42 48.5 42 124.5t-42 124.5t-109 48.5q-44 0 -78.5 -22t-54 -61.5t-19.5 -89.5q0 -49 19.5 -88.5t54 -62t78.5 -22.5q67 0 109 48.5z" />
    <glyph glyph-name="aring.ss02" horiz-adv-x="606" 
d="M156.5 23.5q-54.5 36.5 -84.5 96.5t-30 128q0 70 28.5 129.5t82.5 95.5t126 36q55 0 97 -22t67 -56v64h98v-495h-81l-13 67q-25 -34 -67 -57t-100 -23q-69 0 -123.5 36.5zM401 123.5q42 48.5 42 124.5t-42 124.5t-109 48.5q-44 0 -78.5 -22t-54 -61.5t-19.5 -89.5
q0 -49 19.5 -88.5t54 -62t78.5 -22.5q67 0 109 48.5zM224 571q-27 27 -27 65t27 65t64 27q38 0 65 -27t27 -65q0 -37 -27 -64.5t-65 -27.5q-37 0 -64 27zM312 612q10 10 10 24t-10 24t-24 10t-24 -10t-10 -24t10 -24t24 -10t24 10z" />
    <glyph glyph-name="atilde.ss02" horiz-adv-x="606" 
d="M156.5 23.5q-54.5 36.5 -84.5 96.5t-30 128q0 70 28.5 129.5t82.5 95.5t126 36q55 0 97 -22t67 -56v64h98v-495h-81l-13 67q-25 -34 -67 -57t-100 -23q-69 0 -123.5 36.5zM401 123.5q42 48.5 42 124.5t-42 124.5t-109 48.5q-44 0 -78.5 -22t-54 -61.5t-19.5 -89.5
q0 -49 19.5 -88.5t54 -62t78.5 -22.5q67 0 109 48.5zM312 581q-15 5 -36 15q-28 15 -45 15q-13 0 -25.5 -9t-22.5 -28l-55 37q28 75 96 75q20 0 34.5 -4.5t34.5 -14.5q17 -8 27 -12t23 -4q27 0 47 39l57 -38q-14 -38 -40.5 -57t-59.5 -19q-20 0 -35 5z" />
    <glyph glyph-name="l.ss03" horiz-adv-x="274" 
d="M96 15.5q-31 29.5 -31 87.5v597h98v-585q0 -19 10 -29.5t28 -10.5q20 0 34 6l23 -80q-11 -6 -32.5 -10.5t-46.5 -4.5q-52 0 -83 29.5z" />
    <glyph glyph-name="lacute.ss03" horiz-adv-x="283" 
d="M140 897h127l-107 -126h-87zM97 15.5q-31 29.5 -31 87.5v597h98v-585q0 -19 10 -29.5t28 -10.5q20 0 34 6l23 -80q-11 -6 -32.5 -10.5t-46.5 -4.5q-52 0 -83 29.5z" />
    <glyph glyph-name="lcaron.ss03" horiz-adv-x="286" 
d="M96 15.5q-31 29.5 -31 87.5v597h98v-585q0 -19 10 -29.5t28 -10.5q20 0 34 6l23 -80q-11 -6 -32.5 -10.5t-46.5 -4.5q-52 0 -83 29.5zM241 700h102l-73 -126h-66z" />
    <glyph glyph-name="lcommaaccent.ss03" horiz-adv-x="274" 
d="M153 -165q-20 4 -32 17.5t-12 33.5q0 26 17.5 40.5t38.5 14.5q26 0 42.5 -16t16.5 -45q0 -31 -16 -63t-43 -53l-36 26q18 21 24 45zM96 15.5q-31 29.5 -31 87.5v597h98v-585q0 -19 10 -29.5t28 -10.5q20 0 34 6l23 -80q-11 -6 -32.5 -10.5t-46.5 -4.5q-52 0 -83 29.5z
" />
    <glyph glyph-name="ldot.ss03" horiz-adv-x="357" 
d="M247.5 302.5q-19.5 19.5 -19.5 47.5t19.5 47.5t47.5 19.5t47.5 -19.5t19.5 -47.5t-19.5 -47.5t-47.5 -19.5t-47.5 19.5zM96 15.5q-31 29.5 -31 87.5v597h98v-585q0 -19 10 -29.5t28 -10.5q20 0 34 6l23 -80q-11 -6 -32.5 -10.5t-46.5 -4.5q-52 0 -83 29.5z" />
    <glyph glyph-name="lslash.ss03" horiz-adv-x="318" 
d="M278 81l23 -80q-11 -6 -32.5 -10.5t-46.5 -4.5q-52 0 -83 29.5t-31 87.5v161l-56 -42l-47 66l103 77v335h98v-261l57 43l47 -65l-104 -79v-223q0 -19 10 -29.5t28 -10.5q20 0 34 6z" />
    <glyph glyph-name="y.ss04" horiz-adv-x="511" 
d="M495 495l-232 -608q-22 -54 -57 -80.5t-86 -26.5q-41 0 -71.5 17t-48.5 45l77 50q5 -10 17 -16t27 -6q22 0 34.5 11t20.5 35l37 98l-191 481h101l137 -354l133 354h102z" />
    <glyph glyph-name="yacute.ss04" horiz-adv-x="511" 
d="M495 495l-232 -608q-22 -54 -57 -80.5t-86 -26.5q-41 0 -71.5 17t-48.5 45l77 50q5 -10 17 -16t27 -6q22 0 34.5 11t20.5 35l37 98l-191 481h101l137 -354l133 354h102zM276 695h127l-107 -126h-87z" />
    <glyph glyph-name="ycircumflex.ss04" horiz-adv-x="511" 
d="M495 495l-232 -608q-22 -54 -57 -80.5t-86 -26.5q-41 0 -71.5 17t-48.5 45l77 50q5 -10 17 -16t27 -6q22 0 34.5 11t20.5 35l37 98l-191 481h101l137 -354l133 354h102zM312 569l-56 63l-56 -63h-86l90 126h103l90 -126h-85z" />
    <glyph glyph-name="ydieresis.ss04" horiz-adv-x="511" 
d="M495 495l-232 -608q-22 -54 -57 -80.5t-86 -26.5q-41 0 -71.5 17t-48.5 45l77 50q5 -10 17 -16t27 -6q22 0 34.5 11t20.5 35l37 98l-191 481h101l137 -354l133 354h102zM127 587q-19 19 -19 45t19 45t45 19t45 -19t19 -45t-19 -45t-45 -19t-45 19zM295 587q-19 19 -19 45
t19 45t45 19t45 -19t19 -45t-19 -45t-45 -19t-45 19z" />
    <glyph glyph-name="ygrave.ss04" horiz-adv-x="511" 
d="M495 495l-232 -608q-22 -54 -57 -80.5t-86 -26.5q-41 0 -71.5 17t-48.5 45l77 50q5 -10 17 -16t27 -6q22 0 34.5 11t20.5 35l37 98l-191 481h101l137 -354l133 354h102zM109 695h127l67 -126h-87z" />
    <glyph glyph-name="f_f.dlig" horiz-adv-x="682" 
d="M526 495h134v-88h-134v-407h-98v407h-223v-407h-98v407h-87v88h87v82q0 63 37 100.5t95 37.5q48 0 75.5 -13.5t39.5 -27.5l-48 -67q-5 6 -17.5 12.5t-30.5 6.5q-53 0 -53 -60v-71h223v82q0 63 37 100.5t94 37.5q48 0 75.5 -13.5t39.5 -27.5l-47 -67q-19 19 -49 19
q-52 0 -52 -60v-71z" />
    <glyph glyph-name="f_f_i.dlig" horiz-adv-x="916" 
d="M846 0h-98v407h-222v-407h-98v407h-223v-407h-98v407h-87v88h87v82q0 63 37 100.5t95 37.5q48 0 75.5 -13.5t39.5 -27.5l-48 -67q-5 6 -17.5 12.5t-30.5 6.5q-53 0 -53 -60v-71h223v82q0 63 37 100.5t94 37.5q48 0 75.5 -13.5t39.5 -27.5l-47 -67q-19 19 -49 19
q-52 0 -52 -60v-71h320v-495zM752 586.5q-19 18.5 -19 45.5q0 26 19 45t46 19q26 0 44.5 -19t18.5 -45q0 -27 -18.5 -45.5t-44.5 -18.5q-27 0 -46 18.5z" />
    <glyph glyph-name="f_f_j.dlig" horiz-adv-x="914" 
d="M845 -80q0 -63 -37.5 -101t-94.5 -38q-40 0 -67.5 12t-39.5 26l45 70q16 -18 46 -18q50 0 50 60v476h-221v-407h-98v407h-223v-407h-98v407h-87v88h87v82q0 63 37 100.5t95 37.5q48 0 75.5 -13.5t39.5 -27.5l-48 -67q-5 6 -17.5 12.5t-30.5 6.5q-53 0 -53 -60v-71h223v82
q0 63 37 100.5t94 37.5q48 0 75.5 -13.5t39.5 -27.5l-47 -67q-19 19 -49 19q-52 0 -52 -60v-71h319v-575zM751 586.5q-19 18.5 -19 45.5q0 26 19 45t46 19q26 0 44.5 -19t18.5 -45q0 -27 -18.5 -45.5t-44.5 -18.5q-27 0 -46 18.5z" />
    <glyph glyph-name="f_f_l.dlig" horiz-adv-x="911" 
d="M846 700v-700h-98v407h-222v-407h-98v407h-223v-407h-98v407h-87v88h87v82q0 63 37 100.5t95 37.5q48 0 75.5 -13.5t39.5 -27.5l-48 -67q-5 6 -17.5 12.5t-30.5 6.5q-53 0 -53 -60v-71h223v82q0 63 37 100.5t94 37.5q48 0 75.5 -13.5t39.5 -27.5l-47 -67q-19 19 -49 19
q-52 0 -52 -60v-71h222v205h98z" />
    <glyph glyph-name="f_i.dlig" horiz-adv-x="596" 
d="M525 0h-98v407h-222v-407h-98v407h-87v88h87v82q0 63 37 100.5t95 37.5q48 0 75.5 -13.5t39.5 -27.5l-48 -67q-5 6 -17.5 12.5t-30.5 6.5q-53 0 -53 -60v-71h320v-495zM431 586.5q-19 18.5 -19 45.5q0 26 19 45t46 19q26 0 44.5 -19t18.5 -45q0 -27 -18.5 -45.5
t-44.5 -18.5q-27 0 -46 18.5z" />
    <glyph glyph-name="f_j.dlig" horiz-adv-x="594" 
d="M525 -80q0 -63 -37.5 -101t-94.5 -38q-40 0 -67.5 12t-39.5 26l45 70q16 -18 46 -18q50 0 50 60v476h-222v-407h-98v407h-87v88h87v82q0 63 37 100.5t95 37.5q48 0 75.5 -13.5t39.5 -27.5l-48 -67q-5 6 -17.5 12.5t-30.5 6.5q-53 0 -53 -60v-71h320v-575zM431 586.5
q-19 18.5 -19 45.5q0 26 19 45t46 19q26 0 44.5 -19t18.5 -45q0 -27 -18.5 -45.5t-44.5 -18.5q-27 0 -46 18.5z" />
    <glyph glyph-name="f_l.dlig" horiz-adv-x="591" 
d="M526 700v-700h-98v407h-223v-407h-98v407h-87v88h87v82q0 63 37 100.5t95 37.5q48 0 75.5 -13.5t39.5 -27.5l-48 -67q-5 6 -17.5 12.5t-30.5 6.5q-53 0 -53 -60v-71h223v205h98z" />
    <glyph glyph-name="fl.dlig" horiz-adv-x="591" 
d="M526 700v-700h-98v407h-223v-407h-98v407h-87v88h87v82q0 63 37 100.5t95 37.5q48 0 75.5 -13.5t39.5 -27.5l-48 -67q-5 6 -17.5 12.5t-30.5 6.5q-53 0 -53 -60v-71h223v205h98z" />
    <glyph glyph-name="zero.tf" horiz-adv-x="600" 
d="M107 88q-65 102 -65 265q0 103 28 184.5t86 129t144 47.5q85 0 143 -47.5t86 -129t28 -184.5q0 -105 -27.5 -187.5t-85 -131t-143.5 -48.5q-129 0 -194 102zM418.5 153q38.5 75 38.5 197q0 120 -39.5 196t-117.5 76q-80 0 -119.5 -76t-39.5 -196q0 -121 39.5 -196.5
t120.5 -75.5q79 0 117.5 75z" />
    <glyph glyph-name="one.tf" horiz-adv-x="600" 
d="M525 92v-92h-450v92h176v498q-27 -17 -69 -31.5t-76 -19.5v98q33 6 73 23.5t72 39.5h100v-608h174z" />
    <glyph glyph-name="two.tf" horiz-adv-x="600" 
d="M81 93l234 206q44 38 68 64t40 59t16 73q0 54 -37.5 90.5t-96.5 36.5q-62 0 -103 -41t-41 -108l-93 27q3 64 35.5 112.5t85.5 75t116 26.5q66 0 119.5 -28t84 -78t30.5 -112q0 -56 -20 -101t-51.5 -80t-82.5 -79l-163 -144h318v-92h-459v93z" />
    <glyph glyph-name="three.tf" horiz-adv-x="600" 
d="M175.5 13.5q-54.5 27.5 -85.5 74.5t-33 102l92 27q3 -59 45.5 -99t104.5 -40q66 0 108 40.5t42 101.5q0 63 -40.5 103t-109.5 40q-27 0 -51 -8l-51 62l187 191h-305v92h424v-92l-158 -165q91 -5 147.5 -64.5t56.5 -158.5q0 -66 -32 -119.5t-89 -84t-129 -30.5
q-69 0 -123.5 27.5z" />
    <glyph glyph-name="four.tf" horiz-adv-x="600" 
d="M357 183h-316v76l311 441h105v-431h91v-86h-91v-183h-100v183zM357 269v291l-208 -292z" />
    <glyph glyph-name="five.tf" horiz-adv-x="600" 
d="M180 13q-55 27 -87 71.5t-36 95.5l93 28q5 -58 47.5 -94t103.5 -36q66 0 107.5 41t41.5 105q0 63 -42 104t-107 41q-40 0 -73.5 -15.5t-50.5 -37.5l-89 31l38 353h377v-92h-293l-20 -186q18 13 49.5 23.5t67.5 10.5q71 0 126 -29t85.5 -82t30.5 -121q0 -70 -32.5 -124
t-89.5 -84t-126 -30q-66 0 -121 27z" />
    <glyph glyph-name="six.tf" horiz-adv-x="600" 
d="M113 70.5q-64 84.5 -64 241.5q0 194 60 298t199 104q89 0 143.5 -46.5t75.5 -125.5l-88 -27q-31 107 -131 107q-82 0 -116 -60.5t-38 -172.5q20 25 61 46t95 21q67 0 120.5 -29t84.5 -82t31 -123q0 -69 -32 -123t-87.5 -83.5t-125.5 -29.5q-124 0 -188 84.5zM406 118.5
q40 40.5 40 104.5t-40 103.5t-105 39.5q-63 0 -103.5 -40t-40.5 -103q0 -40 18 -73t51 -52.5t75 -19.5q65 0 105 40.5z" />
    <glyph glyph-name="seven.tf" horiz-adv-x="600" 
d="M281 318.5q68 177.5 134 289.5h-343v92h455v-92q-71 -111 -142.5 -288.5t-97.5 -319.5h-100q26 141 94 318.5z" />
    <glyph glyph-name="eight.tf" horiz-adv-x="600" 
d="M515.5 305.5q25.5 -45.5 25.5 -101.5q0 -64 -31.5 -114t-86.5 -77.5t-124 -27.5q-70 0 -125.5 27.5t-86.5 77.5t-31 114q0 56 25.5 101t72.5 73q-33 25 -51 61.5t-18 79.5q0 56 27.5 100.5t76.5 69t110 24.5q60 0 109 -25t77 -69t28 -100q0 -43 -18 -79.5t-51 -61.5
q46 -27 71.5 -72.5zM216 444.5q33 -28.5 83 -28.5q49 0 82.5 28.5t33.5 76.5t-33.5 77t-82.5 29q-50 0 -83 -29t-33 -77t33 -76.5zM400 110.5q41 35.5 41 93.5q0 60 -41 95t-101 35t-101.5 -35.5t-41.5 -94.5q0 -58 42 -93.5t101 -35.5q60 0 101 35.5z" />
    <glyph glyph-name="nine.tf" horiz-adv-x="600" 
d="M482 629.5q64 -84.5 64 -241.5q0 -194 -60 -298t-199 -104q-89 0 -143.5 46.5t-75.5 125.5l88 27q31 -107 131 -107q82 0 116 60.5t38 172.5q-20 -25 -61 -46t-95 -21q-67 0 -120.5 29t-84.5 82t-31 123q0 69 32 123t87.5 83.5t125.5 29.5q124 0 188 -84.5zM189.5 582
q-40.5 -40 -40.5 -105q0 -64 40 -103.5t105 -39.5q63 0 103.5 40t40.5 103q0 40 -18 73t-51 52.5t-75 19.5q-64 0 -104.5 -40z" />
    <glyph glyph-name="zero.tf.zero" horiz-adv-x="600" 
d="M443 665.5q58 -47.5 86 -129t28 -184.5q0 -105 -27.5 -187.5t-85 -131t-143.5 -48.5q-129 0 -194 102t-65 265q0 103 28 184.5t86 129t144 47.5q85 0 143 -47.5zM180.5 545q-39.5 -76 -39.5 -196q0 -66 12 -122l247 345q-40 49 -100 49q-80 0 -119.5 -76zM418.5 152
q38.5 75 38.5 197q0 65 -12 120l-246 -344q40 -48 102 -48q79 0 117.5 75z" />
    <glyph glyph-name="zero.zero" horiz-adv-x="603" 
d="M445 665.5q58 -47.5 86 -129t28 -184.5q0 -105 -27.5 -187.5t-85 -131t-143.5 -48.5q-129 0 -194 102t-65 265q0 103 28 184.5t86 129t144 47.5q85 0 143 -47.5zM182.5 545q-39.5 -76 -39.5 -196q0 -66 12 -122l247 345q-40 49 -100 49q-80 0 -119.5 -76zM420.5 152
q38.5 75 38.5 197q0 65 -12 120l-246 -344q40 -48 102 -48q79 0 117.5 75z" />
    <glyph glyph-name="zero.dnom" horiz-adv-x="336" 
d="M69.5 43q-33.5 50 -33.5 132q0 80 34 131t98 51q65 0 98.5 -50.5t33.5 -131.5t-33.5 -131.5t-97.5 -50.5q-66 0 -99.5 50zM215 87.5q15 31.5 15 87.5q0 54 -15.5 85.5t-46.5 31.5q-32 0 -47.5 -31t-15.5 -86q0 -56 15.5 -87.5t48.5 -31.5q31 0 46 31.5z" />
    <glyph glyph-name="one.dnom" horiz-adv-x="209" 
d="M87 273q-13 -8 -33.5 -15t-35.5 -9v68q14 3 35.5 13t33.5 20h68v-350h-68v273z" />
    <glyph glyph-name="two.dnom" horiz-adv-x="315" 
d="M43 65l119 102q26 24 36.5 40t10.5 37q0 20 -14.5 34.5t-37.5 14.5q-26 0 -42 -17t-15 -46l-64 18q2 49 36.5 79t84.5 30q51 0 86.5 -32t35.5 -80q0 -37 -17 -64.5t-51 -57.5l-69 -58h137v-65h-236v65z" />
    <glyph glyph-name="three.dnom" horiz-adv-x="325" 
d="M71.5 23.5q-34.5 30.5 -35.5 74.5l64 18q1 -25 17.5 -41.5t42.5 -16.5t43 15.5t17 40.5t-16.5 41t-43.5 16q-10 0 -21 -3l-35 41l81 77h-136v64h217v-64l-62 -62q36 -6 60.5 -34t24.5 -76q0 -53 -36.5 -87t-92.5 -34q-54 0 -88.5 30.5z" />
    <glyph glyph-name="four.dnom" horiz-adv-x="309" 
d="M180 87h-156v50l150 213h74v-205h37v-58h-37v-87h-69zM180 145l-1 111l-80 -111h81z" />
    <glyph glyph-name="five.dnom" horiz-adv-x="322" 
d="M72.5 22.5q-35.5 29.5 -36.5 70.5l65 20q1 -25 17 -40t41 -15t41.5 16t16.5 41q0 24 -17 39.5t-41 15.5q-17 0 -30 -6.5t-19 -14.5l-61 22l18 179h199v-65h-140l-6 -64q6 4 18.5 7t26.5 3q54 0 87.5 -31.5t33.5 -84.5q0 -55 -35.5 -88.5t-91.5 -33.5q-51 0 -86.5 29.5z
" />
    <glyph glyph-name="six.dnom" horiz-adv-x="329" 
d="M68.5 37q-32.5 44 -32.5 124q0 95 31.5 145.5t102.5 50.5q47 0 76 -24t38 -65l-60 -18q-7 22 -19.5 32.5t-34.5 10.5q-31 0 -45 -22t-16 -63q6 8 23 16t43 8q51 0 84.5 -32.5t33.5 -85.5q0 -54 -36 -87.5t-90 -33.5q-66 0 -98.5 44zM208 73q16 16 16 41t-16 40.5
t-41 15.5q-26 0 -42 -15.5t-16 -40.5q0 -24 16.5 -40.5t41.5 -16.5t41 16z" />
    <glyph glyph-name="seven.dnom" horiz-adv-x="278" 
d="M119 151.5q29 83.5 59 134.5h-154v64h231v-64q-34 -52 -65 -135.5t-41 -150.5h-69q10 68 39 151.5z" />
    <glyph glyph-name="eight.dnom" horiz-adv-x="323" 
d="M276 152q11 -21 11 -47q0 -49 -36 -80.5t-89 -31.5q-54 0 -90 31.5t-36 80.5q0 26 11 47t31 36q-29 27 -29 68q0 44 32.5 72.5t80.5 28.5t80.5 -28.5t32.5 -72.5q0 -41 -29 -68q19 -15 30 -36zM129.5 225.5q13.5 -11.5 32.5 -11.5t32.5 11.5t13.5 30.5t-13.5 30.5
t-32.5 11.5t-32.5 -11.5t-13.5 -30.5t13.5 -30.5zM202.5 69q16.5 14 16.5 37t-16.5 37.5t-40.5 14.5t-40.5 -14.5t-16.5 -37.5t16.5 -37t40.5 -14t40.5 14z" />
    <glyph glyph-name="nine.dnom" horiz-adv-x="328" 
d="M83 17q-29 24 -38 65l60 18q7 -22 19.5 -32.5t34.5 -10.5q58 0 61 86q-6 -8 -23 -16.5t-43 -8.5q-51 0 -84.5 32.5t-33.5 86.5t36 87t90 33q66 0 98 -44t32 -124q0 -95 -31 -145.5t-102 -50.5q-47 0 -76 24zM203.5 196q16.5 16 16.5 40t-16.5 40.5t-41.5 16.5t-41 -16
t-16 -41t16 -40.5t41 -15.5t41.5 16z" />
    <glyph glyph-name="zero.numr" horiz-adv-x="336" 
d="M69.5 393q-33.5 50 -33.5 132q0 80 34 131t98 51q65 0 98.5 -50.5t33.5 -131.5t-33.5 -131.5t-97.5 -50.5q-66 0 -99.5 50zM215 437.5q15 31.5 15 87.5q0 54 -15.5 85.5t-46.5 31.5q-32 0 -47.5 -31t-15.5 -86q0 -56 15.5 -87.5t48.5 -31.5q31 0 46 31.5z" />
    <glyph glyph-name="one.numr" horiz-adv-x="209" 
d="M87 623q-13 -8 -33.5 -15t-35.5 -9v68q14 3 35.5 13t33.5 20h68v-350h-68v273z" />
    <glyph glyph-name="two.numr" horiz-adv-x="315" 
d="M43 415l119 102q26 24 36.5 40t10.5 37q0 20 -14.5 34.5t-37.5 14.5q-26 0 -42 -17t-15 -46l-64 18q2 49 36.5 79t84.5 30q51 0 86.5 -32t35.5 -80q0 -37 -17 -64.5t-51 -57.5l-69 -58h137v-65h-236v65z" />
    <glyph glyph-name="three.numr" horiz-adv-x="325" 
d="M71.5 373.5q-34.5 30.5 -35.5 74.5l64 18q1 -25 17.5 -41.5t42.5 -16.5t43 15.5t17 40.5t-16.5 41t-43.5 16q-10 0 -21 -3l-35 41l81 77h-136v64h217v-64l-62 -62q36 -6 60.5 -34t24.5 -76q0 -53 -36.5 -87t-92.5 -34q-54 0 -88.5 30.5z" />
    <glyph glyph-name="four.numr" horiz-adv-x="309" 
d="M180 437h-156v50l150 213h74v-205h37v-58h-37v-87h-69zM180 495l-1 111l-80 -111h81z" />
    <glyph glyph-name="five.numr" horiz-adv-x="322" 
d="M72.5 372.5q-35.5 29.5 -36.5 70.5l65 20q1 -25 17 -40t41 -15t41.5 16t16.5 41q0 24 -17 39.5t-41 15.5q-17 0 -30 -6.5t-19 -14.5l-61 22l18 179h199v-65h-140l-6 -64q6 4 18.5 7t26.5 3q54 0 87.5 -31.5t33.5 -84.5q0 -55 -35.5 -88.5t-91.5 -33.5q-51 0 -86.5 29.5z
" />
    <glyph glyph-name="six.numr" horiz-adv-x="329" 
d="M68.5 387q-32.5 44 -32.5 124q0 95 31.5 145.5t102.5 50.5q47 0 76 -24t38 -65l-60 -18q-7 22 -19.5 32.5t-34.5 10.5q-31 0 -45 -22t-16 -63q6 8 23 16t43 8q51 0 84.5 -32.5t33.5 -85.5q0 -54 -36 -87.5t-90 -33.5q-66 0 -98.5 44zM208 423q16 16 16 41t-16 40.5
t-41 15.5q-26 0 -42 -15.5t-16 -40.5q0 -24 16.5 -40.5t41.5 -16.5t41 16z" />
    <glyph glyph-name="seven.numr" horiz-adv-x="278" 
d="M119 501.5q29 83.5 59 134.5h-154v64h231v-64q-34 -52 -65 -135.5t-41 -150.5h-69q10 68 39 151.5z" />
    <glyph glyph-name="eight.numr" horiz-adv-x="323" 
d="M276 502q11 -21 11 -47q0 -49 -36 -80.5t-89 -31.5q-54 0 -90 31.5t-36 80.5q0 26 11 47t31 36q-29 27 -29 68q0 44 32.5 72.5t80.5 28.5t80.5 -28.5t32.5 -72.5q0 -41 -29 -68q19 -15 30 -36zM129.5 575.5q13.5 -11.5 32.5 -11.5t32.5 11.5t13.5 30.5t-13.5 30.5
t-32.5 11.5t-32.5 -11.5t-13.5 -30.5t13.5 -30.5zM202.5 419q16.5 14 16.5 37t-16.5 37.5t-40.5 14.5t-40.5 -14.5t-16.5 -37.5t16.5 -37t40.5 -14t40.5 14z" />
    <glyph glyph-name="nine.numr" horiz-adv-x="328" 
d="M83 367q-29 24 -38 65l60 18q7 -22 19.5 -32.5t34.5 -10.5q58 0 61 86q-6 -8 -23 -16.5t-43 -8.5q-51 0 -84.5 32.5t-33.5 86.5t36 87t90 33q66 0 98 -44t32 -124q0 -95 -31 -145.5t-102 -50.5q-47 0 -76 24zM203.5 546q16.5 16 16.5 40t-16.5 40.5t-41.5 16.5t-41 -16
t-16 -41t16 -40.5t41 -15.5t41.5 16z" />
    <glyph glyph-name="periodcentered.case" horiz-adv-x="196" 
d="M50.5 302.5q-19.5 19.5 -19.5 47.5t19.5 47.5t47.5 19.5t47.5 -19.5t19.5 -47.5t-19.5 -47.5t-47.5 -19.5t-47.5 19.5z" />
    <glyph glyph-name="bullet.case" horiz-adv-x="252" 
d="M58.5 282.5q-27.5 27.5 -27.5 67.5q0 39 28 67t68 28q38 0 66 -28t28 -67q0 -40 -27.5 -67.5t-66.5 -27.5q-41 0 -68.5 27.5z" />
    <glyph glyph-name="exclamdown.case" horiz-adv-x="288" 
d="M191 687.5q20 -19.5 20 -46.5t-20 -47.5t-47 -20.5q-28 0 -47.5 20t-19.5 46q0 27 19.5 47.5t47.5 20.5q27 0 47 -19.5zM194 510v-510h-100v510h100z" />
    <glyph glyph-name="questiondown.case" horiz-adv-x="518" 
d="M204.5 592.5q-19.5 19.5 -19.5 47.5t19.5 47.5t47.5 19.5t47.5 -19.5t19.5 -47.5t-19.5 -47.5t-47.5 -19.5t-47.5 19.5zM487 189q-3 -60 -33 -106.5t-80 -72t-112 -25.5q-65 0 -117.5 28t-83 77t-30.5 110q0 78 45 137.5t128 80.5v96h99v-164h-18q-75 0 -115.5 -41
t-42.5 -104q0 -55 37.5 -91.5t95.5 -36.5q63 0 99.5 37t37.5 99z" />
    <glyph glyph-name="braceleft.case" horiz-adv-x="278" 
d="M197 -121q-43 0 -75.5 28.5t-32.5 80.5v260q0 29 -14.5 43t-38.5 14v93q24 0 38.5 14t14.5 43v255q0 52 32.5 80.5t75.5 28.5h45v-88h-22q-35 -1 -35 -55v-249q0 -51 -31 -77q16 -13 23.5 -31t7.5 -45v-252q0 -54 35 -55h22v-88h-45z" />
    <glyph glyph-name="braceright.case" horiz-adv-x="278" 
d="M36 -33h22q35 1 35 55v252q0 27 7.5 45t23.5 31q-31 26 -31 77v249q0 54 -35 55h-22v88h45q43 0 75.5 -28.5t32.5 -80.5v-255q0 -29 14.5 -43t38.5 -14v-93q-24 0 -38.5 -14t-14.5 -43v-260q0 -52 -32.5 -80.5t-75.5 -28.5h-45v88z" />
    <glyph glyph-name="bracketleft.case" horiz-adv-x="232" 
d="M36 820h160v-88h-68v-764h68v-88h-160v940z" />
    <glyph glyph-name="bracketright.case" horiz-adv-x="232" 
d="M36 -32h68v764h-68v88h160v-940h-160v88z" />
    <glyph glyph-name="parenleft.case" horiz-adv-x="273" 
d="M74 79.5q-38 120.5 -38 270.5q0 151 38 271t93 198l78 -51q-47 -66 -80 -174.5t-33 -245.5q0 -134 33.5 -241.5t79.5 -175.5l-79 -52q-54 80 -92 200.5z" />
    <glyph glyph-name="parenright.case" horiz-adv-x="273" 
d="M28 -68q46 68 79.5 175.5t33.5 241.5q0 137 -33 245.5t-80 174.5l78 51q55 -78 93 -198t38 -271q0 -150 -38 -270.5t-92 -200.5z" />
    <glyph glyph-name="emdash.case" horiz-adv-x="1100" 
d="M50 394h1000v-90h-1000v90z" />
    <glyph glyph-name="endash.case" horiz-adv-x="600" 
d="M50 394h500v-90h-500v90z" />
    <glyph glyph-name="hyphen.case" horiz-adv-x="361" 
d="M50 396h261v-90h-261v90z" />
    <glyph glyph-name="guillemotleft.case" horiz-adv-x="498" 
d="M245 533l-93 -184l93 -186h-101l-94 186l93 184h102zM355 349l93 -186h-101l-94 186l93 184h102z" />
    <glyph glyph-name="guillemotright.case" horiz-adv-x="498" 
d="M448 350l-94 -186h-101l93 186l-93 184h102zM245 350l-94 -186h-101l93 186l-93 184h102z" />
    <glyph glyph-name="guilsinglleft.case" horiz-adv-x="295" 
d="M152 351l93 -186h-101l-94 186l93 184h102z" />
    <glyph glyph-name="guilsinglright.case" horiz-adv-x="295" 
d="M245 351l-94 -186h-101l93 186l-93 184h102z" />
    <glyph glyph-name="at.case" horiz-adv-x="839" 
d="M610.5 671q82.5 -45 128 -127t45.5 -189q0 -85 -43 -135t-116 -50q-40 0 -67.5 14.5t-39.5 39.5q-52 -54 -120 -54q-70 0 -108.5 47.5t-38.5 115.5q0 49 20.5 93t59.5 72t93 28q35 0 60.5 -12.5t40.5 -32.5l7 35h63l-19 -217v-10q-2 -20 10.5 -33t38.5 -13q39 0 61 32.5
t22 79.5q0 88 -35 153t-100 100t-152 35q-82 0 -148 -39t-103.5 -106t-37.5 -148q0 -80 38.5 -147t105 -106t145.5 -39q44 0 85 13t68 32l41 -59q-35 -25 -86.5 -42t-107.5 -17q-101 0 -184.5 48.5t-132.5 132t-49 184.5q0 99 49 183t133 133.5t184 49.5q107 0 189.5 -45z
M484 277q28 36 28 82q0 40 -21.5 68t-62.5 28q-47 0 -75.5 -36.5t-28.5 -82.5q0 -40 22 -67.5t63 -27.5q47 0 75 36z" />
    <glyph glyph-name="uni0308.case" horiz-adv-x="0" 
d="M-132.5 789q-19.5 19 -19.5 45t19.5 45t45.5 19t45 -19t19 -45t-19 -45t-45 -19t-45.5 19zM42 789q-19 19 -19 45t19 45t45 19q27 0 45.5 -19t18.5 -45t-18.5 -45t-45.5 -19q-26 0 -45 19z" />
    <glyph glyph-name="uni0307.case" horiz-adv-x="0" 
d="M-45 790.5q-19 18.5 -19 45.5q0 26 19 45t46 19q26 0 44.5 -19t18.5 -45q0 -27 -18.5 -45.5t-44.5 -18.5q-27 0 -46 18.5z" />
    <glyph glyph-name="gravecomb.case" horiz-adv-x="0" 
d="M-149 897h127l67 -126h-87z" />
    <glyph glyph-name="acutecomb.case" horiz-adv-x="0" 
d="M22 897h127l-107 -126h-87z" />
    <glyph glyph-name="uni0302.case" horiz-adv-x="0" 
d="M56 771l-56 63l-56 -63h-86l90 126h103l90 -126h-85z" />
    <glyph glyph-name="uni030A.case" horiz-adv-x="0" 
d="M-64 772q-27 27 -27 65t27 65t64 27q38 0 65 -27t27 -65q0 -37 -27 -64.5t-65 -27.5q-37 0 -64 27zM24 813q10 10 10 24t-10 24t-24 10t-24 -10t-10 -24t10 -24t24 -10t24 10z" />
    <glyph glyph-name="tildecomb.case" horiz-adv-x="0" 
d="M25.5 782.5q-15.5 5.5 -34.5 15.5q-28 15 -45 15q-13 0 -26 -9t-22 -28l-55 37q15 39 40.5 57t55.5 18q20 0 35 -5t34 -15q17 -8 27 -12t22 -4q27 0 47 40l57 -39q-14 -38 -40 -57t-59 -19q-21 0 -36.5 5.5z" />
    <glyph glyph-name="uni0304.case" horiz-adv-x="0" 
d="M-106 872h212v-76h-212v76z" />
    <glyph glyph-name="uni0327.case" horiz-adv-x="0" 
d="M-64 -196.5q-26 20.5 -28 50.5l55 19q0 -16 9.5 -25.5t26.5 -9.5q16 0 25.5 9.5t9.5 25.5q0 15 -10 24t-25 9t-22 -7l-44 25l45 84l54 -8l-22 -42q36 -1 60 -23t24 -58q0 -43 -26 -68.5t-69 -25.5q-37 0 -63 20.5z" />
    <glyph glyph-name="uni0328.case" horiz-adv-x="0" 
d="M79 -183q-51 0 -80.5 24.5t-29.5 64.5q0 39 21.5 68t53.5 48l62 -22q-62 -32 -62 -75q0 -18 13 -29.5t37 -11.5h6l-1 -66q-7 -1 -20 -1z" />
    <glyph glyph-name="uni0335.case" horiz-adv-x="0" 
d="M-106 874h212v-76h-212v76z" />
    <glyph glyph-name="uni0338.case" horiz-adv-x="0" 
d="M-431 1l529 742l69 -51l-528 -741z" />
    </font>
</defs>
</svg>
